<?xml version="1.0" encoding="UTF-8" standalone="no"?>
<!-- Created with Inkscape (http://www.inkscape.org/) -->

<svg
   xmlns:dc="http://purl.org/dc/elements/1.1/"
   xmlns:cc="http://creativecommons.org/ns#"
   xmlns:rdf="http://www.w3.org/1999/02/22-rdf-syntax-ns#"
   xmlns:svg="http://www.w3.org/2000/svg"
   xmlns="http://www.w3.org/2000/svg"
   xmlns:sodipodi="http://sodipodi.sourceforge.net/DTD/sodipodi-0.dtd"
   xmlns:inkscape="http://www.inkscape.org/namespaces/inkscape"
   width="452.42184"
   height="417.48541"
   id="svg2"
   version="1.1"
   inkscape:version="0.48+devel r"
   sodipodi:docname="dark_duck.svg"
   inkscape:export-filename="/home/aaron/Projects/Game-Design-Project/dark_duck.png"
   inkscape:export-xdpi="90"
   inkscape:export-ydpi="90">
  <defs
     id="defs4" />
  <sodipodi:namedview
     id="base"
     pagecolor="#ffffff"
     bordercolor="#666666"
     borderopacity="1.0"
     inkscape:pageopacity="0.0"
     inkscape:pageshadow="2"
     inkscape:zoom="1.4"
     inkscape:cx="281.38931"
     inkscape:cy="246.27871"
     inkscape:document-units="px"
     inkscape:current-layer="layer4"
     showgrid="false"
     inkscape:window-width="1280"
     inkscape:window-height="744"
     inkscape:window-x="0"
     inkscape:window-y="27"
     inkscape:window-maximized="1"
     width="0px"
     height="0px"
     fit-margin-top="50"
     fit-margin-left="50"
     fit-margin-right="50"
     fit-margin-bottom="50" />
  <metadata
     id="metadata7">
    <rdf:RDF>
      <cc:Work
         rdf:about="">
        <dc:format>image/svg+xml</dc:format>
        <dc:type
           rdf:resource="http://purl.org/dc/dcmitype/StillImage" />
        <dc:title></dc:title>
      </cc:Work>
    </rdf:RDF>
  </metadata>
  <g
     inkscape:label="Layer 1"
     inkscape:groupmode="layer"
     id="layer1"
     style="display:inline"
     transform="translate(-509.23513,-106.43566)">
    <path
       style="fill:#595959;fill-opacity:1;stroke:none"
       d="m 562.85714,285.93361 1.42857,35.71429 -2.85714,32.85714 0,14.28571 14.28572,21.42857 23.57142,20.71429 25,9.28571 18.57143,5.71429 25.71429,16.42857 22.14286,10 22.85714,5 37.85714,9.28572 25.71429,5.71428 20.71428,-5 20.71429,-6.42857 20,-9.28571 14.28571,-8.57143 10,-8.57143 L 875,421.6479 885.71429,409.50504 889.28572,396.6479 880.71429,378.79075 870,353.07647 l 0,-26.42857 2.14286,-30 0.71428,-27.14286 -1.42857,-14.28572 -3.57143,-14.28571 L 860,228.07647 l -12.85714,-8.57143 -16.42857,-1.42857 -16.42857,2.14285 -14.28572,10 -10.71428,13.57143 -5,10 L 785,266.6479 c 0,0 5.71429,11.42857 5,15 -0.71428,3.57142 2.85714,14.28571 2.85714,14.28571 l 2.85715,11.42857 -17.14286,-11.42857 -17.85714,-10 -23.21429,-7.85714 -21.78571,0 -23.57143,6.42857 -22.14286,5 -18.57143,6.42857 -25.71428,2.85714 -16.42858,2.85715 L 585.71429,295.93361 Z"
       id="path4200"
       inkscape:connector-curvature="0"
       sodipodi:nodetypes="ccccccccccccccccccccccccccccccccccccsccccccccccccc" />
    <path
       style="fill:#000000;fill-opacity:1;fill-rule:nonzero;stroke:#000000;stroke-width:0;stroke-miterlimit:4;stroke-opacity:1;stroke-dasharray:none"
       id="path3994"
       d="m 564.3531,293.45412 c 0.39452,0.40473 0.67351,0.9101 0.96134,1.39319 0.42749,0.77488 0.74223,1.60816 1.03226,2.44257 0.37764,1.1091 0.62091,2.25562 0.84545,3.40341 0.26334,1.41381 0.43987,2.84194 0.59696,4.27087 0.2135,1.7248 0.23107,3.4643 0.24187,5.19958 -0.006,2.12271 -0.19229,4.23833 -0.39036,6.34996 -0.22784,2.39312 -0.56269,4.77416 -0.89949,7.15386 -0.38609,2.60085 -0.76821,5.20236 -1.16047,7.8023 -0.42886,2.68652 -0.76762,5.38549 -1.08326,8.08723 -0.32122,2.76375 -0.49703,5.54265 -0.6253,8.3213 -0.0998,2.70491 -0.0756,5.41133 0.0617,8.11403 0.13438,2.61157 0.5209,5.19895 0.99237,7.76805 0.4494,2.52185 1.19394,4.9743 2.06069,7.3803 0.87878,2.43596 2.01609,4.76663 3.25575,7.03645 1.2416,2.31354 2.72974,4.47065 4.35064,6.53083 1.75135,2.16925 3.714,4.15411 5.71533,6.09047 2.16573,2.04138 4.4237,3.98131 6.75212,5.83401 2.42744,1.92389 4.9633,3.70473 7.53758,5.4251 2.63599,1.78205 5.364,3.41764 8.11563,5.01267 2.76568,1.60277 5.61898,3.04394 8.47563,4.47528 2.85159,1.43989 5.7297,2.82617 8.62647,4.17261 2.83046,1.32863 5.70406,2.56034 8.5749,3.79798 2.75794,1.19849 5.51912,2.39028 8.26006,3.62737 2.52878,1.14435 5.04581,2.31437 7.56258,3.48478 2.37001,1.09076 4.72022,2.22386 7.04317,3.41146 2.22723,1.14174 4.45462,2.28322 6.65524,3.47561 2.19922,1.14218 4.39221,2.29387 6.55632,3.5014 2.20766,1.2458 4.42086,2.4813 6.66658,3.65733 2.35105,1.20063 4.70691,2.39249 7.07999,3.54903 2.39809,1.2074 4.83483,2.33335 7.28882,3.42159 2.47389,1.09502 4.99539,2.07434 7.532,3.01283 2.49855,0.91924 5.04791,1.6845 7.60822,2.40929 2.44632,0.67313 4.91764,1.2469 7.41105,1.71459 2.3719,0.41949 4.76428,0.72632 7.1621,0.95169 2.28206,0.22031 4.57137,0.32289 6.86188,0.39803 2.1556,0.0521 4.31094,-0.003 6.46534,-0.0719 2.04073,-0.0684 4.07802,-0.21739 6.11612,-0.33946 1.89338,-0.0875 3.78149,-0.25179 5.67027,-0.40558 1.70805,-0.10333 3.40797,-0.29899 5.1092,-0.47772 1.64818,-0.1652 3.28804,-0.40141 4.93303,-0.59486 1.71651,-0.22146 3.42567,-0.49253 5.13716,-0.74848 1.87666,-0.32299 3.75842,-0.61385 5.63822,-0.91759 2.01249,-0.3175 4.02773,-0.61682 6.04205,-0.92274 2.01466,-0.29289 4.02389,-0.61984 6.03955,-0.90644 1.90602,-0.26922 3.8174,-0.49765 5.73039,-0.71089 1.71445,-0.17754 3.42159,-0.41767 5.13266,-0.62413 1.41138,-0.149 2.81474,-0.35602 4.21693,-0.57307 0.49447,-0.0692 0.97327,-0.20306 1.44938,-0.34814 4.96267,-1.56435 6.15209,2.20892 1.18942,3.77327 l 0,0 c -0.64228,0.20701 -1.28684,0.40632 -1.95291,0.5247 -1.44729,0.27814 -2.89686,0.54621 -4.36147,0.71796 -1.72819,0.2486 -3.45576,0.5064 -5.19083,0.70245 -1.86872,0.22464 -3.73551,0.46573 -5.59669,0.7468 -2.00987,0.30355 -4.01611,0.63069 -6.02704,0.92687 -1.99926,0.2913 -3.99718,0.59204 -5.99662,0.8821 -1.89763,0.30482 -3.80065,0.5731 -5.69957,0.86963 -1.75248,0.25717 -3.50551,0.50938 -5.26406,0.72196 -1.65837,0.19726 -3.31405,0.41637 -4.97373,0.60165 -1.73089,0.19274 -3.46056,0.39655 -5.19602,0.54497 -1.91656,0.17259 -3.8324,0.35494 -5.75395,0.46433 -2.07533,0.14487 -4.14999,0.30763 -6.22911,0.38886 -2.25042,0.0976 -4.50151,0.17076 -6.75452,0.12647 -2.38294,-0.0609 -4.76439,-0.1591 -7.13943,-0.3711 -2.53283,-0.23013 -5.06428,-0.51342 -7.56848,-0.96379 -2.62323,-0.48251 -5.229,-1.05138 -7.80122,-1.76102 -2.68799,-0.73425 -5.36002,-1.53227 -7.97695,-2.49304 -2.62622,-0.97472 -5.23572,-1.99441 -7.7958,-3.13339 -2.49915,-1.11858 -4.98196,-2.27171 -7.43192,-3.495 -2.40881,-1.18187 -4.79123,-2.41675 -7.17484,-3.64847 -2.27964,-1.2016 -4.53138,-2.45566 -6.7646,-3.74141 -2.13276,-1.20872 -4.30091,-2.34985 -6.47709,-3.47836 -2.17501,-1.16389 -4.37275,-2.28318 -6.57197,-3.40041 -2.28374,-1.14897 -4.58743,-2.25776 -6.9252,-3.29315 -2.50032,-1.15535 -5.01406,-2.28213 -7.53659,-3.38804 -2.72648,-1.20441 -5.47063,-2.36776 -8.21138,-3.5392 -2.92539,-1.23085 -5.84099,-2.48464 -8.71756,-3.82665 -2.94552,-1.35586 -5.86926,-2.75907 -8.76515,-4.2181 -2.94488,-1.47337 -5.87999,-2.96682 -8.73345,-4.61284 -2.83642,-1.65386 -5.65434,-3.34248 -8.37228,-5.18688 -2.66807,-1.81184 -5.30662,-3.66982 -7.82454,-5.68761 -2.42603,-1.96133 -4.8066,-3.98233 -7.04183,-6.16112 -2.14529,-2.08744 -4.23601,-4.23559 -6.09293,-6.58846 -1.76032,-2.26533 -3.37201,-4.63588 -4.73863,-7.16255 -1.34847,-2.47819 -2.57393,-5.02495 -3.53186,-7.68233 -0.93368,-2.64055 -1.75722,-5.32192 -2.25442,-8.08341 -0.49955,-2.76269 -0.92213,-5.54085 -1.07811,-8.34735 -0.14093,-2.84455 -0.1886,-5.69377 -0.0848,-8.54078 0.1228,-2.89099 0.29948,-5.78065 0.66022,-8.65327 0.33039,-2.7515 0.70459,-5.49743 1.13983,-8.23447 0.40337,-2.59459 0.79702,-5.19052 1.22927,-7.78052 0.36955,-2.31064 0.69634,-4.62833 0.96544,-6.95293 0.23453,-1.96476 0.43189,-3.93699 0.50362,-5.91509 0.0274,-1.58553 0.0644,-3.1743 -0.10698,-4.75418 -0.13132,-1.33418 -0.26581,-2.66836 -0.46447,-3.99461 -0.15445,-0.97419 -0.32883,-1.94849 -0.60984,-2.89534 -0.18327,-0.60558 -0.36774,-1.21611 -0.62203,-1.79554 -0.17089,-0.32622 -0.34842,-0.64985 -0.53276,-0.96795 C 558.50517,291.98594 561.35479,289.70625 564.3531,293.45412 Z"
       inkscape:connector-curvature="0" />
    <path
       style="fill:#000000;fill-opacity:1;fill-rule:nonzero;stroke:#000000;stroke-width:0;stroke-miterlimit:4;stroke-opacity:1;stroke-dasharray:none"
       id="path3996"
       d="m 888.1156,397.36635 c 0.36565,0.59646 0.55952,1.26827 0.70687,1.9462 0.21107,0.95931 0.15931,1.93662 0.0795,2.90658 -0.14291,1.26705 -0.43747,2.50802 -0.77207,3.73599 -0.43798,1.64048 -1.0999,3.20668 -1.78897,4.75437 -0.8718,1.92955 -1.91858,3.77331 -3.01984,5.57943 -1.28885,2.08335 -2.71703,4.07554 -4.18982,6.03156 -1.68942,2.21459 -3.54538,4.29069 -5.45214,6.3182 -2.08117,2.2408 -4.31167,4.33306 -6.55687,6.40672 -2.54303,2.3225 -5.22466,4.48574 -7.94894,6.59026 -2.99417,2.28936 -6.07031,4.46964 -9.17797,6.60157 -3.36634,2.28235 -6.8447,4.39146 -10.37267,6.41255 -3.77865,2.14713 -7.67769,4.069 -11.5967,5.94347 -4.03754,1.88215 -8.15059,3.59335 -12.30009,5.21123 -4.03644,1.51836 -8.11947,2.91223 -12.24996,4.15175 -3.70197,1.1094 -7.46157,1.99921 -11.25541,2.72745 -3.30629,0.61298 -6.64799,0.96567 -10.0038,1.13788 -2.9942,0.13762 -5.98675,-0.0245 -8.96494,-0.32858 -2.70985,-0.2681 -5.39959,-0.69236 -8.08505,-1.13617 -2.49269,-0.45768 -4.98686,-0.90717 -7.48003,-1.36215 -2.03868,-0.35744 -4.07533,-0.72629 -6.11217,-1.09403 -0.84324,-0.14469 -1.68245,-0.3104 -2.52079,-0.48071 -5.32813,-1.00703 -4.56245,-5.05816 0.76567,-4.05113 l 0,0 c 0.80614,0.14046 1.61126,0.28969 2.42365,0.39056 2.06051,0.29352 4.12162,0.58384 6.17748,0.90866 2.49779,0.39187 4.98828,0.82604 7.47628,1.27568 2.58485,0.42807 5.17636,0.81772 7.78696,1.05504 2.7466,0.24619 5.50586,0.38606 8.26238,0.21174 3.13564,-0.20898 6.25561,-0.5866 9.33713,-1.2161 3.62182,-0.75456 7.20446,-1.68834 10.73475,-2.79656 3.99534,-1.25053 7.94903,-2.62894 11.86256,-4.1163 4.03695,-1.58062 8.0402,-3.24704 11.97549,-5.06791 3.82017,-1.79248 7.61108,-3.65158 11.30484,-5.69431 3.4258,-1.93192 6.81579,-3.9316 10.08789,-6.11632 3.05096,-2.06078 6.06715,-4.17316 9.02143,-6.37082 2.63968,-1.98957 5.25376,-4.0179 7.72197,-6.21935 2.1894,-1.97058 4.36883,-3.95498 6.39217,-6.09881 1.81505,-1.89698 3.61014,-3.8179 5.23068,-5.88658 1.41636,-1.81635 2.78072,-3.67431 4.031,-5.60984 1.03545,-1.65148 2.05858,-3.31427 2.90265,-5.07428 0.65426,-1.33676 1.27257,-2.69519 1.72067,-4.11711 0.31434,-0.99424 0.58555,-2.0028 0.76414,-3.03103 0.0833,-0.58387 0.17994,-1.17184 0.0744,-1.76037 -0.0533,-0.35666 -0.167,-0.68733 -0.25964,-1.03475 C 882.69961,394.70274 885.96696,393.06907 888.1156,397.36635 Z"
       inkscape:connector-curvature="0" />
    <path
       style="fill:#000000;fill-opacity:1;fill-rule:nonzero;stroke:#000000;stroke-width:0;stroke-miterlimit:4;stroke-opacity:1;stroke-dasharray:none"
       id="path4004"
       d="m 774.28988,370.67515 c 0.50596,-0.29086 0.99862,-0.60484 1.48765,-0.92322 0.83934,-0.57114 1.66903,-1.15724 2.47961,-1.7686 0.98124,-0.76242 1.92465,-1.57146 2.84264,-2.40848 1.0359,-0.91321 1.9195,-1.97365 2.77811,-3.04979 1.03198,-1.2969 1.88905,-2.71716 2.69766,-4.16008 0.96739,-1.72112 1.75066,-3.53507 2.52183,-5.34978 0.8114,-1.97455 1.56307,-3.97412 2.27124,-5.98791 0.66406,-1.93846 1.27375,-3.89823 1.76424,-5.8881 0.45874,-1.87963 0.80432,-3.78183 1.0816,-5.6957 0.27665,-1.86656 0.40989,-3.74615 0.46707,-5.63073 0.0711,-1.94598 -0.002,-3.8939 -0.13555,-5.83545 -0.16152,-2.16301 -0.4027,-4.31927 -0.65041,-6.47383 -0.26338,-2.28775 -0.63242,-4.56089 -0.99272,-6.83475 -0.38898,-2.34408 -0.75412,-4.69228 -1.14726,-7.03565 -0.35436,-2.25707 -0.75615,-4.50579 -1.18952,-6.7489 -0.40787,-2.19095 -0.85664,-4.37437 -1.34542,-6.54869 -0.50313,-2.17264 -0.98943,-4.34904 -1.48085,-6.52437 -0.45501,-2.07069 -0.92715,-4.13752 -1.38025,-6.20863 -0.44942,-2.03381 -0.82205,-4.08338 -1.16148,-6.13806 -0.31535,-1.98801 -0.61815,-3.97863 -0.82801,-5.98079 -0.20991,-2.10987 -0.1831,-4.22907 -0.0905,-6.3439 0.11924,-2.23677 0.48341,-4.44645 0.96048,-6.63162 0.51287,-2.33133 1.32352,-4.57655 2.20496,-6.78945 0.84017,-2.15065 1.92584,-4.18847 3.09906,-6.17269 1.0613,-1.77728 2.22062,-3.49288 3.44894,-5.1583 1.16386,-1.58949 2.48927,-3.04943 3.86105,-4.45973 1.43315,-1.47132 3.02692,-2.77157 4.66079,-4.01116 1.65726,-1.25109 3.43763,-2.31362 5.23888,-3.33966 1.84264,-1.03902 3.78142,-1.88676 5.74616,-2.66358 1.95421,-0.75877 3.95696,-1.38244 5.98421,-1.91226 1.98616,-0.52317 4.0149,-0.82499 6.05191,-1.05945 1.99983,-0.24456 4.01149,-0.27045 6.02255,-0.23643 2.04447,0.0411 4.07244,0.27314 6.09195,0.57769 2.07793,0.30099 4.11584,0.81155 6.12689,1.4059 2.02182,0.60635 3.97349,1.40649 5.87689,2.31309 1.91022,0.897 3.69577,2.01698 5.43267,3.20849 1.71886,1.18606 3.30369,2.54772 4.83911,3.95898 1.47779,1.39508 2.82267,2.91666 4.07667,4.51339 1.14264,1.48018 2.19042,3.02671 3.16637,4.62071 0.86528,1.46679 1.66404,2.97131 2.43077,4.49153 0.68127,1.35982 1.27937,2.75802 1.84768,4.16799 0.49583,1.25152 0.92857,2.52664 1.3379,3.80864 0.36704,1.16655 0.6767,2.34946 0.96789,3.53682 0.28426,1.14895 0.42512,2.32698 0.57608,3.4991 0.1325,1.0762 0.24011,2.15531 0.32916,3.23593 0.0912,0.98171 0.16235,1.96514 0.22692,2.94891 0.0541,0.85151 0.1082,1.70303 0.154,2.55503 0.0386,0.74916 0.0787,1.49826 0.11112,2.24773 0.0238,0.64773 0.0526,1.29513 0.0711,1.94306 0.0336,0.58576 0.0206,1.16872 -0.0419,1.75182 -0.0507,0.48023 -0.11972,0.95533 -0.25255,1.42017 -0.0503,0.12744 -0.10061,0.25488 -0.15091,0.38232 -1.95782,4.43007 -5.32614,2.94148 -3.36831,-1.48859 l 0,0 c -0.007,0.0283 -0.013,0.0566 -0.0195,0.0849 0.0291,-0.16051 0.0759,-0.50229 0.0869,-0.74583 0.0305,-0.41439 0.0135,-0.82434 -0.0248,-1.2386 -0.0381,-0.63823 -0.0663,-1.27692 -0.1096,-1.91482 -0.0433,-0.73389 -0.084,-1.46799 -0.13902,-2.20113 -0.0601,-0.83476 -0.11848,-1.66971 -0.19224,-2.50341 -0.0819,-0.95706 -0.1639,-1.91408 -0.2524,-2.87055 -0.11198,-1.03671 -0.20917,-2.07494 -0.33796,-3.1098 -0.12847,-1.02463 -0.27245,-2.04989 -0.51779,-3.05416 -0.26744,-1.09666 -0.56738,-2.18613 -0.92064,-3.25849 -0.38089,-1.18124 -0.81159,-2.34518 -1.27594,-3.4962 -0.54039,-1.29674 -1.11902,-2.57704 -1.76312,-3.826 -0.73577,-1.41114 -1.49671,-2.81069 -2.31135,-4.17797 -0.90484,-1.44684 -1.87594,-2.84987 -2.92854,-4.19391 -1.13226,-1.41491 -2.33119,-2.77412 -3.66156,-4.00812 -1.37952,-1.28438 -2.82194,-2.50392 -4.3708,-3.58114 -1.54324,-1.07522 -3.14933,-2.0585 -4.84939,-2.86862 -1.69909,-0.81481 -3.44212,-1.52992 -5.25107,-2.06673 -1.8214,-0.53929 -3.66268,-1.01423 -5.54416,-1.29439 -1.8414,-0.2711 -3.68749,-0.50975 -5.55156,-0.54666 -1.82431,-0.043 -3.65005,-0.009 -5.46364,0.21581 -1.83803,0.20208 -3.66567,0.49142 -5.4549,0.96781 -1.85865,0.48129 -3.68719,1.0758 -5.48293,1.75524 -1.78378,0.7121 -3.54739,1.47601 -5.22855,2.40997 -1.64588,0.91896 -3.26071,1.8941 -4.77131,3.02583 -1.47051,1.10187 -2.89955,2.26426 -4.20303,3.5623 -1.23448,1.26123 -2.43213,2.56467 -3.4653,3.99915 -1.12158,1.56602 -2.16502,3.18456 -3.14741,4.84162 -1.03941,1.81121 -2.02163,3.65678 -2.76858,5.61138 -0.79201,2.00752 -1.53722,4.03748 -2.03562,6.14114 -0.45684,1.93297 -0.78746,3.89689 -0.90564,5.88196 -0.10006,1.89693 -0.1352,3.79843 0.0435,5.69257 0.20453,1.91454 0.47981,3.8207 0.80823,5.71794 0.34165,1.97914 0.70118,3.9551 1.13817,5.91584 0.46794,2.05872 0.93323,4.11811 1.4193,6.17264 0.50806,2.18137 0.99521,4.3676 1.50312,6.54902 0.48795,2.21616 0.95441,4.43698 1.37556,6.66692 0.44028,2.27948 0.87109,4.56044 1.24352,6.85228 0.39063,2.35397 0.77969,4.70831 1.15261,7.06513 0.37772,2.34341 0.71434,4.69311 0.99362,7.05044 0.23354,2.22384 0.45569,4.44987 0.59365,6.68201 0.11846,2.08018 0.18638,4.16401 0.10509,6.24731 -0.076,2.0334 -0.20441,4.06498 -0.50716,6.07926 -0.28301,2.05832 -0.6546,4.10232 -1.12696,6.12622 -0.52272,2.12568 -1.13444,4.22899 -1.85091,6.29797 -0.74361,2.10888 -1.50781,4.21301 -2.38752,6.26956 -0.86132,1.94719 -1.73326,3.89543 -2.81478,5.7331 -0.94752,1.62085 -1.96003,3.2084 -3.16413,4.65359 -1.00982,1.22542 -2.06838,2.41321 -3.26865,3.4578 -1.02201,0.91112 -2.0706,1.79107 -3.17208,2.6056 -0.92011,0.67448 -1.87983,1.29119 -2.85681,1.88005 -0.59005,0.33442 -1.1986,0.68848 -1.85033,0.88253 C 771.62627,376.09114 769.99259,372.82379 774.28988,370.67515 Z"
       inkscape:connector-curvature="0" />
    <path
       style="fill:#000000;fill-opacity:1;fill-rule:nonzero;stroke:#000000;stroke-width:0;stroke-miterlimit:4;stroke-opacity:1;stroke-dasharray:none"
       id="path4006"
       d="m 875.35154,282.76855 c 0.0105,0.53448 -0.13122,1.05781 -0.22049,1.58176 -0.10437,0.68493 -0.26937,1.3576 -0.40503,2.03649 -0.14603,0.73911 -0.3579,1.46263 -0.55081,2.19034 -0.21121,0.74513 -0.44416,1.48485 -0.72509,2.20674 -0.34117,0.85522 -0.8358,1.61936 -1.42725,2.31969 -0.67086,0.75289 -1.51458,1.29755 -2.39076,1.77843 -0.95878,0.52497 -2.01673,0.78486 -3.08825,0.95008 -1.09694,0.1369 -2.19094,0.0205 -3.26847,-0.19248 -1.03861,-0.19937 -2.0399,-0.55137 -3.00921,-0.96819 -1.06521,-0.47045 -2.04427,-1.107 -3.0047,-1.75957 -0.91145,-0.61215 -1.74691,-1.32556 -2.60509,-2.00797 -0.76685,-0.61245 -1.47476,-1.29326 -2.18659,-1.96754 -0.62531,-0.58013 -1.17856,-1.2289 -1.75224,-1.85805 -0.45633,-0.51086 -0.90325,-1.03002 -1.35106,-1.54832 -3.31681,-3.69979 -0.50375,-6.22166 2.81306,-2.52187 l 0,0 c 0.46504,0.49999 0.93091,0.99928 1.38873,1.50593 0.4967,0.55989 1.00836,1.1069 1.56332,1.60997 0.62036,0.58658 1.25083,1.16442 1.92408,1.69028 0.80895,0.61419 1.59284,1.26101 2.42659,1.84213 0.7567,0.51874 1.5164,1.04274 2.34385,1.444 0.7099,0.31749 1.44384,0.59084 2.20787,0.74569 0.64851,0.13216 1.30168,0.21416 1.96467,0.15631 0.63002,-0.0755 1.25085,-0.23775 1.82172,-0.51956 0.47417,-0.24119 0.94523,-0.50105 1.3257,-0.87982 0.31968,-0.3433 0.55871,-0.74534 0.7496,-1.17335 0.21971,-0.59292 0.40472,-1.19644 0.5861,-1.80213 0.16965,-0.67997 0.36675,-1.35374 0.50775,-2.04034 0.14754,-0.65125 0.31534,-1.29807 0.42581,-1.95704 0.10473,-0.48929 0.21925,-0.97591 0.34039,-1.46091 C 872.54395,277.43998 876.13975,278.03928 875.35154,282.76855 Z"
       inkscape:connector-curvature="0" />
    <path
       style="fill:#000000;fill-opacity:1;fill-rule:nonzero;stroke:#000000;stroke-width:0;stroke-miterlimit:4;stroke-opacity:1;stroke-dasharray:none"
       id="path4008"
       d="m 853.72317,287.57145 c -0.22021,0.54267 -0.45299,1.07969 -0.69563,1.61272 -0.33124,0.74469 -0.62649,1.50558 -0.90937,2.26986 -0.3412,0.96355 -0.67362,1.93008 -1.00915,2.89562 -0.37427,1.10111 -0.74965,2.20184 -1.12732,3.3018 -0.37207,1.1386 -0.73279,2.28082 -1.11315,3.41673 -0.39161,1.13603 -0.8029,2.26488 -1.25062,3.38002 -0.44555,1.08555 -0.97885,2.13088 -1.56211,3.14808 -0.58506,1.02684 -1.27181,1.99199 -2.02576,2.90064 -0.7134,0.90907 -1.51316,1.74021 -2.34059,2.54472 -0.81301,0.7519 -1.6702,1.45649 -2.53224,2.15151 -0.71704,0.58526 -1.47436,1.11781 -2.23053,1.65057 -0.5433,0.38162 -1.08771,0.76166 -1.63203,1.14183 -0.27645,0.2306 -0.56389,0.44733 -0.85164,0.66347 -3.91879,3.01425 -6.21062,0.0347 -2.29183,-2.97957 l 0,0 c 0.30924,-0.24383 0.62162,-0.48367 0.92738,-0.73187 0.52676,-0.3985 1.05356,-0.79696 1.57989,-1.19602 0.67791,-0.5146 1.36304,-1.0215 2.01291,-1.57142 0.76012,-0.63819 1.52503,-1.27259 2.254,-1.94624 0.72627,-0.71924 1.45598,-1.43534 2.08423,-2.24506 0.60804,-0.72452 1.14553,-1.50377 1.62133,-2.32148 0.48753,-0.87366 0.95945,-1.75673 1.3136,-2.69507 0.41937,-1.02782 0.78232,-2.07675 1.14329,-3.12626 0.37008,-1.16725 0.74594,-2.33271 1.1297,-3.49543 0.38987,-1.10432 0.78156,-2.2079 1.17188,-3.31202 0.35912,-0.99038 0.71966,-1.98009 1.09047,-2.96614 0.33847,-0.86099 0.69608,-1.71638 1.10378,-2.54706 0.27584,-0.53062 0.51451,-1.09816 0.87216,-1.5776 C 852.60446,281.6405 855.87181,283.27417 853.72317,287.57145 Z"
       inkscape:connector-curvature="0" />
    <path
       style="fill:#000000;fill-opacity:1;fill-rule:nonzero;stroke:#000000;stroke-width:0;stroke-miterlimit:4;stroke-opacity:1;stroke-dasharray:none"
       id="path4010"
       d="m 875.26642,289.47433 c -0.0525,0.49215 -0.12376,0.98178 -0.18052,1.47372 -0.0851,0.92234 -0.23219,1.83695 -0.35938,2.75403 -0.1418,1.02789 -0.24756,2.06016 -0.34409,3.09311 -0.10449,1.14084 -0.18239,2.28384 -0.254,3.42714 -0.0829,1.11331 -0.0839,2.2337 -0.0411,3.34895 0.0178,1.08875 0.14303,2.16864 0.31104,3.24291 0.16868,1.11146 0.40323,2.21108 0.65712,3.3057 0.26311,1.09754 0.62425,2.16698 0.98094,3.23654 0.41904,1.17205 0.88945,2.32558 1.37462,3.47166 0.52507,1.21733 1.10626,2.40845 1.68148,3.60244 0.62564,1.23887 1.2196,2.49297 1.82222,3.74302 0.59456,1.22186 1.19117,2.44264 1.78824,3.66329 0.5506,1.18691 1.18478,2.33222 1.78932,3.49192 0.65212,1.24733 1.38977,2.44672 2.09676,3.66312 0.80388,1.35216 1.63844,2.68593 2.46516,4.02426 0.96584,1.53279 1.91879,3.07278 2.81624,4.64676 0.94394,1.61359 1.82495,3.26251 2.74154,4.89148 0.84843,1.53994 1.72477,3.06432 2.57053,4.60571 0.75501,1.3868 1.50188,2.77714 2.20462,4.19131 0.65996,1.24999 1.27558,2.52222 1.84664,3.81507 0.50689,1.15396 0.95877,2.33088 1.38168,3.51787 0.37151,1.04346 0.6984,2.10206 1,3.16761 0.28205,0.98046 0.51508,1.97354 0.73352,2.96974 0.21485,0.96027 0.30105,1.94228 0.39856,2.91955 0.0841,0.8824 0.076,1.7709 0.0685,2.6564 -0.0195,0.85534 -0.13779,1.70054 -0.28818,2.54117 -0.13869,0.75842 -0.41596,1.47461 -0.68776,2.19178 -0.29687,0.73612 -0.6852,1.42377 -1.15013,2.06522 -0.43588,0.57472 -0.95194,1.0777 -1.49053,1.55436 -0.51906,0.45882 -1.09985,0.82984 -1.70486,1.16275 -0.61301,0.32455 -1.25848,0.57927 -1.91576,0.79777 -0.79729,0.2526 -1.62599,0.31394 -2.45556,0.34612 -0.90282,0.0254 -1.79149,-0.13184 -2.67265,-0.30773 -0.87711,-0.20221 -1.72765,-0.49421 -2.58095,-0.77615 -0.80666,-0.27305 -1.60509,-0.5703 -2.40175,-0.87125 -0.81089,-0.32096 -1.62281,-0.63912 -2.41961,-0.99393 -0.77984,-0.3428 -1.55756,-0.68944 -2.32997,-1.04882 -0.81463,-0.36638 -1.60637,-0.78074 -2.42236,-1.14374 -0.87753,-0.3924 -1.74655,-0.80347 -2.62211,-1.20013 -0.94234,-0.42385 -1.86989,-0.87864 -2.80548,-1.31715 -1.03988,-0.51145 -2.06357,-1.05685 -3.07753,-1.61788 -1.10022,-0.59145 -2.18396,-1.20997 -3.2402,-1.87686 -1.10461,-0.68573 -2.18665,-1.40568 -3.2243,-2.18925 -1.12804,-0.85331 -2.19838,-1.77664 -3.22293,-2.75084 -1.0779,-1.00821 -2.07768,-2.09292 -3.0605,-3.19249 -1.07527,-1.23376 -2.03583,-2.5576 -2.98431,-3.88912 -0.99574,-1.45068 -1.97109,-2.91483 -2.92021,-4.39636 -1.02442,-1.58764 -1.98169,-3.21742 -2.90577,-4.86511 -0.90001,-1.56017 -1.71482,-3.16687 -2.54746,-4.76339 -0.72926,-1.36009 -1.3897,-2.75446 -2.05816,-4.14479 -0.5684,-1.17203 -1.08627,-2.36768 -1.64234,-3.54533 -0.50403,-1.07334 -0.99428,-2.15323 -1.47396,-3.23768 -0.37562,-0.78606 -0.7438,-1.57416 -1.0798,-2.378 -2.06208,-4.6827 1.49831,-6.25056 3.56039,-1.56786 l 0,0 c 0.3665,0.78572 0.77542,1.54989 1.14341,2.33493 0.47045,1.05273 0.94269,2.10559 1.45295,3.1397 0.55706,1.16961 1.1218,2.33503 1.70543,3.49169 0.64259,1.33662 1.30748,2.66188 2.04759,3.94797 0.85435,1.55203 1.67455,3.12288 2.55935,4.65806 0.89288,1.5796 1.80133,3.15002 2.76776,4.68615 0.9048,1.43457 1.82613,2.8588 2.77542,4.26438 0.84134,1.21692 1.68279,2.43549 2.63951,3.56647 0.90039,1.02177 1.8243,2.02258 2.80727,2.96616 0.91319,0.87216 1.86036,1.70778 2.85554,2.4859 0.93718,0.71463 1.91069,1.37495 2.91379,1.99385 1.01654,0.62416 2.04439,1.22738 3.08789,1.80571 0.92493,0.53696 1.86743,1.04259 2.82051,1.52772 0.90395,0.44335 1.81183,0.87859 2.72106,1.31092 0.873,0.39809 1.74172,0.80552 2.61099,1.2116 0.81574,0.37489 1.61409,0.78457 2.42141,1.17698 0.76708,0.34423 1.53034,0.6963 2.302,1.03033 0.73534,0.32972 1.48432,0.6293 2.23377,0.92518 0.7357,0.29222 1.48564,0.55211 2.23425,0.80865 0.7155,0.24138 1.43017,0.48367 2.16256,0.67016 0.57827,0.1326 1.15768,0.26151 1.75399,0.2747 0.46397,-0.009 0.92511,-0.03 1.37894,-0.13696 0.45529,-0.15122 0.91273,-0.30019 1.33527,-0.53204 0.3641,-0.18306 0.70638,-0.39669 1.00432,-0.67771 0.34569,-0.29214 0.65362,-0.62819 0.93128,-0.98504 0.27962,-0.34388 0.47009,-0.74856 0.65339,-1.14966 0.18789,-0.48556 0.36248,-0.973 0.45479,-1.4878 0.10359,-0.62888 0.20265,-1.25787 0.20748,-1.89737 -0.005,-0.75749 0.0134,-1.51839 -0.0808,-2.27169 -0.0807,-0.82649 -0.16287,-1.65753 -0.35302,-2.46721 -0.19772,-0.90712 -0.41715,-1.8094 -0.68126,-2.69972 -0.29699,-0.97448 -0.60167,-1.94661 -0.95819,-2.9014 -0.41462,-1.08665 -0.84125,-2.16866 -1.32667,-3.22615 -0.57073,-1.22304 -1.16605,-2.43328 -1.808,-3.6209 -0.71599,-1.3553 -1.44939,-2.70111 -2.20824,-4.03301 -0.85548,-1.521 -1.74702,-3.02142 -2.59437,-4.54714 -0.92849,-1.62128 -1.82786,-3.25855 -2.74661,-4.88532 -0.87278,-1.53911 -1.78165,-3.05633 -2.69482,-4.57173 -0.83036,-1.38074 -1.6743,-2.75349 -2.48123,-4.14806 -0.7167,-1.2741 -1.45974,-2.53388 -2.12702,-3.83504 -0.61441,-1.18962 -1.24104,-2.37308 -1.82867,-3.57634 -0.5997,-1.22181 -1.21075,-2.43804 -1.80442,-3.66282 -0.61726,-1.25139 -1.20527,-2.5172 -1.82587,-3.76708 -0.60419,-1.25915 -1.22457,-2.51131 -1.76196,-3.80109 -0.51244,-1.24625 -1.01541,-2.49793 -1.44619,-3.77514 -0.38641,-1.19018 -0.76273,-2.38404 -1.06596,-3.59872 -0.26736,-1.18848 -0.52855,-2.38016 -0.70271,-3.5865 -0.1874,-1.23247 -0.33723,-2.46903 -0.3705,-3.7168 -0.0352,-1.24715 -0.0258,-2.49717 0.0486,-3.74279 0.0828,-1.18552 0.17305,-2.37065 0.29383,-3.553 0.11404,-1.09424 0.23905,-2.18758 0.40714,-3.27505 0.1423,-0.91178 0.30545,-1.8201 0.42653,-2.73505 0.11964,-0.70224 0.2409,-1.4166 0.52252,-2.07521 C 873.32267,283.76849 876.78379,284.92219 875.26642,289.47433 Z"
       inkscape:connector-curvature="0" />
    <path
       style="fill:#000000;fill-opacity:1;fill-rule:nonzero;stroke:#000000;stroke-width:0;stroke-miterlimit:4;stroke-opacity:1;stroke-dasharray:none"
       id="path4012"
       d="m 860.97275,315.93778 c 0.29143,0.50287 0.47908,1.05616 0.72764,1.58071 0.33139,0.70558 0.59912,1.43732 0.84457,2.17636 0.28794,0.78909 0.47648,1.59618 0.54912,2.43235 0.0641,0.78312 -0.13292,1.52524 -0.41263,2.24651 -1.86063,4.57115 -5.33621,3.15645 -3.47558,-1.4147 l 0,0 c 0.0785,-0.15061 0.12614,-0.31172 0.11697,-0.4821 -0.0552,-0.53454 -0.20902,-1.0364 -0.38982,-1.54285 -0.22665,-0.63848 -0.44584,-1.27935 -0.71749,-1.90066 -0.19429,-0.47732 -0.40476,-0.95553 -0.51014,-1.46195 C 855.55675,313.27417 858.8241,311.6405 860.97275,315.93778 Z"
       inkscape:connector-curvature="0" />
    <path
       style="fill:#000000;fill-opacity:1;fill-rule:nonzero;stroke:#000000;stroke-width:0;stroke-miterlimit:4;stroke-opacity:1;stroke-dasharray:none"
       id="path4014"
       d="m 826.8222,243.89747 c 0.0441,0.5206 -0.0444,1.04423 -0.088,1.56311 -0.0446,0.64151 -0.0898,1.28299 -0.12208,1.92526 -0.0426,0.72284 -0.0835,1.44589 -0.11267,2.16941 3e-4,0.66967 0.0474,1.33801 0.12568,2.00273 0.10132,0.79536 0.18257,1.59276 0.26633,2.39007 0.0934,0.67036 0.20946,1.33562 0.36229,1.99474 0.15917,0.66433 0.29849,1.33214 0.48486,1.98951 0.15375,0.60153 0.35192,1.1861 0.55951,1.77039 0.18055,0.5639 0.39549,1.11323 0.61238,1.66361 0.17974,0.50761 0.40618,0.99556 0.63045,1.48448 0.18778,0.40755 0.37703,0.81442 0.56616,1.22136 0.13845,0.29785 0.27693,0.59568 0.41541,0.89351 0.1001,0.21529 0.2002,0.43058 0.3003,0.64586 0.16649,0.47519 0.10854,0.25337 0.19121,0.66069 0.81396,4.70324 -2.76206,5.32213 -3.57602,0.61888 l 0,0 c 0.0451,0.18062 0.0129,0.0727 0.11216,0.31854 -0.10822,-0.21133 -0.21644,-0.42266 -0.32467,-0.63399 -0.14984,-0.2926 -0.29969,-0.58521 -0.44946,-0.87785 -0.20886,-0.40821 -0.41801,-0.81628 -0.62367,-1.22612 -0.27641,-0.55667 -0.53597,-1.11984 -0.75108,-1.70331 -0.23734,-0.58624 -0.45585,-1.17857 -0.66538,-1.77509 -0.24119,-0.65367 -0.46849,-1.31212 -0.64821,-1.98577 -0.21767,-0.71818 -0.38099,-1.44999 -0.5541,-2.17996 -0.19875,-0.81905 -0.34786,-1.64862 -0.46207,-2.48369 -0.0806,-0.78964 -0.17691,-1.57781 -0.26902,-2.36617 -0.089,-0.86317 -0.13344,-1.7283 -0.12406,-2.59655 0.0378,-0.74655 0.0702,-1.49337 0.1202,-2.23926 0.0537,-0.69932 0.10258,-1.39943 0.19657,-2.09484 0.0517,-0.38574 0.1044,-0.77562 0.18258,-1.14955 C 823.1778,239.1043 826.8222,239.1043 826.8222,243.89747 Z"
       inkscape:connector-curvature="0" />
    <path
       style="fill:#000000;fill-opacity:1;fill-rule:nonzero;stroke:#000000;stroke-width:0;stroke-miterlimit:4;stroke-opacity:1;stroke-dasharray:none"
       id="path4016"
       d="m 823.46471,254.89867 c -0.16508,0.007 -0.293,0.075 -0.45427,0.13767 -0.1805,0.0802 -0.33333,0.21001 -0.48031,0.34159 -0.1262,0.18081 -0.21308,0.38245 -0.30861,0.58124 -0.15794,0.3196 -0.24782,0.64963 -0.32431,0.9945 -0.087,0.35055 -0.0752,0.70654 -0.0797,1.06438 0.0438,0.37247 0.10412,0.73926 0.18673,1.10475 0.0883,0.45981 0.2157,0.90585 0.36356,1.3492 0.13552,0.39422 0.28415,0.79354 0.47756,1.16367 0.18817,0.378 0.40116,0.74368 0.64636,1.08757 0.21355,0.32137 0.47461,0.60613 0.75064,0.87409 0.2597,0.27303 0.565,0.4927 0.86385,0.71982 0.26112,0.19747 0.54916,0.35769 0.82941,0.52672 0.17083,0.11506 0.39053,0.22562 0.40852,0.23492 0.0775,0.0256 0.15597,0.0482 0.23432,0.0711 4.62432,1.24099 3.68076,4.757 -0.94356,3.51601 l 0,0 c -0.12823,-0.0321 -0.25649,-0.0641 -0.38349,-0.10079 -0.41202,-0.12571 -0.80158,-0.30028 -1.1697,-0.52449 -0.40296,-0.22525 -0.80574,-0.45273 -1.17693,-0.72876 -0.4392,-0.31357 -0.86882,-0.64025 -1.25688,-1.01681 -0.47004,-0.44942 -0.90935,-0.9333 -1.2676,-1.47813 -0.32196,-0.49769 -0.63983,-0.99689 -0.89649,-1.53241 -0.25777,-0.53824 -0.49467,-1.09001 -0.68365,-1.65618 -0.17572,-0.55935 -0.35046,-1.11687 -0.46193,-1.69367 -0.13825,-0.63298 -0.22626,-1.27689 -0.25297,-1.92462 -0.004,-0.61129 0.0142,-1.22536 0.15538,-1.82325 0.13107,-0.64979 0.32129,-1.28216 0.62175,-1.87578 0.31237,-0.62861 0.6826,-1.22926 1.20481,-1.70769 0.47738,-0.42221 0.99939,-0.79491 1.59507,-1.03291 0.57361,-0.20641 1.18626,-0.38041 1.80248,-0.31614 C 828.25789,251.25427 828.25789,254.89867 823.46471,254.89867 Z"
       inkscape:connector-curvature="0" />
    <path
       style="fill:#000000;fill-opacity:1;fill-rule:nonzero;stroke:#000000;stroke-width:0;stroke-miterlimit:4;stroke-opacity:1;stroke-dasharray:none"
       id="path4171"
       d="m 765.32717,406.84083 c -0.1594,-0.33995 -0.28605,-0.74435 -0.41209,-1.11244 -0.22054,-0.70624 -0.48109,-1.39924 -0.74212,-2.09137 -0.39472,-1.12594 -0.80103,-2.24798 -1.21827,-3.36583 -0.57074,-1.47137 -1.18766,-2.92459 -1.87296,-4.34621 -0.86824,-1.77487 -1.92761,-3.44109 -3.02742,-5.07872 -1.37006,-2.04991 -2.91369,-3.97028 -4.50143,-5.85317 -1.86617,-2.22431 -3.90989,-4.28986 -5.95649,-6.34627 -2.34416,-2.28563 -4.72074,-4.53783 -7.14643,-6.73676 -2.60539,-2.364 -5.34987,-4.56355 -8.15951,-6.67799 -2.91681,-2.15756 -5.97387,-4.11721 -9.10288,-5.95035 -3.05176,-1.82063 -6.26182,-3.33934 -9.52028,-4.74613 -3.22979,-1.38458 -6.53688,-2.57423 -9.87928,-3.65442 -3.3071,-1.06429 -6.68038,-1.90225 -10.06833,-2.66271 -3.46845,-0.80754 -6.96406,-1.48923 -10.47198,-2.09982 -3.50016,-0.62595 -7.02787,-1.07899 -10.56521,-1.43055 -3.50747,-0.36032 -7.03244,-0.47427 -10.55455,-0.58448 -3.39802,-0.0565 -6.79709,-0.0969 -10.19562,-0.079 -3.12943,0.0365 -6.25957,0.0586 -9.38811,0.14524 -2.91603,0.0853 -5.83158,0.18058 -8.74507,0.32975 -2.73779,0.11392 -5.47066,0.31365 -8.20488,0.4892 -2.49671,0.14468 -4.99078,0.33191 -7.48076,0.56508 -2.25892,0.20727 -4.51356,0.46047 -6.76168,0.76308 -2.04606,0.25583 -4.07725,0.60485 -6.10528,0.97368 -1.8659,0.34542 -3.71647,0.76285 -5.56984,1.16813 -1.62128,0.33541 -3.23062,0.72324 -4.84277,1.09903 -1.26177,0.2913 -2.52473,0.57738 -3.78758,0.86392 -0.45561,0.10877 -0.90244,0.24457 -1.34611,0.39359 -4.88801,1.64255 -6.13689,-2.07396 -1.24887,-3.7165 l 0,0 c 0.54557,-0.1834 1.09134,-0.36684 1.64658,-0.51951 1.25075,-0.33387 2.5014,-0.66815 3.75328,-0.9978 1.62265,-0.42399 3.24481,-0.84958 4.88305,-1.21009 1.90524,-0.46189 3.81655,-0.90033 5.73919,-1.28412 2.08597,-0.38786 4.17666,-0.74992 6.27719,-1.05063 2.30507,-0.33649 4.61626,-0.6316 6.93368,-0.86972 2.52704,-0.25731 5.05887,-0.46315 7.59235,-0.64557 2.75923,-0.21516 5.51872,-0.42801 8.28293,-0.56951 2.94726,-0.15949 5.89597,-0.28161 8.84532,-0.39602 3.15961,-0.10294 6.3205,-0.16056 9.48085,-0.23664 3.45987,-0.0497 6.92056,-0.0471 10.38047,7.5e-4 3.63604,0.0966 7.2735,0.22446 10.89461,0.58763 3.65599,0.36824 7.30388,0.8226 10.92188,1.47154 3.58208,0.63856 7.1539,1.33369 10.6967,2.16604 3.524,0.80702 7.03388,1.68225 10.47948,2.783 3.4842,1.12527 6.9432,2.33331 10.30481,3.79067 3.44629,1.47209 6.83394,3.08186 10.0652,4.98736 3.2989,1.92525 6.5287,3.97601 9.58176,6.27571 2.9103,2.22389 5.75271,4.53836 8.44451,7.02471 2.46382,2.27408 4.87,4.6098 7.2393,6.98217 2.1263,2.16798 4.21624,4.37794 6.13348,6.73518 1.65329,2.04336 3.26405,4.12497 4.67226,6.34778 1.16441,1.84008 2.28325,3.71382 3.18716,5.69851 0.68869,1.55569 1.33282,3.13092 1.87922,4.74295 0.39269,1.15149 0.75158,2.31543 1.09014,3.48384 0.2176,0.72797 0.45146,1.4511 0.64912,2.1848 0.15954,0.54813 0.35549,1.08834 0.41709,1.65965 C 769.71119,410.9708 766.11538,411.5701 765.32717,406.84083 Z"
       inkscape:connector-curvature="0" />
    <path
       style="fill:#000000;fill-opacity:1;fill-rule:nonzero;stroke:#000000;stroke-width:0;stroke-miterlimit:4;stroke-opacity:1;stroke-dasharray:none"
       id="path4173"
       d="m 565.68357,286.38148 c 0.52332,0.15262 0.99394,0.42398 1.47669,0.66816 0.5051,0.25533 0.9977,0.5331 1.49314,0.80627 0.54736,0.29861 1.0946,0.59776 1.63988,0.90063 0.59801,0.32442 1.21316,0.61677 1.83557,0.89199 0.89226,0.35554 1.77023,0.74601 2.66313,1.09966 1.13353,0.47162 2.2715,0.93176 3.40903,1.39363 1.23698,0.50972 2.49395,0.96562 3.76393,1.38555 1.41398,0.47006 2.84562,0.8822 4.28153,1.27905 1.60226,0.4321 3.21487,0.82492 4.82644,1.22081 1.70334,0.43845 3.42364,0.80407 5.14948,1.14103 1.79484,0.33879 3.60339,0.59347 5.41314,0.83652 1.86099,0.23732 3.73458,0.37445 5.60897,0.44333 2.00374,0.0671 4.00871,0.0779 6.01322,0.10539 2.05474,0.0355 4.10952,-0.0291 6.15946,-0.16758 2.12456,-0.17097 4.236,-0.46235 6.34423,-0.77003 2.15916,-0.33092 4.29986,-0.77058 6.43634,-1.22276 2.22542,-0.47203 4.44221,-0.98357 6.655,-1.51143 2.17499,-0.53789 4.35563,-1.05308 6.53161,-1.58699 2.04876,-0.50794 4.09382,-1.03055 6.13568,-1.56549 1.90596,-0.52379 3.8033,-1.07854 5.69963,-1.63604 1.8751,-0.54735 3.74181,-1.12335 5.60321,-1.7156 1.93831,-0.64933 3.88249,-1.2822 5.83822,-1.87716 2.12053,-0.63976 4.24302,-1.27298 6.36291,-1.91498 2.37483,-0.74039 4.76165,-1.44235 7.15327,-2.12647 2.53308,-0.71255 5.08089,-1.36981 7.63314,-2.00968 2.61615,-0.63697 5.25109,-1.19439 7.88742,-1.74071 2.54406,-0.52133 5.10459,-0.95705 7.66959,-1.36086 2.29785,-0.35763 4.60273,-0.66715 6.90975,-0.95893 2.07261,-0.26296 4.14762,-0.50023 6.23198,-0.64506 1.86948,-0.14476 3.74391,-0.20451 5.61862,-0.19807 1.66465,0.0418 3.32977,0.0718 4.99285,0.15767 1.45333,0.10875 2.90851,0.19627 4.36044,0.32237 1.38281,0.13492 2.76047,0.31705 4.1323,0.53635 1.38363,0.22231 2.76046,0.48523 4.13147,0.77491 1.43684,0.30636 2.85948,0.67717 4.27563,1.06714 1.49242,0.41061 2.9676,0.88101 4.4339,1.37609 1.43805,0.46776 2.85583,0.99307 4.2727,1.5207 1.33817,0.51964 2.64805,1.10713 3.95479,1.70035 1.16468,0.53991 2.30679,1.12599 3.44912,1.71105 1.01868,0.53786 2.04472,1.06263 3.05303,1.61977 0.9138,0.49178 1.82466,0.98656 2.72113,1.50943 0.83431,0.51074 1.68756,0.98959 2.52451,1.49587 0.80516,0.47452 1.60094,0.96424 2.40603,1.43882 0.73583,0.41607 1.46287,0.84711 2.1963,1.26758 0.67695,0.3753 1.33714,0.77891 1.99532,1.18586 0.50653,0.29139 1.02821,0.55797 1.56483,0.78953 0.56631,0.26791 1.11817,0.5666 1.6938,0.81461 0.56754,0.22256 1.10306,0.51587 1.66045,0.76045 0.46122,0.20315 0.92292,0.4052 1.38462,0.60725 0.18869,0.0826 0.37739,0.16511 0.5661,0.24765 4.50061,1.86795 3.08034,5.2899 -1.42026,3.42195 l 0,0 c -0.1924,-0.0756 -0.3848,-0.15124 -0.57713,-0.22702 -0.49899,-0.19683 -0.9987,-0.39225 -1.49137,-0.60455 -0.54793,-0.24767 -1.08986,-0.50915 -1.64311,-0.74439 -0.5716,-0.25462 -1.13752,-0.52074 -1.69569,-0.80372 -0.67771,-0.30059 -1.35086,-0.61321 -1.99053,-0.98983 -0.64244,-0.36796 -1.27999,-0.74503 -1.92997,-1.09934 -0.75516,-0.41461 -1.4949,-0.8565 -2.25574,-1.26091 -0.83552,-0.47284 -1.65031,-0.98022 -2.47974,-1.46349 -0.8251,-0.49662 -1.66343,-0.97124 -2.48919,-1.46687 -0.85513,-0.50733 -1.74608,-0.94751 -2.62119,-1.41871 -0.9846,-0.52453 -1.98685,-1.017 -2.97844,-1.52809 -1.09078,-0.5508 -2.18659,-1.09305 -3.30159,-1.59335 -1.22375,-0.55055 -2.46287,-1.06808 -3.71499,-1.55071 -1.38186,-0.5122 -2.76821,-1.01021 -4.17045,-1.46447 -1.39666,-0.47771 -2.80433,-0.92412 -4.22471,-1.3262 -1.32793,-0.38449 -2.66209,-0.75117 -4.01524,-1.03707 -1.30397,-0.28345 -2.61534,-0.53357 -3.93191,-0.75113 -1.27146,-0.21108 -2.55013,-0.38493 -3.83544,-0.4855 -1.39767,-0.12187 -2.80016,-0.18015 -4.20102,-0.25332 -1.59996,-0.0656 -3.20255,-0.0702 -4.80363,-0.084 -1.76079,0.005 -3.52126,0.0776 -5.27458,0.24462 -2.00693,0.18717 -4.00808,0.42285 -6.00367,0.70795 -2.25958,0.31642 -4.51641,0.65285 -6.76586,1.03537 -2.4968,0.42558 -4.99,0.87122 -7.47031,1.38564 -2.57877,0.54049 -5.15624,1.09127 -7.71971,1.70043 -2.50836,0.61994 -5.01319,1.25397 -7.50399,1.94164 -2.37792,0.66611 -4.75061,1.35063 -7.12384,2.0332 -2.12362,0.61627 -4.25008,1.22246 -6.37507,1.83388 -1.93868,0.57045 -3.85896,1.20008 -5.7806,1.82506 -1.88868,0.59826 -3.78413,1.17483 -5.68351,1.73823 -1.93051,0.57502 -3.86488,1.1374 -5.80084,1.69369 -2.05823,0.56116 -4.11934,1.11306 -6.1909,1.62313 -2.18571,0.55815 -4.37535,1.10136 -6.56527,1.64277 -2.24862,0.53937 -4.50613,1.04277 -6.76964,1.51582 -2.22982,0.47338 -4.46884,0.90965 -6.72131,1.26153 -2.22096,0.31365 -4.445,0.61539 -6.68341,0.77611 -2.1618,0.13267 -4.32757,0.21254 -6.49372,0.15066 -2.04631,-0.0277 -4.09266,-0.0674 -6.13812,-0.13344 -2.00068,-0.0978 -4.00229,-0.24093 -5.98806,-0.50866 -1.89209,-0.25468 -3.78079,-0.53899 -5.65518,-0.9037 -1.8019,-0.35264 -3.59674,-0.7423 -5.37202,-1.21261 -1.64515,-0.43199 -3.29603,-0.84282 -4.93264,-1.30699 -1.48247,-0.4387 -2.96788,-0.87127 -4.42654,-1.38506 -1.36033,-0.45306 -2.6989,-0.96076 -4.0201,-1.51804 -1.14001,-0.47767 -2.27195,-0.97435 -3.40269,-1.47342 -0.91701,-0.40435 -1.83159,-0.81534 -2.73799,-1.24276 -0.72098,-0.34001 -1.4345,-0.69897 -2.12599,-1.09583 -0.53116,-0.31882 -1.07807,-0.61087 -1.61796,-0.91446 -0.45391,-0.2671 -0.90845,-0.5337 -1.37504,-0.77806 -0.27536,-0.15097 -0.67355,-0.34869 -0.87734,-0.51254 C 559.97773,288.32522 561.13144,284.8641 565.68357,286.38148 Z"
       inkscape:connector-curvature="0" />
    <path
       style="fill:#ffe201;fill-opacity:1;stroke:none"
       d="m 852.06367,286.66655 9.59645,6.56599 6.06092,-0.50507 5.05076,-4.54569 -0.50508,16.66752 1.51523,9.59645 5.05076,11.61675 7.07107,10.6066 7.57615,13.13199 4.54568,10.10152 4.04061,8.08122 -0.50507,10.10153 -2.52538,7.07107 -7.07107,-1.01016 -10.6066,-5.05076 -10.10153,-4.04061 -9.09137,-5.05076 -5.55584,-9.59645 -5.55584,-9.09137 -9.09137,-16.16244 c 0.8266,-6.56296 -4.29531,-11.93621 -10.10153,-17.1726 l 7.57615,-6.06091 6.06091,-6.06092 2.02031,-7.57614 L 850.04337,290.70716 Z"
       id="path4203"
       inkscape:connector-curvature="0"
       sodipodi:nodetypes="cccccccccccccccccccccccccc" />
  </g>
  <g
     inkscape:groupmode="layer"
     id="layer2"
     inkscape:label="schnabel"
     style="display:inline"
     transform="translate(-509.23513,-106.43566)">
    <path
       style="fill:#ff0101;fill-opacity:1;stroke:none"
       d="m 824.28448,252.32137 4.54568,12.12183 -4.04061,1.51523 -3.53553,-4.54569 L 819.73879,256.36198 Z"
       id="path4207"
       inkscape:connector-curvature="0" />
  </g>
  <g
     inkscape:groupmode="layer"
     id="layer3"
     inkscape:label="lines"
     style="display:inline"
     transform="translate(-509.23513,-106.43566)">
    <path
       style="fill:#000000;fill-opacity:1;fill-rule:nonzero;stroke:#000000;stroke-width:0;stroke-miterlimit:4;stroke-opacity:1;stroke-dasharray:none"
       d="m 828.53125,216.71875 c -1.00428,0.0328 -2.00009,0.0965 -3,0.21875 -2.03701,0.23446 -4.07634,0.53933 -6.0625,1.0625 -2.02725,0.52982 -4.01454,1.14748 -5.96875,1.90625 -1.96474,0.77682 -3.90736,1.61723 -5.75,2.65625 -1.80125,1.02604 -3.59274,2.09266 -5.25,3.34375 -1.63387,1.23959 -3.2231,2.55993 -4.65625,4.03125 -1.37178,1.4103 -2.67989,2.84801 -3.84375,4.4375 -1.22832,1.66542 -2.40745,3.37897 -3.46875,5.15625 -1.17322,1.98422 -2.25358,4.03685 -3.09375,6.1875 -0.88144,2.2129 -1.67463,4.44992 -2.1875,6.78125 -0.47707,2.18517 -0.84951,4.38823 -0.96875,6.625 -0.0926,2.11483 -0.11616,4.23388 0.0937,6.34375 0.20986,2.00216 0.49715,4.01199 0.8125,6 0.33943,2.05468 0.73808,4.09119 1.1875,6.125 0.4531,2.07111 0.91999,4.14806 1.375,6.21875 0.49142,2.17533 0.96562,4.35861 1.46875,6.53125 0.48878,2.17432 0.93588,4.3403 1.34375,6.53125 0.43337,2.24311 0.83314,4.49293 1.1875,6.75 0.39314,2.34337 0.76727,4.68717 1.15625,7.03125 0.3603,2.27386 0.73662,4.556 1,6.84375 0.24771,2.15456 0.46348,4.30574 0.625,6.46875 0.13355,1.94155 0.22735,3.89777 0.15625,5.84375 -0.0572,1.88458 -0.1921,3.75844 -0.46875,5.625 -0.27728,1.91387 -0.63501,3.80787 -1.09375,5.6875 -0.49049,1.98987 -1.08594,3.96779 -1.75,5.90625 -0.70817,2.01379 -1.46985,3.9942 -2.28125,5.96875 -0.77117,1.81471 -1.56386,3.65388 -2.53125,5.375 -0.80861,1.44292 -1.65552,2.85935 -2.6875,4.15625 -0.85861,1.07614 -1.74535,2.11804 -2.78125,3.03125 -0.91799,0.83702 -1.86251,1.64383 -2.84375,2.40625 -0.81058,0.61136 -1.62941,1.21011 -2.46875,1.78125 -0.48903,0.31838 -0.99404,0.64664 -1.5,0.9375 -4.29729,2.14864 -2.64112,5.39866 1.65625,3.25 0.65173,-0.19405 1.2537,-0.54058 1.84375,-0.875 0.97698,-0.58886 1.92364,-1.20052 2.84375,-1.875 1.10148,-0.81453 2.16549,-1.71388 3.1875,-2.625 1.20027,-1.04459 2.24018,-2.21208 3.25,-3.4375 1.2041,-1.44519 2.23998,-3.0354 3.1875,-4.65625 1.08152,-1.83767 1.95118,-3.80281 2.8125,-5.75 0.87971,-2.05655 1.63139,-4.14112 2.375,-6.25 0.71647,-2.06898 1.32103,-4.18682 1.84375,-6.3125 0.47236,-2.0239 0.84199,-4.06668 1.125,-6.125 0.30275,-2.01428 0.45525,-4.0291 0.53125,-6.0625 0.0813,-2.0833 -0.007,-4.16982 -0.125,-6.25 -0.13796,-2.23214 -0.36021,-4.46366 -0.59375,-6.6875 -0.27928,-2.35733 -0.62228,-4.71909 -1,-7.0625 -0.37292,-2.35682 -0.76562,-4.70853 -1.15625,-7.0625 -0.37243,-2.29184 -0.77847,-4.56427 -1.21875,-6.84375 -0.42115,-2.22994 -0.88705,-4.44009 -1.375,-6.65625 -0.50791,-2.18142 -0.99194,-4.38113 -1.5,-6.5625 -0.48607,-2.05453 -0.96956,-4.12878 -1.4375,-6.1875 -0.43699,-1.96074 -0.78335,-3.92711 -1.125,-5.90625 -0.32842,-1.89724 -0.60797,-3.80421 -0.8125,-5.71875 -0.1787,-1.89414 -0.16256,-3.79057 -0.0625,-5.6875 0.11818,-1.98507 0.44941,-3.94203 0.90625,-5.875 0.4984,-2.10366 1.27049,-4.14873 2.0625,-6.15625 0.74695,-1.9546 1.71059,-3.78254 2.75,-5.59375 0.98239,-1.65706 2.03467,-3.27773 3.15625,-4.84375 1.03317,-1.43448 2.23427,-2.73877 3.46875,-4 1.30348,-1.29804 2.71699,-2.46063 4.1875,-3.5625 1.5106,-1.13173 3.13537,-2.11229 4.78125,-3.03125 1.68116,-0.93396 3.43497,-1.69415 5.21875,-2.40625 1.79574,-0.67944 3.64135,-1.26871 5.5,-1.75 1.78923,-0.47639 3.59947,-0.76667 5.4375,-0.96875 1.81359,-0.22481 3.64444,-0.26175 5.46875,-0.21875 1.86407,0.0369 3.7211,0.26015 5.5625,0.53125 1.88148,0.28016 3.70985,0.77321 5.53125,1.3125 1.80895,0.53681 3.55091,1.24769 5.25,2.0625 1.70006,0.81012 3.30051,1.79978 4.84375,2.875 1.54886,1.07722 2.99548,2.27812 4.375,3.5625 1.33037,1.234 2.52399,2.61634 3.65625,4.03125 1.0526,1.34404 2.03266,2.74066 2.9375,4.1875 0.81464,1.36728 1.57673,2.74511 2.3125,4.15625 0.6441,1.24896 1.24086,2.54701 1.78125,3.84375 0.46435,1.15102 0.86911,2.31876 1.25,3.5 0.35326,1.07236 0.67006,2.15334 0.9375,3.25 0.24534,1.00427 0.37153,2.03787 0.5,3.0625 0.12879,1.03486 0.23177,2.05704 0.34375,3.09375 0.0885,0.95647 0.1681,1.91794 0.25,2.875 0.0738,0.8337 0.1274,1.66524 0.1875,2.5 0.055,0.73314 0.11295,1.48486 0.15625,2.21875 0.0433,0.6379 0.0557,1.26802 0.0937,1.90625 0.0383,0.41426 0.0617,0.83561 0.0313,1.25 -0.011,0.24354 -0.0647,0.55824 -0.0937,0.71875 -1.89307,4.3768 1.45856,5.81341 3.40625,1.40625 l 0.15625,-0.375 c 0.13283,-0.46484 0.1993,-0.92602 0.25,-1.40625 0.0625,-0.5831 0.0648,-1.16424 0.0313,-1.75 -0.0185,-0.64793 -0.0387,-1.32102 -0.0625,-1.96875 -0.0324,-0.74947 -0.0864,-1.46959 -0.125,-2.21875 -0.0458,-0.852 -0.10215,-1.71099 -0.15625,-2.5625 -0.0646,-0.98377 -0.12755,-1.98704 -0.21875,-2.96875 -0.0891,-1.08062 -0.18,-2.14255 -0.3125,-3.21875 -0.15096,-1.17212 -0.30949,-2.35105 -0.59375,-3.5 -0.29119,-1.18736 -0.60171,-2.3647 -0.96875,-3.53125 -0.40933,-1.282 -0.84792,-2.56098 -1.34375,-3.8125 -0.56831,-1.40997 -1.16248,-2.82768 -1.84375,-4.1875 -0.76673,-1.52022 -1.57222,-3.00196 -2.4375,-4.46875 -0.97595,-1.594 -2.01361,-3.14482 -3.15625,-4.625 -1.254,-1.59673 -2.58471,-3.13617 -4.0625,-4.53125 -1.53542,-1.41126 -3.12489,-2.75144 -4.84375,-3.9375 -1.7369,-1.19151 -3.52728,-2.32175 -5.4375,-3.21875 -1.9034,-0.9066 -3.85318,-1.70615 -5.875,-2.3125 -2.01105,-0.59435 -4.04707,-1.10526 -6.125,-1.40625 -2.01951,-0.30455 -4.04928,-0.5214 -6.09375,-0.5625 C 830.55697,216.70174 829.53553,216.68596 828.53125,216.71875 Z M 825,240.3125 c -0.9111,0 -1.8125,1.19716 -1.8125,3.59375 -0.0782,0.37393 -0.1358,0.77051 -0.1875,1.15625 -0.094,0.69541 -0.1338,1.39443 -0.1875,2.09375 -0.05,0.74589 -0.0872,1.4722 -0.125,2.21875 -0.007,0.635 0.0154,1.27413 0.0625,1.90625 -0.36933,0.0553 -0.74528,0.15586 -1.09375,0.28125 -0.59568,0.238 -1.11637,0.60904 -1.59375,1.03125 -0.52221,0.47843 -0.87513,1.09014 -1.1875,1.71875 -0.30046,0.59362 -0.49393,1.22521 -0.625,1.875 -0.14118,0.59789 -0.16025,1.20121 -0.15625,1.8125 0.0267,0.64773 0.11175,1.30452 0.25,1.9375 0.11147,0.5768 0.29303,1.12815 0.46875,1.6875 0.18898,0.56617 0.39848,1.11801 0.65625,1.65625 0.25666,0.53552 0.58429,1.03356 0.90625,1.53125 0.35825,0.54483 0.81121,1.01933 1.28125,1.46875 0.38806,0.37656 0.8108,0.71768 1.25,1.03125 0.37119,0.27603 0.78454,0.4935 1.1875,0.71875 0.36812,0.22421 0.74423,0.40554 1.15625,0.53125 0.127,0.0367 0.24677,0.0616 0.375,0.0937 0.98538,0.26444 1.80463,0.31827 2.4375,0.21875 1.28964,2.35901 3.60789,1.27989 2.9375,-2.59375 -0.0827,-0.40732 -0.021,-0.18106 -0.1875,-0.65625 l -0.28125,-0.65625 c -0.13848,-0.29783 -0.29905,-0.6084 -0.4375,-0.90625 -0.18913,-0.40694 -0.37472,-0.8112 -0.5625,-1.21875 -0.22427,-0.48892 -0.44526,-0.96114 -0.625,-1.46875 -0.21689,-0.55038 -0.4132,-1.1236 -0.59375,-1.6875 -0.20759,-0.58429 -0.40875,-1.14847 -0.5625,-1.75 -0.18637,-0.65737 -0.34083,-1.33567 -0.5,-2 -0.15283,-0.65912 -0.25035,-1.32964 -0.34375,-2 -0.009,-0.084 -0.0225,-0.16601 -0.0313,-0.25 0.2916,-0.46345 0.24139,-0.99567 -0.15625,-1.4375 -0.0266,-0.23101 -0.0644,-0.45678 -0.0937,-0.6875 -0.0783,-0.66472 -0.1247,-1.33033 -0.125,-2 0.0292,-0.72352 0.0824,-1.46466 0.125,-2.1875 0.0323,-0.64227 0.0492,-1.26474 0.0937,-1.90625 0.0436,-0.51888 0.13785,-1.0419 0.0937,-1.5625 C 826.8125,241.50966 825.9111,240.3125 825,240.3125 z m -1.84375,14.65625 c 0.0995,0.6249 0.22573,1.22859 0.375,1.84375 0.17311,0.72997 0.34483,1.46932 0.5625,2.1875 0.17972,0.67365 0.41506,1.34633 0.65625,2 0.20953,0.59652 0.41891,1.19501 0.65625,1.78125 0.21511,0.58347 0.47359,1.13083 0.75,1.6875 0.11123,0.22167 0.23107,0.43532 0.34375,0.65625 -0.0484,-0.0143 -0.10838,-0.0154 -0.15625,-0.0313 -0.018,-0.009 -0.23542,-0.13494 -0.40625,-0.25 -0.28025,-0.16903 -0.58263,-0.33378 -0.84375,-0.53125 -0.29885,-0.22712 -0.58405,-0.44572 -0.84375,-0.71875 -0.27603,-0.26796 -0.53645,-0.55363 -0.75,-0.875 -0.2452,-0.34389 -0.46808,-0.71575 -0.65625,-1.09375 -0.19341,-0.37013 -0.33323,-0.76203 -0.46875,-1.15625 -0.14786,-0.44335 -0.2867,-0.88394 -0.375,-1.34375 -0.0826,-0.36549 -0.1437,-0.72128 -0.1875,-1.09375 0.005,-0.35784 0.007,-0.71195 0.0937,-1.0625 0.0765,-0.34487 0.15456,-0.6804 0.3125,-1 0.0955,-0.19879 0.1863,-0.41294 0.3125,-0.59375 0.14698,-0.13158 0.28825,-0.26355 0.46875,-0.34375 C 823.05081,255.0115 823.10985,254.98748 823.15625,254.96875 z m -99.03125,20.5625 c -1.87471,-0.006 -3.75552,0.074 -5.625,0.21875 -2.08436,0.14483 -4.14614,0.36204 -6.21875,0.625 -2.30702,0.29178 -4.6084,0.61112 -6.90625,0.96875 -2.565,0.40381 -5.14344,0.85367 -7.6875,1.375 -2.63633,0.54632 -5.25885,1.08178 -7.875,1.71875 -2.55225,0.63987 -5.09192,1.3187 -7.625,2.03125 -2.39162,0.68412 -4.78142,1.38461 -7.15625,2.125 -2.11989,0.642 -4.25447,1.26649 -6.375,1.90625 -1.95573,0.59496 -3.90544,1.22567 -5.84375,1.875 -1.8614,0.59225 -3.71865,1.1714 -5.59375,1.71875 -1.89633,0.5575 -3.78154,1.10121 -5.6875,1.625 -2.04186,0.53494 -4.10749,1.05456 -6.15625,1.5625 -2.17598,0.53391 -4.35626,1.05586 -6.53125,1.59375 -2.21279,0.52786 -4.43083,1.05922 -6.65625,1.53125 -2.13648,0.45218 -4.27834,0.88783 -6.4375,1.21875 -2.10823,0.30768 -4.21919,0.57903 -6.34375,0.75 -2.04994,0.13848 -4.10151,0.223 -6.15625,0.1875 -2.00451,-0.0275 -3.99626,-0.0579 -6,-0.125 -1.87439,-0.0689 -3.76401,-0.20018 -5.625,-0.4375 -1.80975,-0.24305 -3.61141,-0.50496 -5.40625,-0.84375 -1.72584,-0.33696 -3.45291,-0.68655 -5.15625,-1.125 -1.61157,-0.39589 -3.21024,-0.78665 -4.8125,-1.21875 -1.43591,-0.39685 -2.86727,-0.81119 -4.28125,-1.28125 -1.26998,-0.41993 -2.54427,-0.86528 -3.78125,-1.375 -1.13753,-0.46187 -2.27272,-0.93463 -3.40625,-1.40625 -0.8929,-0.35365 -1.76399,-0.73821 -2.65625,-1.09375 -0.62241,-0.27522 -1.24574,-0.58183 -1.84375,-0.90625 -0.54528,-0.30287 -1.07764,-0.60764 -1.625,-0.90625 -0.49544,-0.27317 -0.9949,-0.52592 -1.5,-0.78125 -0.48275,-0.24418 -0.94543,-0.53488 -1.46875,-0.6875 -4.55213,-1.51738 -5.70838,1.95142 -1.15625,3.46875 0.20379,0.16385 0.59964,0.34903 0.875,0.5 0.46659,0.24436 0.92109,0.51415 1.375,0.78125 0.53989,0.30359 1.09384,0.61868 1.625,0.9375 0.69149,0.39686 1.40402,0.75374 2.125,1.09375 0.9064,0.42742 1.80174,0.8144 2.71875,1.21875 1.13074,0.49907 2.26624,1.02233 3.40625,1.5 1.3212,0.55728 2.67092,1.04694 4.03125,1.5 1.45866,0.51379 2.95503,0.9363 4.4375,1.375 1.63661,0.46417 3.2611,0.88051 4.90625,1.3125 1.77528,0.47031 3.5731,0.86611 5.375,1.21875 1.87439,0.36471 3.76416,0.65157 5.65625,0.90625 1.98577,0.26773 3.99932,0.4022 6,0.5 2.04546,0.066 4.07869,0.0973 6.125,0.125 2.16615,0.0619 4.3382,0.008 6.5,-0.125 2.23841,-0.16072 4.46654,-0.4676 6.6875,-0.78125 2.25247,-0.35188 4.48893,-0.80787 6.71875,-1.28125 2.26351,-0.47305 4.53263,-0.96063 6.78125,-1.5 2.18992,-0.54141 4.37679,-1.0981 6.5625,-1.65625 2.07156,-0.51007 4.12927,-1.06384 6.1875,-1.625 1.93596,-0.55629 3.88199,-1.11248 5.8125,-1.6875 1.89938,-0.5634 3.76757,-1.12049 5.65625,-1.71875 1.92164,-0.62498 3.84257,-1.2733 5.78125,-1.84375 2.12499,-0.61142 4.25138,-1.19623 6.375,-1.8125 2.37323,-0.68257 4.74708,-1.39639 7.125,-2.0625 2.4908,-0.68767 5.02289,-1.31756 7.53125,-1.9375 2.56347,-0.60916 5.13998,-1.14701 7.71875,-1.6875 2.48031,-0.51442 4.97195,-0.94942 7.46875,-1.375 2.24945,-0.38252 4.49042,-0.74608 6.75,-1.0625 1.99559,-0.2851 3.99307,-0.50033 6,-0.6875 1.75332,-0.16702 3.52046,-0.245 5.28125,-0.25 1.60108,0.0138 3.21254,0.0281 4.8125,0.0937 1.40086,0.0732 2.78983,0.12813 4.1875,0.25 1.28531,0.10057 2.57229,0.25767 3.84375,0.46875 1.31657,0.21756 2.63353,0.46655 3.9375,0.75 1.35315,0.2859 2.67207,0.67801 4,1.0625 1.42038,0.40208 2.82209,0.83479 4.21875,1.3125 1.40224,0.45426 2.80564,0.95655 4.1875,1.46875 1.25212,0.48263 2.495,0.9807 3.71875,1.53125 1.115,0.5003 2.19047,1.04295 3.28125,1.59375 0.99159,0.51109 2.0154,1.00672 3,1.53125 0.87511,0.4712 1.76987,0.93017 2.625,1.4375 0.82576,0.49563 1.64365,0.97213 2.46875,1.46875 0.82943,0.48327 1.66448,0.99591 2.5,1.46875 0.76084,0.40441 1.49484,0.83539 2.25,1.25 0.64998,0.35431 1.29506,0.72579 1.9375,1.09375 0.63967,0.37662 1.29104,0.69941 1.96875,1 0.55817,0.28298 1.1159,0.52663 1.6875,0.78125 0.55325,0.23524 1.10832,0.50233 1.65625,0.75 0.49267,0.2123 1.00101,0.42817 1.5,0.625 0.19233,0.0758 0.3701,0.14315 0.5625,0.21875 4.5006,1.86795 5.93811,-1.56955 1.4375,-3.4375 -0.18871,-0.0825 -0.37381,-0.1674 -0.5625,-0.25 -0.4617,-0.20205 -0.94503,-0.3906 -1.40625,-0.59375 -0.55739,-0.24458 -1.08871,-0.52744 -1.65625,-0.75 -0.57563,-0.24801 -1.12119,-0.54459 -1.6875,-0.8125 -0.53662,-0.23156 -1.05597,-0.52111 -1.5625,-0.8125 -0.65818,-0.40695 -1.32305,-0.8122 -2,-1.1875 -0.73343,-0.42047 -1.45167,-0.83393 -2.1875,-1.25 -0.80509,-0.47458 -1.60109,-0.96298 -2.40625,-1.4375 -0.83695,-0.50628 -1.69694,-0.98926 -2.53125,-1.5 -0.89647,-0.52287 -1.80495,-1.00822 -2.71875,-1.5 -1.00831,-0.55714 -2.04382,-1.08714 -3.0625,-1.625 -1.14233,-0.58506 -2.27282,-1.17884 -3.4375,-1.71875 -1.30674,-0.59322 -2.63058,-1.16786 -3.96875,-1.6875 -1.41687,-0.52763 -2.81195,-1.06349 -4.25,-1.53125 -1.4663,-0.49508 -2.94508,-0.96439 -4.4375,-1.375 -1.41615,-0.38997 -2.84441,-0.75614 -4.28125,-1.0625 -1.37101,-0.28968 -2.74137,-0.55894 -4.125,-0.78125 -1.37183,-0.2193 -2.77344,-0.39633 -4.15625,-0.53125 -1.45193,-0.1261 -2.89042,-0.20375 -4.34375,-0.3125 C 727.46192,275.63288 725.78965,275.57305 724.125,275.53125 z m 149.6875,3.375 c -0.8174,0.12958 -1.71766,1.18094 -2.0625,3.25 -0.12114,0.485 -0.23902,0.97946 -0.34375,1.46875 -0.11047,0.65897 -0.25871,1.3175 -0.40625,1.96875 -0.141,0.6866 -0.3616,1.35128 -0.53125,2.03125 -0.18138,0.60569 -0.34279,1.21958 -0.5625,1.8125 -0.19089,0.42801 -0.43032,0.81295 -0.75,1.15625 -0.38047,0.37877 -0.86958,0.63381 -1.34375,0.875 -0.57087,0.28181 -1.18248,0.45575 -1.8125,0.53125 -0.66299,0.0578 -1.32024,-0.0241 -1.96875,-0.15625 -0.76403,-0.15485 -1.50885,-0.43251 -2.21875,-0.75 -0.82745,-0.40126 -1.58705,-0.91876 -2.34375,-1.4375 -0.83375,-0.58112 -1.5973,-1.22956 -2.40625,-1.84375 -0.67325,-0.52586 -1.31714,-1.10092 -1.9375,-1.6875 -0.24485,-0.22195 -0.48833,-0.45111 -0.71875,-0.6875 0.15345,-1.52349 -0.66728,-2.27621 -1.71875,-1.90625 -0.16652,-0.17943 -0.33329,-0.35201 -0.5,-0.53125 -3.31681,-3.69979 -6.12931,-1.16854 -2.8125,2.53125 0.26,0.30092 0.51984,0.60654 0.78125,0.90625 -0.20092,0.35404 -0.3759,0.70355 -0.5625,1.0625 -0.4077,0.83068 -0.78653,1.70151 -1.125,2.5625 -0.37081,0.98605 -0.73463,1.97837 -1.09375,2.96875 -0.39032,1.10412 -0.76638,2.20818 -1.15625,3.3125 -0.38376,1.16272 -0.75492,2.33275 -1.125,3.5 -0.36097,1.04951 -0.73688,2.09718 -1.15625,3.125 -0.35415,0.93834 -0.82497,1.81384 -1.3125,2.6875 -0.4758,0.81771 -1.01696,1.58798 -1.625,2.3125 -0.62825,0.80972 -1.33623,1.53076 -2.0625,2.25 -0.72897,0.67365 -1.52113,1.29931 -2.28125,1.9375 -0.64987,0.54992 -1.32209,1.07915 -2,1.59375 -0.52633,0.39906 -1.03574,0.789 -1.5625,1.1875 -0.30576,0.2482 -0.62826,0.47492 -0.9375,0.71875 -3.91879,3.01427 -1.63754,6.01425 2.28125,3 0.28775,-0.21614 0.5673,-0.42565 0.84375,-0.65625 0.54432,-0.38017 1.11295,-0.77463 1.65625,-1.15625 0.75617,-0.53276 1.50171,-1.07099 2.21875,-1.65625 0.86204,-0.69502 1.71824,-1.40435 2.53125,-2.15625 0.82743,-0.80451 1.63035,-1.62218 2.34375,-2.53125 0.75395,-0.90865 1.44619,-1.87941 2.03125,-2.90625 0.58326,-1.0172 1.11695,-2.0707 1.5625,-3.15625 0.44772,-1.11514 0.85839,-2.23897 1.25,-3.375 0.38036,-1.13591 0.72168,-2.26765 1.09375,-3.40625 0.37767,-1.09996 0.75073,-2.21139 1.125,-3.3125 0.33553,-0.96554 0.69005,-1.91145 1.03125,-2.875 0.25546,-0.69021 0.51946,-1.38726 0.8125,-2.0625 0.55133,0.52048 1.12602,1.02662 1.71875,1.5 0.85818,0.68241 1.6823,1.38785 2.59375,2 0.96043,0.65257 1.96604,1.27955 3.03125,1.75 0.96931,0.41682 1.96139,0.76938 3,0.96875 1.07753,0.21298 2.15306,0.35565 3.25,0.21875 1.07152,-0.16522 2.13497,-0.44378 3.09375,-0.96875 0.37188,-0.2041 0.7443,-0.41813 1.09375,-0.65625 -0.0954,0.72764 -0.20518,1.45758 -0.28125,2.1875 -0.12078,1.18235 -0.19845,2.37698 -0.28125,3.5625 -0.0744,1.24562 -0.0977,2.4716 -0.0625,3.71875 0.0333,1.24777 0.1876,2.48628 0.375,3.71875 0.17416,1.20634 0.45139,2.40527 0.71875,3.59375 0.30323,1.21468 0.67609,2.40357 1.0625,3.59375 0.43078,1.27721 0.92506,2.535 1.4375,3.78125 0.53739,1.28978 1.17706,2.55335 1.78125,3.8125 0.6206,1.24988 1.19524,2.49861 1.8125,3.75 0.59367,1.22478 1.2128,2.46569 1.8125,3.6875 0.58763,1.20326 1.19809,2.37288 1.8125,3.5625 0.66728,1.30116 1.4083,2.56965 2.125,3.84375 0.80693,1.39457 1.66964,2.74426 2.5,4.125 0.91317,1.5154 1.81472,3.05464 2.6875,4.59375 0.91875,1.62677 1.82151,3.25372 2.75,4.875 0.84735,1.52572 1.73827,3.0415 2.59375,4.5625 0.75885,1.3319 1.47151,2.67595 2.1875,4.03125 0.64195,1.18762 1.24177,2.37071 1.8125,3.59375 0.48542,1.05749 0.92913,2.16335 1.34375,3.25 0.35652,0.95479 0.64051,1.93177 0.9375,2.90625 0.26411,0.89032 0.48978,1.78038 0.6875,2.6875 0.19015,0.80968 0.2943,1.64226 0.375,2.46875 0.0942,0.7533 0.0575,1.52376 0.0625,2.28125 -0.005,0.6395 -0.0839,1.24612 -0.1875,1.875 -0.0923,0.5148 -0.28086,1.01444 -0.46875,1.5 -0.1833,0.4011 -0.37663,0.81237 -0.65625,1.15625 -0.27766,0.35685 -0.59181,0.67661 -0.9375,0.96875 -0.29794,0.28102 -0.6359,0.50444 -1,0.6875 -0.42254,0.23185 -0.88846,0.38003 -1.34375,0.53125 -0.45383,0.10696 -0.91103,0.116 -1.375,0.125 -0.59631,-0.0132 -1.17173,-0.1174 -1.75,-0.25 -0.73239,-0.18649 -1.44075,-0.44612 -2.15625,-0.6875 -0.74861,-0.25654 -1.5143,-0.52028 -2.25,-0.8125 -0.74945,-0.29588 -1.48341,-0.57653 -2.21875,-0.90625 -0.77166,-0.33403 -1.54542,-0.68702 -2.3125,-1.03125 -0.80732,-0.39241 -1.59051,-0.81261 -2.40625,-1.1875 -0.86927,-0.40608 -1.752,-0.82066 -2.625,-1.21875 -0.90923,-0.43233 -1.8148,-0.86915 -2.71875,-1.3125 -0.95308,-0.48513 -1.88757,-0.99429 -2.8125,-1.53125 -1.0435,-0.57833 -2.07721,-1.15709 -3.09375,-1.78125 -1.0031,-0.6189 -1.96907,-1.28537 -2.90625,-2 -0.99518,-0.77812 -1.96181,-1.62784 -2.875,-2.5 -0.98297,-0.94358 -1.88086,-1.94698 -2.78125,-2.96875 -0.95672,-1.13098 -1.81491,-2.34558 -2.65625,-3.5625 -0.94929,-1.40558 -1.87645,-2.81543 -2.78125,-4.25 -0.96643,-1.53613 -1.85712,-3.1079 -2.75,-4.6875 -0.8848,-1.53518 -1.70815,-3.10422 -2.5625,-4.65625 -0.74011,-1.28609 -1.41991,-2.63213 -2.0625,-3.96875 -0.58363,-1.15666 -1.13044,-2.29914 -1.6875,-3.46875 -0.51026,-1.03411 -0.9983,-2.10352 -1.46875,-3.15625 -0.36799,-0.78504 -0.7585,-1.55803 -1.125,-2.34375 -2.06208,-4.6827 -5.62458,-3.08895 -3.5625,1.59375 0.336,0.80384 0.68688,1.58894 1.0625,2.375 0.47968,1.08445 0.99597,2.14541 1.5,3.21875 0.55607,1.17765 1.0566,2.39047 1.625,3.5625 0.66846,1.39033 1.33324,2.76491 2.0625,4.125 0.83264,1.59652 1.63124,3.22108 2.53125,4.78125 0.92408,1.64769 1.88183,3.28736 2.90625,4.875 0.94912,1.48153 1.94176,2.92432 2.9375,4.375 0.94848,1.33152 1.89348,2.67249 2.96875,3.90625 0.98282,1.09957 1.9846,2.17929 3.0625,3.1875 1.02455,0.9742 2.09071,1.89669 3.21875,2.75 1.03765,0.78357 2.14539,1.50177 3.25,2.1875 1.05624,0.66689 2.11853,1.28355 3.21875,1.875 1.01396,0.56103 2.05387,1.11355 3.09375,1.625 0.93559,0.43851 1.87016,0.88865 2.8125,1.3125 0.87556,0.39666 1.71622,0.7951 2.59375,1.1875 0.81599,0.363 1.62287,0.78987 2.4375,1.15625 0.77241,0.35938 1.56391,0.68845 2.34375,1.03125 0.7968,0.35481 1.59536,0.67904 2.40625,1 0.79666,0.30095 1.59959,0.60195 2.40625,0.875 0.8533,0.28194 1.68539,0.57904 2.5625,0.78125 0.88116,0.17589 1.78468,0.3379 2.6875,0.3125 0.82957,-0.0322 1.67146,-0.0912 2.46875,-0.34375 0.65728,-0.2185 1.29324,-0.48795 1.90625,-0.8125 0.60501,-0.33291 1.16844,-0.69743 1.6875,-1.15625 0.53859,-0.47666 1.06412,-0.98778 1.5,-1.5625 0.46493,-0.64145 0.85938,-1.32638 1.15625,-2.0625 0.2718,-0.71717 0.54881,-1.42908 0.6875,-2.1875 0.15039,-0.84063 0.26175,-1.67591 0.28125,-2.53125 0.008,-0.8855 0.0216,-1.77385 -0.0625,-2.65625 -0.0975,-0.97727 -0.1914,-1.97723 -0.40625,-2.9375 -0.21844,-0.9962 -0.4367,-1.98829 -0.71875,-2.96875 -0.3016,-1.06555 -0.62849,-2.11279 -1,-3.15625 -0.42291,-1.18699 -0.89936,-2.37729 -1.40625,-3.53125 -0.57106,-1.29285 -1.18379,-2.56251 -1.84375,-3.8125 -0.70274,-1.41417 -1.43249,-2.8007 -2.1875,-4.1875 -0.84576,-1.54139 -1.71407,-3.05381 -2.5625,-4.59375 -0.91659,-1.62897 -1.80606,-3.29266 -2.75,-4.90625 -0.89745,-1.57398 -1.84666,-3.09221 -2.8125,-4.625 -0.82672,-1.33833 -1.66487,-2.67909 -2.46875,-4.03125 -0.70699,-1.2164 -1.44163,-2.40892 -2.09375,-3.65625 -0.60454,-1.1597 -1.2619,-2.31309 -1.8125,-3.5 -0.59707,-1.22065 -1.18669,-2.43439 -1.78125,-3.65625 -0.60262,-1.25005 -1.18686,-2.51113 -1.8125,-3.75 -0.57522,-1.19399 -1.16243,-2.40767 -1.6875,-3.625 -0.48517,-1.14608 -0.95596,-2.2967 -1.375,-3.46875 -0.35669,-1.06956 -0.70564,-2.12121 -0.96875,-3.21875 -0.25389,-1.09462 -0.48757,-2.20104 -0.65625,-3.3125 -0.16801,-1.07427 -0.2947,-2.16125 -0.3125,-3.25 -0.0428,-1.11525 -0.0516,-2.23044 0.0313,-3.34375 0.0716,-1.1433 0.14551,-2.29666 0.25,-3.4375 0.0965,-1.03295 0.20195,-2.06586 0.34375,-3.09375 0.12719,-0.91708 0.2899,-1.82766 0.375,-2.75 0.0568,-0.49194 0.135,-0.9766 0.1875,-1.46875 0.69546,-2.0864 0.32346,-3.43858 -0.40625,-3.875 0.0892,-0.41652 0.18577,-0.8285 0.25,-1.25 0.0893,-0.52395 0.22925,-1.02802 0.21875,-1.5625 C 875.78712,280.12104 874.86344,278.73964 873.8125,278.90625 z m -312.46875,12.625 c -1.30334,0.0823 -1.71764,1.84507 0.15625,4.1875 0.18434,0.3181 0.36036,0.64253 0.53125,0.96875 0.25429,0.57943 0.44173,1.20692 0.625,1.8125 0.28101,0.94685 0.47055,1.93206 0.625,2.90625 0.19866,1.32625 0.30618,2.63457 0.4375,3.96875 0.17138,1.57988 0.1524,3.19572 0.125,4.78125 -0.0717,1.9781 -0.26547,3.94149 -0.5,5.90625 -0.2691,2.3246 -0.5992,4.62686 -0.96875,6.9375 -0.43225,2.59 -0.81538,5.18666 -1.21875,7.78125 -0.43524,2.73704 -0.82586,5.4985 -1.15625,8.25 -0.36074,2.87262 -0.53345,5.76526 -0.65625,8.65625 -0.1038,2.84701 -0.0472,5.6867 0.0937,8.53125 0.15598,2.8065 0.56295,5.58106 1.0625,8.34375 0.4972,2.76149 1.31632,5.4532 2.25,8.09375 0.95793,2.65738 2.18278,5.20931 3.53125,7.6875 1.36662,2.52667 2.98968,4.89092 4.75,7.15625 1.85692,2.35287 3.94846,4.50631 6.09375,6.59375 2.23523,2.17879 4.60522,4.19492 7.03125,6.15625 2.51792,2.01779 5.17568,3.87566 7.84375,5.6875 2.71794,1.8444 5.53858,3.53364 8.375,5.1875 2.85346,1.64602 5.77387,3.12038 8.71875,4.59375 2.89589,1.45903 5.80448,2.86289 8.75,4.21875 2.87657,1.34201 5.79336,2.6129 8.71875,3.84375 2.74075,1.17144 5.49227,2.32684 8.21875,3.53125 2.52253,1.10591 5.03093,2.21965 7.53125,3.375 2.33777,1.03539 4.65376,2.16353 6.9375,3.3125 2.19922,1.11723 4.38749,2.24236 6.5625,3.40625 2.17618,1.12851 4.36724,2.26003 6.5,3.46875 2.23322,1.28575 4.47036,2.5484 6.75,3.75 2.38361,1.23172 4.77869,2.44313 7.1875,3.625 2.44996,1.22329 4.9071,2.38142 7.40625,3.5 2.56008,1.13898 5.18628,2.18153 7.8125,3.15625 2.61693,0.96077 5.28076,1.7345 7.96875,2.46875 2.57222,0.70964 5.18927,1.29874 7.8125,1.78125 2.5042,0.45037 5.02967,0.73862 7.5625,0.96875 2.37504,0.212 4.74206,0.28285 7.125,0.34375 2.25301,0.0443 4.53083,-0.0274 6.78125,-0.125 2.07912,-0.0812 4.14342,-0.23013 6.21875,-0.375 1.92155,-0.10939 3.83344,-0.29616 5.75,-0.46875 1.73546,-0.14842 3.45661,-0.33851 5.1875,-0.53125 1.65968,-0.18528 3.34163,-0.42774 5,-0.625 1.75855,-0.21258 3.49752,-0.46158 5.25,-0.71875 1.89892,-0.29653 3.78987,-0.57018 5.6875,-0.875 1.99944,-0.29006 4.00074,-0.5837 6,-0.875 2.01093,-0.29618 4.02138,-0.6027 6.03125,-0.90625 1.86118,-0.28107 3.72503,-0.52536 5.59375,-0.75 1.73507,-0.19605 3.45931,-0.47015 5.1875,-0.71875 1.46461,-0.17175 2.92771,-0.44061 4.375,-0.71875 0.66607,-0.11838 1.29522,-0.32424 1.9375,-0.53125 4.96267,-1.56435 3.77517,-5.31435 -1.1875,-3.75 -0.47611,0.14508 -0.94303,0.27455 -1.4375,0.34375 -1.40219,0.21705 -2.80737,0.4135 -4.21875,0.5625 -1.71107,0.20646 -3.41055,0.44746 -5.125,0.625 -1.91299,0.21324 -3.84398,0.44953 -5.75,0.71875 -2.01566,0.2866 -4.01659,0.61336 -6.03125,0.90625 -2.01432,0.30592 -4.01876,0.58875 -6.03125,0.90625 -1.8798,0.30374 -3.77959,0.61451 -5.65625,0.9375 -1.71149,0.25595 -3.40849,0.52854 -5.125,0.75 -1.64499,0.19345 -3.28932,0.42855 -4.9375,0.59375 -1.70123,0.17873 -3.3857,0.36542 -5.09375,0.46875 -1.88878,0.15379 -3.79412,0.31875 -5.6875,0.40625 -2.0381,0.12207 -4.08427,0.27535 -6.125,0.34375 -2.1544,0.0689 -4.2819,0.1146 -6.4375,0.0625 -2.29051,-0.0751 -4.59294,-0.18594 -6.875,-0.40625 -2.39782,-0.22537 -4.78435,-0.51801 -7.15625,-0.9375 -2.49341,-0.46769 -4.95993,-1.04562 -7.40625,-1.71875 -2.56031,-0.72479 -5.12645,-1.48701 -7.625,-2.40625 -2.53661,-0.93849 -5.05736,-1.90498 -7.53125,-3 -2.45399,-1.08824 -4.88316,-2.2301 -7.28125,-3.4375 -2.37308,-1.15654 -4.7427,-2.33062 -7.09375,-3.53125 -2.24572,-1.17603 -4.44859,-2.41045 -6.65625,-3.65625 -2.16411,-1.20753 -4.36328,-2.38907 -6.5625,-3.53125 -2.20062,-1.19239 -4.42902,-2.32701 -6.65625,-3.46875 -2.32295,-1.1876 -4.66124,-2.31549 -7.03125,-3.40625 -2.51677,-1.17041 -5.03372,-2.3244 -7.5625,-3.46875 -2.74094,-1.23709 -5.49206,-2.42651 -8.25,-3.625 -2.87084,-1.23764 -5.76329,-2.48387 -8.59375,-3.8125 -2.89677,-1.34644 -5.77341,-2.74761 -8.625,-4.1875 -2.85665,-1.43134 -5.70307,-2.86598 -8.46875,-4.46875 -2.75163,-1.59503 -5.48901,-3.21795 -8.125,-5 -2.57428,-1.72037 -5.10381,-3.51361 -7.53125,-5.4375 -2.32842,-1.8527 -4.58427,-3.77112 -6.75,-5.8125 -2.00133,-1.93636 -3.9674,-3.9245 -5.71875,-6.09375 -1.6209,-2.06018 -3.10215,-4.21771 -4.34375,-6.53125 -1.23966,-2.26982 -2.37122,-4.59529 -3.25,-7.03125 -0.86675,-2.406 -1.6131,-4.8844 -2.0625,-7.40625 -0.47147,-2.5691 -0.86562,-5.13843 -1,-7.75 -0.1373,-2.7027 -0.1623,-5.42009 -0.0625,-8.125 0.12827,-2.77865 0.30378,-5.54875 0.625,-8.3125 0.31564,-2.70174 0.66489,-5.40723 1.09375,-8.09375 0.39226,-2.59994 0.77016,-5.21165 1.15625,-7.8125 0.3368,-2.3797 0.64716,-4.76313 0.875,-7.15625 0.19807,-2.11163 0.40025,-4.22104 0.40625,-6.34375 -0.0108,-1.73528 -0.0365,-3.4627 -0.25,-5.1875 -0.15709,-1.42893 -0.33041,-2.86744 -0.59375,-4.28125 -0.22454,-1.14779 -0.46611,-2.29715 -0.84375,-3.40625 -0.29003,-0.83441 -0.60376,-1.66262 -1.03125,-2.4375 -0.28783,-0.48309 -0.57423,-0.97027 -0.96875,-1.375 C 563.21938,292.0633 562.12576,291.48188 561.34375,291.53125 Z M 858.0625,313.4375 c -1.05566,0.15014 -1.55236,1.70778 -0.34375,4.125 0.10538,0.50642 0.30571,0.99143 0.5,1.46875 0.27165,0.62131 0.4921,1.26777 0.71875,1.90625 0.1808,0.50645 0.3198,0.99671 0.375,1.53125 0.009,0.17038 -0.0153,0.34939 -0.0937,0.5 -1.86063,4.57115 1.60812,5.9774 3.46875,1.40625 0.27971,-0.72127 0.47035,-1.46688 0.40625,-2.25 -0.0726,-0.83617 -0.27456,-1.64841 -0.5625,-2.4375 -0.24545,-0.73904 -0.51236,-1.45067 -0.84375,-2.15625 -0.24856,-0.52455 -0.42732,-1.09088 -0.71875,-1.59375 C 860.02872,314.05744 858.88357,313.32073 858.0625,313.4375 z m -201,25.84375 c -1.73014,-4.2e-4 -3.45756,0.006 -5.1875,0.0313 -3.16035,0.0761 -6.30914,0.14706 -9.46875,0.25 -2.94935,0.11441 -5.89649,0.21551 -8.84375,0.375 -2.76421,0.1415 -5.52202,0.37859 -8.28125,0.59375 -2.53348,0.18242 -5.06671,0.36769 -7.59375,0.625 -2.31742,0.23812 -4.63243,0.53851 -6.9375,0.875 -2.10053,0.30071 -4.19528,0.67464 -6.28125,1.0625 -1.92264,0.38379 -3.84476,0.81936 -5.75,1.28125 -1.63824,0.36051 -3.25235,0.79476 -4.875,1.21875 -1.25188,0.32965 -2.49925,0.66613 -3.75,1 -0.55524,0.15267 -1.11068,0.3166 -1.65625,0.5 -4.88802,1.64254 -3.63801,5.3613 1.25,3.71875 0.44367,-0.14902 0.88814,-0.29748 1.34375,-0.40625 1.26285,-0.28654 2.55073,-0.55245 3.8125,-0.84375 1.61215,-0.37579 3.22247,-0.75834 4.84375,-1.09375 1.85337,-0.40528 3.6966,-0.84208 5.5625,-1.1875 2.02803,-0.36883 4.04769,-0.71292 6.09375,-0.96875 2.24812,-0.30261 4.52233,-0.54273 6.78125,-0.75 2.48998,-0.23317 4.97204,-0.41782 7.46875,-0.5625 2.73422,-0.17555 5.48096,-0.38608 8.21875,-0.5 2.91349,-0.14917 5.80272,-0.25845 8.71875,-0.34375 3.12854,-0.0866 6.27682,-0.0885 9.40625,-0.125 3.39853,-0.0179 6.78948,0.006 10.1875,0.0625 3.52211,0.11021 7.05503,0.23343 10.5625,0.59375 3.53734,0.35156 7.06234,0.81155 10.5625,1.4375 3.50792,0.61059 7.0003,1.28621 10.46875,2.09375 3.38795,0.76046 6.7554,1.59196 10.0625,2.65625 3.3424,1.08019 6.64521,2.27167 9.875,3.65625 3.25846,1.40679 6.47949,2.92937 9.53125,4.75 3.12901,1.83314 6.17694,3.77994 9.09375,5.9375 2.80964,2.11444 5.55086,4.3235 8.15625,6.6875 2.42569,2.19893 4.81209,4.46437 7.15625,6.75 2.0466,2.05641 4.10258,4.11944 5.96875,6.34375 1.58774,1.88289 3.12994,3.79384 4.5,5.84375 1.09981,1.63763 2.16301,3.31888 3.03125,5.09375 0.6853,1.42162 1.30426,2.87238 1.875,4.34375 0.41724,1.11785 0.82403,2.21781 1.21875,3.34375 0.26103,0.69213 0.49821,1.38751 0.71875,2.09375 0.12604,0.36809 0.24685,0.78505 0.40625,1.125 0.78821,4.72927 4.41321,4.13556 3.625,-0.59375 -0.0616,-0.57131 -0.27796,-1.10812 -0.4375,-1.65625 -0.19766,-0.7337 -0.43865,-1.45953 -0.65625,-2.1875 -0.33856,-1.16841 -0.66981,-2.34851 -1.0625,-3.5 -0.5464,-1.61203 -1.21756,-3.19431 -1.90625,-4.75 -0.90391,-1.98469 -2.02309,-3.84742 -3.1875,-5.6875 -1.40821,-2.22281 -3.00296,-4.30039 -4.65625,-6.34375 -1.91724,-2.35724 -3.9987,-4.58202 -6.125,-6.75 -2.3693,-2.37237 -4.78618,-4.69467 -7.25,-6.96875 -2.6918,-2.48635 -5.5272,-4.80736 -8.4375,-7.03125 -3.05306,-2.2997 -6.29485,-4.356 -9.59375,-6.28125 -3.23126,-1.9055 -6.61621,-3.49666 -10.0625,-4.96875 -3.36161,-1.45736 -6.8283,-2.65598 -10.3125,-3.78125 -3.4456,-1.10075 -6.94475,-2.00548 -10.46875,-2.8125 -3.5428,-0.83235 -7.10542,-1.51769 -10.6875,-2.15625 -3.618,-0.64894 -7.28151,-1.10051 -10.9375,-1.46875 -3.62111,-0.36317 -7.23896,-0.49715 -10.875,-0.59375 C 660.55129,339.28858 658.79264,339.28167 657.0625,339.28125 z m 228.125,55.5625 c -1.05566,0.15014 -1.55238,1.73902 -0.34375,4.15625 0.0926,0.34742 0.1967,0.67459 0.25,1.03125 0.10554,0.58853 0.0208,1.16613 -0.0625,1.75 -0.17859,1.02823 -0.43566,2.03701 -0.75,3.03125 -0.4481,1.42192 -1.06449,2.78824 -1.71875,4.125 -0.84407,1.76001 -1.8708,3.44227 -2.90625,5.09375 -1.25028,1.93553 -2.61489,3.7774 -4.03125,5.59375 -1.62054,2.06868 -3.43495,3.97802 -5.25,5.875 -2.02334,2.14383 -4.1856,4.15442 -6.375,6.125 -2.46821,2.20145 -5.07907,4.22918 -7.71875,6.21875 -2.95428,2.19766 -5.98029,4.28297 -9.03125,6.34375 -3.2721,2.18472 -6.66795,4.19308 -10.09375,6.125 -3.69376,2.04273 -7.49233,3.89502 -11.3125,5.6875 -3.93529,1.82087 -7.9318,3.51313 -11.96875,5.09375 -3.91353,1.48736 -7.84841,2.84322 -11.84375,4.09375 -3.53029,1.10822 -7.12818,2.05794 -10.75,2.8125 -3.08152,0.6295 -6.20811,1.00977 -9.34375,1.21875 -2.75652,0.17432 -5.5034,0.0274 -8.25,-0.21875 -2.6106,-0.23732 -5.1964,-0.63443 -7.78125,-1.0625 -2.488,-0.44964 -5.00221,-0.88938 -7.5,-1.28125 -2.05586,-0.32482 -4.09574,-0.61273 -6.15625,-0.90625 -0.81239,-0.10087 -1.63136,-0.23454 -2.4375,-0.375 -5.32812,-1.00703 -6.07813,3.02422 -0.75,4.03125 0.83834,0.17031 1.65676,0.35531 2.5,0.5 2.03684,0.36774 4.08632,0.73631 6.125,1.09375 2.49317,0.45498 4.97606,0.88607 7.46875,1.34375 2.68546,0.44381 5.3839,0.88815 8.09375,1.15625 2.97819,0.30408 5.97455,0.45012 8.96875,0.3125 3.35581,-0.17221 6.69371,-0.51202 10,-1.125 3.79384,-0.72824 7.54803,-1.60935 11.25,-2.71875 4.13049,-1.23952 8.21356,-2.63789 12.25,-4.15625 4.1495,-1.61788 8.27496,-3.3366 12.3125,-5.21875 3.91901,-1.87447 7.8151,-3.79037 11.59375,-5.9375 3.52797,-2.02109 7.00866,-4.1239 10.375,-6.40625 3.10766,-2.13193 6.19333,-4.33564 9.1875,-6.625 2.72428,-2.10452 5.39447,-4.27125 7.9375,-6.59375 2.2452,-2.07366 4.48133,-4.16545 6.5625,-6.40625 1.90676,-2.02751 3.74808,-4.09791 5.4375,-6.3125 1.47279,-1.95602 2.89865,-3.9479 4.1875,-6.03125 1.10126,-1.80612 2.15945,-3.63295 3.03125,-5.5625 0.68907,-1.54769 1.34327,-3.10952 1.78125,-4.75 0.3346,-1.22797 0.63834,-2.48295 0.78125,-3.75 0.0798,-0.96996 0.11732,-1.94694 -0.0937,-2.90625 -0.14735,-0.67793 -0.32185,-1.34104 -0.6875,-1.9375 C 887.18497,395.49494 886.00857,394.72698 885.1875,394.84375 Z"
       id="path4175"
       inkscape:connector-curvature="0" />
  </g>
  <g
     inkscape:groupmode="layer"
     id="layer4"
     inkscape:label="monocle"
     transform="translate(-509.23513,-106.43566)">
    <g
       id="g4264">
      <path
         inkscape:connector-curvature="0"
         d="m 822.59044,251.30097 c 0.58657,0.035 1.11639,0.32102 1.61837,0.60144 0.51843,0.33468 1.00229,0.72197 1.46081,1.13417 0.46063,0.44951 0.87356,0.94666 1.26876,1.45396 0.38216,0.53375 0.7551,1.07325 1.10039,1.6317 0.33559,0.56081 0.60366,1.15705 0.90189,1.73766 0.32719,0.61563 0.60579,1.25504 0.85287,1.9065 0.24158,0.62972 0.43603,1.27497 0.61965,1.92342 0.16007,0.62489 0.30677,1.2532 0.42892,1.88663 0.12057,0.61631 0.21785,1.23729 0.30059,1.85976 0.095,0.63013 0.0906,1.26897 0.0867,1.90452 0.0157,0.66629 -0.10017,1.31861 -0.2404,1.96633 -0.13601,0.6605 -0.42439,1.26647 -0.76135,1.84498 -0.3339,0.57352 -0.798,1.04344 -1.28637,1.48464 -0.48647,0.42188 -1.03741,0.74926 -1.62554,1.00535 -0.65961,0.2907 -1.36753,0.3637 -2.079,0.38003 -0.6787,9e-4 -1.33784,-0.13802 -1.98215,-0.34087 -0.73737,-0.23688 -1.4031,-0.64428 -2.0337,-1.08573 -0.61872,-0.40907 -1.16742,-0.91194 -1.6935,-1.43195 -0.59971,-0.61758 -1.12415,-1.3017 -1.6068,-2.01293 -0.42942,-0.6922 -0.82873,-1.40308 -1.22384,-2.11544 -0.41114,-0.76289 -0.78151,-1.54676 -1.05832,-2.36824 -0.26284,-0.82771 -0.44754,-1.67557 -0.55091,-2.53726 -0.11122,-0.78687 -0.11868,-1.57961 -0.11133,-2.37226 0.0391,-0.82968 0.17511,-1.64458 0.40116,-2.44259 0.22868,-0.80349 0.66267,-1.50884 1.1723,-2.16127 0.53377,-0.67003 1.2046,-1.1813 1.95644,-1.58072 0.71288,-0.37903 1.49185,-0.5849 2.28586,-0.70107 0.59745,-0.0666 1.19807,-0.0821 1.79851,-0.0933 0.0867,-0.004 0.17347,-0.008 0.2602,-0.0125 5.0097,-0.18806 5.15269,3.62097 0.14299,3.80903 l 0,0 c -0.0817,0.002 -0.16348,0.004 -0.24522,0.007 -0.47611,0.031 -0.95323,0.054 -1.4282,0.0973 -0.35558,0.0404 -0.69556,0.13529 -1.01798,0.29063 -0.26774,0.14008 -0.51681,0.29941 -0.71839,0.53202 -0.20538,0.26989 -0.41196,0.53715 -0.48594,0.87653 -0.13737,0.47017 -0.18629,0.95983 -0.22229,1.44686 -0.0163,0.60859 0.0111,1.21057 0.0931,1.8147 0.0809,0.59734 0.20661,1.18427 0.38486,1.76113 0.21082,0.60512 0.48099,1.18603 0.79634,1.74398 0.33463,0.62126 0.68256,1.23744 1.05406,1.83723 0.31626,0.49992 0.67601,0.97456 1.06253,1.42198 0.37989,0.37888 0.75161,0.76515 1.20433,1.06056 0.29554,0.22519 0.61497,0.42338 0.9478,0.58792 0.28003,0.0927 0.55414,0.18595 0.85492,0.18217 0.19199,-0.002 0.35889,0.007 0.54055,-0.058 0.22419,-0.11459 0.45564,-0.22281 0.64633,-0.39084 0.18225,-0.13668 0.33029,-0.31756 0.46896,-0.496 0.1456,-0.27056 0.29383,-0.53573 0.3423,-0.84464 0.092,-0.3609 0.1441,-0.73288 0.13285,-1.10592 -0.003,-0.44541 0.0194,-0.89712 -0.0634,-1.33647 -0.0927,-0.55883 -0.17889,-1.11842 -0.28183,-1.67551 -0.1117,-0.54569 -0.21976,-1.09224 -0.37719,-1.62721 -0.13312,-0.52332 -0.29378,-1.04075 -0.49557,-1.54186 -0.20068,-0.50962 -0.40672,-1.01656 -0.66552,-1.50034 -0.27307,-0.5099 -0.4964,-1.04418 -0.7912,-1.54223 -0.26092,-0.45185 -0.56021,-0.88191 -0.85584,-1.31112 -0.24411,-0.34208 -0.50932,-0.67555 -0.80374,-0.97526 -0.24937,-0.25326 -0.53857,-0.46085 -0.81295,-0.68522 -0.18844,-0.12386 -0.22992,-0.20612 -0.38415,-0.25635 C 817.15601,253.94411 817.87332,250.35755 822.59044,251.30097 Z"
         id="path4224"
         style="fill:#000000;fill-opacity:1;fill-rule:nonzero;stroke:none" />
      <path
         inkscape:connector-curvature="0"
         d="m 816.69527,267.70911 c -0.3317,-0.008 -0.65937,-0.063 -0.98939,-0.0931 -0.28099,-0.0439 -0.56902,-0.0119 -0.85024,0.006 -0.29477,0.0859 -0.0602,0.006 0.11951,-0.13186 0.10309,-0.0638 0.17287,-0.27435 0.21634,-0.4589 0.11885,0.49344 -0.22273,-0.4337 -0.2555,-0.49488 -0.16311,-0.23644 -0.4149,-0.38823 -0.67209,-0.50311 4.61505,1.39583 3.55375,4.90479 -1.06129,3.50896 l 0,0 c -0.44606,-0.16491 -0.87896,-0.38099 -1.16927,-0.77543 -0.34181,-0.5648 -0.56969,-1.11868 -0.54167,-1.78873 0.0257,-0.77216 0.26006,-1.47491 0.78749,-2.05427 0.60219,-0.55456 1.26377,-0.951 2.09504,-1.04682 0.60241,-0.0709 1.21335,-0.0978 1.8164,-0.0123 0.41048,0.0652 0.82966,0.11553 1.22198,0.2584 C 822.12971,265.06596 821.41239,268.65253 816.69527,267.70911 Z"
         id="path4226"
         style="fill:#000000;fill-opacity:1;fill-rule:nonzero;stroke:none" />
      <path
         inkscape:connector-curvature="0"
         d="m 811.45864,270.45731 c -0.0793,0.0728 -0.0938,0.10217 -0.20301,0.21805 0.003,0.037 -0.29631,0.44074 -0.13013,0.19571 0.0737,-0.0374 0.043,-0.48785 0.002,-0.69143 -0.0514,-0.13744 -0.14216,-0.26235 -0.24888,-0.36304 -0.38922,-0.19082 -0.81004,-0.15426 -1.19734,0.0252 -0.004,0.002 -0.008,0.003 -0.0117,0.005 3.96156,-2.74244 6.04672,0.26965 2.08516,3.01209 l 0,0 c -0.057,0.0384 -0.11391,0.0768 -0.17087,0.11516 -0.75299,0.41479 -1.54941,0.49341 -2.34771,0.14699 -0.63169,-0.31161 -1.14782,-0.75067 -1.46303,-1.39265 -0.31622,-0.73532 -0.40167,-1.51451 -0.0835,-2.27081 0.23935,-0.52133 0.52919,-1.00713 0.93494,-1.41859 0.3462,-0.33913 0.74024,-0.67891 1.20305,-0.8436 C 814.11786,265.05023 815.74885,268.31221 811.45864,270.45731 Z"
         id="path4228"
         style="fill:#000000;fill-opacity:1;fill-rule:nonzero;stroke:none" />
      <path
         inkscape:connector-curvature="0"
         d="m 805.98401,274.17325 c 0.20356,-0.008 -0.13133,0.17083 -0.26386,0.26255 -0.11146,0.0918 -0.20405,0.2244 -0.28533,0.33192 0.16279,-0.26284 0.13925,-0.51156 0.0635,-0.79645 0.11781,7.2e-4 -0.24212,-0.25432 -0.34449,-0.32193 -0.30309,-0.136 -0.60376,-0.14162 -0.92645,-0.0708 4.57104,-1.51608 5.72376,1.95942 1.15271,3.4755 l 0,0 c -0.58046,0.16334 -1.13321,0.19044 -1.7044,-0.0306 -0.67823,-0.31126 -1.22014,-0.78188 -1.54499,-1.46535 -0.35703,-0.92226 -0.41559,-1.83724 0.0809,-2.73355 0.37928,-0.5928 0.82295,-1.1254 1.41373,-1.52146 0.50296,-0.3305 1.04125,-0.61509 1.64137,-0.71639 C 809.98382,269.64326 810.70113,273.22983 805.98401,274.17325 Z"
         id="path4230"
         style="fill:#000000;fill-opacity:1;fill-rule:nonzero;stroke:none" />
      <path
         inkscape:connector-curvature="0"
         d="m 800.74435,278.31446 c -0.13815,0.11524 -0.0705,0.11685 0.0871,-0.0377 0.16056,-0.23212 0.24151,-0.47667 0.20021,-0.75269 0.0426,-0.0342 -0.15506,-0.196 -0.31548,-0.27851 -0.40959,-0.18551 -0.78834,-0.12278 -1.1887,0.0179 4.23687,-2.32794 6.00688,0.89347 1.77001,3.22142 l 0,0 c -0.67066,0.28712 -1.30239,0.43723 -2.02078,0.16061 -0.75807,-0.33793 -1.35704,-0.86204 -1.69633,-1.6351 -0.34309,-0.93992 -0.38972,-1.86665 0.12795,-2.76335 0.36283,-0.501 0.7971,-0.99367 1.40507,-1.19457 C 803.40358,272.90737 805.03457,276.16935 800.74435,278.31446 Z"
         id="path4232"
         style="fill:#000000;fill-opacity:1;fill-rule:nonzero;stroke:none" />
      <path
         inkscape:connector-curvature="0"
         d="m 796.73992,283.16362 c -0.14578,0.27163 0.14744,-0.13962 0.19035,-0.24068 0.1235,-0.45187 0.045,-0.93871 -0.30642,-1.26582 -0.26457,-0.19854 -0.52577,-0.21768 -0.8327,-0.13227 -0.0261,0.0116 -0.0521,0.0231 -0.0782,0.0347 10e-4,-10e-4 0.002,-0.002 0.004,-0.003 4.037,-2.70256 6.09183,0.36689 2.05484,3.06945 l 0,0 c -0.30939,0.2057 -0.13638,0.0996 -0.52383,0.31022 -0.91906,0.33 -1.81299,0.35041 -2.68082,-0.16285 -0.93986,-0.68367 -1.45651,-1.63461 -1.22265,-2.82065 0.21834,-0.66487 0.56047,-1.35675 1.20223,-1.71346 C 798.39304,277.35388 800.58659,280.27862 796.73992,283.16362 Z"
         id="path4234"
         style="fill:#000000;fill-opacity:1;fill-rule:nonzero;stroke:none" />
      <path
         inkscape:connector-curvature="0"
         d="m 794.09182,286.56072 c -0.17054,0.0907 -0.30142,0.3681 -0.30782,0.37833 0.1948,-0.2792 0.13798,-0.61093 0.0462,-0.91927 -0.10077,-0.26923 -0.28347,-0.38617 -0.53911,-0.48926 4.75208,1.15442 3.87435,4.76756 -0.87773,3.61315 l 0,0 c -0.80424,-0.24648 -1.46141,-0.64007 -1.88484,-1.39735 -0.39395,-0.92553 -0.4465,-1.82703 0.0581,-2.72684 0.22779,-0.37095 0.68165,-0.97029 0.92908,-1.03484 C 794.90385,280.59654 797.47993,283.17262 794.09182,286.56072 Z"
         id="path4236"
         style="fill:#000000;fill-opacity:1;fill-rule:nonzero;stroke:none" />
    </g>
    <g
       id="g4273"
       transform="matrix(0.98270585,0.18517345,-0.18517345,0.98270585,59.33332,-149.25316)">
      <path
         id="path4256"
         d="m 849.46875,153.0625 -15,4.3125 -4.8125,9.4375 -0.375,7.15625 -2.6875,11.25 L 823.875,197.75 c -8.30002,-1.37189 -16.05748,-0.24919 -24.59375,1.03125 l -7.84375,7.875 0.71875,13.5625 15,12.15625 18.5625,13.5625 L 845,254.5 l 30,4.28125 18.5625,-2.125 10.71875,-8.59375 0,-10 -4.28125,-10 c -9.30778,-6.86907 -14.345,-9.62754 -19.46875,-12.375 l 2.875,-6.1875 1.78125,-7.5 3.75,-14.09375 6.78125,-13.9375 c 0,0 1.95982,-3.37946 1.78125,-4.09375 -0.17857,-0.71428 0.65413,-2.62158 0.53125,-3.9375 -0.0525,-0.56225 1.43078,0.33703 -0.53125,-1.625 -2.09954,-2.09955 -3.8442,-3.91541 -6.78125,-4.8125 -2.78132,-0.84952 -5.34669,-2.30524 -8.21875,-2.84375 0,0 -5.74559,-0.90718 -8.5625,-1.625 -5.36669,-1.36756 -11.82248,-0.48611 -20,-0.71875 C 852.3928,154.26855 849.46875,153.0625 849.46875,153.0625 Z"
         style="fill:#1a1a1a;fill-opacity:1;stroke:none"
         inkscape:connector-curvature="0" />
      <path
         inkscape:connector-curvature="0"
         d="m 798.60149,201.88589 c 0.24708,-0.10527 -0.43199,0.41799 -0.52351,0.49512 -0.35106,0.26546 -0.6668,0.5699 -0.97935,0.87805 -0.30518,0.33936 -0.62702,0.66483 -0.90995,1.02336 -0.32135,0.38816 -0.62293,0.79115 -0.91567,1.20097 -0.26756,0.45618 -0.54506,0.90675 -0.80669,1.36647 -0.25629,0.43368 -0.46926,0.89064 -0.67294,1.35075 -0.18031,0.48496 -0.32964,0.9816 -0.45524,1.48344 -0.14452,0.49615 -0.25788,0.99613 -0.31615,1.50888 -0.0733,0.49485 -0.0635,0.98951 -0.0322,1.48657 0.0499,0.50388 0.17142,0.9933 0.28488,1.48533 0.11525,0.56314 0.34494,1.09059 0.54661,1.62579 0.24155,0.58725 0.52691,1.15271 0.80699,1.72202 0.32966,0.60127 0.71439,1.17116 1.0949,1.74124 0.42934,0.68546 0.91153,1.33747 1.42625,1.96094 0.56112,0.71539 1.17279,1.38725 1.77993,2.06305 0.6259,0.66334 1.28186,1.29871 1.95307,1.91613 0.70029,0.63657 1.42288,1.24648 2.15809,1.84223 0.78077,0.62217 1.5967,1.19724 2.39533,1.79556 0.85015,0.63877 1.73766,1.22452 2.61782,1.82036 0.95283,0.64674 1.9445,1.23285 2.91359,1.85419 1.03084,0.65152 2.06568,1.29603 3.07769,1.97669 0.99699,0.6655 1.97538,1.35901 2.93655,2.07521 0.91343,0.6805 1.83853,1.34444 2.76002,2.01379 0.92582,0.63306 1.82224,1.30741 2.73753,1.95514 0.85411,0.63832 1.7301,1.24579 2.6065,1.85274 0.83321,0.58932 1.69354,1.1367 2.55839,1.678 0.8517,0.523 1.72674,1.00336 2.61144,1.46749 0.97942,0.50809 1.98336,0.96604 2.98718,1.42315 1.08492,0.48967 2.19014,0.93405 3.29986,1.36415 1.20385,0.47338 2.41138,0.93791 3.62543,1.38452 1.27644,0.49693 2.5792,0.92251 3.88674,1.32925 1.39212,0.43639 2.80392,0.80502 4.20936,1.1952 1.39706,0.36575 2.7881,0.75388 4.18326,1.12672 1.33958,0.33141 2.67116,0.69366 4.00199,1.05858 1.23495,0.29991 2.46014,0.6361 3.68021,0.99155 0.997,0.30329 2.00954,0.5505 3.0181,0.81147 0.87516,0.212 1.75457,0.40452 2.64191,0.55805 0.89271,0.14967 1.78852,0.27919 2.68662,0.39197 0.90289,0.10573 1.80546,0.21252 2.71132,0.28974 0.87529,0.0906 1.75343,0.15327 2.63347,0.1588 0.93565,-0.005 1.87127,-0.0116 2.80687,-0.0228 0.93613,-0.0135 1.87256,-0.008 2.80822,-0.0454 0.9036,-0.0627 1.80919,-0.10637 2.71109,-0.1904 0.83637,-0.0984 1.67135,-0.20786 2.50838,-0.30049 0.74623,-0.0845 1.48089,-0.24551 2.22072,-0.3716 0.67178,-0.14737 1.33979,-0.30382 1.99804,-0.50332 0.7066,-0.24001 1.40057,-0.51305 2.0993,-0.77452 0.703,-0.28141 1.41485,-0.54851 2.10294,-0.86526 0.62994,-0.28917 1.26943,-0.55557 1.89086,-0.86262 0.59219,-0.29662 1.19063,-0.58431 1.76108,-0.92169 0.60603,-0.34121 1.19647,-0.70794 1.80327,-1.04787 0.53942,-0.33942 1.08899,-0.66239 1.63701,-0.98764 0.40523,-0.27272 0.78683,-0.57642 1.16993,-0.87872 0.32184,-0.31033 0.63363,-0.63305 0.90158,-0.99165 0.30226,-0.3809 0.52574,-0.8143 0.7611,-1.23762 0.21295,-0.42983 0.41496,-0.86373 0.57175,-1.31741 0.16825,-0.39811 0.22796,-0.82325 0.29365,-1.24642 0.0846,-0.46741 0.0582,-0.93893 0.0536,-1.41105 0.0299,-0.48883 -0.0573,-0.9683 -0.11765,-1.45111 -0.0414,-0.49463 -0.21536,-0.96366 -0.35389,-1.43671 -0.16246,-0.57022 -0.38235,-1.12181 -0.57428,-1.68238 -0.1623,-0.54524 -0.36082,-1.07569 -0.56017,-1.60783 -0.13856,-0.44432 -0.32188,-0.8645 -0.52936,-1.27957 -0.19548,-0.40964 -0.37636,-0.82603 -0.5585,-1.24171 -0.13446,-0.22051 -0.29952,-0.41875 -0.45349,-0.62603 -0.20741,-0.32142 -0.4424,-0.61984 -0.67884,-0.91998 -0.15934,-0.20078 -0.3634,-0.465 -0.50357,-0.62134 -0.27809,-0.26846 -0.51543,-0.57362 -0.77121,-0.86215 -0.25977,-0.29323 -0.50139,-0.60028 -0.75302,-0.89972 -0.23339,-0.31991 -0.48642,-0.6233 -0.7305,-0.93481 -0.22832,-0.27944 -0.47318,-0.53845 -0.72905,-0.79217 -0.25193,-0.2485 -0.5056,-0.49522 -0.75914,-0.74208 -0.0473,-0.0405 -0.0946,-0.081 -0.14186,-0.12154 -3.59421,-3.35656 -1.04212,-6.08935 2.55209,-2.73279 l 0,0 c 0.0387,0.0398 0.0775,0.0796 0.11618,0.11943 0.2838,0.24882 0.56808,0.49716 0.84657,0.75194 0.3852,0.36036 0.749,0.74304 1.05883,1.17134 0.24941,0.30803 0.48133,0.62908 0.7265,0.94048 0.19505,0.27081 0.40282,0.53139 0.63192,0.77357 0.19812,0.22832 0.37212,0.47033 0.57494,0.694 0.26773,0.28266 0.52568,0.57395 0.77952,0.86917 0.2818,0.32964 0.56156,0.66404 0.78087,1.03985 0.31533,0.41135 0.61258,0.83971 0.85602,1.29795 0.19453,0.3889 0.38973,0.77749 0.57937,1.1688 0.24538,0.52052 0.50898,1.03239 0.7014,1.57655 0.21719,0.56029 0.4117,1.12776 0.60409,1.69664 0.22471,0.61891 0.48063,1.22877 0.64527,1.86735 0.19962,0.66939 0.37253,1.3457 0.45115,2.04155 0.0836,0.62695 0.15439,1.25596 0.15878,1.88933 0.012,0.67765 0.008,1.35832 -0.11243,2.0277 -0.0978,0.68359 -0.21993,1.36574 -0.47773,2.01002 -0.23431,0.61259 -0.48273,1.22083 -0.78561,1.80335 -0.32446,0.62896 -0.67748,1.24405 -1.11384,1.80352 -0.45815,0.57197 -0.9511,1.1116 -1.51605,1.58129 -0.49605,0.41766 -1.01645,0.80312 -1.54771,1.17468 -0.56834,0.37609 -1.13486,0.75648 -1.72663,1.0952 -0.60764,0.36581 -1.22189,0.71992 -1.83774,1.07141 -0.62662,0.34318 -1.25334,0.68544 -1.89864,0.99288 -0.67682,0.35997 -1.37975,0.66305 -2.07011,0.99558 -0.75265,0.32779 -1.5038,0.66131 -2.27342,0.94766 -0.79603,0.32245 -1.60581,0.60912 -2.42627,0.8631 -0.79618,0.2277 -1.5961,0.44582 -2.40882,0.60725 -0.80055,0.15229 -1.60103,0.31388 -2.40981,0.4154 -0.86177,0.12878 -1.72425,0.25412 -2.58836,0.36578 -0.98346,0.11613 -1.97334,0.16311 -2.96086,0.23333 -0.98121,0.0472 -1.96426,0.0207 -2.94636,0.0404 -0.96284,0.008 -1.92569,0.0267 -2.88857,0.0215 -0.99103,-0.0132 -1.97595,-0.0847 -2.9624,-0.18104 -0.95087,-0.0944 -1.90288,-0.18006 -2.85067,-0.30251 -0.96536,-0.12524 -1.93079,-0.25305 -2.88873,-0.42778 -0.95718,-0.17843 -1.91377,-0.36125 -2.86349,-0.57644 -1.05944,-0.2294 -2.11251,-0.48527 -3.16323,-0.75167 -1.22001,-0.30369 -2.43476,-0.62787 -3.65939,-0.91291 -1.34745,-0.33101 -2.68617,-0.69665 -4.03507,-1.02204 -1.412,-0.37254 -2.8251,-0.73878 -4.23821,-1.10682 -1.46718,-0.4071 -2.94229,-0.78921 -4.38979,-1.26331 -1.34779,-0.46006 -2.69827,-0.91389 -4.02029,-1.44505 -1.23675,-0.46042 -2.46489,-0.94452 -3.68735,-1.44154 -1.18877,-0.46973 -2.36944,-0.96289 -3.52952,-1.49979 -1.06663,-0.51104 -2.13801,-1.013 -3.17738,-1.57865 -0.94961,-0.52804 -1.89911,-1.05591 -2.82905,-1.61824 -0.90381,-0.56756 -1.81135,-1.13031 -2.68282,-1.74717 -0.90794,-0.60115 -1.79116,-1.2387 -2.67789,-1.87051 -0.93554,-0.65135 -1.85488,-1.3253 -2.78903,-1.97865 -0.93102,-0.66767 -1.86365,-1.33286 -2.77711,-2.02466 -0.92192,-0.65779 -1.84111,-1.3192 -2.78813,-1.94087 -1.00372,-0.64588 -2.00828,-1.29026 -3.01197,-1.9362 -1.00413,-0.62496 -1.99627,-1.26927 -2.97594,-1.9319 -0.95727,-0.62482 -1.88037,-1.29792 -2.79357,-1.98525 -0.83748,-0.63258 -1.67751,-1.26153 -2.50236,-1.91074 -0.80376,-0.6565 -1.59654,-1.32554 -2.35717,-2.03198 -0.75153,-0.71184 -1.51638,-1.41162 -2.21035,-2.18127 -0.65193,-0.7375 -1.30001,-1.47791 -1.9106,-2.25056 -0.58109,-0.7549 -1.14777,-1.52144 -1.63993,-2.33837 -0.42869,-0.71553 -0.88038,-1.41874 -1.25584,-2.16445 -0.31623,-0.67189 -0.66404,-1.33053 -0.92375,-2.02776 -0.2651,-0.6833 -0.51688,-1.37445 -0.671,-2.09258 -0.18894,-0.73115 -0.3312,-1.47205 -0.38695,-2.22648 -0.0236,-0.69706 -0.0283,-1.39216 0.0549,-2.08636 0.0752,-0.70817 0.22743,-1.40034 0.41016,-2.08827 0.1902,-0.68118 0.38653,-1.3626 0.67164,-2.01156 0.25776,-0.60665 0.54086,-1.2033 0.8734,-1.77297 0.3276,-0.54747 0.64606,-1.1009 0.99552,-1.63459 0.3482,-0.49692 0.73468,-0.96303 1.10829,-1.44066 0.39061,-0.45451 0.79992,-0.89368 1.22093,-1.32001 0.39183,-0.35924 0.76138,-0.74743 1.2037,-1.04728 0.40261,-0.32706 0.82913,-0.61722 1.30079,-0.83532 C 801.26072,196.4788 802.89171,199.74078 798.60149,201.88589 Z"
         id="path4238"
         style="fill:#000000;fill-opacity:1;fill-rule:nonzero;stroke:none" />
      <path
         inkscape:connector-curvature="0"
         d="m 831.7755,169.23834 c -0.0329,0.44131 -0.15447,0.88481 -0.22632,1.32631 -0.12478,0.65802 -0.23611,1.31833 -0.34219,1.97972 -0.12292,0.91075 -0.29502,1.81354 -0.44567,2.7199 -0.22143,1.10023 -0.40634,2.20674 -0.62426,3.30758 -0.23055,1.18166 -0.45382,2.3646 -0.69432,3.54429 -0.26118,1.13075 -0.45174,2.27606 -0.70069,3.40924 -0.24171,1.05194 -0.45334,2.10986 -0.66561,3.16795 -0.20696,1.01409 -0.47188,2.01517 -0.69442,3.02575 -0.1984,0.89191 -0.36716,1.78982 -0.58993,2.67623 -0.20226,0.75156 -0.38484,1.50804 -0.5612,2.266 -0.13761,0.74557 -0.33494,1.47819 -0.54266,2.20679 -0.15736,0.60578 -0.31369,1.21108 -0.45501,1.82074 -0.12591,0.64039 -0.31514,1.26759 -0.49819,1.89379 -0.12377,0.52737 -0.26975,1.04816 -0.43189,1.56477 -0.0747,0.21989 -0.16203,0.43371 -0.2564,0.64565 -1.74857,4.54493 -5.20422,3.21544 -3.45565,-1.32949 l 0,0 c 0.0197,-0.0987 0.0393,-0.20034 0.0578,-0.30013 0.11667,-0.53527 0.21664,-1.07479 0.36905,-1.60176 0.14638,-0.56879 0.32177,-1.13034 0.43978,-1.706 0.14051,-0.66738 0.29217,-1.33298 0.46175,-1.99358 0.16865,-0.67915 0.3542,-1.35361 0.47388,-2.04385 0.16351,-0.78783 0.3459,-1.57152 0.53093,-2.35453 0.1968,-0.86005 0.34583,-1.72837 0.51848,-2.59365 0.20667,-0.97869 0.40963,-1.95808 0.62687,-2.93453 0.19421,-1.09015 0.42146,-2.17409 0.6584,-3.25569 0.2264,-1.13404 0.41074,-2.27628 0.65528,-3.4069 0.24969,-1.17959 0.45343,-2.36734 0.70484,-3.54658 0.23252,-1.05738 0.46102,-2.11555 0.69212,-3.17325 0.17414,-0.91529 0.37383,-1.82525 0.53879,-2.74224 0.14647,-0.68601 0.34016,-1.35937 0.47409,-2.04792 0.10641,-0.42506 0.22061,-0.85538 0.39577,-1.24192 C 829.13236,163.80391 832.71892,164.52122 831.7755,169.23834 Z"
         id="path4246"
         style="fill:#000000;fill-opacity:1;fill-rule:nonzero;stroke:none" />
      <path
         inkscape:connector-curvature="0"
         d="m 891.11368,186.73683 c 0.11384,0.53806 0.0603,1.09033 0.0237,1.63359 -0.0614,0.81057 -0.16796,1.6191 -0.29334,2.42226 -0.14155,1.00345 -0.37561,1.9889 -0.59064,2.97798 -0.25869,1.12447 -0.56466,2.23692 -0.87542,3.34789 -0.30869,1.17577 -0.67474,2.3349 -1.04141,3.49349 -0.35241,1.18317 -0.75248,2.35097 -1.15154,3.51894 -0.36279,1.12369 -0.76718,2.23308 -1.16862,3.34334 -0.32535,0.9971 -0.68591,1.9819 -1.03337,2.97124 -0.30289,0.90333 -0.64689,1.79127 -0.98808,2.68068 -0.28079,0.80891 -0.56833,1.61502 -0.88978,2.40872 -0.25329,0.6647 -0.50568,1.32914 -0.71107,2.01044 -0.20192,0.69005 -0.47753,1.35537 -0.7037,2.03716 -0.21779,0.61847 -0.3645,1.25794 -0.56107,1.88292 -0.22142,0.66379 -0.39643,1.34007 -0.63254,1.99891 -0.2292,0.65395 -0.41971,1.32017 -0.65389,1.9724 -0.24401,0.61966 -0.43219,1.2587 -0.63562,1.89227 -0.21583,0.60507 -0.44684,1.20554 -0.63424,1.82027 -0.17234,0.62468 -0.38739,1.23543 -0.60003,1.84738 -0.17742,0.51778 -0.36622,1.03037 -0.5802,1.53406 -0.08,0.20715 -0.18646,0.40228 -0.28944,0.59848 -2.0964,4.4091 -5.44876,2.81515 -3.35237,-1.59395 l 0,0 c 0.0419,-0.11182 0.0709,-0.22632 0.11334,-0.33828 0.15252,-0.47849 0.28385,-0.96387 0.44426,-1.44002 0.19326,-0.58634 0.40975,-1.16507 0.5651,-1.76337 0.20408,-0.64096 0.4108,-1.28078 0.64061,-1.91313 0.2332,-0.64398 0.40562,-1.30957 0.65233,-1.94942 0.22702,-0.64743 0.42731,-1.30291 0.6522,-1.95123 0.21004,-0.62157 0.39837,-1.24978 0.60454,-1.87267 0.20167,-0.65251 0.34451,-1.32333 0.57468,-1.96772 0.22072,-0.64771 0.45729,-1.2909 0.64832,-1.94794 0.23967,-0.76544 0.4883,-1.52844 0.77242,-2.27876 0.28707,-0.78525 0.56473,-1.57228 0.82541,-2.36674 0.30927,-0.87631 0.64196,-1.74445 0.91636,-2.6328 0.34189,-0.98796 0.66504,-1.98064 0.97438,-2.97924 0.36897,-1.11952 0.76683,-2.22919 1.12475,-3.35234 0.39338,-1.13751 0.76752,-2.28135 1.13185,-3.4285 0.35953,-1.11739 0.69724,-2.24145 1.0215,-3.36959 0.30977,-1.05765 0.60916,-2.11859 0.87864,-3.18718 0.24442,-0.89112 0.47362,-1.78578 0.63625,-2.69614 0.14245,-0.69472 0.25689,-1.39711 0.35852,-2.09858 0.0535,-0.42336 0.11506,-0.84257 0.17132,-1.26482 C 887.45775,181.92849 891.11368,181.92849 891.11368,186.73683 Z"
         id="path4248"
         style="fill:#000000;fill-opacity:1;fill-rule:nonzero;stroke:none" />
      <path
         inkscape:connector-curvature="0"
         d="m 849.94682,156.05873 c -0.34101,-0.20964 -0.43041,-0.16131 -0.50777,-0.1443 -0.43755,0.13311 -1.00337,0.2261 -1.48319,0.3484 -1.36198,0.36553 -2.70106,0.78196 -4.02712,1.22777 -1.34615,0.45162 -2.64285,0.97603 -3.84415,1.65023 -1.12402,0.55216 -1.95532,1.34281 -2.75905,2.17291 -0.91707,0.94152 -1.65674,1.9822 -2.33073,3.05008 -0.66693,1.10391 -1.25982,2.23256 -1.70081,3.41086 -0.37869,1.01555 -0.50794,2.04224 -0.42983,3.09746 0.12961,1.20121 0.59352,2.34661 1.10596,3.4681 0.70359,1.38123 1.70912,2.62827 2.81119,3.81217 1.39495,1.5049 3.22974,2.62427 5.13729,3.64794 2.545,1.28117 5.34614,2.13112 8.15192,2.93124 3.34012,0.87076 6.78502,1.41916 10.24902,1.82238 3.55931,0.42392 7.15135,0.52046 10.74166,0.47283 3.11859,-0.041 6.20703,-0.35517 9.174,-1.1531 2.53642,-0.73449 4.50552,-2.17471 6.32516,-3.74868 1.83319,-1.6148 3.2905,-3.47168 4.47786,-5.44572 0.88004,-1.44154 1.28448,-2.99758 1.47183,-4.58959 0.87506,-7.10747 7.44315,-6.56006 6.56809,0.54742 l 0,0 c -0.28371,2.23761 -0.85208,4.43014 -2.0475,6.47226 -1.4893,2.49382 -3.26707,4.86019 -5.57068,6.90897 -2.62029,2.20637 -5.51807,4.16877 -9.104,5.21344 -3.61217,0.96519 -7.3189,1.53469 -11.12819,1.59321 -3.98463,0.0994 -7.97567,0.0131 -11.92419,-0.48212 -3.93114,-0.47537 -7.8375,-1.12116 -11.58844,-2.22476 -3.31434,-1.01342 -6.59206,-2.14926 -9.54168,-3.77668 -2.48292,-1.42924 -4.80411,-3.04034 -6.56031,-5.09686 -1.37789,-1.6236 -2.63821,-3.32037 -3.46759,-5.18948 -0.6746,-1.6135 -1.2427,-3.26387 -1.34887,-4.97857 -0.0569,-1.62255 0.11687,-3.23124 0.69047,-4.79286 0.56102,-1.46425 1.24452,-2.89319 2.10734,-4.25683 0.8809,-1.36417 1.84562,-2.69452 3.05038,-3.88544 1.19604,-1.16227 2.46372,-2.26639 4.01145,-3.12062 1.58082,-0.89262 3.25791,-1.63846 5.04819,-2.21052 1.59754,-0.49417 3.20788,-0.97178 4.88128,-1.26372 1.42678,-0.23469 2.88864,-0.37178 4.32385,-0.0915 0.83664,0.2202 1.67584,0.49673 2.29025,1.03502 C 858.90459,156.01025 855.6515,159.57896 849.94682,156.05873 Z"
         id="path4254"
         style="fill:#000000;fill-opacity:1;fill-rule:nonzero;stroke:none" />
      <path
         inkscape:connector-curvature="0"
         d="m 819.83411,219.72732 c 0.10021,0.13399 0.19565,0.3784 0.2796,0.55828 0.2051,0.40842 0.46042,0.79033 0.73288,1.15656 0.41802,0.57304 0.91658,1.0813 1.4377,1.56011 0.74014,0.68139 1.56114,1.26239 2.39083,1.82759 1.14452,0.77073 2.33393,1.47064 3.52187,2.17142 1.49466,0.86962 3.01528,1.69244 4.53912,2.50933 1.80231,0.96397 3.64498,1.84703 5.4969,2.71054 2.13105,0.98842 4.31469,1.8543 6.50741,2.69434 2.39223,0.89533 4.81997,1.69177 7.25581,2.45898 2.51539,0.79436 5.06612,1.46417 7.626,2.09708 2.53863,0.63146 5.1104,1.11156 7.6921,1.52663 1.69219,0.25291 0.84824,0.13334 2.5318,0.35901 3.9318,0.50881 3.54494,3.49828 -0.38686,2.98946 l 0,0 c -1.74471,-0.21799 -0.87222,-0.10173 -2.61747,-0.34889 -2.67295,-0.41275 -5.33177,-0.91142 -7.95999,-1.55377 -2.62058,-0.65754 -5.23314,-1.34738 -7.80642,-2.17427 -2.49362,-0.80066 -4.9762,-1.63718 -7.41722,-2.58822 -2.2475,-0.89738 -4.4807,-1.83398 -6.65214,-2.90485 -1.87845,-0.9278 -3.73969,-1.88817 -5.56293,-2.92126 -1.53724,-0.87142 -3.06527,-1.76009 -4.56225,-2.69938 -1.21777,-0.76886 -2.42242,-1.55997 -3.58331,-2.41305 -0.8912,-0.67549 -1.76883,-1.37042 -2.56068,-2.16287 -0.59109,-0.61118 -1.15523,-1.25226 -1.62268,-1.96484 -0.31839,-0.50524 -0.61412,-1.03031 -0.8159,-1.59432 -0.10956,-0.3043 -0.21509,-0.613 -0.25746,-0.93496 C 817.56911,217.72741 819.3624,217.36876 819.83411,219.72732 Z"
         id="path4262"
         style="fill:#000000;fill-opacity:1;fill-rule:nonzero;stroke:none" />
    </g>
  </g>
</svg>
