<?xml version="1.0" encoding="UTF-8" standalone="no"?>
<!-- Created with Inkscape (http://www.inkscape.org/) -->

<svg
   xmlns:dc="http://purl.org/dc/elements/1.1/"
   xmlns:cc="http://creativecommons.org/ns#"
   xmlns:rdf="http://www.w3.org/1999/02/22-rdf-syntax-ns#"
   xmlns:svg="http://www.w3.org/2000/svg"
   xmlns="http://www.w3.org/2000/svg"
   xmlns:sodipodi="http://sodipodi.sourceforge.net/DTD/sodipodi-0.dtd"
   xmlns:inkscape="http://www.inkscape.org/namespaces/inkscape"
   width="744.09448819"
   height="1052.3622047"
   id="svg2"
   version="1.1"
   inkscape:version="0.48+devel r"
   sodipodi:docname="player.svg"
   inkscape:export-filename="/home/aaron/Projects/Game-Design-Project/ChinguMovmentDemo/media/player.png"
   inkscape:export-xdpi="90"
   inkscape:export-ydpi="90">
  <defs
     id="defs4" />
  <sodipodi:namedview
     id="base"
     pagecolor="#ffffff"
     bordercolor="#666666"
     borderopacity="1.0"
     inkscape:pageopacity="0.0"
     inkscape:pageshadow="2"
     inkscape:zoom="0.7"
     inkscape:cx="330.91134"
     inkscape:cy="573.60427"
     inkscape:document-units="px"
     inkscape:current-layer="layer1"
     showgrid="false"
     inkscape:window-width="1280"
     inkscape:window-height="744"
     inkscape:window-x="0"
     inkscape:window-y="27"
     inkscape:window-maximized="1" />
  <metadata
     id="metadata7">
    <rdf:RDF>
      <cc:Work
         rdf:about="">
        <dc:format>image/svg+xml</dc:format>
        <dc:type
           rdf:resource="http://purl.org/dc/dcmitype/StillImage" />
        <dc:title></dc:title>
      </cc:Work>
    </rdf:RDF>
  </metadata>
  <g
     inkscape:label="Layer 1"
     inkscape:groupmode="layer"
     id="layer1">
    <path
       style="fill:#6b4c37;fill-opacity:1;fill-rule:nonzero;stroke:none"
       id="path810"
       d="m 376.87099,464.60205 c -0.885,-0.61802 -1.86485,-1.04986 -2.87104,-1.42634 -1.97605,-0.69416 -4.06281,-0.77075 -6.13436,-0.74757 -2.95511,0.0731 -5.81566,0.77707 -8.60381,1.7067 -3.20918,1.13512 -6.06786,2.9521 -8.7394,5.02746 -2.42926,1.92765 -4.35125,4.2964 -5.6988,7.07771 -0.94818,2.13986 -1.02375,4.27846 -0.3144,6.47812 0.81682,2.00906 2.3245,3.37455 4.23419,4.30899 2.35028,0.92728 4.74885,0.56511 7.11021,-0.0829 2.90975,-0.94798 5.50369,-2.5643 7.84363,-4.50741 1.92758,-1.61152 2.64712,-3.65838 2.90526,-6.06953 0.0814,-1.33471 0.4901,-2.47794 0.53817,-3.82053 -0.15655,-0.70909 0.38259,-0.82813 0.53914,-0.11904 l 0,0 c 0.65976,1.3362 1.65005,2.46039 1.76222,4.00268 0.13411,3.42827 -0.99976,6.26031 -3.5975,8.58161 -2.71841,2.27458 -5.7337,4.13551 -9.1621,5.14087 -3.14841,0.77238 -6.3176,1.06923 -9.38026,-0.25347 -2.69141,-1.37428 -4.85024,-3.2605 -5.9927,-6.13716 -1.00441,-3.0532 -1.10008,-6.09457 0.18378,-9.10675 1.56544,-3.33829 3.74393,-6.23915 6.63996,-8.55797 3.02075,-2.36223 6.25797,-4.42503 9.9204,-5.65256 3.18504,-1.0262 6.45135,-1.77067 9.81797,-1.77629 2.54162,0.0319 5.08993,0.23242 7.46929,1.20755 1.33801,0.57812 2.69168,1.21446 3.70884,2.29079 C 382.25224,465.0325 380.07355,467.4675 376.87099,464.60205 Z"
       inkscape:connector-curvature="0" />
    <path
       style="fill:#6b4c37;fill-opacity:1;fill-rule:nonzero;stroke:none"
       id="path812"
       d="m 356.84439,490.94139 c 0.48863,1.35316 0.75406,2.77344 1.01661,4.18385 0.45079,2.5105 0.77262,5.04163 1.07573,7.57342 0.42294,3.41938 0.65062,6.85803 0.85829,10.29582 0.20766,3.72934 0.40392,7.45931 0.62307,11.18799 0.21348,3.46345 0.41177,6.92657 0.41949,10.39728 0.27504,2.4925 -0.59097,4.77849 -1.03516,7.16472 0.0414,0.71194 -0.49986,0.74346 -0.54131,0.0315 l 0,0 c -0.71762,-2.3169 -1.84292,-4.48557 -1.86564,-6.99049 -0.40604,-3.44656 -0.63442,-6.90774 -0.84591,-10.37109 -0.22828,-3.73433 -0.45183,-7.46893 -0.62328,-11.20642 -0.16872,-3.38112 -0.36313,-6.7611 -0.63691,-10.13557 -0.21045,-2.47861 -0.4483,-4.95486 -0.75464,-7.42369 -0.17487,-1.36746 -0.36736,-2.73437 -0.4665,-4.10993 C 353.28252,487.88753 356.05868,487.29013 356.84439,490.94139 Z"
       inkscape:connector-curvature="0" />
    <path
       style="fill:#6b4c37;fill-opacity:1;fill-rule:nonzero;stroke:none"
       id="path814"
       d="m 328.36178,583.26773 c 0.25791,-1.43579 0.96982,-2.73473 1.65072,-4.00662 1.29982,-2.36078 2.98715,-4.46701 4.67417,-6.55638 2.34514,-2.8842 4.87416,-5.60776 7.49136,-8.24475 2.62634,-2.65281 5.51698,-5.00643 8.6221,-7.07087 3.11064,-2.02842 6.55064,-3.37468 10.10181,-4.39333 3.69213,-1.0649 7.50082,-1.02643 11.28589,-0.65737 3.76163,0.41481 7.35802,1.56582 10.83398,3.01581 3.1249,1.37855 6.0463,3.15636 8.91074,5.00368 2.19315,1.47467 4.41489,2.91982 6.37449,4.7005 0.83346,0.80477 0.96425,1.87408 1.59027,2.81253 0.39847,0.29212 0.17636,0.59509 -0.22211,0.30297 l 0,0 c -1.07158,-0.30727 -2.08286,-0.0886 -3.11704,-0.55714 -2.33526,-1.15101 -4.48483,-2.61708 -6.68949,-3.99542 -2.70856,-1.67814 -5.44859,-3.32262 -8.36305,-4.62388 -3.12232,-1.29597 -6.34494,-2.33561 -9.71839,-2.73117 -3.29585,-0.35285 -6.61804,-0.42295 -9.86261,0.38319 -3.18971,0.86787 -6.27969,2.05925 -9.07918,3.84604 -2.91543,1.89899 -5.63715,4.05021 -8.06821,6.54956 -2.55191,2.56023 -5.00959,5.21034 -7.39307,7.92829 -1.64511,1.87586 -3.30316,3.75765 -4.65282,5.86383 -0.68923,1.09362 -1.31376,2.23029 -2.05029,3.29197 C 329.54807,587.17952 327.2288,586.31808 328.36178,583.26773 Z"
       inkscape:connector-curvature="0" />
    <path
       style="fill:#6b4c37;fill-opacity:1;fill-rule:nonzero;stroke:none"
       id="path816"
       d="m 312.88813,504.57389 c 1.08716,-0.0587 2.1749,0.0835 3.25499,0.19278 1.80518,0.18095 3.61393,0.32644 5.42376,0.45213 2.84991,0.20609 5.70401,0.34304 8.55889,0.45699 3.54645,0.12825 7.09434,0.1513 10.63467,0.40737 1.90029,0.19617 3.56786,0.92587 5.45015,1.2254 0.98375,0.003 0.98148,0.75096 -0.002,0.74797 l 0,0 c -1.88994,0.28817 -3.5813,1.00875 -5.49482,1.14916 -3.58442,0.14946 -7.16631,0.0183 -10.74763,-0.17338 -2.90742,-0.1606 -5.81459,-0.35337 -8.70522,-0.71435 -1.84392,-0.23549 -3.68704,-0.47938 -5.51313,-0.83156 -1.04529,-0.19835 -2.09691,-0.39216 -3.11562,-0.70258 C 309.72537,506.44683 309.98159,504.2369 312.88813,504.57389 Z"
       inkscape:connector-curvature="0" />
    <path
       style="fill:#6b4c37;fill-opacity:1;fill-rule:nonzero;stroke:none"
       id="path818"
       d="m 367.43385,502.93738 c 1.10605,-0.18072 2.2068,-0.3594 3.29743,-0.62386 1.99742,-0.50986 3.92407,-1.24795 5.83614,-2.0094 2.76935,-1.11921 5.41924,-2.48954 8.00479,-3.97846 2.76765,-1.92321 5.83522,-3.24802 8.84532,-4.71288 0.69539,-0.50903 1.08242,0.0197 0.38704,0.52872 l 0,0 c -2.37172,2.48978 -4.66801,5.02288 -7.72318,6.72063 -2.68917,1.64961 -5.45353,3.19063 -8.42294,4.28402 -2.07404,0.76825 -4.1752,1.48488 -6.34446,1.93587 -1.26397,0.23119 -2.56215,0.46293 -3.84918,0.30126 C 364.24791,505.424 364.21695,502.9781 367.43385,502.93738 Z"
       inkscape:connector-curvature="0" />
  </g>
</svg>
