<?xml version="1.0" encoding="UTF-8" standalone="no"?>
<!-- Created with Inkscape (http://www.inkscape.org/) -->

<svg
   xmlns:dc="http://purl.org/dc/elements/1.1/"
   xmlns:cc="http://creativecommons.org/ns#"
   xmlns:rdf="http://www.w3.org/1999/02/22-rdf-syntax-ns#"
   xmlns:svg="http://www.w3.org/2000/svg"
   xmlns="http://www.w3.org/2000/svg"
   xmlns:sodipodi="http://sodipodi.sourceforge.net/DTD/sodipodi-0.dtd"
   xmlns:inkscape="http://www.inkscape.org/namespaces/inkscape"
   width="1200"
   height="400"
   id="svg2"
   version="1.1"
   inkscape:version="0.48+devel r"
   sodipodi:docname="fire_ani.svg"
   inkscape:export-filename="/home/aaron/Projects/Game-Design-Project/GamePrototype/media/fire_ani.png"
   inkscape:export-xdpi="90"
   inkscape:export-ydpi="90">
  <defs
     id="defs4">
    <filter
       inkscape:collect="always"
       id="filter904"
       x="-0.16804789"
       width="1.3360958"
       y="-0.17504558"
       height="1.3500912"
       style="color-interpolation-filters:sRGB">
      <feGaussianBlur
         inkscape:collect="always"
         stdDeviation="5.2359066"
         id="feGaussianBlur906" />
    </filter>
    <filter
       inkscape:collect="always"
       id="filter908"
       x="-0.16704758"
       width="1.3340952"
       y="-0.13795103"
       height="1.2759022"
       style="color-interpolation-filters:sRGB">
      <feGaussianBlur
         inkscape:collect="always"
         stdDeviation="5.2359066"
         id="feGaussianBlur910" />
    </filter>
    <filter
       inkscape:collect="always"
       id="filter928"
       style="color-interpolation-filters:sRGB">
      <feGaussianBlur
         inkscape:collect="always"
         stdDeviation="3.1428572"
         id="feGaussianBlur930" />
    </filter>
    <filter
       inkscape:collect="always"
       id="filter952"
       x="-0.63968331"
       width="2.2793665"
       y="-0.23701876"
       height="1.4740375"
       style="color-interpolation-filters:sRGB">
      <feGaussianBlur
         inkscape:collect="always"
         stdDeviation="16.45602"
         id="feGaussianBlur954" />
    </filter>
    <filter
       inkscape:collect="always"
       id="filter956"
       x="-1.2402782"
       width="3.4805565"
       y="-0.27980566"
       height="1.5596113"
       style="color-interpolation-filters:sRGB">
      <feGaussianBlur
         inkscape:collect="always"
         stdDeviation="16.45602"
         id="feGaussianBlur958" />
    </filter>
    <filter
       inkscape:collect="always"
       id="filter960"
       x="-0.53666508"
       width="2.0733302"
       y="-0.29332134"
       height="1.5866427"
       style="color-interpolation-filters:sRGB">
      <feGaussianBlur
         inkscape:collect="always"
         stdDeviation="16.45602"
         id="feGaussianBlur962" />
    </filter>
    <filter
       inkscape:collect="always"
       id="filter972"
       x="-1.0191551"
       width="3.0383103"
       y="-0.33160922"
       height="1.6632184"
       style="color-interpolation-filters:sRGB">
      <feGaussianBlur
         inkscape:collect="always"
         stdDeviation="17.735898"
         id="feGaussianBlur974" />
    </filter>
    <filter
       inkscape:collect="always"
       id="filter1013"
       x="-0.27379981"
       width="1.5475996"
       y="-0.15446869"
       height="1.3089374"
       style="color-interpolation-filters:sRGB">
      <feGaussianBlur
         inkscape:collect="always"
         stdDeviation="6.6886324"
         id="feGaussianBlur1015" />
    </filter>
    <filter
       inkscape:collect="always"
       id="filter4223"
       x="-0.24727499"
       width="1.49455"
       y="-0.25752771"
       height="1.5150554"
       style="color-interpolation-filters:sRGB">
      <feGaussianBlur
         inkscape:collect="always"
         stdDeviation="7.7014804"
         id="feGaussianBlur4225" />
    </filter>
    <filter
       inkscape:collect="always"
       id="filter4271"
       x="-0.15235817"
       width="1.3047163"
       y="-0.26145813"
       height="1.5229162"
       style="color-interpolation-filters:sRGB">
      <feGaussianBlur
         inkscape:collect="always"
         stdDeviation="5.5912938"
         id="feGaussianBlur4273" />
    </filter>
  </defs>
  <sodipodi:namedview
     id="base"
     pagecolor="#ffffff"
     bordercolor="#666666"
     borderopacity="1.0"
     inkscape:pageopacity="0.0"
     inkscape:pageshadow="2"
     inkscape:zoom="0.7"
     inkscape:cx="290.69231"
     inkscape:cy="141.19395"
     inkscape:document-units="px"
     inkscape:current-layer="layer1"
     showgrid="false"
     inkscape:window-width="1280"
     inkscape:window-height="744"
     inkscape:window-x="0"
     inkscape:window-y="27"
     inkscape:window-maximized="1"
     width="0px"
     height="0px"
     fit-margin-top="0"
     fit-margin-left="0"
     fit-margin-right="0"
     fit-margin-bottom="0" />
  <metadata
     id="metadata7">
    <rdf:RDF>
      <cc:Work
         rdf:about="">
        <dc:format>image/svg+xml</dc:format>
        <dc:type
           rdf:resource="http://purl.org/dc/dcmitype/StillImage" />
        <dc:title></dc:title>
      </cc:Work>
    </rdf:RDF>
  </metadata>
  <g
     inkscape:label="Layer 1"
     inkscape:groupmode="layer"
     id="layer1"
     transform="translate(-2.9705698e-6,-681.33526)">
    <g
       transform="matrix(1.0600248,0,0,0.99364918,460.62899,263.89654)"
       id="g4191">
      <path
         style="fill:#ff0000;fill-opacity:1;fill-rule:nonzero;stroke:none;filter:url(#filter972)"
         id="path4205"
         d="m 235.7935,696.0231 c -0.9993,-2.33156 -1.27005,-4.86196 -1.51665,-7.36067 -0.43545,-7.68744 1.58614,-15.09736 3.87079,-22.35054 2.72804,-7.3958 4.43938,-15.0965 6.46271,-22.70042 1.85752,-6.86712 3.76344,-13.72142 5.68303,-20.57155 1.48417,-5.17608 2.86168,-10.38144 4.28911,-15.57331 1.006,-4.01884 2.11565,-8.0102 3.19774,-12.00878 5.41394,-22.5695 22.5742,-18.45312 17.16026,4.11638 l 0,0 c -0.82443,3.96443 -1.38536,7.97518 -2.1443,11.95231 -0.92153,5.35147 -1.90507,10.69134 -2.86107,16.0367 -1.29615,7.13196 -2.63293,14.25991 -4.20723,21.33632 -1.9153,8.12959 -4.36114,16.09458 -6.92555,24.04121 -1.94407,5.94008 -3.78673,12.11233 -7.2946,17.34814 -0.5418,0.904 -1.07355,1.95234 -1.37922,2.86721 C 253.89925,712.00978 239.56424,714.87679 235.7935,696.0231 Z"
         inkscape:connector-curvature="0" />
      <path
         style="fill:#ff6600;fill-opacity:1;fill-rule:nonzero;stroke:none;filter:url(#filter960)"
         id="path4193"
         d="m 265.03426,711.14358 c -0.29646,0.0301 -0.62344,0.22463 -0.8894,0.0902 -3.97951,-2.01094 -8.83698,-11.04065 -10.98434,-14.83347 -4.09342,-7.4947 -7.00042,-15.56112 -11.1228,-23.03043 -6.10891,-9.50191 -11.62853,-19.30097 -16.65821,-29.41199 -4.71253,-9.65416 -8.97301,-19.51833 -13.43316,-29.28929 -13.84439,-26.90226 6.6102,-37.42855 20.45459,-10.5263 l 0,0 c 5.36441,9.35167 10.7174,18.71365 15.77538,28.23566 2.8586,5.51432 5.67212,11.01979 8.03972,16.76889 2.56798,6.23565 1.60308,4.35272 3.81871,10.32589 0.52936,1.42712 1.11381,2.8332 1.67071,4.24979 3.32988,7.71824 7.92465,14.79827 11.55835,22.37727 2.97959,6.48185 5.9562,12.99964 6.10721,20.26482 C 285.65634,725.22063 271.31959,729.99955 265.03426,711.14358 Z"
         inkscape:connector-curvature="0" />
      <path
         style="fill:#ff6600;fill-opacity:1;fill-rule:nonzero;stroke:none;filter:url(#filter956)"
         id="path4195"
         d="m 182.44483,694.04714 c -2.44554,-5.58018 -2.29399,-12.01446 -2.24903,-17.98413 0.46284,-9.26816 1.72129,-18.46293 2.38825,-27.71681 0.49166,-10.01517 1.53402,-19.98131 3.0435,-29.89073 1.29747,-8.34357 2.87925,-16.63773 4.47315,-24.92846 0.87382,-4.5188 0.44206,-2.28974 1.29518,-6.6872 3.76361,-26.5125 23.92186,-23.65092 20.15825,2.86159 l 0,0 c -0.40343,4.45375 -0.19888,2.19688 -0.61365,6.7706 -0.75151,8.26934 -1.54217,16.53522 -2.25935,24.80749 -0.89858,9.72737 -2.14553,19.4092 -3.50661,29.08213 -0.99031,9.22914 -1.05621,18.52527 -2.27692,27.73276 -1.02608,5.99394 -2.0699,12.3216 -5.58451,17.43959 C 195.35759,715.08899 180.48932,713.60216 182.44483,694.04714 Z"
         inkscape:connector-curvature="0" />
      <path
         transform="matrix(0.96277283,0.28836859,-0.25338568,0.96277283,158.62747,-44.53393)"
         style="fill:#ff6600;fill-opacity:1;fill-rule:nonzero;stroke:none;filter:url(#filter952)"
         id="path4197"
         d="m 251.69618,712.16607 c -0.89158,-2.24854 -1.41568,-4.64389 -2.05267,-6.97608 -1.99356,-6.9056 -5.5665,-13.248 -8.6984,-19.6856 -5.20762,-10.4887 -9.41861,-21.40632 -13.5116,-32.36339 -4.47899,-11.0293 -8.00924,-22.37911 -11.02658,-33.88285 -2.34302,-9.38853 -4.37603,-18.84995 -6.53258,-28.28203 -1.16208,-5.2097 -0.59251,-2.63798 -1.70931,-7.71504 -7.34284,-27.07372 13.24212,-32.65671 20.58497,-5.58298 l 0,0 c 1.59446,4.92038 0.78879,2.42871 2.41677,7.47511 2.91965,9.125 6.01422,18.19327 8.89997,27.32938 3.28066,10.52476 6.21342,21.18422 10.27198,31.44467 4.68046,10.82439 9.56273,21.57914 13.24152,32.80208 2.75306,9.04241 5.38401,18.33746 4.63876,27.89561 -0.40842,2.55299 -0.90307,5.14497 -1.91039,7.54112 C 266.30862,731.38462 251.69618,731.38462 251.69618,712.16607 Z"
         inkscape:connector-curvature="0" />
      <path
         sodipodi:type="arc"
         style="fill:#ff6600;fill-opacity:1;fill-rule:nonzero;stroke:none;filter:url(#filter928)"
         id="path4199"
         sodipodi:cx="225.71428"
         sodipodi:cy="718.07648"
         sodipodi:rx="62.857143"
         sodipodi:ry="62.857143"
         d="m 288.57142,718.07648 c 0,34.71504 -28.1421,62.85714 -62.85714,62.85714 -34.71504,0 -62.85714,-28.1421 -62.85714,-62.85714 0,-34.71504 28.1421,-62.85715 62.85714,-62.85715 C 260.42932,655.21933 288.57142,683.36144 288.57142,718.07648 Z" />
      <path
         style="fill:#ff0000;fill-opacity:1;fill-rule:nonzero;stroke:none;filter:url(#filter1013)"
         id="path4201"
         d="m 226.16501,775.56062 c -4.5453,0.4773 -8.80348,-0.55215 -13.0922,-1.93843 -5.4963,-1.74401 -10.36471,-4.73084 -14.87108,-8.26245 -4.90902,-3.90963 -8.09718,-9.2012 -10.58608,-14.85995 -1.77109,-4.07827 -2.67727,-8.42566 -3.38986,-12.79054 -0.49126,-3.04453 -1.01042,-6.08493 -1.43546,-9.13983 -0.51269,-3.10362 -0.75961,-6.22614 -0.9273,-9.36474 -0.0721,-1.64501 0.0353,-3.28366 0.13233,-4.92463 2.26556,-40.16513 32.80431,-38.44256 30.53876,1.72257 l 0,0 c 0.0344,0.63676 0.0729,1.28862 0.0953,1.92684 0.0181,1.93381 0.63627,3.84312 0.86037,5.75866 0.4717,2.59768 0.9153,5.204 1.55739,7.76652 0.57975,2.30234 1.11502,4.61419 1.90284,6.85501 0.28768,0.89365 0.396,1.56087 1.18988,2.16737 1.29541,1.13149 2.74492,1.94964 4.4236,2.38992 2.07826,0.59993 6.09119,1.12904 7.61023,2.76353 0.14292,0.15379 -0.22282,0.3559 -0.33422,0.53384 C 268.50212,750.99713 264.82758,780.39344 226.16501,775.56062 Z"
         inkscape:connector-curvature="0"
         transform="matrix(0.15404427,1.0540664,-0.92619431,0.15404426,865.28592,363.89086)" />
      <path
         transform="matrix(-0.11756232,1.0594021,-0.93088268,-0.11756232,917.99502,563.86107)"
         inkscape:connector-curvature="0"
         d="m 204.92088,662.81966 c 0.76808,-1.32294 2.52396,-1.32294 4.53766,-1.02964 2.55783,0.34853 5.83551,1.86762 9.40767,3.91742 3.93518,2.2854 8.42261,6.07991 12.99804,10.3245 3.29202,3.06368 6.56302,6.52875 9.79931,10.04778 2.25593,2.45573 4.51573,4.90232 6.76287,7.38018 2.3026,2.50097 4.55397,5.07173 6.7974,7.67206 1.17199,1.36611 2.29594,2.7633 3.42405,4.16033 27.63886,34.17206 19.01877,38.9231 -8.6201,4.75105 l 0,0 c -0.45525,-0.52747 -0.9221,-1.06678 -1.37538,-1.59798 -1.36179,-1.61927 -2.85158,-3.09658 -4.25034,-4.6589 -1.93757,-2.08463 -3.87439,-4.18222 -5.82864,-6.20275 -1.75652,-1.81482 -3.50892,-3.64664 -5.27277,-5.36759 -0.69699,-0.69171 -1.19155,-1.22975 -1.80986,-1.57772 -1.10847,-0.68685 -2.03443,-1.07943 -2.75081,-1.10834 -0.9254,-0.0818 -2.2706,0.28837 -3.78636,-0.77529 -0.14261,-0.10009 -0.19569,-0.34394 -0.29355,-0.5159 C 211.88563,692.02783 192.14647,666.6086 204.92088,662.81966 Z"
         id="path4203"
         style="fill:#ff0000;fill-opacity:1;fill-rule:nonzero;stroke:none;filter:url(#filter4223)" />
    </g>
    <g
       id="g976"
       transform="matrix(1.0600248,0,0,0.99364918,-136.26973,263.89654)">
      <path
         inkscape:connector-curvature="0"
         d="m 261.26076,717.18192 c -0.29646,0.0301 -0.62344,0.22463 -0.8894,0.0902 -3.97951,-2.01094 -8.83698,-11.04065 -10.98434,-14.83347 -4.09342,-7.4947 -7.00042,-15.56112 -11.1228,-23.03043 -6.10891,-9.50191 -11.62853,-19.30097 -16.65821,-29.41199 -4.71253,-9.65416 -8.97301,-19.51833 -13.43316,-29.28929 -13.84439,-26.90226 6.6102,-37.42855 20.45459,-10.5263 l 0,0 c 5.36441,9.35167 10.7174,18.71365 15.77538,28.23566 2.8586,5.51432 5.67212,11.01979 8.03972,16.76889 2.56798,6.23565 1.60308,4.35272 3.81871,10.32589 0.52936,1.42712 1.11381,2.8332 1.67071,4.24979 3.32988,7.71824 7.92465,14.79827 11.55835,22.37727 2.97959,6.48185 5.9562,12.99964 6.10721,20.26482 C 281.88284,731.25897 267.54609,736.03789 261.26076,717.18192 Z"
         id="path934"
         style="fill:#ff6600;fill-opacity:1;fill-rule:nonzero;stroke:none;filter:url(#filter960)" />
      <path
         inkscape:connector-curvature="0"
         d="m 170.31573,705.54876 c -2.44554,-5.58018 -2.29399,-12.01446 -2.24903,-17.98413 0.46284,-9.26816 1.72129,-18.46293 2.38825,-27.71681 0.49166,-10.01517 1.53402,-19.98131 3.0435,-29.89073 1.29747,-8.34357 2.87925,-16.63773 4.47315,-24.92846 0.87382,-4.5188 0.44206,-2.28974 1.29518,-6.6872 3.76361,-26.5125 23.92186,-23.65092 20.15825,2.86159 l 0,0 c -0.40343,4.45375 -0.19888,2.19688 -0.61365,6.7706 -0.75151,8.26934 -1.54217,16.53522 -2.25935,24.80749 -0.89858,9.72737 -2.14553,19.4092 -3.50661,29.08213 -0.99031,9.22914 -1.05621,18.52527 -2.27692,27.73276 -1.02608,5.99394 -2.0699,12.3216 -5.58451,17.43959 C 183.22849,726.59061 168.36022,725.10378 170.31573,705.54876 Z"
         id="path936"
         style="fill:#ff6600;fill-opacity:1;fill-rule:nonzero;stroke:none;filter:url(#filter956)" />
      <path
         inkscape:connector-curvature="0"
         d="m 239.83663,715.04147 c -0.89158,-2.24854 -1.41568,-4.64389 -2.05267,-6.97608 -1.99356,-6.9056 -5.5665,-13.248 -8.6984,-19.6856 -5.20762,-10.4887 -9.41861,-21.40632 -13.5116,-32.36339 -4.47899,-11.0293 -8.00924,-22.37911 -11.02658,-33.88285 -2.34302,-9.38853 -4.37603,-18.84995 -6.53258,-28.28203 -1.16208,-5.2097 -0.59251,-2.63798 -1.70931,-7.71504 -7.34284,-27.07372 13.24212,-32.65671 20.58497,-5.58298 l 0,0 c 1.59446,4.92038 0.78879,2.42871 2.41677,7.47511 2.91965,9.125 6.01422,18.19327 8.89997,27.32938 3.28066,10.52476 6.21342,21.18422 10.27198,31.44467 4.68046,10.82439 9.56273,21.57914 13.24152,32.80208 2.75306,9.04241 5.38401,18.33746 4.63876,27.89561 -0.40842,2.55299 -0.90307,5.14497 -1.91039,7.54112 C 254.44907,734.26002 239.83663,734.26002 239.83663,715.04147 Z"
         id="path938"
         style="fill:#ff6600;fill-opacity:1;fill-rule:nonzero;stroke:none;filter:url(#filter952)" />
      <path
         d="m 288.57142,718.07648 c 0,34.71504 -28.1421,62.85714 -62.85714,62.85714 -34.71504,0 -62.85714,-28.1421 -62.85714,-62.85714 0,-34.71504 28.1421,-62.85715 62.85714,-62.85715 C 260.42932,655.21933 288.57142,683.36144 288.57142,718.07648 Z"
         sodipodi:ry="62.857143"
         sodipodi:rx="62.857143"
         sodipodi:cy="718.07648"
         sodipodi:cx="225.71428"
         id="path810"
         style="fill:#ff6600;fill-opacity:1;fill-rule:nonzero;stroke:none;filter:url(#filter928)"
         sodipodi:type="arc" />
      <path
         inkscape:connector-curvature="0"
         d="m 226.16501,775.56062 c -4.5453,0.4773 -8.80348,-0.55215 -13.0922,-1.93843 -5.4963,-1.74401 -10.36471,-4.73084 -14.87108,-8.26245 -4.90902,-3.90963 -8.09718,-9.2012 -10.58608,-14.85995 -1.77109,-4.07827 -2.67727,-8.42566 -3.38986,-12.79054 -0.49126,-3.04453 -1.01042,-6.08493 -1.43546,-9.13983 -0.51269,-3.10362 -0.75961,-6.22614 -0.9273,-9.36474 -0.0721,-1.64501 0.0353,-3.28366 0.13233,-4.92463 2.26556,-40.16513 32.80431,-38.44256 30.53876,1.72257 l 0,0 c 0.0344,0.63676 0.0729,1.28862 0.0953,1.92684 0.0181,1.93381 0.63627,3.84312 0.86037,5.75866 0.4717,2.59768 0.9153,5.204 1.55739,7.76652 0.57975,2.30234 1.11502,4.61419 1.90284,6.85501 0.28768,0.89365 0.396,1.56087 1.18988,2.16737 1.29541,1.13149 2.74492,1.94964 4.4236,2.38992 2.07826,0.59993 6.09119,1.12904 7.61023,2.76353 0.14292,0.15379 -0.22282,0.3559 -0.33422,0.53384 C 268.50212,750.99713 264.82758,780.39344 226.16501,775.56062 Z"
         id="path812"
         style="fill:#ff0000;fill-opacity:1;fill-rule:nonzero;stroke:none;filter:url(#filter908)" />
      <path
         style="fill:#ff0000;fill-opacity:1;fill-rule:nonzero;stroke:none;filter:url(#filter904)"
         id="path814"
         d="m 211.09031,669.84606 c 0.76808,-1.32294 2.52396,-1.32294 4.53766,-1.02964 2.55783,0.34853 5.83551,1.86762 9.40767,3.91742 3.93518,2.2854 8.42261,6.07991 12.99804,10.3245 3.29202,3.06368 6.56302,6.52875 9.79931,10.04778 2.25593,2.45573 4.51573,4.90232 6.76287,7.38018 2.3026,2.50097 4.55397,5.07173 6.7974,7.67206 1.17199,1.36611 2.29594,2.7633 3.42405,4.16033 27.63886,34.17206 19.01877,38.9231 -8.6201,4.75105 l 0,0 c -0.45525,-0.52747 -0.9221,-1.06678 -1.37538,-1.59798 -1.36179,-1.61927 -2.85158,-3.09658 -4.25034,-4.6589 -1.93757,-2.08463 -3.87439,-4.18222 -5.82864,-6.20275 -1.75652,-1.81482 -3.50892,-3.64664 -5.27277,-5.36759 -0.69699,-0.69171 -1.19155,-1.22975 -1.80986,-1.57772 -1.10847,-0.68685 -2.03443,-1.07943 -2.75081,-1.10834 -0.9254,-0.0818 -2.2706,0.28837 -3.78636,-0.77529 -0.14261,-0.10009 -0.19569,-0.34394 -0.29355,-0.5159 C 218.05506,699.05423 198.3159,673.635 211.09031,669.84606 Z"
         inkscape:connector-curvature="0" />
      <path
         inkscape:connector-curvature="0"
         d="m 204.79692,722.18925 c -0.9993,-2.33156 -1.27005,-4.86196 -1.51665,-7.36067 -0.43545,-7.68744 1.58614,-15.09736 3.87079,-22.35054 2.72804,-7.3958 4.43938,-15.0965 6.46271,-22.70042 1.85752,-6.86712 3.76344,-13.72142 5.68303,-20.57155 1.48417,-5.17608 2.86168,-10.38144 4.28911,-15.57331 1.006,-4.01884 2.11565,-8.0102 3.19774,-12.00878 5.41394,-22.5695 22.5742,-18.45312 17.16026,4.11638 l 0,0 c -0.82443,3.96443 -1.38536,7.97518 -2.1443,11.95231 -0.92153,5.35147 -1.90507,10.69134 -2.86107,16.0367 -1.29615,7.13196 -2.63293,14.25991 -4.20723,21.33632 -1.9153,8.12959 -4.36114,16.09458 -6.92555,24.04121 -1.94407,5.94008 -3.78673,12.11233 -7.2946,17.34814 -0.5418,0.904 -1.07355,1.95234 -1.37922,2.86721 C 222.90267,738.17593 208.56766,741.04294 204.79692,722.18925 Z"
         id="path932"
         style="fill:#ff0000;fill-opacity:1;fill-rule:nonzero;stroke:none;filter:url(#filter972)" />
    </g>
    <g
       transform="matrix(1.0600248,0,0,0.99364918,63.730267,263.89654)"
       id="g985">
      <path
         style="fill:#ff6600;fill-opacity:1;fill-rule:nonzero;stroke:none;filter:url(#filter960)"
         id="path987"
         d="m 261.26076,717.18192 c -0.29646,0.0301 -0.62344,0.22463 -0.8894,0.0902 -3.97951,-2.01094 -8.83698,-11.04065 -10.98434,-14.83347 -4.09342,-7.4947 -7.00042,-15.56112 -11.1228,-23.03043 -6.10891,-9.50191 -11.62853,-19.30097 -16.65821,-29.41199 -4.71253,-9.65416 -8.97301,-19.51833 -13.43316,-29.28929 -13.84439,-26.90226 6.6102,-37.42855 20.45459,-10.5263 l 0,0 c 5.36441,9.35167 10.7174,18.71365 15.77538,28.23566 2.8586,5.51432 5.67212,11.01979 8.03972,16.76889 2.56798,6.23565 1.60308,4.35272 3.81871,10.32589 0.52936,1.42712 1.11381,2.8332 1.67071,4.24979 3.32988,7.71824 7.92465,14.79827 11.55835,22.37727 2.97959,6.48185 5.9562,12.99964 6.10721,20.26482 C 281.88284,731.25897 267.54609,736.03789 261.26076,717.18192 Z"
         inkscape:connector-curvature="0" />
      <path
         style="fill:#ff6600;fill-opacity:1;fill-rule:nonzero;stroke:none;filter:url(#filter956)"
         id="path989"
         d="m 182.44483,694.04714 c -2.44554,-5.58018 -2.29399,-12.01446 -2.24903,-17.98413 0.46284,-9.26816 1.72129,-18.46293 2.38825,-27.71681 0.49166,-10.01517 1.53402,-19.98131 3.0435,-29.89073 1.29747,-8.34357 2.87925,-16.63773 4.47315,-24.92846 0.87382,-4.5188 0.44206,-2.28974 1.29518,-6.6872 3.76361,-26.5125 23.92186,-23.65092 20.15825,2.86159 l 0,0 c -0.40343,4.45375 -0.19888,2.19688 -0.61365,6.7706 -0.75151,8.26934 -1.54217,16.53522 -2.25935,24.80749 -0.89858,9.72737 -2.14553,19.4092 -3.50661,29.08213 -0.99031,9.22914 -1.05621,18.52527 -2.27692,27.73276 -1.02608,5.99394 -2.0699,12.3216 -5.58451,17.43959 C 195.35759,715.08899 180.48932,713.60216 182.44483,694.04714 Z"
         inkscape:connector-curvature="0" />
      <path
         style="fill:#ff6600;fill-opacity:1;fill-rule:nonzero;stroke:none;filter:url(#filter952)"
         id="path991"
         d="m 266.79018,712.16607 c -0.89158,-2.24854 -1.41568,-4.64389 -2.05267,-6.97608 -1.99356,-6.9056 -5.5665,-13.248 -8.6984,-19.6856 -5.20762,-10.4887 -9.41861,-21.40632 -13.5116,-32.36339 -4.47899,-11.0293 -8.00924,-22.37911 -11.02658,-33.88285 -2.34302,-9.38853 -4.37603,-18.84995 -6.53258,-28.28203 -1.16208,-5.2097 -0.59251,-2.63798 -1.70931,-7.71504 -7.34284,-27.07372 13.24212,-32.65671 20.58497,-5.58298 l 0,0 c 1.59446,4.92038 0.78879,2.42871 2.41677,7.47511 2.91965,9.125 6.01422,18.19327 8.89997,27.32938 3.28066,10.52476 6.21342,21.18422 10.27198,31.44467 4.68046,10.82439 9.56273,21.57914 13.24152,32.80208 2.75306,9.04241 5.38401,18.33746 4.63876,27.89561 -0.40842,2.55299 -0.90307,5.14497 -1.91039,7.54112 C 281.40262,731.38462 266.79018,731.38462 266.79018,712.16607 Z"
         inkscape:connector-curvature="0" />
      <path
         sodipodi:type="arc"
         style="fill:#ff6600;fill-opacity:1;fill-rule:nonzero;stroke:none;filter:url(#filter928)"
         id="path993"
         sodipodi:cx="225.71428"
         sodipodi:cy="718.07648"
         sodipodi:rx="62.857143"
         sodipodi:ry="62.857143"
         d="m 288.57142,718.07648 c 0,34.71504 -28.1421,62.85714 -62.85714,62.85714 -34.71504,0 -62.85714,-28.1421 -62.85714,-62.85714 0,-34.71504 28.1421,-62.85715 62.85714,-62.85715 C 260.42932,655.21933 288.57142,683.36144 288.57142,718.07648 Z" />
      <path
         style="fill:#ff0000;fill-opacity:1;fill-rule:nonzero;stroke:none;filter:url(#filter1013)"
         id="path995"
         d="m 226.16501,775.56062 c -4.5453,0.4773 -8.80348,-0.55215 -13.0922,-1.93843 -5.4963,-1.74401 -10.36471,-4.73084 -14.87108,-8.26245 -4.90902,-3.90963 -8.09718,-9.2012 -10.58608,-14.85995 -1.77109,-4.07827 -2.67727,-8.42566 -3.38986,-12.79054 -0.49126,-3.04453 -1.01042,-6.08493 -1.43546,-9.13983 -0.51269,-3.10362 -0.75961,-6.22614 -0.9273,-9.36474 -0.0721,-1.64501 0.0353,-3.28366 0.13233,-4.92463 2.26556,-40.16513 32.80431,-38.44256 30.53876,1.72257 l 0,0 c 0.0344,0.63676 0.0729,1.28862 0.0953,1.92684 0.0181,1.93381 0.63627,3.84312 0.86037,5.75866 0.4717,2.59768 0.9153,5.204 1.55739,7.76652 0.57975,2.30234 1.11502,4.61419 1.90284,6.85501 0.28768,0.89365 0.396,1.56087 1.18988,2.16737 1.29541,1.13149 2.74492,1.94964 4.4236,2.38992 2.07826,0.59993 6.09119,1.12904 7.61023,2.76353 0.14292,0.15379 -0.22282,0.3559 -0.33422,0.53384 C 268.50212,750.99713 264.82758,780.39344 226.16501,775.56062 Z"
         inkscape:connector-curvature="0"
         transform="matrix(0.90697938,0.44930946,-0.39480229,0.90697938,306.1408,-40.709623)" />
      <path
         inkscape:connector-curvature="0"
         d="m 211.09031,669.84606 c 0.76808,-1.32294 2.52396,-1.32294 4.53766,-1.02964 2.55783,0.34853 5.83551,1.86762 9.40767,3.91742 3.93518,2.2854 8.42261,6.07991 12.99804,10.3245 3.29202,3.06368 6.56302,6.52875 9.79931,10.04778 2.25593,2.45573 4.51573,4.90232 6.76287,7.38018 2.3026,2.50097 4.55397,5.07173 6.7974,7.67206 1.17199,1.36611 2.29594,2.7633 3.42405,4.16033 27.63886,34.17206 19.01877,38.9231 -8.6201,4.75105 l 0,0 c -0.45525,-0.52747 -0.9221,-1.06678 -1.37538,-1.59798 -1.36179,-1.61927 -2.85158,-3.09658 -4.25034,-4.6589 -1.93757,-2.08463 -3.87439,-4.18222 -5.82864,-6.20275 -1.75652,-1.81482 -3.50892,-3.64664 -5.27277,-5.36759 -0.69699,-0.69171 -1.19155,-1.22975 -1.80986,-1.57772 -1.10847,-0.68685 -2.03443,-1.07943 -2.75081,-1.10834 -0.9254,-0.0818 -2.2706,0.28837 -3.78636,-0.77529 -0.14261,-0.10009 -0.19569,-0.34394 -0.29355,-0.5159 C 218.05506,699.05423 198.3159,673.635 211.09031,669.84606 Z"
         id="path997"
         style="fill:#ff0000;fill-opacity:1;fill-rule:nonzero;stroke:none;filter:url(#filter904)" />
      <path
         style="fill:#ff0000;fill-opacity:1;fill-rule:nonzero;stroke:none;filter:url(#filter972)"
         id="path999"
         d="m 235.7935,712.12534 c -0.9993,-2.33156 -1.27005,-4.86196 -1.51665,-7.36067 -0.43545,-7.68744 1.58614,-15.09736 3.87079,-22.35054 2.72804,-7.3958 4.43938,-15.0965 6.46271,-22.70042 1.85752,-6.86712 3.76344,-13.72142 5.68303,-20.57155 1.48417,-5.17608 2.86168,-10.38144 4.28911,-15.57331 1.006,-4.01884 2.11565,-8.0102 3.19774,-12.00878 5.41394,-22.5695 22.5742,-18.45312 17.16026,4.11638 l 0,0 c -0.82443,3.96443 -1.38536,7.97518 -2.1443,11.95231 -0.92153,5.35147 -1.90507,10.69134 -2.86107,16.0367 -1.29615,7.13196 -2.63293,14.25991 -4.20723,21.33632 -1.9153,8.12959 -4.36114,16.09458 -6.92555,24.04121 -1.94407,5.94008 -3.78673,12.11233 -7.2946,17.34814 -0.5418,0.904 -1.07355,1.95234 -1.37922,2.86721 C 253.89925,728.11202 239.56424,730.97903 235.7935,712.12534 Z"
         inkscape:connector-curvature="0" />
    </g>
    <g
       id="g1017"
       transform="matrix(1.0600248,0,0,0.99364918,251.14562,263.89654)">
      <path
         inkscape:connector-curvature="0"
         d="m 265.03426,711.14358 c -0.29646,0.0301 -0.62344,0.22463 -0.8894,0.0902 -3.97951,-2.01094 -8.83698,-11.04065 -10.98434,-14.83347 -4.09342,-7.4947 -7.00042,-15.56112 -11.1228,-23.03043 -6.10891,-9.50191 -11.62853,-19.30097 -16.65821,-29.41199 -4.71253,-9.65416 -8.97301,-19.51833 -13.43316,-29.28929 -13.84439,-26.90226 6.6102,-37.42855 20.45459,-10.5263 l 0,0 c 5.36441,9.35167 10.7174,18.71365 15.77538,28.23566 2.8586,5.51432 5.67212,11.01979 8.03972,16.76889 2.56798,6.23565 1.60308,4.35272 3.81871,10.32589 0.52936,1.42712 1.11381,2.8332 1.67071,4.24979 3.32988,7.71824 7.92465,14.79827 11.55835,22.37727 2.97959,6.48185 5.9562,12.99964 6.10721,20.26482 C 285.65634,725.22063 271.31959,729.99955 265.03426,711.14358 Z"
         id="path1019"
         style="fill:#ff6600;fill-opacity:1;fill-rule:nonzero;stroke:none;filter:url(#filter960)" />
      <path
         inkscape:connector-curvature="0"
         d="m 182.44483,694.04714 c -2.44554,-5.58018 -2.29399,-12.01446 -2.24903,-17.98413 0.46284,-9.26816 1.72129,-18.46293 2.38825,-27.71681 0.49166,-10.01517 1.53402,-19.98131 3.0435,-29.89073 1.29747,-8.34357 2.87925,-16.63773 4.47315,-24.92846 0.87382,-4.5188 0.44206,-2.28974 1.29518,-6.6872 3.76361,-26.5125 23.92186,-23.65092 20.15825,2.86159 l 0,0 c -0.40343,4.45375 -0.19888,2.19688 -0.61365,6.7706 -0.75151,8.26934 -1.54217,16.53522 -2.25935,24.80749 -0.89858,9.72737 -2.14553,19.4092 -3.50661,29.08213 -0.99031,9.22914 -1.05621,18.52527 -2.27692,27.73276 -1.02608,5.99394 -2.0699,12.3216 -5.58451,17.43959 C 195.35759,715.08899 180.48932,713.60216 182.44483,694.04714 Z"
         id="path1021"
         style="fill:#ff6600;fill-opacity:1;fill-rule:nonzero;stroke:none;filter:url(#filter956)" />
      <path
         inkscape:connector-curvature="0"
         d="m 251.69618,712.16607 c -0.89158,-2.24854 -1.41568,-4.64389 -2.05267,-6.97608 -1.99356,-6.9056 -5.5665,-13.248 -8.6984,-19.6856 -5.20762,-10.4887 -9.41861,-21.40632 -13.5116,-32.36339 -4.47899,-11.0293 -8.00924,-22.37911 -11.02658,-33.88285 -2.34302,-9.38853 -4.37603,-18.84995 -6.53258,-28.28203 -1.16208,-5.2097 -0.59251,-2.63798 -1.70931,-7.71504 -7.34284,-27.07372 13.24212,-32.65671 20.58497,-5.58298 l 0,0 c 1.59446,4.92038 0.78879,2.42871 2.41677,7.47511 2.91965,9.125 6.01422,18.19327 8.89997,27.32938 3.28066,10.52476 6.21342,21.18422 10.27198,31.44467 4.68046,10.82439 9.56273,21.57914 13.24152,32.80208 2.75306,9.04241 5.38401,18.33746 4.63876,27.89561 -0.40842,2.55299 -0.90307,5.14497 -1.91039,7.54112 C 266.30862,731.38462 251.69618,731.38462 251.69618,712.16607 Z"
         id="path1023"
         style="fill:#ff6600;fill-opacity:1;fill-rule:nonzero;stroke:none;filter:url(#filter952)"
         transform="matrix(0.96277283,0.28836859,-0.25338568,0.96277283,171.83472,-44.53393)" />
      <path
         d="m 288.57142,718.07648 c 0,34.71504 -28.1421,62.85714 -62.85714,62.85714 -34.71504,0 -62.85714,-28.1421 -62.85714,-62.85714 0,-34.71504 28.1421,-62.85715 62.85714,-62.85715 C 260.42932,655.21933 288.57142,683.36144 288.57142,718.07648 Z"
         sodipodi:ry="62.857143"
         sodipodi:rx="62.857143"
         sodipodi:cy="718.07648"
         sodipodi:cx="225.71428"
         id="path1025"
         style="fill:#ff6600;fill-opacity:1;fill-rule:nonzero;stroke:none;filter:url(#filter928)"
         sodipodi:type="arc" />
      <path
         transform="matrix(0.57487967,0.87289614,-0.76700232,0.57487967,644.84295,101.59936)"
         inkscape:connector-curvature="0"
         d="m 226.16501,775.56062 c -4.5453,0.4773 -8.80348,-0.55215 -13.0922,-1.93843 -5.4963,-1.74401 -10.36471,-4.73084 -14.87108,-8.26245 -4.90902,-3.90963 -8.09718,-9.2012 -10.58608,-14.85995 -1.77109,-4.07827 -2.67727,-8.42566 -3.38986,-12.79054 -0.49126,-3.04453 -1.01042,-6.08493 -1.43546,-9.13983 -0.51269,-3.10362 -0.75961,-6.22614 -0.9273,-9.36474 -0.0721,-1.64501 0.0353,-3.28366 0.13233,-4.92463 2.26556,-40.16513 32.80431,-38.44256 30.53876,1.72257 l 0,0 c 0.0344,0.63676 0.0729,1.28862 0.0953,1.92684 0.0181,1.93381 0.63627,3.84312 0.86037,5.75866 0.4717,2.59768 0.9153,5.204 1.55739,7.76652 0.57975,2.30234 1.11502,4.61419 1.90284,6.85501 0.28768,0.89365 0.396,1.56087 1.18988,2.16737 1.29541,1.13149 2.74492,1.94964 4.4236,2.38992 2.07826,0.59993 6.09119,1.12904 7.61023,2.76353 0.14292,0.15379 -0.22282,0.3559 -0.33422,0.53384 C 268.50212,750.99713 264.82758,780.39344 226.16501,775.56062 Z"
         id="path1027"
         style="fill:#ff0000;fill-opacity:1;fill-rule:nonzero;stroke:none;filter:url(#filter1013)" />
      <path
         style="fill:#ff0000;fill-opacity:1;fill-rule:nonzero;stroke:none;filter:url(#filter904)"
         id="path1029"
         d="m 204.92088,662.81966 c 0.76808,-1.32294 2.52396,-1.32294 4.53766,-1.02964 2.55783,0.34853 5.83551,1.86762 9.40767,3.91742 3.93518,2.2854 8.42261,6.07991 12.99804,10.3245 3.29202,3.06368 6.56302,6.52875 9.79931,10.04778 2.25593,2.45573 4.51573,4.90232 6.76287,7.38018 2.3026,2.50097 4.55397,5.07173 6.7974,7.67206 1.17199,1.36611 2.29594,2.7633 3.42405,4.16033 27.63886,34.17206 19.01877,38.9231 -8.6201,4.75105 l 0,0 c -0.45525,-0.52747 -0.9221,-1.06678 -1.37538,-1.59798 -1.36179,-1.61927 -2.85158,-3.09658 -4.25034,-4.6589 -1.93757,-2.08463 -3.87439,-4.18222 -5.82864,-6.20275 -1.75652,-1.81482 -3.50892,-3.64664 -5.27277,-5.36759 -0.69699,-0.69171 -1.19155,-1.22975 -1.80986,-1.57772 -1.10847,-0.68685 -2.03443,-1.07943 -2.75081,-1.10834 -0.9254,-0.0818 -2.2706,0.28837 -3.78636,-0.77529 -0.14261,-0.10009 -0.19569,-0.34394 -0.29355,-0.5159 C 211.88563,692.02783 192.14647,666.6086 204.92088,662.81966 Z"
         inkscape:connector-curvature="0"
         transform="matrix(0.8660254,0.53339993,-0.46869148,0.8660254,362.68666,-17.064746)" />
      <path
         inkscape:connector-curvature="0"
         d="m 243.3405,700.04866 c -0.9993,-2.33156 -1.27005,-4.86196 -1.51665,-7.36067 -0.43545,-7.68744 1.58614,-15.09736 3.87079,-22.35054 2.72804,-7.3958 4.43938,-15.0965 6.46271,-22.70042 1.85752,-6.86712 3.76344,-13.72142 5.68303,-20.57155 1.48417,-5.17608 2.86168,-10.38144 4.28911,-15.57331 1.006,-4.01884 2.11565,-8.0102 3.19774,-12.00878 5.41394,-22.5695 22.5742,-18.45312 17.16026,4.11638 l 0,0 c -0.82443,3.96443 -1.38536,7.97518 -2.1443,11.95231 -0.92153,5.35147 -1.90507,10.69134 -2.86107,16.0367 -1.29615,7.13196 -2.63293,14.25991 -4.20723,21.33632 -1.9153,8.12959 -4.36114,16.09458 -6.92555,24.04121 -1.94407,5.94008 -3.78673,12.11233 -7.2946,17.34814 -0.5418,0.904 -1.07355,1.95234 -1.37922,2.86721 C 261.44625,716.03534 247.11124,718.90235 243.3405,700.04866 Z"
         id="path1031"
         style="fill:#ff0000;fill-opacity:1;fill-rule:nonzero;stroke:none;filter:url(#filter972)" />
    </g>
    <g
       id="g4227"
       transform="matrix(1.0600248,0,0,0.99364918,667.06637,263.89654)">
      <path
         inkscape:connector-curvature="0"
         d="m 235.7935,696.0231 c -0.9993,-2.33156 -1.27005,-4.86196 -1.51665,-7.36067 -0.43545,-7.68744 1.58614,-15.09736 3.87079,-22.35054 2.72804,-7.3958 4.43938,-15.0965 6.46271,-22.70042 1.85752,-6.86712 3.76344,-13.72142 5.68303,-20.57155 1.48417,-5.17608 2.86168,-10.38144 4.28911,-15.57331 1.006,-4.01884 2.11565,-8.0102 3.19774,-12.00878 5.41394,-22.5695 22.5742,-18.45312 17.16026,4.11638 l 0,0 c -0.82443,3.96443 -1.38536,7.97518 -2.1443,11.95231 -0.92153,5.35147 -1.90507,10.69134 -2.86107,16.0367 -1.29615,7.13196 -2.63293,14.25991 -4.20723,21.33632 -1.9153,8.12959 -4.36114,16.09458 -6.92555,24.04121 -1.94407,5.94008 -3.78673,12.11233 -7.2946,17.34814 -0.5418,0.904 -1.07355,1.95234 -1.37922,2.86721 C 253.89925,712.00978 239.56424,714.87679 235.7935,696.0231 Z"
         id="path4229"
         style="fill:#ff0000;fill-opacity:1;fill-rule:nonzero;stroke:none;filter:url(#filter972)" />
      <path
         inkscape:connector-curvature="0"
         d="m 265.03426,711.14358 c -0.29646,0.0301 -0.62344,0.22463 -0.8894,0.0902 -3.97951,-2.01094 -8.83698,-11.04065 -10.98434,-14.83347 -4.09342,-7.4947 -7.00042,-15.56112 -11.1228,-23.03043 -6.10891,-9.50191 -11.62853,-19.30097 -16.65821,-29.41199 -4.71253,-9.65416 -8.97301,-19.51833 -13.43316,-29.28929 -13.84439,-26.90226 6.6102,-37.42855 20.45459,-10.5263 l 0,0 c 5.36441,9.35167 10.7174,18.71365 15.77538,28.23566 2.8586,5.51432 5.67212,11.01979 8.03972,16.76889 2.56798,6.23565 1.60308,4.35272 3.81871,10.32589 0.52936,1.42712 1.11381,2.8332 1.67071,4.24979 3.32988,7.71824 7.92465,14.79827 11.55835,22.37727 2.97959,6.48185 5.9562,12.99964 6.10721,20.26482 C 285.65634,725.22063 271.31959,729.99955 265.03426,711.14358 Z"
         id="path4231"
         style="fill:#ff6600;fill-opacity:1;fill-rule:nonzero;stroke:none;filter:url(#filter960)" />
      <path
         inkscape:connector-curvature="0"
         d="m 174.89783,700.08548 c -2.44554,-5.58018 -2.29399,-12.01446 -2.24903,-17.98413 0.46284,-9.26816 1.72129,-18.46293 2.38825,-27.71681 0.49166,-10.01517 1.53402,-19.98131 3.0435,-29.89073 1.29747,-8.34357 2.87925,-16.63773 4.47315,-24.92846 0.87382,-4.5188 0.44206,-2.28974 1.29518,-6.6872 3.76361,-26.5125 23.92186,-23.65092 20.15825,2.86159 l 0,0 c -0.40343,4.45375 -0.19888,2.19688 -0.61365,6.7706 -0.75151,8.26934 -1.54217,16.53522 -2.25935,24.80749 -0.89858,9.72737 -2.14553,19.4092 -3.50661,29.08213 -0.99031,9.22914 -1.05621,18.52527 -2.27692,27.73276 -1.02608,5.99394 -2.0699,12.3216 -5.58451,17.43959 C 187.81059,721.12733 172.94232,719.6405 174.89783,700.08548 Z"
         id="path4233"
         style="fill:#ff6600;fill-opacity:1;fill-rule:nonzero;stroke:none;filter:url(#filter956)" />
      <path
         inkscape:connector-curvature="0"
         d="m 251.69618,712.16607 c -0.89158,-2.24854 -1.41568,-4.64389 -2.05267,-6.97608 -1.99356,-6.9056 -5.5665,-13.248 -8.6984,-19.6856 -5.20762,-10.4887 -9.41861,-21.40632 -13.5116,-32.36339 -4.47899,-11.0293 -8.00924,-22.37911 -11.02658,-33.88285 -2.34302,-9.38853 -4.37603,-18.84995 -6.53258,-28.28203 -1.16208,-5.2097 -0.59251,-2.63798 -1.70931,-7.71504 -7.34284,-27.07372 13.24212,-32.65671 20.58497,-5.58298 l 0,0 c 1.59446,4.92038 0.78879,2.42871 2.41677,7.47511 2.91965,9.125 6.01422,18.19327 8.89997,27.32938 3.28066,10.52476 6.21342,21.18422 10.27198,31.44467 4.68046,10.82439 9.56273,21.57914 13.24152,32.80208 2.75306,9.04241 5.38401,18.33746 4.63876,27.89561 -0.40842,2.55299 -0.90307,5.14497 -1.91039,7.54112 C 266.30862,731.38462 251.69618,731.38462 251.69618,712.16607 Z"
         id="path4235"
         style="fill:#ff6600;fill-opacity:1;fill-rule:nonzero;stroke:none;filter:url(#filter952)"
         transform="matrix(0.96277283,0.28836859,-0.25338568,0.96277283,172.10424,-68.974864)" />
      <path
         d="m 288.57142,718.07648 c 0,34.71504 -28.1421,62.85714 -62.85714,62.85714 -34.71504,0 -62.85714,-28.1421 -62.85714,-62.85714 0,-34.71504 28.1421,-62.85715 62.85714,-62.85715 C 260.42932,655.21933 288.57142,683.36144 288.57142,718.07648 Z"
         sodipodi:ry="62.857143"
         sodipodi:rx="62.857143"
         sodipodi:cy="718.07648"
         sodipodi:cx="225.71428"
         id="path4237"
         style="fill:#ff6600;fill-opacity:1;fill-rule:nonzero;stroke:none;filter:url(#filter928)"
         sodipodi:type="arc" />
      <path
         transform="matrix(-0.32879762,1.0074861,-0.88526484,-0.32879766,949.4316,731.16599)"
         inkscape:connector-curvature="0"
         d="m 226.16501,775.56062 c -4.5453,0.4773 -8.80348,-0.55215 -13.0922,-1.93843 -5.4963,-1.74401 -10.36471,-4.73084 -14.87108,-8.26245 -4.90902,-3.90963 -8.09718,-9.2012 -10.58608,-14.85995 -1.77109,-4.07827 -2.67727,-8.42566 -3.38986,-12.79054 -0.49126,-3.04453 -1.01042,-6.08493 -1.43546,-9.13983 -0.51269,-3.10362 -0.75961,-6.22614 -0.9273,-9.36474 -0.0721,-1.64501 0.0353,-3.28366 0.13233,-4.92463 2.26556,-40.16513 32.80431,-38.44256 30.53876,1.72257 l 0,0 c 0.0344,0.63676 0.0729,1.28862 0.0953,1.92684 0.0181,1.93381 0.63627,3.84312 0.86037,5.75866 0.4717,2.59768 0.9153,5.204 1.55739,7.76652 0.57975,2.30234 1.11502,4.61419 1.90284,6.85501 0.28768,0.89365 0.396,1.56087 1.18988,2.16737 1.29541,1.13149 2.74492,1.94964 4.4236,2.38992 2.07826,0.59993 6.09119,1.12904 7.61023,2.76353 0.14292,0.15379 -0.22282,0.3559 -0.33422,0.53384 C 268.50212,750.99713 264.82758,780.39344 226.16501,775.56062 Z"
         id="path4239"
         style="fill:#ff0000;fill-opacity:1;fill-rule:nonzero;stroke:none;filter:url(#filter1013)" />
      <path
         style="fill:#ff0000;fill-opacity:1;fill-rule:nonzero;stroke:none;filter:url(#filter4223)"
         id="path4241"
         d="m 204.92088,662.81966 c 0.76808,-1.32294 2.52396,-1.32294 4.53766,-1.02964 2.55783,0.34853 5.83551,1.86762 9.40767,3.91742 3.93518,2.2854 8.42261,6.07991 12.99804,10.3245 3.29202,3.06368 6.56302,6.52875 9.79931,10.04778 2.25593,2.45573 4.51573,4.90232 6.76287,7.38018 2.3026,2.50097 4.55397,5.07173 6.7974,7.67206 1.17199,1.36611 2.29594,2.7633 3.42405,4.16033 27.63886,34.17206 19.01877,38.9231 -8.6201,4.75105 l 0,0 c -0.45525,-0.52747 -0.9221,-1.06678 -1.37538,-1.59798 -1.36179,-1.61927 -2.85158,-3.09658 -4.25034,-4.6589 -1.93757,-2.08463 -3.87439,-4.18222 -5.82864,-6.20275 -1.75652,-1.81482 -3.50892,-3.64664 -5.27277,-5.36759 -0.69699,-0.69171 -1.19155,-1.22975 -1.80986,-1.57772 -1.10847,-0.68685 -2.03443,-1.07943 -2.75081,-1.10834 -0.9254,-0.0818 -2.2706,0.28837 -3.78636,-0.77529 -0.14261,-0.10009 -0.19569,-0.34394 -0.29355,-0.5159 C 211.88563,692.02783 192.14647,666.6086 204.92088,662.81966 Z"
         inkscape:connector-curvature="0"
         transform="matrix(-0.56103967,0.88308505,-0.77595521,-0.56103969,906.12029,923.81864)" />
    </g>
    <g
       transform="matrix(1.0600248,0,0,0.99364918,867.06613,263.89654)"
       id="g4243">
      <path
         style="fill:#ff0000;fill-opacity:1;fill-rule:nonzero;stroke:none;filter:url(#filter972)"
         id="path4245"
         d="m 235.7935,696.0231 c -0.9993,-2.33156 -1.27005,-4.86196 -1.51665,-7.36067 -0.43545,-7.68744 1.58614,-15.09736 3.87079,-22.35054 2.72804,-7.3958 4.43938,-15.0965 6.46271,-22.70042 1.85752,-6.86712 3.76344,-13.72142 5.68303,-20.57155 1.48417,-5.17608 2.86168,-10.38144 4.28911,-15.57331 1.006,-4.01884 2.11565,-8.0102 3.19774,-12.00878 5.41394,-22.5695 22.5742,-18.45312 17.16026,4.11638 l 0,0 c -0.82443,3.96443 -1.38536,7.97518 -2.1443,11.95231 -0.92153,5.35147 -1.90507,10.69134 -2.86107,16.0367 -1.29615,7.13196 -2.63293,14.25991 -4.20723,21.33632 -1.9153,8.12959 -4.36114,16.09458 -6.92555,24.04121 -1.94407,5.94008 -3.78673,12.11233 -7.2946,17.34814 -0.5418,0.904 -1.07355,1.95234 -1.37922,2.86721 C 253.89925,712.00978 239.56424,714.87679 235.7935,696.0231 Z"
         inkscape:connector-curvature="0" />
      <path
         style="fill:#ff6600;fill-opacity:1;fill-rule:nonzero;stroke:none;filter:url(#filter960)"
         id="path4247"
         d="m 265.03426,711.14358 c -0.29646,0.0301 -0.62344,0.22463 -0.8894,0.0902 -3.97951,-2.01094 -8.83698,-11.04065 -10.98434,-14.83347 -4.09342,-7.4947 -7.00042,-15.56112 -11.1228,-23.03043 -6.10891,-9.50191 -11.62853,-19.30097 -16.65821,-29.41199 -4.71253,-9.65416 -8.97301,-19.51833 -13.43316,-29.28929 -13.84439,-26.90226 6.6102,-37.42855 20.45459,-10.5263 l 0,0 c 5.36441,9.35167 10.7174,18.71365 15.77538,28.23566 2.8586,5.51432 5.67212,11.01979 8.03972,16.76889 2.56798,6.23565 1.60308,4.35272 3.81871,10.32589 0.52936,1.42712 1.11381,2.8332 1.67071,4.24979 3.32988,7.71824 7.92465,14.79827 11.55835,22.37727 2.97959,6.48185 5.9562,12.99964 6.10721,20.26482 C 285.65634,725.22063 271.31959,729.99955 265.03426,711.14358 Z"
         inkscape:connector-curvature="0" />
      <path
         style="fill:#ff6600;fill-opacity:1;fill-rule:nonzero;stroke:none;filter:url(#filter956)"
         id="path4249"
         d="m 185.67925,684.27076 c -2.44554,-5.58018 -2.29399,-12.01446 -2.24903,-17.98413 0.46284,-9.26816 1.72129,-18.46293 2.38825,-27.71681 0.49166,-10.01517 1.53402,-19.98131 3.0435,-29.89073 1.29747,-8.34357 2.87925,-16.63773 4.47315,-24.92846 0.87382,-4.5188 0.44206,-2.28974 1.29518,-6.6872 3.76361,-26.5125 23.92186,-23.65092 20.15825,2.86159 l 0,0 c -0.40343,4.45375 -0.19888,2.19688 -0.61365,6.7706 -0.75151,8.26934 -1.54217,16.53522 -2.25935,24.80749 -0.89858,9.72737 -2.14553,19.4092 -3.50661,29.08213 -0.99031,9.22914 -1.05621,18.52527 -2.27692,27.73276 -1.02608,5.99394 -2.0699,12.3216 -5.58451,17.43959 C 198.59201,705.31261 183.72374,703.82578 185.67925,684.27076 Z"
         inkscape:connector-curvature="0" />
      <path
         transform="matrix(0.96277283,0.28836859,-0.25338568,0.96277283,161.32282,-76.163374)"
         style="fill:#ff6600;fill-opacity:1;fill-rule:nonzero;stroke:none;filter:url(#filter952)"
         id="path4251"
         d="m 251.69618,712.16607 c -0.89158,-2.24854 -1.41568,-4.64389 -2.05267,-6.97608 -1.99356,-6.9056 -5.5665,-13.248 -8.6984,-19.6856 -5.20762,-10.4887 -9.41861,-21.40632 -13.5116,-32.36339 -4.47899,-11.0293 -8.00924,-22.37911 -11.02658,-33.88285 -2.34302,-9.38853 -4.37603,-18.84995 -6.53258,-28.28203 -1.16208,-5.2097 -0.59251,-2.63798 -1.70931,-7.71504 -7.34284,-27.07372 13.24212,-32.65671 20.58497,-5.58298 l 0,0 c 1.59446,4.92038 0.78879,2.42871 2.41677,7.47511 2.91965,9.125 6.01422,18.19327 8.89997,27.32938 3.28066,10.52476 6.21342,21.18422 10.27198,31.44467 4.68046,10.82439 9.56273,21.57914 13.24152,32.80208 2.75306,9.04241 5.38401,18.33746 4.63876,27.89561 -0.40842,2.55299 -0.90307,5.14497 -1.91039,7.54112 C 266.30862,731.38462 251.69618,731.38462 251.69618,712.16607 Z"
         inkscape:connector-curvature="0" />
      <path
         sodipodi:type="arc"
         style="fill:#ff6600;fill-opacity:1;fill-rule:nonzero;stroke:none;filter:url(#filter928)"
         id="path4253"
         sodipodi:cx="225.71428"
         sodipodi:cy="718.07648"
         sodipodi:rx="62.857143"
         sodipodi:ry="62.857143"
         d="m 288.57142,718.07648 c 0,34.71504 -28.1421,62.85714 -62.85714,62.85714 -34.71504,0 -62.85714,-28.1421 -62.85714,-62.85714 0,-34.71504 28.1421,-62.85715 62.85714,-62.85715 C 260.42932,655.21933 288.57142,683.36144 288.57142,718.07648 Z" />
      <path
         style="fill:#ff0000;fill-opacity:1;fill-rule:nonzero;stroke:none;filter:url(#filter1013)"
         id="path4255"
         d="m 226.16501,775.56062 c -4.5453,0.4773 -8.80348,-0.55215 -13.0922,-1.93843 -5.4963,-1.74401 -10.36471,-4.73084 -14.87108,-8.26245 -4.90902,-3.90963 -8.09718,-9.2012 -10.58608,-14.85995 -1.77109,-4.07827 -2.67727,-8.42566 -3.38986,-12.79054 -0.49126,-3.04453 -1.01042,-6.08493 -1.43546,-9.13983 -0.51269,-3.10362 -0.75961,-6.22614 -0.9273,-9.36474 -0.0721,-1.64501 0.0353,-3.28366 0.13233,-4.92463 2.26556,-40.16513 32.80431,-38.44256 30.53876,1.72257 l 0,0 c 0.0344,0.63676 0.0729,1.28862 0.0953,1.92684 0.0181,1.93381 0.63627,3.84312 0.86037,5.75866 0.4717,2.59768 0.9153,5.204 1.55739,7.76652 0.57975,2.30234 1.11502,4.61419 1.90284,6.85501 0.28768,0.89365 0.396,1.56087 1.18988,2.16737 1.29541,1.13149 2.74492,1.94964 4.4236,2.38992 2.07826,0.59993 6.09119,1.12904 7.61023,2.76353 0.14292,0.15379 -0.22282,0.3559 -0.33422,0.53384 C 268.50212,750.99713 264.82758,780.39344 226.16501,775.56062 Z"
         inkscape:connector-curvature="0"
         transform="matrix(-0.92041371,0.26314045,-0.29391049,-0.7240854,653.31391,1181.1348)" />
      <path
         transform="matrix(-0.84716524,0.32244491,-0.21380743,-1.1226258,559.91855,1446.9134)"
         inkscape:connector-curvature="0"
         d="m 204.92088,662.81966 c 0.76808,-1.32294 2.52396,-1.32294 4.53766,-1.02964 2.55783,0.34853 5.83551,1.86762 9.40767,3.91742 3.93518,2.2854 8.42261,6.07991 12.99804,10.3245 3.29202,3.06368 6.56302,6.52875 9.79931,10.04778 2.25593,2.45573 4.51573,4.90232 6.76287,7.38018 2.3026,2.50097 4.55397,5.07173 6.7974,7.67206 1.17199,1.36611 2.29594,2.7633 3.42405,4.16033 27.63886,34.17206 19.01877,38.9231 -8.6201,4.75105 l 0,0 c -0.45525,-0.52747 -0.9221,-1.06678 -1.37538,-1.59798 -1.36179,-1.61927 -2.85158,-3.09658 -4.25034,-4.6589 -1.93757,-2.08463 -3.87439,-4.18222 -5.82864,-6.20275 -1.75652,-1.81482 -3.50892,-3.64664 -5.27277,-5.36759 -0.69699,-0.69171 -1.19155,-1.22975 -1.80986,-1.57772 -1.10847,-0.68685 -2.03443,-1.07943 -2.75081,-1.10834 -0.9254,-0.0818 -2.2706,0.28837 -3.78636,-0.77529 -0.14261,-0.10009 -0.19569,-0.34394 -0.29355,-0.5159 C 211.88563,692.02783 192.14647,666.6086 204.92088,662.81966 Z"
         id="path4257"
         style="fill:#ff0000;fill-opacity:1;fill-rule:nonzero;stroke:none;filter:url(#filter4271)" />
    </g>
  </g>
</svg>
