<?xml version="1.0" encoding="UTF-8" standalone="no"?>
<!-- Created with Inkscape (http://www.inkscape.org/) -->

<svg
   xmlns:dc="http://purl.org/dc/elements/1.1/"
   xmlns:cc="http://creativecommons.org/ns#"
   xmlns:rdf="http://www.w3.org/1999/02/22-rdf-syntax-ns#"
   xmlns:svg="http://www.w3.org/2000/svg"
   xmlns="http://www.w3.org/2000/svg"
   xmlns:sodipodi="http://sodipodi.sourceforge.net/DTD/sodipodi-0.dtd"
   xmlns:inkscape="http://www.inkscape.org/namespaces/inkscape"
   width="1428.9059"
   height="1008.8664"
   id="svg813"
   version="1.1"
   inkscape:version="0.48+devel r"
   sodipodi:docname="fire.svg"
   inkscape:export-filename="/home/aaron/Projects/Game-Design-Project/ChinguMovmentDemo/media/fire.png"
   inkscape:export-xdpi="90"
   inkscape:export-ydpi="90">
  <defs
     id="defs815" />
  <sodipodi:namedview
     id="base"
     pagecolor="#ffffff"
     bordercolor="#ffffff"
     borderopacity="0.0"
     inkscape:pageopacity="0.0"
     inkscape:pageshadow="0"
     inkscape:zoom="0.35"
     inkscape:cx="-16.410934"
     inkscape:cy="325.04995"
     inkscape:document-units="px"
     inkscape:current-layer="layer1"
     showgrid="false"
     width="0px"
     height="0px"
     fit-margin-top="0"
     fit-margin-left="0"
     fit-margin-right="0"
     fit-margin-bottom="0"
     inkscape:window-width="1280"
     inkscape:window-height="744"
     inkscape:window-x="0"
     inkscape:window-y="27"
     inkscape:window-maximized="1" />
  <metadata
     id="metadata818">
    <rdf:RDF>
      <cc:Work
         rdf:about="">
        <dc:format>image/svg+xml</dc:format>
        <dc:type
           rdf:resource="http://purl.org/dc/dcmitype/StillImage" />
        <cc:license
           rdf:resource="" />
        <dc:title></dc:title>
      </cc:Work>
    </rdf:RDF>
  </metadata>
  <g
     inkscape:label="Layer 1"
     inkscape:groupmode="layer"
     id="layer1"
     transform="translate(723.58907,174.31141)">
    <path
       style="opacity:0.703;fill:#ff0000;stroke:none"
       d="m -68.571429,-160.69003 -234.285711,177.14286 -305.71429,374.28571 -111.42857,140 57.14286,102.85714 0,91.42858 94.28571,-20 -28.57143,57.14285 108.57143,-88.57143 48.57143,88.57143 -17.14286,60 C -419.86226,762.88587 -432.28234,662.94043 -320,665.02425 l 102.85714,31.42858 85.71429,8.57143 L -140,767.8814 C -15.335217,635.23699 -10.726156,738.86409 -17.142857,682.16711 L 80,759.30997 l 82.85714,-82.85714 165.71429,80 C 348.46652,779.06518 261.25551,697.47758 260,670.73854 L 337.14286,633.59568 400,596.45283 c 42.21356,-62.58736 100.15509,-38.67081 157.14286,-20 l 62.85714,-60 40,-20 28.57143,-51.42858 -65.71429,-34.28571 -40,-74.28571 L 445.71429,165.02425 220,-26.40432 -22.857143,-157.83289 Z"
       id="path4587"
       inkscape:connector-curvature="0"
       sodipodi:nodetypes="cccccccccccccccccccccccccccccccc" />
    <path
       style="opacity:0.69899998;fill:#ff6600;stroke:none"
       d="M -320,-3.5471699 C -237.13106,58.83343 -372.5251,186.5411 -60,242.16712 102.67289,234.87406 288.54109,212.5651 214.28572,-34.97574 L -45.714286,-172.1186 -157.14286,-120.69003 Z"
       id="path4589"
       inkscape:connector-curvature="0"
       sodipodi:nodetypes="cccccc" />
    <path
       style="fill:#ff2a2a;fill-opacity:1;fill-rule:nonzero;stroke:none"
       id="path4543"
       d="m -30.352114,-151.34772 c 6.925308,7.59095 15.835496,12.97214 24.4240335,18.44834 19.3186325,12.0885 39.8264135,22.10076 60.1350385,32.38251 30.267964,15.05361 59.892452,31.35252 89.259162,48.08273 29.63748,17.15997 58.50097,35.91631 85.07944,57.5769601 5.86028,4.77595 11.48992,9.8281399 17.23488,14.7422199 34.53862,31.54916 67.90764,64.35179 101.54055,96.85808 26.75131,25.66916 53.29672,51.55001 79.57858,77.69947 19.40844,19.29649 38.58329,38.82583 57.64727,58.46202 14.16157,14.33975 27.92735,29.05179 41.51459,43.93359 10.28672,11.28768 20.07287,23.01621 29.65725,34.90176 7.3108,9.25566 14.5259,18.58444 21.61108,28.01362 3.94321,5.26121 2.02058,2.65431 5.77136,7.81811 18.5117,26.58398 38.72429,12.50898 20.21259,-14.07499 l 0,0 c -3.69677,-5.52918 -1.83257,-2.75364 -5.59297,-8.32636 -6.81984,-10.01555 -13.75404,-19.95575 -20.89789,-29.74333 -9.41698,-12.69477 -19.0367,-25.23962 -29.18057,-37.36643 -13.05169,-15.73246 -26.41571,-31.19735 -39.92431,-46.53909 -18.18504,-20.72822 -36.51184,-41.33261 -55.0682,-61.72955 -25.1335,-27.55425 -50.49156,-54.90168 -76.14163,-81.97644 -33.2259,-34.98835 -66.47999,-70.16872 -103.79462,-100.89147 -35.01338,-27.41241 -71.26753,-52.43884 -110.767,-73.05449 -30.61159,-16.17088 -61.80664,-31.11507 -93.810731,-44.34987 -20.277785,-8.61233 -40.705619,-16.89719 -60.6568673,-26.2539 -8.9293266,-4.34882 -17.6998107,-9.27125 -27.1324987,-12.44438 C -43.105102,-183.24953 -53.803639,-165.41863 -30.352114,-151.34772 Z"
       inkscape:connector-curvature="0" />
    <path
       style="fill:#ff2a2a;fill-opacity:1;fill-rule:nonzero;stroke:none"
       id="path4545"
       d="m -70.253642,-169.90641 c -9.754197,-0.56296 -19.837102,2.30842 -29.29223,4.38713 -29.038378,6.58254 -56.287698,18.69432 -81.328928,34.74025 -8.38111,5.37045 -16.37641,11.32043 -24.56461,16.98065 -61.81011,46.36243 -113.46598,104.1423001 -163.78453,162.31765 -44.86061,52.99497 -88.21017,107.24349 -131.41756,161.58703 -32.89159,40.86096 -64.72286,82.53283 -95.70421,124.85468 -23.09673,31.7122 -45.82844,63.68589 -68.32119,95.82838 -16.20902,23.15451 -32.12345,46.5136 -48.07727,69.84422 -24.45183,33.78068 1.23263,52.37213 25.68446,18.59145 l 0,0 c 17.10326,-22.34267 34.20073,-44.69082 51.57309,-66.82555 24.05273,-30.70931 48.26373,-61.29447 72.7097,-91.69198 32.45391,-40.38724 65.2376,-80.51457 99.94289,-119.00695 45.53403,-51.85259 91.40782,-103.40484 137.29883,-154.94147 49.06679,-55.38789 97.43456,-111.49242 149.71661,-163.91476 13.65991,-13.05772 21.85662,-21.582 36.3519,-33.04992 14.75508,-11.67347 31.14023,-20.83573 48.553708,-27.87845 9.674655,-4.06797 19.58529,-7.79835 28.742037,-12.96274 C -37.366414,-161.6773 -45.449111,-180.53693 -70.253642,-169.90641 Z"
       inkscape:connector-curvature="0" />
    <path
       style="fill:#ff2a2a;fill-opacity:1;fill-rule:nonzero;stroke:none"
       id="path4551"
       d="m -716.10223,566.30894 c 2.44526,4.21847 5.92721,7.72701 9.2206,11.2816 5.34794,5.87272 10.95023,11.50655 16.5534,17.13401 4.70728,4.75406 9.38173,9.55121 13.86909,14.51476 0.63265,0.70653 1.37552,1.32806 1.89796,2.11957 1.03433,1.56703 1.64491,14.3154 1.86166,16.48098 0.81743,9.74172 1.59852,19.48741 2.17191,29.24683 0.43597,7.63984 0.65684,15.28869 0.94079,22.93492 0.12247,5.57429 0.0611,11.15055 0.0165,16.72541 -0.10254,2.72619 -0.0396,1.35855 -0.18947,4.10288 -2.39173,29.04778 19.69416,30.86629 22.08589,1.81851 l 0,0 c 0.35311,-3.33545 0.18765,-1.62054 0.49099,-5.14524 0.36272,-5.93445 0.74406,-11.86998 0.89135,-17.81463 0.0794,-7.82073 0.11326,-15.64213 0.11987,-23.46321 -0.13056,-10.43958 -0.51829,-20.89038 -1.44605,-31.29104 -1.4312,-11.18834 -3.42049,-22.33057 -11.55111,-30.80302 -4.56068,-5.39282 -9.17231,-10.74502 -13.98316,-15.91753 -5.63608,-6.08358 -11.38026,-12.07638 -17.71286,-17.4492 -3.10531,-2.5961 -6.17224,-5.26225 -9.46436,-7.61981 C -717.61669,532.41972 -733.38974,545.56393 -716.10223,566.30894 Z"
       inkscape:connector-curvature="0" />
    <path
       style="fill:#ff2a2a;fill-opacity:1;fill-rule:nonzero;stroke:none"
       id="path4553"
       d="m -590.28869,741.71093 c -0.0629,-1.81714 -0.60033,-3.5915 -0.93134,-5.37534 -0.38141,-2.21545 -0.67982,-4.44359 -0.92906,-6.67768 -0.24441,-1.12741 -0.36697,-3.25995 -0.36266,-4.00059 -0.18395,0.9042 0.24585,-0.3262 0.28013,-0.23848 0.31374,0.80273 -0.26204,0.9752 1.15321,0.0197 3.17708,-2.27992 6.38309,-4.51535 9.60273,-6.73484 3.17526,-2.19123 6.44443,-4.23897 9.77431,-6.1852 24.66972,-15.00205 13.2632,-33.75918 -11.40651,-18.75712 l 0,0 c -3.4979,2.21089 -7.02993,4.36124 -10.55104,6.53438 -4.27605,2.72378 -8.55201,5.52076 -12.19991,9.07205 -3.52516,3.65123 -6.35284,7.70556 -7.37255,12.76368 -0.50765,3.40053 -0.57432,6.79904 -0.0224,10.20605 0.3859,2.75726 0.78389,5.51509 1.37715,8.23714 0.50269,2.28459 0.91703,4.62001 1.88078,6.76689 C -602.59038,773.26084 -582.88318,767.63021 -590.28869,741.71093 Z"
       inkscape:connector-curvature="0" />
    <path
       style="fill:#ff2a2a;fill-opacity:1;fill-rule:nonzero;stroke:none"
       id="path4555"
       d="m -490.27241,671.30769 c -0.6168,2.98051 -0.5351,6.07363 -0.59438,9.10676 -0.0567,4.12386 -0.16279,8.24744 -0.0685,12.37102 0.033,6.19402 1.41059,12.15756 3.35505,17.99974 2.74539,7.85684 6.26485,15.38414 9.95175,22.83258 3.74912,7.35957 7.59787,14.6686 11.44937,21.97525 2.89524,5.65887 5.75496,11.33475 8.38391,17.1229 2.02557,3.95446 2.97582,8.13233 3.26898,12.52685 0.15841,4.24972 -0.50335,8.49154 -1.17947,12.67637 -0.70205,4.1736 -1.72534,8.28171 -2.88981,12.34738 -8.09297,27.94636 13.15548,34.09968 21.24845,6.15333 l 0,0 c 1.41636,-4.84184 2.81035,-9.70515 3.69189,-14.67836 1.09208,-5.99998 1.948,-12.07941 1.67809,-18.19571 -0.55547,-6.92306 -1.88292,-13.70419 -4.8856,-20.02613 -2.63359,-6.18192 -5.34238,-12.33234 -8.20699,-18.41124 -3.50453,-7.50221 -7.0498,-14.98672 -10.85319,-22.34341 -3.33232,-6.59906 -7.11256,-12.97561 -10.16353,-19.70256 -1.41981,-3.57165 -2.98833,-7.08178 -2.83613,-11.01765 -0.18974,-3.8731 -0.10485,-7.75432 -0.21074,-11.63036 -0.0593,-3.03313 0.0224,-6.12625 -0.59438,-9.10676 C -469.72759,644.28675 -490.27241,644.28675 -490.27241,671.30769 Z"
       inkscape:connector-curvature="0" />
    <path
       style="fill:#ff2a2a;fill-opacity:1;fill-rule:nonzero;stroke:none"
       id="path4557"
       d="m -132.86004,760.06221 c 0.005,-1.61473 -0.16559,-3.22256 -0.33577,-4.82629 -0.17423,-2.1335 -0.39233,-4.26225 -0.41408,-6.40402 -0.15928,-2.30353 0.41982,-4.53578 1.08132,-6.7192 1.28655,-3.57811 3.11466,-6.95339 4.91601,-10.29588 1.92869,-3.56896 3.92724,-7.11649 6.14654,-10.51463 1.29563,-1.93632 0.64461,-0.9706 1.95305,-2.89717 16.65342,-23.29291 -1.05688,-35.955 -17.71029,-12.66209 l 0,0 c -1.59657,2.13448 -0.78777,1.03849 -2.4245,3.28937 -2.7549,3.99074 -5.43072,8.04892 -7.72536,12.32574 -2.56485,4.91894 -5.11487,9.91051 -6.34527,15.36209 -1.0188,4.42952 -1.71313,8.93647 -1.08747,13.4858 0.26978,2.44134 0.43532,4.89266 0.73903,7.33035 0.22514,1.97664 0.45307,3.98355 1.07029,5.88201 C -148.58255,789.90219 -128.44605,786.54611 -132.86004,760.06221 Z"
       inkscape:connector-curvature="0" />
    <path
       style="fill:#ff2a2a;fill-opacity:1;fill-rule:nonzero;stroke:none"
       id="path4559"
       d="m -20.561471,690.51682 c 5.354324,7.05859 12.6725331,12.37736 19.65476045,17.71398 C 9.6889372,716.02312 20.6427,723.30543 31.32331,730.98001 c 9.349628,6.67563 17.85477,14.42997 26.062491,22.4417 7.054145,6.82533 13.645435,14.10526 20.292773,21.32138 4.731443,5.03616 9.054847,10.42479 13.037694,16.06548 2.711521,3.84754 5.052122,7.93381 7.126862,12.15432 0.759538,1.7504 1.465468,3.52318 2.17499,5.29419 10.096,27.05843 30.66933,19.38214 20.57333,-7.67629 l 0,0 c -0.78243,-2.24277 -1.55965,-4.48883 -2.47673,-6.68144 -2.30293,-5.51407 -5.06229,-10.80485 -8.18584,-15.90138 -4.25304,-6.70812 -8.87107,-13.16917 -13.969914,-19.26622 C 89.326563,750.77157 82.65074,742.83842 75.442984,735.38632 66.521496,726.24831 57.10884,717.61641 46.906104,709.91103 36.256393,701.82065 25.267821,694.21031 13.871036,687.20256 7.1654879,682.8998 0.51458395,678.29593 -6.7293653,674.9557 -27.195639,656.76346 -41.027745,672.32458 -20.561471,690.51682 Z"
       inkscape:connector-curvature="0" />
    <path
       style="fill:#ff2a2a;fill-opacity:1;fill-rule:nonzero;stroke:none"
       id="path4561"
       d="m 95.952649,750.24053 c 0.261783,-0.44101 0.262797,-4.18626 0.287932,-4.00406 0.414386,3.00375 -0.230185,0.86067 0.346016,2.57836 8.703933,-5.28362 16.321273,-12.24876 23.820493,-19.08821 4.93902,-4.64421 9.84241,-9.32577 14.73497,-14.01879 25.36802,-23.43847 7.54705,-42.72653 -17.82097,-19.28806 l 0,0 c -5.04604,4.49144 -10.08659,8.98951 -15.02375,13.60115 -8.992756,8.32777 -18.171794,16.79009 -24.488576,27.42267 -1.789244,4.06994 -3.338381,8.31457 -2.332841,12.79694 C 75.475923,777.1719 95.952649,777.1719 95.952649,750.24053 Z"
       inkscape:connector-curvature="0" />
    <path
       style="fill:#ff2a2a;fill-opacity:1;fill-rule:nonzero;stroke:none"
       id="path4563"
       d="m 134.46047,645.34937 c 3.80092,8.24774 9.96385,15.09806 15.87406,21.87863 11.13482,12.07587 23.86166,22.53906 36.77984,32.62998 12.14206,9.47589 25.25458,17.54762 38.68344,25.041 11.42937,6.26094 23.00622,12.24409 34.85858,17.66297 10.98934,4.93282 22.30695,9.06378 33.71543,12.90535 9.86862,3.3216 19.2325,7.94122 28.57691,12.49265 7.92876,3.79782 15.74189,7.81889 23.50263,11.94654 4.33106,2.31516 2.19275,1.17048 6.41504,3.43386 26.74698,15.25543 38.34613,-5.08109 11.59916,-20.33652 l 0,0 c -4.14627,-2.50999 -2.04212,-1.23897 -6.31266,-3.81269 -7.86739,-4.70355 -15.81794,-9.2643 -23.91489,-13.56361 -10.21087,-5.3378 -20.57633,-10.44463 -31.53363,-14.0916 -10.5457,-3.80006 -21.05802,-7.71046 -31.24436,-12.40953 -11.10736,-5.16684 -21.85023,-10.97048 -32.29912,-17.37404 -12.04388,-7.20238 -24.10545,-14.44373 -34.99011,-23.36284 -11.99529,-9.70624 -23.36273,-20.12976 -35.11943,-30.12018 -5.60033,-4.70584 -11.18221,-9.5748 -17.0861,-13.86047 C 137.57612,611.38624 120.07132,622.32674 134.46047,645.34937 Z"
       inkscape:connector-curvature="0" />
    <path
       style="fill:#ff2a2a;fill-opacity:1;fill-rule:nonzero;stroke:none"
       id="path4565"
       d="m 268.93515,671.45167 c -0.50048,-1.96638 -1.37481,-3.76831 -1.88503,-5.73456 -0.0982,-0.61897 -2.2372,-8.04045 -1.46516,-6.31167 0.0443,-0.11677 0.0307,1.86673 0.68395,1.83855 1.02429,-0.0442 11.24569,-5.02653 12.57772,-5.58002 11.38392,-4.47317 22.82845,-8.78681 34.27597,-13.09339 10.44605,-3.82478 20.94835,-7.49356 31.42966,-11.2204 8.27027,-3.04022 16.50407,-6.18582 24.669,-9.49913 6.07031,-2.53773 12.12026,-5.12502 18.06449,-7.94677 3.18522,-1.49769 6.31413,-3.10444 9.40758,-4.78204 25.96673,-13.4005 15.77793,-33.14378 -10.1888,-19.74328 l 0,0 c -2.79208,1.35756 -5.60394,2.66551 -8.48616,3.8238 -5.66785,2.37071 -11.43092,4.49241 -17.21097,6.57356 -7.9591,2.81726 -16.01938,5.34239 -24.05214,7.9395 -10.83102,3.30179 -21.63113,6.70914 -32.29616,10.51927 -12.52113,4.21365 -25.08778,8.50599 -36.87296,14.54046 -10.44871,5.77386 -21.20609,12.3688 -23.73195,24.94186 -0.0715,5.3707 0.83103,10.37949 2.9883,15.32741 1.12869,2.56589 2.08396,5.31149 3.7955,7.55543 C 262.67037,704.66503 280.96754,695.51644 268.93515,671.45167 Z"
       inkscape:connector-curvature="0" />
    <path
       style="fill:#ff2a2a;fill-opacity:1;fill-rule:nonzero;stroke:none"
       id="path4567"
       d="m 481.87972,531.53864 c 0.69706,3.526 2.31624,6.75359 3.98263,9.91668 2.79809,4.96529 6.33994,9.44726 10.05956,13.74447 4.05077,4.79878 8.63984,9.00652 13.68216,12.73105 5.56589,3.86482 11.72098,6.75424 17.97494,9.30711 7.15867,2.95916 14.6048,3.7374 22.25789,3.19633 8.51996,-0.96575 16.06573,-4.74246 23.05353,-9.50008 6.80491,-4.95753 12.23116,-11.40011 17.41461,-17.95916 4.10122,-5.19617 7.69759,-10.75808 11.56492,-16.12324 2.69842,-3.79609 5.66335,-7.39673 8.86238,-10.77996 2.37396,-2.90078 5.53325,-4.5756 8.88808,-6.06261 5.02867,-2.14653 10.27585,-3.69176 15.55188,-5.09211 4.16978,-1.02665 8.36068,-1.96197 12.55754,-2.87015 29.9033,-6.4117 25.02829,-29.14808 -4.87501,-22.73638 l 0,0 c -4.66761,0.99224 -9.33645,1.99867 -13.92381,3.32347 -6.61602,1.93622 -13.21241,4.03312 -19.39941,7.11867 -5.44449,2.8996 -10.54127,6.31451 -14.79203,10.83813 -3.93063,3.99013 -7.68977,8.14578 -11.10756,12.58875 -3.90154,5.03213 -7.67148,10.16749 -11.68856,15.10894 -3.86535,4.76592 -7.66516,9.70356 -12.41203,13.63348 -3.62994,2.69114 -7.48985,4.91224 -11.97591,5.83057 -3.84009,0.70829 -7.67194,-0.16908 -11.2799,-1.55131 -4.64024,-1.95247 -9.17048,-4.20663 -13.52255,-6.73583 -3.67577,-2.46118 -6.86406,-5.44139 -9.67305,-8.86929 -2.87489,-3.44314 -5.80553,-6.85362 -8.414,-10.50629 -1.19971,-1.61481 -2.41344,-3.37052 -3.40402,-5.012 C 492.76469,499.58593 473.3824,506.0467 481.87972,531.53864 Z"
       inkscape:connector-curvature="0" />
    <path
       style="fill:#ff2a2a;fill-opacity:1;fill-rule:nonzero;stroke:none"
       id="path4569"
       d="m 596.77913,407.16827 c 2.29514,5.33907 6.9337,8.87583 11.42917,12.29079 6.10777,4.4553 12.97619,7.6228 19.95155,10.44352 7.047,2.62442 14.30206,4.63054 21.55779,6.58187 7.25898,2.05194 14.61888,3.67886 21.75794,6.13331 4.49575,1.75618 2.29908,0.80922 6.59319,2.83345 28.91708,12.99245 38.79563,-8.99406 9.87855,-21.98651 l 0,0 c -6.08129,-2.63958 -3.04716,-1.43327 -9.09591,-3.6351 -7.45116,-2.29411 -15.02652,-3.96261 -22.63872,-5.61928 -6.60674,-2.08141 -13.22585,-4.12443 -19.7926,-6.33021 -5.31538,-1.79349 -10.49029,-3.95777 -15.23706,-6.98759 -0.50595,-0.31757 -6.19576,-4.54093 -6.10673,-2.87284 C 603.04391,373.95491 584.74675,383.10349 596.77913,407.16827 Z"
       inkscape:connector-curvature="0" />
    <path
       style="fill:#ff2a2a;fill-opacity:1;fill-rule:nonzero;stroke:none"
       id="path4571"
       d="m -220.49801,677.64304 c -2.31795,-0.47622 -4.72117,-0.39728 -7.07774,-0.37355 -2.49344,-0.0313 -4.99247,0.17286 -7.47522,-0.0767 -4.59221,-0.23024 -9.10292,-1.2288 -13.60014,-2.13291 -6.27108,-1.14537 -12.4937,-2.5697 -18.62833,-4.30248 -5.4209,-1.52407 -10.74492,-3.35218 -16.06414,-5.19287 -4.61129,-1.73268 -9.26599,-3.23887 -14.08298,-4.27547 -2.25596,-0.45345 -4.54322,-0.66312 -6.83126,-0.86358 -28.34442,-2.39229 -30.16335,19.15883 -1.81892,21.55111 l 0,0 c 1.21438,0.0932 2.40672,0.28941 3.58978,0.58723 3.86056,1.04234 7.5688,2.50431 11.24384,4.07608 5.71024,2.30177 11.44268,4.562 17.34842,6.32279 7.02546,2.17914 14.18839,3.91308 21.47269,4.9803 5.76445,0.7823 11.56465,1.3642 17.37104,0.6271 2.48275,-0.2496 4.98178,-0.0454 7.47522,-0.0767 2.35657,0.0237 4.75979,0.10267 7.07774,-0.37355 C -193.56664,698.11976 -193.56664,677.64304 -220.49801,677.64304 Z"
       inkscape:connector-curvature="0" />
    <path
       style="fill:#ff6600;fill-opacity:1;fill-rule:nonzero;stroke:none"
       id="path4575"
       d="m -270.27241,99.87912 c -2.48844,6.75103 -2.62499,14.48624 -3.15158,21.6131 -0.52207,11.77842 -0.68449,23.57083 -0.87166,35.35873 0.53159,9.70668 -3.18955,18.01656 -7.74651,26.29768 -3.90466,6.64422 -1.90387,3.29639 -6.00601,10.0413 -17.75659,29.3479 4.55749,42.84877 22.31408,13.50087 l 0,0 c 4.65982,-7.73748 2.3821,-3.7913 6.82509,-11.84319 5.55554,-11.72854 9.6045,-23.89815 9.83339,-37.01961 0.73286,-11.92212 1.4482,-23.85919 1.17955,-35.81066 -0.2474,-7.40975 -0.55212,-14.82062 -1.83153,-22.13822 C -249.72759,72.85818 -270.27241,72.85818 -270.27241,99.87912 Z"
       inkscape:connector-curvature="0" />
    <path
       style="fill:#ff6600;fill-opacity:1;fill-rule:nonzero;stroke:none"
       id="path4577"
       d="m -196.02075,162.80741 c -0.85271,3.84673 -0.80656,7.85238 -0.81207,11.77628 0.003,4.5131 0.0262,9.02675 0.0895,13.5395 0.0601,3.96238 0.10978,7.92551 0.11319,11.88845 0.008,0.62139 0.0919,1.24649 0.0236,1.86417 -0.058,0.52496 -2.30087,2.46653 -2.37849,2.56112 -0.74304,0.90552 -3.81261,4.83032 -4.36331,5.53227 -5.09343,6.5749 -10.41422,12.96674 -15.72175,19.36852 -3.12648,3.61592 -1.56726,1.82238 -4.67734,5.38088 -20.83932,22.77438 -3.52328,38.61914 17.31604,15.84476 l 0,0 c 3.49461,-3.65767 1.72931,-1.78715 5.29355,-5.61379 6.14039,-6.72551 12.3089,-13.46094 17.62914,-20.87034 4.8156,-7.30368 9.13952,-15.00384 8.7103,-24.06759 0.003,-3.96294 0.0531,-7.92607 0.11319,-11.88845 0.0633,-4.51275 0.0865,-9.0264 0.0895,-13.5395 -0.006,-3.9239 0.0406,-7.92955 -0.81207,-11.77628 C -175.40782,135.69689 -196.02075,135.69689 -196.02075,162.80741 Z"
       inkscape:connector-curvature="0" />
    <path
       style="fill:#ff6600;fill-opacity:1;fill-rule:nonzero;stroke:none"
       id="path4579"
       d="m -80.588577,252.71929 c 1.483181,4.3325 3.789338,8.3513 6.217593,12.21584 3.016206,4.57963 5.551256,9.44582 8.258306,14.20819 3.276473,5.88925 6.704474,11.69271 10.18465,17.4634 3.77886,5.94135 7.73898,11.76729 11.847541,17.48506 4.680277,6.31123 9.887161,12.206 15.383362,17.81258 3.972782,3.90196 1.926912,1.96874 6.142663,5.7943 23.21559785,20.7985 39.02932,3.14699 15.8137226,-17.65151 l 0,0 c -3.4402906,-3.03246 -1.735316,-1.47311 -5.1122186,-4.68098 -4.715765,-4.79429 -9.330213,-9.69616 -13.470497,-15.00477 -3.886304,-5.19207 -7.368464,-10.66332 -10.848692,-16.13263 -3.551239,-5.43205 -6.707007,-11.10267 -10.112562,-16.62577 -2.988177,-5.0102 -5.972123,-10.01819 -9.280797,-14.82712 -1.924567,-2.8698 -3.638082,-6.04806 -6.133908,-8.45178 C -72.740916,219.48072 -91.63008,227.87591 -80.588577,252.71929 Z"
       inkscape:connector-curvature="0" />
    <path
       style="fill:#ff6600;fill-opacity:1;fill-rule:nonzero;stroke:none"
       id="path4581"
       d="m 72.853106,167.76496 c -0.634198,8.64422 -0.06766,17.29888 0.543157,25.92565 0.884172,11.17669 2.108554,22.32302 3.326755,33.46718 3.069608,34.20454 29.076352,31.87063 26.006742,-2.33392 l 0,0 C 101.93323,213.49855 101.13258,202.1654 99.736817,190.8948 98.43972,181.65657 97.193774,172.22458 93.145756,163.70643 87.807902,137.01716 67.515252,141.07569 72.853106,167.76496 Z"
       inkscape:connector-curvature="0" />
    <path
       style="fill:#ff6600;fill-opacity:1;fill-rule:nonzero;stroke:none"
       id="path4583"
       d="m 196.157,144.57585 c 4.4334,7.34297 10.60219,13.64009 16.52828,19.80144 8.53266,8.57716 17.55466,16.6455 26.32603,24.97472 8.69533,8.33964 17.26341,16.80868 26.07966,25.02124 7.7234,7.10809 15.28639,14.38774 22.98441,21.52344 1.13283,1.04134 2.26566,2.08267 3.39848,3.124 23.11891,22.26013 40.04395,4.68213 16.92504,-17.57799 l 0,0 c -1.07541,-1.08488 -2.15082,-2.16976 -3.22623,-3.25463 -7.40971,-7.4547 -14.8469,-14.88001 -22.34354,-22.24679 -8.60539,-8.55817 -17.29281,-17.03611 -26.16629,-25.31673 -8.70656,-8.1463 -17.4074,-16.29724 -25.97574,-24.58943 C 224.43008,140.2494 218.14128,134.423 210.98017,129.75268 191.48446,110.25697 176.66128,125.08014 196.157,144.57585 Z"
       inkscape:connector-curvature="0" />
    <path
       style="fill:#ff6600;fill-opacity:1;fill-rule:nonzero;stroke:none"
       id="path4585"
       d="m -135.95265,202.66512 c -0.47083,2.57548 -0.49822,5.23411 -0.53307,7.84864 -0.0821,3.54816 -0.0898,7.0965 -0.10542,10.64517 -0.0278,3.67003 0.0232,7.3397 -0.004,11.00981 -0.32639,4.22449 -1.47685,8.39708 -2.52981,12.50101 -2.1304,5.01016 -4.91073,9.72311 -7.73302,14.36892 -2.69615,4.60642 -5.73025,8.98719 -9.06561,13.15038 -1.41563,1.77794 -2.87923,3.51195 -4.39075,5.20839 -19.80883,21.5931 -3.39096,36.65434 16.41788,15.06125 l 0,0 c 1.82419,-1.94431 3.641,-3.89554 5.37978,-5.9175 4.08743,-4.84946 7.91628,-9.90099 11.33157,-15.25142 4.19911,-6.6109 8.14664,-13.43937 10.0651,-21.11048 1.44564,-5.88755 2.81917,-11.90319 2.28745,-18.01055 -0.0276,-3.67011 0.0233,-7.33978 -0.004,-11.00981 -0.0157,-3.54867 -0.0233,-7.09701 -0.10542,-10.64517 -0.0348,-2.61453 -0.0622,-5.27316 -0.53307,-7.84864 C -115.47592,175.73375 -135.95265,175.73375 -135.95265,202.66512 Z"
       inkscape:connector-curvature="0" />
  </g>
</svg>
