<?xml version="1.0" encoding="UTF-8" standalone="no"?>
<!-- Created with Inkscape (http://www.inkscape.org/) -->

<svg
   xmlns:dc="http://purl.org/dc/elements/1.1/"
   xmlns:cc="http://creativecommons.org/ns#"
   xmlns:rdf="http://www.w3.org/1999/02/22-rdf-syntax-ns#"
   xmlns:svg="http://www.w3.org/2000/svg"
   xmlns="http://www.w3.org/2000/svg"
   xmlns:sodipodi="http://sodipodi.sourceforge.net/DTD/sodipodi-0.dtd"
   xmlns:inkscape="http://www.inkscape.org/namespaces/inkscape"
   width="406.23303"
   height="514.39569"
   id="svg2"
   version="1.1"
   inkscape:version="0.48+devel r"
   sodipodi:docname="spider_tower.svg"
   inkscape:export-filename="/home/aaron/Projects/Game-Design-Project/artwork/spider_tower.png"
   inkscape:export-xdpi="90"
   inkscape:export-ydpi="90">
  <defs
     id="defs4" />
  <sodipodi:namedview
     id="base"
     pagecolor="#ffffff"
     bordercolor="#666666"
     borderopacity="1.0"
     inkscape:pageopacity="0.0"
     inkscape:pageshadow="2"
     inkscape:zoom="0.7"
     inkscape:cx="683.24654"
     inkscape:cy="129.95495"
     inkscape:document-units="px"
     inkscape:current-layer="layer1"
     showgrid="false"
     inkscape:window-width="1280"
     inkscape:window-height="744"
     inkscape:window-x="0"
     inkscape:window-y="27"
     inkscape:window-maximized="1"
     fit-margin-top="0"
     fit-margin-left="0"
     fit-margin-right="0"
     fit-margin-bottom="0" />
  <metadata
     id="metadata7">
    <rdf:RDF>
      <cc:Work
         rdf:about="">
        <dc:format>image/svg+xml</dc:format>
        <dc:type
           rdf:resource="http://purl.org/dc/dcmitype/StillImage" />
        <dc:title></dc:title>
        <cc:license
           rdf:resource="http://creativecommons.org/licenses/by/3.0/" />
      </cc:Work>
      <cc:License
         rdf:about="http://creativecommons.org/licenses/by/3.0/">
        <cc:permits
           rdf:resource="http://creativecommons.org/ns#Reproduction" />
        <cc:permits
           rdf:resource="http://creativecommons.org/ns#Distribution" />
        <cc:requires
           rdf:resource="http://creativecommons.org/ns#Notice" />
        <cc:requires
           rdf:resource="http://creativecommons.org/ns#Attribution" />
        <cc:permits
           rdf:resource="http://creativecommons.org/ns#DerivativeWorks" />
      </cc:License>
    </rdf:RDF>
  </metadata>
  <g
     inkscape:label="Layer 1"
     inkscape:groupmode="layer"
     id="layer1"
     transform="translate(-111.14782,-120.93361)">
    <path
       style="fill:#c7a544;stroke:#000000;stroke-width:5;stroke-linecap:round;stroke-linejoin:round;stroke-miterlimit:4;stroke-opacity:1;stroke-dasharray:none"
       d="m 274.28571,252.36219 -2.85714,272.85714 55.71429,17.14286 L 318.57143,246.6479 Z"
       id="path3975"
       inkscape:connector-curvature="0" />
    <path
       style="fill:#c7a544;stroke:#000000;stroke-width:1px;stroke-linecap:butt;stroke-linejoin:miter;stroke-opacity:1"
       d="m 251.42857,219.50504 c 25.13617,8.02558 46.20398,19.17008 85.71429,1.42857 l 2.85714,30 C 312.20218,254.38559 292.92797,274.8848 251.42857,250.93361 Z"
       id="path810"
       inkscape:connector-curvature="0"
       sodipodi:nodetypes="ccccc" />
    <path
       sodipodi:type="arc"
       style="opacity:0.42699998;fill:#000000;fill-opacity:1;fill-rule:nonzero;stroke:none"
       id="path812"
       sodipodi:cx="262.85715"
       sodipodi:cy="231.6479"
       sodipodi:rx="5.7142859"
       sodipodi:ry="13.571428"
       d="m 268.57143,231.6479 c 0,7.4953 -2.55837,13.57143 -5.71428,13.57143 -3.15592,0 -5.71429,-6.07613 -5.71429,-13.57143 0,-7.49529 2.55837,-13.57142 5.71429,-13.57142 C 266.01306,218.07648 268.57143,224.15261 268.57143,231.6479 Z"
       transform="translate(0,7.1428571)" />
    <path
       sodipodi:type="arc"
       style="fill:#cbd3ea;fill-opacity:1;fill-rule:nonzero;stroke:none"
       id="path3971"
       sodipodi:cx="305"
       sodipodi:cy="184.50504"
       sodipodi:rx="25"
       sodipodi:ry="36.42857"
       d="m 330,184.50504 c 0,20.11894 -11.19288,36.42857 -25,36.42857 -13.80712,0 -25,-16.30963 -25,-36.42857 0,-20.11895 11.19288,-36.42857 25,-36.42857 C 318.80712,148.07647 330,164.38609 330,184.50504 Z"
       transform="matrix(1.5428571,0,0,1.3921569,-174.85714,-85.212062)" />
    <path
       sodipodi:type="arc"
       style="opacity:0.41000001;fill:#6b4c37;fill-opacity:1;fill-rule:nonzero;stroke:none"
       id="path3973"
       sodipodi:cx="286.42856"
       sodipodi:cy="176.6479"
       sodipodi:rx="6.4285712"
       sodipodi:ry="37.142857"
       d="m 292.85713,176.6479 c 0,20.51344 -2.87817,37.14286 -6.42857,37.14286 -3.5504,0 -6.42857,-16.62942 -6.42857,-37.14286 0,-20.51343 2.87817,-37.14285 6.42857,-37.14285 C 289.97896,139.50505 292.85713,156.13447 292.85713,176.6479 Z" />
    <path
       style="fill:none;stroke:#000000;stroke-width:2;stroke-linecap:butt;stroke-linejoin:miter;stroke-miterlimit:4;stroke-opacity:1;stroke-dasharray:none"
       d="m 312.85714,265.21933 201.42857,260 C 487.14778,513.99502 458.68485,499.06072 450,539.50504 L 308.57143,283.79075 370,543.79075 c 25.71429,-21.66746 51.42857,-10.5686 77.14286,-2.85714"
       id="path3977"
       inkscape:connector-curvature="0"
       sodipodi:nodetypes="cccccc" />
    <path
       style="fill:none;stroke:#000000;stroke-width:1px;stroke-linecap:butt;stroke-linejoin:miter;stroke-opacity:1"
       d="m 358.57143,495.21933 c 20.47619,-27.99582 40.95238,-14.31524 61.42857,-10 7.72276,-13.72063 9.77508,-32.30164 42.85714,-24.28572"
       id="path3979"
       inkscape:connector-curvature="0"
       sodipodi:nodetypes="ccc" />
    <path
       style="fill:none;stroke:#000000;stroke-width:1px;stroke-linecap:butt;stroke-linejoin:miter;stroke-opacity:1"
       d="m 347.14286,438.07647 c 7.88694,-18.89873 25.08371,-16.07451 44.28571,-8.57143 C 384.51389,406.28249 405.37202,406.20395 420,400.93361"
       id="path3981"
       inkscape:connector-curvature="0"
       sodipodi:nodetypes="ccc" />
    <path
       style="fill:none;stroke:#000000;stroke-width:1px;stroke-linecap:butt;stroke-linejoin:miter;stroke-opacity:1"
       d="m 391.42857,359.50504 c -12.1035,4.23771 -30.03962,1.47626 -24.28571,27.14286 -11.42857,-17.04091 -22.85715,-3.87748 -34.28572,12.85714"
       id="path3983"
       inkscape:connector-curvature="0"
       sodipodi:nodetypes="ccc" />
    <path
       style="fill:none;stroke:#000000;stroke-width:1px;stroke-linecap:butt;stroke-linejoin:miter;stroke-opacity:1"
       d="m 325.71429,358.07647 c 2.20432,-10.82945 10.22901,-10.01818 20,-5.71429 0.18907,-15.5579 4.12794,-24.86613 15.71428,-21.42857"
       id="path3985"
       inkscape:connector-curvature="0"
       sodipodi:nodetypes="ccc" />
    <path
       style="fill:none;stroke:#000000;stroke-width:1px;stroke-linecap:butt;stroke-linejoin:miter;stroke-opacity:1"
       d="m 271.42857,399.50504 -160,108.57143 C 146.26769,485.12604 165.68651,504.58144 185.71429,522.36218 Z"
       id="path3987"
       inkscape:connector-curvature="0"
       sodipodi:nodetypes="cccc" />
    <path
       inkscape:connector-curvature="0"
       id="path3989"
       d="M 271.42857,399.50504 237.14286,565.21933 C 231.64402,531.52691 214.06859,517.96216 185.71429,522.36218 Z"
       style="fill:none;stroke:#000000;stroke-width:1px;stroke-linecap:butt;stroke-linejoin:miter;stroke-opacity:1"
       sodipodi:nodetypes="cccc" />
    <path
       sodipodi:nodetypes="cccc"
       style="fill:none;stroke:#000000;stroke-width:1px;stroke-linecap:butt;stroke-linejoin:miter;stroke-opacity:1"
       d="M 271.42857,399.50504 237.14286,565.21933 C 258.65018,542.52339 259.63446,601.91958 267.14286,635.21932 Z"
       id="path3991"
       inkscape:connector-curvature="0" />
    <path
       style="fill:none;stroke:#000000;stroke-width:1px;stroke-linecap:butt;stroke-linejoin:miter;stroke-opacity:1"
       d="m 172.85715,465.21933 c 42.88456,-17.56253 46.88885,-7.48674 44.28571,12.85714 10.95238,0.4565 21.90476,-19.46972 32.85714,22.85714 6.66667,0.17907 13.33333,-10.13696 20,37.14286"
       id="path3993"
       inkscape:connector-curvature="0"
       sodipodi:nodetypes="cccc" />
    <path
       style="fill:none;stroke:#000000;stroke-width:1px;stroke-linecap:butt;stroke-linejoin:miter;stroke-opacity:1"
       d="m 197.14286,446.6479 c 23.60195,-9.13003 51.39367,-21.4024 45.71428,-8.57143 15.01466,-18.48904 14.00832,3.07445 14.28572,21.42857 5.71428,-30.26115 11.42857,16.12328 17.14285,42.85714"
       id="path3995"
       inkscape:connector-curvature="0"
       sodipodi:nodetypes="cccc" />
  </g>
</svg>
