<?xml version="1.0" encoding="UTF-8" standalone="no"?>
<!-- Created with Inkscape (http://www.inkscape.org/) -->

<svg
   xmlns:dc="http://purl.org/dc/elements/1.1/"
   xmlns:cc="http://creativecommons.org/ns#"
   xmlns:rdf="http://www.w3.org/1999/02/22-rdf-syntax-ns#"
   xmlns:svg="http://www.w3.org/2000/svg"
   xmlns="http://www.w3.org/2000/svg"
   xmlns:sodipodi="http://sodipodi.sourceforge.net/DTD/sodipodi-0.dtd"
   xmlns:inkscape="http://www.inkscape.org/namespaces/inkscape"
   width="97.167717"
   height="179.07164"
   id="svg2"
   version="1.1"
   inkscape:version="0.48+devel r"
   sodipodi:docname="tower.svg"
   inkscape:export-filename="/home/aaron/Projects/Game-Design-Project/GamePrototype/media/tower.png"
   inkscape:export-xdpi="90"
   inkscape:export-ydpi="90">
  <defs
     id="defs4" />
  <sodipodi:namedview
     id="base"
     pagecolor="#ffffff"
     bordercolor="#666666"
     borderopacity="1.0"
     inkscape:pageopacity="0.0"
     inkscape:pageshadow="2"
     inkscape:zoom="0.35"
     inkscape:cx="-328.83084"
     inkscape:cy="-8.2599626"
     inkscape:document-units="px"
     inkscape:current-layer="layer1"
     showgrid="false"
     width="0px"
     height="0px"
     fit-margin-top="0"
     fit-margin-left="0"
     fit-margin-right="0"
     fit-margin-bottom="0"
     inkscape:window-width="1280"
     inkscape:window-height="744"
     inkscape:window-x="0"
     inkscape:window-y="27"
     inkscape:window-maximized="1" />
  <metadata
     id="metadata7">
    <rdf:RDF>
      <cc:Work
         rdf:about="">
        <dc:format>image/svg+xml</dc:format>
        <dc:type
           rdf:resource="http://purl.org/dc/dcmitype/StillImage" />
        <dc:title></dc:title>
      </cc:Work>
    </rdf:RDF>
  </metadata>
  <g
     inkscape:label="Layer 1"
     inkscape:groupmode="layer"
     id="layer1"
     transform="translate(-203.83084,-345.03058)">
    <path
       style="fill:#000000;stroke:none"
       id="path3967"
       d="m 269.10653,421.7162 c 4.96731,11.55449 5.1585,24.37061 5.52401,36.73121 0.1366,8.68902 -0.10384,17.3771 -0.27653,26.06351 0,52.7884 -40.13659,52.7884 -40.13659,0 l 0,0 c -0.17269,-8.68641 -0.41313,-17.37449 -0.27654,-26.06351 0.36552,-12.3606 0.55671,-25.17672 5.52402,-36.73121 C 239.4649,382.73097 269.10653,382.73097 269.10653,421.7162 Z"
       inkscape:connector-curvature="0" />
    <path
       style="fill:#000000;stroke:none"
       id="path3969"
       d="m 227.9047,349.57189 c 4.91112,-2.15709 10.25479,-2.99952 15.54361,-3.62342 6.09817,-0.57188 12.22236,-0.86273 18.34636,-0.91548 6.25644,-0.054 12.37387,0.79967 18.32877,2.68499 6.52413,2.23769 11.32101,6.47286 15.18919,12.04314 1.52155,2.45195 2.40968,5.18782 3.16386,7.94919 11.14168,37.77966 -17.58333,46.25101 -28.72501,8.47135 l 0,0 c -0.17733,-0.49401 -0.40285,-0.96818 -0.009,-0.21667 0.26778,0.31852 1.51048,1.67495 1.56847,1.61445 -2.7657,-0.46041 -5.57283,-0.42953 -8.36587,-0.29155 -5.6712,0.41436 -11.33017,1.02064 -17.0143,1.24845 -2.15058,0.0659 -8.66883,0.99626 -9.98195,-0.8113 C 198.92091,388.30434 190.87715,360.15119 227.9047,349.57189 Z"
       inkscape:connector-curvature="0" />
  </g>
</svg>
