<?xml version="1.0" encoding="UTF-8" standalone="no"?>
<svg
   xmlns:dc="http://purl.org/dc/elements/1.1/"
   xmlns:cc="http://creativecommons.org/ns#"
   xmlns:rdf="http://www.w3.org/1999/02/22-rdf-syntax-ns#"
   xmlns:svg="http://www.w3.org/2000/svg"
   xmlns="http://www.w3.org/2000/svg"
   xmlns:sodipodi="http://sodipodi.sourceforge.net/DTD/sodipodi-0.dtd"
   xmlns:inkscape="http://www.inkscape.org/namespaces/inkscape"
   viewBox="0 0 512 512"
   id="svg3085"
   version="1.1"
   inkscape:version="0.48.3.1 r9886"
   width="100%"
   height="100%"
   sodipodi:docname="cogsplosion.svg"
   inkscape:export-filename="/home/aaron/Projects/Game-Design-Project/GamePrototype/media/cogsplosion.png"
   inkscape:export-xdpi="22.5"
   inkscape:export-ydpi="22.5">
  <metadata
     id="metadata3145">
    <rdf:RDF>
      <cc:Work
         rdf:about="">
        <dc:format>image/svg+xml</dc:format>
        <dc:type
           rdf:resource="http://purl.org/dc/dcmitype/StillImage" />
        <dc:title></dc:title>
      </cc:Work>
    </rdf:RDF>
  </metadata>
  <defs
     id="defs3143" />
  <sodipodi:namedview
     pagecolor="#ffffff"
     bordercolor="#666666"
     borderopacity="1"
     objecttolerance="10"
     gridtolerance="10"
     guidetolerance="10"
     inkscape:pageopacity="0"
     inkscape:pageshadow="2"
     inkscape:window-width="1535"
     inkscape:window-height="876"
     id="namedview3141"
     showgrid="false"
     inkscape:zoom="1.4238281"
     inkscape:cx="215.96708"
     inkscape:cy="256"
     inkscape:window-x="65"
     inkscape:window-y="24"
     inkscape:window-maximized="1"
     inkscape:current-layer="svg3085" />
  <rect
     style="fill:#a05a2c;fill-opacity:1;stroke:none"
     id="rect3919"
     width="512"
     height="512"
     x="0"
     y="-1.3322676e-15"
     rx="19.918034" />
  <g
     transform="matrix(18.68858,0,0,18.68858,-4319.31266,-40834.03083)"
     id="g3089">
    <path
       d="m209.2003,2210.0919c-1.1579,0-2.0966-.6571-2.0966-1.4676s.9387-1.4676 2.0966-1.4676"
       stroke="#fff"
       stroke-width="1.1803"
       transform="matrix(-.59908,-.59908,-.59908,.59908,1684.87292,994.74647)"
       id="path3091"
       style="fill:#a05a2c;stroke:#e9c6af" />
    <path
       d="m211.2968,2208.6243c0,.8105-.9387,1.4676-2.0966,1.4676s-2.0966-.6571-2.0966-1.4676 .9387-1.4676 2.0966-1.4676 2.0966.657 2.0966,1.4676z"
       stroke="#fff"
       stroke-width="1.1803"
       transform="matrix(-.59908,-.59908,-.59908,.59908,1686.19744,993.42195)"
       id="path3093"
       style="fill:#a05a2c;stroke:#e9c6af" />
    <path
       d="m209.2003,2207.1567c1.1579,0 2.0966.657 2.0966,1.4676s-.9387,1.4676-2.0966,1.4676"
       stroke="#fff"
       stroke-width="1.1803"
       transform="matrix(-.59908,-.59908,-.59908,.59908,1688.77797,990.84142)"
       id="path3095"
       style="fill:#a05a2c;stroke:#e9c6af" />
    <path
       d="m211.2968,2208.6243c0,.8105-.9387,1.4676-2.0966,1.4676s-2.0966-.6571-2.0966-1.4676 .9387-1.4676 2.0966-1.4676 2.0966.657 2.0966,1.4676z"
       stroke="#fff"
       stroke-width="1.1803"
       transform="matrix(-.59908,-.59908,-.59908,.59908,1687.49912,992.12027)"
       id="path3097"
       style="fill:#a05a2c;stroke:#e9c6af" />
    <g
       transform="matrix(-.86603,-.5,-.5,.86603,1534.0147,400.65677)"
       id="g3099">
      <path
         d="m215.5518,2191.2086 4.2471,1.138"
         fill="none"
         stroke="#fff"
         id="path3101"
         style="stroke:#e9c6af" />
      <path
         d="m217.1063,2189.6541 1.1381,4.2469"
         fill="none"
         stroke="#fff"
         id="path3103"
         style="stroke:#e9c6af" />
      <path
         d="m219.2298,2190.2231-3.1089,3.109"
         fill="none"
         stroke="#fff"
         id="path3105"
         style="stroke:#e9c6af" />
      <path
         d="m105.123,2207.1787c0,1.4142-1.1465,2.5607-2.5607,2.5607s-2.5607-1.1465-2.5607-2.5607 1.1465-2.5607 2.5607-2.5607 2.5607,1.1465 2.5607,2.5607z"
         stroke="#fff"
         stroke-width="2.3785"
         transform="matrix(.4061,.10881,-.10881,.4061,416.19809,1284.2774)"
         id="path3107"
         style="fill:#a05a2c;stroke:#e9c6af" />
    </g>
    <path
       d="m232.2949,2193.7822v17.6284h13.8547l-4.3612-1.0998 11.6389-2.1887-8.4535.068 3.9197-3.765-1.9658.1498 3.2369-3.9227-1.0786-1.5237-6.9088,2.4791 4.781-8.7953-9.1208,8.3569 .0517-5.5619-3.551,3.5809z"
       fill="#fff"
       id="path3109"
       style="fill:#deaa87" />
    <g
       transform="matrix(.99212,.12526,-.12526,.99212,279.54266,-15.12528)"
       id="g3111">
      <path
         d="m245.9793,2198.3361 8.9327,2.3935"
         fill="none"
         stroke="#fff"
         id="path3113"
         style="stroke:#e9c6af" />
      <path
         d="m247.176,2196.2634 6.5392,6.539"
         fill="none"
         stroke="#fff"
         id="path3115"
         style="stroke:#e9c6af" />
      <path
         d="m249.2488,2195.0666 2.3937,8.9325"
         fill="none"
         stroke="#fff"
         id="path3117"
         style="stroke:#e9c6af" />
      <path
         d="m251.6423,2195.0666-2.3933,8.9325"
         fill="none"
         stroke="#fff"
         id="path3119"
         style="stroke:#e9c6af" />
      <path
         d="m253.7151,2196.2634-6.5389,6.539"
         fill="none"
         stroke="#fff"
         id="path3121"
         style="stroke:#e9c6af" />
      <path
         d="m254.9118,2198.3361-8.9323,2.3935"
         fill="none"
         stroke="#fff"
         id="path3123"
         style="stroke:#e9c6af" />
      <path
         d="m105.123,2207.1787c0,1.4142-1.1465,2.5607-2.5607,2.5607s-2.5607-1.1465-2.5607-2.5607 1.1465-2.5607 2.5607-2.5607 2.5607,1.1465 2.5607,2.5607z"
         stroke="#fff"
         stroke-width=".7608"
         transform="matrix(1.26963,.3402,-.3402,1.26963,871.10306,-637.65654)"
         id="path3125"
         style="fill:#a05a2c;stroke:#e9c6af" />
      <path
         d="m247.1167,2199.5329h6.6578"
         fill="none"
         stroke="#fff"
         id="path3127"
         style="stroke:#e9c6af" />
      <path
         d="m105.123,2207.1787c0,1.4142-1.1465,2.5607-2.5607,2.5607s-2.5607-1.1465-2.5607-2.5607 1.1465-2.5607 2.5607-2.5607 2.5607,1.1465 2.5607,2.5607z"
         stroke="#fff"
         stroke-width="2.2366"
         transform="matrix(.43188,.11572,-.11572,.43188,461.57057,1234.4249)"
         id="path3129"
         style="fill:#a05a2c;stroke:#e9c6af" />
    </g>
    <g
       transform="matrix(.86603,-.5,.5,.86603,-1031.9759,418.33369)"
       id="g3131"
       style="stroke:#e9c6af">
      <path
         d="m215.5518,2191.2086 4.2471,1.138"
         fill="none"
         stroke="#fff"
         id="path3133"
         style="stroke:#e9c6af" />
      <path
         d="m217.1063,2189.6541 1.1381,4.2469"
         fill="none"
         stroke="#fff"
         id="path3135"
         style="stroke:#e9c6af" />
      <path
         d="m219.2298,2190.2231-3.1089,3.109"
         fill="none"
         stroke="#fff"
         id="path3137"
         style="stroke:#e9c6af" />
      <path
         d="m105.123,2207.1787c0,1.4142-1.1465,2.5607-2.5607,2.5607s-2.5607-1.1465-2.5607-2.5607 1.1465-2.5607 2.5607-2.5607 2.5607,1.1465 2.5607,2.5607z"
         stroke="#fff"
         stroke-width="2.3785"
         transform="matrix(.4061,.10881,-.10881,.4061,416.19809,1284.2774)"
         id="path3139"
         style="fill:#a05a2c;stroke:#e9c6af" />
    </g>
  </g>
</svg>
