<?xml version="1.0" encoding="UTF-8" standalone="no"?>
<!-- Created with Inkscape (http://www.inkscape.org/) -->

<svg
   xmlns:dc="http://purl.org/dc/elements/1.1/"
   xmlns:cc="http://creativecommons.org/ns#"
   xmlns:rdf="http://www.w3.org/1999/02/22-rdf-syntax-ns#"
   xmlns:svg="http://www.w3.org/2000/svg"
   xmlns="http://www.w3.org/2000/svg"
   xmlns:sodipodi="http://sodipodi.sourceforge.net/DTD/sodipodi-0.dtd"
   xmlns:inkscape="http://www.inkscape.org/namespaces/inkscape"
   width="9.9999018"
   height="9.999939"
   id="svg2"
   version="1.1"
   inkscape:version="0.48+devel r"
   sodipodi:docname="fire_particle.svg"
   inkscape:export-filename="/home/aaron/Projects/Game-Design-Project/GamePrototype/media/fire_particle.png"
   inkscape:export-xdpi="90"
   inkscape:export-ydpi="90">
  <defs
     id="defs4" />
  <sodipodi:namedview
     id="base"
     pagecolor="#ffffff"
     bordercolor="#666666"
     borderopacity="1.0"
     inkscape:pageopacity="0.0"
     inkscape:pageshadow="2"
     inkscape:zoom="1.4"
     inkscape:cx="75.931014"
     inkscape:cy="38.649912"
     inkscape:document-units="px"
     inkscape:current-layer="layer1"
     showgrid="false"
     fit-margin-top="0"
     fit-margin-left="0"
     fit-margin-right="0"
     fit-margin-bottom="0"
     inkscape:window-width="1280"
     inkscape:window-height="744"
     inkscape:window-x="0"
     inkscape:window-y="27"
     inkscape:window-maximized="1" />
  <metadata
     id="metadata7">
    <rdf:RDF>
      <cc:Work
         rdf:about="">
        <dc:format>image/svg+xml</dc:format>
        <dc:type
           rdf:resource="http://purl.org/dc/dcmitype/StillImage" />
        <dc:title></dc:title>
      </cc:Work>
    </rdf:RDF>
  </metadata>
  <g
     inkscape:label="Layer 1"
     inkscape:groupmode="layer"
     id="layer1"
     transform="translate(-143.71406,-560.17207)">
    <path
       style="fill:#ff6600;fill-opacity:1;fill-rule:nonzero;stroke:none"
       id="path3173"
       d="m 147.7546,565.41032 c -0.0995,0.0284 -0.20432,0.0254 -0.30619,0.0255 -0.18459,0.0144 -0.36506,-0.0169 -0.54382,-0.0688 -0.23538,-0.0804 -0.43146,-0.24809 -0.60551,-0.44815 -0.11791,-0.13689 -0.2202,-0.28954 -0.31325,-0.45104 -0.11341,-0.20523 -0.18648,-0.43461 -0.24874,-0.66746 -0.0855,-0.29054 -0.0953,-0.57959 -0.0849,-0.8842 0.0612,-0.42219 0.27419,-0.73819 0.50896,-1.04245 0.1764,-0.22331 0.37494,-0.41945 0.58124,-0.60167 0.21856,-0.19095 0.46347,-0.33036 0.70436,-0.47518 0.21424,-0.1273 0.43389,-0.2403 0.65727,-0.34247 0.2816,-0.14454 0.5742,-0.23069 0.87708,-0.27759 0.50966,-0.0355 0.99915,0.13356 1.47301,0.33764 0.40627,0.1867 0.79637,0.41818 1.17903,0.665 0.32103,0.20569 0.62557,0.4433 0.9143,0.7082 0.26433,0.2471 0.48799,0.54636 0.68899,0.86572 0.18925,0.31384 0.3144,0.6677 0.40988,1.03483 0.10191,0.4481 0.0768,0.90106 0.003,1.35074 -0.0939,0.5134 -0.30348,0.97519 -0.52652,1.42221 -0.25486,0.53631 -0.60949,0.97884 -0.99276,1.38484 -0.40742,0.40324 -0.87143,0.70969 -1.3357,1.00721 -0.40647,0.275 -0.82985,0.5067 -1.26482,0.70861 -0.39186,0.17247 -0.79606,0.29592 -1.20682,0.3825 -0.33358,0.0657 -0.67189,0.0901 -1.00911,0.11269 -0.26364,0.0187 -0.5281,0.0186 -0.79195,0.007 -0.28022,-0.002 -0.54874,-0.0745 -0.80985,-0.19113 -0.22258,-0.10877 -0.41968,-0.27141 -0.60391,-0.45361 -0.134,-0.13612 -0.2584,-0.28574 -0.37538,-0.44257 -0.0592,-0.0731 -0.11712,-0.14719 -0.18104,-0.21437 -0.0439,-0.046 -0.0217,-0.0228 -0.0667,-0.0696 -1.51464,-1.47005 -0.57976,-2.84692 0.93488,-1.37686 l 0,0 c 0.0605,0.0554 0.0295,0.0267 0.0928,0.0863 0.11435,0.11314 0.22338,0.23434 0.32591,0.36268 0.0667,0.083 0.13814,0.15938 0.21153,0.23391 0.0668,0.0594 0.13091,0.12257 0.20772,0.16293 0.088,0.0448 0.18526,0.0478 0.27967,0.044 0.21334,-0.009 0.42643,-0.031 0.63827,-0.0621 0.28786,-0.0405 0.57634,-0.0762 0.86203,-0.1359 0.29674,-0.0624 0.58098,-0.16006 0.85426,-0.31625 0.35787,-0.18525 0.71878,-0.3729 1.05044,-0.61934 0.36761,-0.2687 0.73886,-0.53107 1.09545,-0.82055 0.25373,-0.2193 0.48694,-0.46088 0.64639,-0.7893 0.13889,-0.29527 0.28615,-0.58621 0.40772,-0.89232 0.0451,-0.11662 0.0766,-0.24461 0.0516,-0.3727 -0.0219,-0.14954 -0.0964,-0.27969 -0.16319,-0.40584 -0.11408,-0.1773 -0.25055,-0.33043 -0.39956,-0.46564 -0.2161,-0.18768 -0.44781,-0.34411 -0.69031,-0.47822 -0.3338,-0.18409 -0.67199,-0.35599 -1.01812,-0.50464 -0.26764,-0.1156 -0.55209,-0.21183 -0.79746,-0.38485 -0.0147,-0.0572 -0.32706,0.10117 -0.38934,0.1197 -0.1801,0.092 -0.36116,0.18256 -0.5336,0.2942 -0.16576,0.0997 -0.33307,0.19643 -0.49379,0.30749 -0.12911,0.1088 -0.25575,0.22355 -0.36522,0.36041 -0.082,0.10306 -0.2,0.33714 -0.14397,0.0281 -0.0226,-0.31656 0.007,0.054 0.0411,0.11446 0.0159,0.0731 0.0322,0.14506 0.0462,0.21845 0.0153,0.0542 0.0637,0.0887 0.095,0.12968 0.0555,0.0629 0.003,0.0172 -0.0424,0.0109 -0.0289,-0.003 0.13407,0.0195 0.15967,0.0101 0.10187,1.2e-4 0.20673,-0.003 0.30619,0.0255 C 149.66068,563.67763 149.66068,565.41032 147.7546,565.41032 Z"
       inkscape:connector-curvature="0" />
  </g>
</svg>
