<?xml version="1.0" encoding="UTF-8" standalone="no"?>
<!-- Created with Inkscape (http://www.inkscape.org/) -->

<svg
   xmlns:dc="http://purl.org/dc/elements/1.1/"
   xmlns:cc="http://creativecommons.org/ns#"
   xmlns:rdf="http://www.w3.org/1999/02/22-rdf-syntax-ns#"
   xmlns:svg="http://www.w3.org/2000/svg"
   xmlns="http://www.w3.org/2000/svg"
   xmlns:sodipodi="http://sodipodi.sourceforge.net/DTD/sodipodi-0.dtd"
   xmlns:inkscape="http://www.inkscape.org/namespaces/inkscape"
   width="600"
   height="100"
   id="svg2"
   version="1.1"
   inkscape:version="0.48+devel r"
   sodipodi:docname="fire_ani.svg"
   inkscape:export-filename="/home/aaron/Projects/Game-Design-Project/GamePrototype/media/fire_ani.png"
   inkscape:export-xdpi="90"
   inkscape:export-ydpi="90">
  <defs
     id="defs4" />
  <sodipodi:namedview
     id="base"
     pagecolor="#ffffff"
     bordercolor="#666666"
     borderopacity="1.0"
     inkscape:pageopacity="0.0"
     inkscape:pageshadow="2"
     inkscape:zoom="0.7"
     inkscape:cx="341.1262"
     inkscape:cy="233.22675"
     inkscape:document-units="px"
     inkscape:current-layer="g4065"
     showgrid="true"
     inkscape:window-width="1280"
     inkscape:window-height="744"
     inkscape:window-x="0"
     inkscape:window-y="27"
     inkscape:window-maximized="1">
    <inkscape:grid
       type="xygrid"
       id="grid3989"
       spacingx="50px"
       spacingy="50px"
       empspacing="2" />
  </sodipodi:namedview>
  <metadata
     id="metadata7">
    <rdf:RDF>
      <cc:Work
         rdf:about="">
        <dc:format>image/svg+xml</dc:format>
        <dc:type
           rdf:resource="http://purl.org/dc/dcmitype/StillImage" />
        <dc:title></dc:title>
      </cc:Work>
    </rdf:RDF>
  </metadata>
  <g
     inkscape:label="Layer 1"
     inkscape:groupmode="layer"
     id="layer1"
     transform="translate(0,-952.36218)">
    <g
       id="g3983"
       transform="matrix(1.0118344,0,0,1.0076268,4.8874896,-11.786426)">
      <path
         inkscape:connector-curvature="0"
         d="m 41.310096,1035.3396 c -0.71107,0.6617 -1.615041,1.0587 -2.492022,1.4498 -1.262645,0.5537 -2.612036,0.8336 -3.970557,1.0214 -1.938564,0.2579 -3.835768,-0.108 -5.692071,-0.6407 -1.958859,-0.6376 -3.780625,-1.609 -5.547317,-2.6541 -1.758152,-1.0442 -3.386694,-2.2789 -4.957025,-3.5834 -1.66463,-1.3724 -3.060349,-3.0092 -4.329977,-4.7432 -1.211119,-1.6858 -2.15737,-3.5337 -2.986315,-5.4307 -0.809469,-1.819 -1.165457,-3.7588 -1.325102,-5.7293 -0.087737,-1.7972 0.205005,-3.572 0.690073,-5.2954 0.466016,-1.5 1.216386,-2.885 2.072257,-4.1942 0.795915,-1.215 1.829065,-2.2277 2.959563,-3.1267 1.088719,-0.8246 2.311754,-1.4247 3.569997,-1.9393 1.163637,-0.4582 2.384463,-0.73016 3.603239,-0.99259 1.129758,-0.23424 2.267935,-0.42486 3.403926,-0.62584 1.264871,-0.21535 2.520593,-0.47845 3.773647,-0.75318 1.212352,-0.23722 2.397522,-0.57688 3.538437,-1.04956 1.124672,-0.4848 2.125411,-1.18687 3.087729,-1.93385 1.017601,-0.79244 1.954071,-1.68049 2.829752,-2.62569 0.704288,-0.73328 1.265816,-1.57497 1.66493,-2.50778 0.362746,-0.83965 0.430881,-1.74109 0.427407,-2.64389 0.01915,-1.11888 -0.250669,-2.19885 -0.558616,-3.2644 -0.370698,-1.23671 -0.820557,-2.44686 -1.334025,-3.63087 -0.509521,-1.12132 -1.110178,-2.19769 -1.652396,-3.3031 -0.842973,-1.89629 -0.830328,-2.52543 0.562433,-4.15568 0.09745,-0.2387 0.194894,-0.47739 0.292342,-0.71609 -0.304595,-0.53311 0.100746,-0.7647 0.405341,-0.23159 l 0,0 c 0.255498,0.0379 0.510996,0.0759 0.766495,0.11379 2.128476,-0.35328 2.68379,-0.006 3.859588,1.71129 0.764505,1.22203 1.479019,2.47679 2.086023,3.78539 0.682236,1.51898 1.309985,3.0682 1.720764,4.68563 0.428718,1.7858 0.726945,3.60723 0.579913,5.45079 -0.183726,1.76562 -0.545535,3.50982 -1.363386,5.10317 -0.783331,1.44551 -1.697537,2.80296 -2.848098,3.98688 -1.151349,1.18716 -2.367103,2.31079 -3.698921,3.29527 -1.426679,1.0175 -2.898009,1.9883 -4.541179,2.6249 -1.480932,0.5737 -3.000351,1.0328 -4.559928,1.3418 -1.353381,0.2719 -2.715812,0.4935 -4.083601,0.6799 -1.03593,0.1477 -2.071023,0.3059 -3.095518,0.5206 -0.888957,0.192 -1.776071,0.4066 -2.634158,0.7109 -0.725902,0.2805 -1.436294,0.609 -2.05114,1.0946 -0.614689,0.4841 -1.144105,1.0559 -1.572699,1.7127 -0.503685,0.7974 -0.897381,1.646 -1.14523,2.5594 -0.254059,0.9392 -0.412671,1.8777 -0.212341,2.8481 0.221209,1.2306 0.610947,2.424 1.140669,3.5574 0.710207,1.4293 1.540816,2.7926 2.441767,4.1099 0.915011,1.2493 1.908789,2.4436 3.108816,3.4329 1.296259,1.0598 2.649665,2.0482 4.077038,2.9257 1.314597,0.7914 2.632173,1.59 4.048709,2.1896 0.927375,0.3833 1.884266,0.6867 2.898581,0.696 0.834652,0 1.665692,-0.071 2.479979,-0.2641 0.584738,-0.1305 1.168122,-0.3514 1.769289,-0.3604 C 44.81426,1026.8785 47.607178,1031.6663 41.310096,1035.3396 Z"
         id="path3969"
         style="fill:#ff0000;fill-opacity:1;fill-rule:nonzero;stroke:none" />
      <path
         inkscape:connector-curvature="0"
         d="m 63.137783,988.73923 c -0.173378,0.54204 -0.356092,1.08105 -0.561018,1.6121 -0.265674,0.64477 -0.478615,1.30723 -0.673477,1.97613 -0.190166,0.67939 -0.311597,1.37452 -0.387008,2.07522 -0.09668,0.71928 0.01287,1.43285 0.119792,2.14289 0.124388,0.7986 0.359767,1.57053 0.603052,2.33902 0.254164,0.83367 0.58169,1.64211 0.958337,2.42731 0.437444,0.9085 0.932781,1.7873 1.448213,2.6534 0.567244,0.9229 1.151304,1.8367 1.764747,2.7297 0.632337,0.9611 1.282381,1.9103 1.907673,2.8762 0.662211,0.9722 1.316951,1.949 1.92325,2.9572 0.650833,1.0614 1.189255,2.1829 1.680471,3.3251 0.490983,1.1656 0.871431,2.3722 1.21738,3.5874 0.36048,1.2267 0.58125,2.4853 0.777544,3.7466 0.189056,1.2154 0.275554,2.4415 0.311771,3.6699 0.03624,1.2497 -0.110456,2.4874 -0.339522,3.7128 -0.227447,1.1852 -0.619223,2.3274 -1.072566,3.4428 -0.404578,1.0897 -0.982582,2.0894 -1.644927,3.0394 -0.602509,0.8352 -1.299974,1.595 -2.058153,2.29 -1.155315,1.053 -2.028011,1.1591 -3.443239,0.4929 -0.223185,-0.041 -0.446371,-0.082 -0.669557,-0.1228 -0.443034,0.34 -0.701511,0 -0.258477,-0.3368 l 0,0 c 0.0052,-0.2163 0.01049,-0.4325 0.01574,-0.6487 -0.460513,-1.3148 -0.498459,-2.0962 0.434781,-3.1664 0.477924,-0.5681 0.998633,-1.0996 1.443026,-1.6957 0.427375,-0.6021 0.886703,-1.1899 1.180026,-1.8731 0.315711,-0.7873 0.601809,-1.5884 0.765632,-2.4231 0.161564,-0.8443 0.266526,-1.7014 0.236413,-2.5629 -0.02444,-0.9908 -0.107909,-1.9796 -0.271489,-2.9578 -0.174023,-1.0502 -0.394674,-2.0928 -0.67228,-3.1208 -0.278305,-0.9957 -0.574955,-1.9878 -0.969324,-2.945 -0.381241,-0.9142 -0.801273,-1.8117 -1.306095,-2.6653 -0.572537,-0.9548 -1.197882,-1.8747 -1.805863,-2.8069 -0.621403,-0.9537 -1.258849,-1.8968 -1.879982,-2.8506 -0.637712,-1.0076 -1.292545,-2.0046 -1.862418,-3.0536 -0.575025,-1.0329 -1.145525,-2.07 -1.62821,-3.1502 -0.436,-1.0259 -0.845925,-2.0627 -1.154092,-3.1355 -0.278398,-1.03845 -0.478426,-2.09332 -0.587391,-3.1639 -0.11402,-1.11667 -0.170686,-2.24186 -0.02326,-3.35919 0.133596,-0.98103 0.31878,-1.95333 0.627581,-2.89631 0.268509,-0.83134 0.569527,-1.65246 0.924582,-2.45114 0.312775,-0.65744 0.683598,-1.28931 1.106805,-1.88166 C 62.172018,981.54175 65.99355,983.71308 63.137783,988.73923 Z"
         id="path3971"
         style="fill:#ff6600;fill-opacity:1;fill-rule:nonzero;stroke:none" />
      <path
         inkscape:connector-curvature="0"
         d="m 39.19091,1023.2751 c -0.847506,-0.1633 -1.624346,-0.577 -2.36485,-1.0054 -0.756472,-0.4716 -1.462366,-1.0196 -2.121765,-1.6182 -0.768524,-0.7425 -1.238947,-1.6648 -1.548024,-2.6736 -0.284638,-1.0249 -0.227764,-2.034 0.05536,-3.0469 0.272932,-0.8568 0.730715,-1.6176 1.314818,-2.2949 0.614069,-0.6086 1.344886,-1.0769 2.109714,-1.4714 0.818507,-0.4025 1.698535,-0.6045 2.596349,-0.7253 0.728993,-0.077 1.459888,-0.114 2.183925,-0.2329 0.443489,-0.055 0.868688,-0.1122 1.270706,-0.3123 0.482786,-0.2216 0.872409,-0.5855 1.266165,-0.9337 0.472203,-0.3672 0.891901,-0.7869 1.292172,-1.2293 0.443417,-0.4565 0.749732,-1.0269 1.198084,-1.4749 0.676716,-0.6599 1.347437,-0.2505 2.170111,-0.327 0.321171,-0.03 0.5476,-0.3417 0.831108,-0.4956 0.199179,-0.499 0.578593,-0.3476 0.379414,0.1515 l 0,0 c 0.09348,0.3342 0.02974,0.718 0.196177,1.0225 0.51934,0.9504 1.166251,1.3164 0.64286,2.4648 -0.399416,0.802 -1.014468,1.4501 -1.587591,2.1324 -0.61946,0.682 -1.284786,1.3248 -2.038795,1.8583 -0.831459,0.5695 -1.722718,1.0349 -2.673146,1.3761 -0.856691,0.2803 -1.73211,0.4933 -2.641298,0.4628 -0.648621,-0.019 -1.296363,0 -1.944349,0.034 -0.320339,0.03 -0.652985,0.052 -0.936815,0.2154 -0.230737,0.1525 -0.413957,0.3192 -0.524649,0.5797 -0.09464,0.1362 -0.212272,0.2682 -0.250883,0.4303 0.04093,-0.1252 0.06058,-0.3969 0.187811,-0.1575 0.131912,0.098 0.259244,0.1975 0.367024,0.3241 0.370805,0.293 0.792891,0.4962 1.209928,0.7173 0.421497,0.2398 0.854487,0.4544 1.278048,0.6898 C 48.394491,1020.2575 46.476887,1025.7972 39.19091,1023.2751 Z"
         id="path3973"
         style="fill:#ff6600;fill-opacity:1;fill-rule:nonzero;stroke:none" />
      <path
         inkscape:connector-curvature="0"
         d="m 56.056592,1027.7698 c -0.202263,0.5808 -0.447829,1.1472 -0.67514,1.7192 -0.241613,0.5989 -0.467088,1.2028 -0.674428,1.8143 -0.166924,0.5332 -0.263868,1.0843 -0.322154,1.6391 -0.06249,0.4291 -0.01517,0.8617 0.06521,1.2848 0.06595,0.4078 0.285818,0.7668 0.458398,1.1361 0.155357,0.3635 0.375693,0.6834 0.637668,0.9765 0.279986,0.2683 0.560171,0.542 0.877072,0.7667 0.671109,0.4186 0.914326,1.1388 1.229062,1.8201 0.07858,0.1492 0.157164,0.2985 0.235746,0.4477 1.075832,0.2125 0.91422,1.0305 -0.161612,0.818 l 0,0 c -0.150066,0.104 -0.300133,0.2081 -0.450199,0.3121 -0.85978,0.5425 -1.661557,0.9227 -2.68538,0.5609 -0.856649,-0.2985 -1.687926,-0.6317 -2.36789,-1.2569 -0.631515,-0.5734 -1.183457,-1.2179 -1.642801,-1.9388 -0.531361,-0.8066 -0.926776,-1.6857 -1.160747,-2.6254 -0.20314,-0.9793 -0.306262,-1.9668 -0.170144,-2.9652 0.128092,-0.8829 0.277233,-1.7649 0.575158,-2.6095 0.252784,-0.7624 0.557722,-1.5053 0.889253,-2.2369 0.304818,-0.6397 0.616519,-1.2883 1.03158,-1.8643 C 54.64075,1019.8979 58.952099,1022.0995 56.056592,1027.7698 Z"
         id="path3979"
         style="fill:#ff0000;fill-opacity:1;fill-rule:nonzero;stroke:none" />
    </g>
    <path
       style="fill:#ff0000;fill-opacity:1;fill-rule:nonzero;stroke:none"
       id="path3981"
       d="m 117.64914,492.1656 c -0.26464,-0.27476 -0.52928,-0.54952 -0.79392,-0.82429 -1.09339,-0.92397 -0.39086,-1.7553 0.70252,-0.83133 l 0,0 c 0.3233,0.22208 0.6466,0.44416 0.96991,0.66624 C 119.82891,492.33165 118.9504,493.32103 117.64914,492.1656 Z"
       inkscape:connector-curvature="0" />
    <g
       transform="matrix(1.0118344,0,0,1.0076268,104.88749,-11.786426)"
       id="g4001">
      <path
         style="fill:#ff0000;fill-opacity:1;fill-rule:nonzero;stroke:none"
         id="path4003"
         d="m 41.310096,1035.3396 c -0.71107,0.6617 -1.615041,1.0587 -2.492022,1.4498 -1.262645,0.5537 -2.612036,0.8336 -3.970557,1.0214 -1.938564,0.2579 -3.835768,-0.108 -5.692071,-0.6407 -1.958859,-0.6376 -3.780625,-1.609 -5.547317,-2.6541 -1.758152,-1.0442 -3.386694,-2.2789 -4.957025,-3.5834 -1.66463,-1.3724 -3.060349,-3.0092 -4.329977,-4.7432 -1.211119,-1.6858 -2.15737,-3.5337 -2.986315,-5.4307 -0.809469,-1.819 -1.165457,-3.7588 -1.325102,-5.7293 -0.087737,-1.7972 0.205005,-3.572 0.690073,-5.2954 0.466016,-1.5 1.216386,-2.885 2.072257,-4.1942 0.795915,-1.215 1.829065,-2.2277 2.959563,-3.1267 1.088719,-0.8246 2.311754,-1.4247 3.569997,-1.9393 1.163637,-0.4582 2.384463,-0.73016 3.603239,-0.99259 1.129758,-0.23424 2.267935,-0.42486 3.403926,-0.62584 1.264871,-0.21535 2.520593,-0.47845 3.773647,-0.75318 1.212352,-0.23722 2.397522,-0.57688 3.538437,-1.04956 1.124672,-0.4848 2.125411,-1.18687 3.087729,-1.93385 1.017601,-0.79244 1.954071,-1.68049 2.829752,-2.62569 0.704288,-0.73328 1.265816,-1.57497 1.66493,-2.50778 0.362746,-0.83965 0.430881,-1.74109 0.427407,-2.64389 0.01915,-1.11888 -0.250669,-2.19885 -0.558616,-3.2644 -0.370698,-1.23671 -0.820557,-2.44686 -1.334025,-3.63087 -0.509521,-1.12132 -1.110178,-2.19769 -1.652396,-3.3031 -0.842973,-1.89629 -0.830328,-2.52543 0.562433,-4.15568 0.09745,-0.2387 0.194894,-0.47739 0.292342,-0.71609 -0.304595,-0.53311 0.100746,-0.7647 0.405341,-0.23159 l 0,0 c 0.255498,0.0379 0.510996,0.0759 0.766495,0.11379 2.128476,-0.35328 2.68379,-0.006 3.859588,1.71129 0.764505,1.22203 1.479019,2.47679 2.086023,3.78539 0.682236,1.51898 1.309985,3.0682 1.720764,4.68563 0.428718,1.7858 0.726945,3.60723 0.579913,5.45079 -0.183726,1.76562 -0.545535,3.50982 -1.363386,5.10317 -0.783331,1.44551 -1.697537,2.80296 -2.848098,3.98688 -1.151349,1.18716 -2.367103,2.31079 -3.698921,3.29527 -1.426679,1.0175 -2.898009,1.9883 -4.541179,2.6249 -1.480932,0.5737 -3.000351,1.0328 -4.559928,1.3418 -1.353381,0.2719 -2.715812,0.4935 -4.083601,0.6799 -1.03593,0.1477 -2.071023,0.3059 -3.095518,0.5206 -0.888957,0.192 -1.776071,0.4066 -2.634158,0.7109 -0.725902,0.2805 -1.436294,0.609 -2.05114,1.0946 -0.614689,0.4841 -1.144105,1.0559 -1.572699,1.7127 -0.503685,0.7974 -0.897381,1.646 -1.14523,2.5594 -0.254059,0.9392 -0.412671,1.8777 -0.212341,2.8481 0.221209,1.2306 0.610947,2.424 1.140669,3.5574 0.710207,1.4293 1.540816,2.7926 2.441767,4.1099 0.915011,1.2493 1.908789,2.4436 3.108816,3.4329 1.296259,1.0598 2.649665,2.0482 4.077038,2.9257 1.314597,0.7914 2.632173,1.59 4.048709,2.1896 0.927375,0.3833 1.884266,0.6867 2.898581,0.696 0.834652,0 1.665692,-0.071 2.479979,-0.2641 0.584738,-0.1305 1.168122,-0.3514 1.769289,-0.3604 C 44.81426,1026.8785 47.607178,1031.6663 41.310096,1035.3396 Z"
         inkscape:connector-curvature="0" />
      <path
         style="fill:#ff6600;fill-opacity:1;fill-rule:nonzero;stroke:none"
         id="path4005"
         d="m 63.383324,973.32881 c -0.173378,0.54204 -0.356092,1.08105 -0.561018,1.6121 -0.265674,0.64477 -0.478615,1.30723 -0.673477,1.97613 -0.190166,0.67939 -0.311597,1.37452 -0.387008,2.07522 -0.09668,0.71928 0.01287,1.43285 0.119792,2.14289 0.124388,0.7986 0.359767,1.57053 0.603052,2.33902 0.254164,0.83367 0.58169,1.64211 0.958337,2.42731 0.437444,0.9085 0.932781,1.7873 1.448213,2.6534 0.567244,0.9229 1.151304,1.8367 1.764747,2.7297 0.632337,0.9611 1.282381,1.9103 1.907673,2.8762 0.662211,0.9722 1.316951,1.949 1.92325,2.9572 0.650833,1.0614 1.189255,2.1829 1.680471,3.32512 0.490983,1.1656 0.871431,2.3722 1.21738,3.5874 0.36048,1.2267 0.58125,2.4853 0.777544,3.7466 0.189056,1.2154 0.275554,2.4415 0.311771,3.6699 0.03624,1.2497 -0.110456,2.4874 -0.339522,3.7128 -0.227447,1.1852 -0.619223,2.3274 -1.072566,3.4428 -0.404578,1.0897 -0.982582,2.0894 -1.644927,3.0394 -0.602509,0.8352 -1.299974,1.595 -2.058153,2.29 -1.155315,1.053 -2.028011,1.1591 -3.443239,0.4929 -0.223185,-0.041 -0.446371,-0.082 -0.669557,-0.1228 -0.443034,0.34 -0.701511,0 -0.258477,-0.3368 l 0,0 c 0.0052,-0.2163 0.01049,-0.4325 0.01574,-0.6487 -0.460513,-1.3148 -0.498459,-2.0962 0.434781,-3.1664 0.477924,-0.5681 0.998633,-1.0996 1.443026,-1.6957 0.427375,-0.6021 0.886703,-1.1899 1.180026,-1.8731 0.315711,-0.7873 0.601809,-1.5884 0.765632,-2.4231 0.161564,-0.8443 0.266526,-1.7014 0.236413,-2.5629 -0.02444,-0.9908 -0.107909,-1.9796 -0.271489,-2.9578 -0.174023,-1.0502 -0.394674,-2.0928 -0.67228,-3.1208 -0.278305,-0.9957 -0.574955,-1.9878 -0.969324,-2.945 -0.381241,-0.9142 -0.801273,-1.8117 -1.306095,-2.66532 -0.572537,-0.9548 -1.197882,-1.8747 -1.805863,-2.8069 -0.621403,-0.9537 -1.258849,-1.8968 -1.879982,-2.8506 -0.637712,-1.0076 -1.292545,-2.0046 -1.862418,-3.0536 -0.575025,-1.0329 -1.145525,-2.07 -1.62821,-3.1502 -0.436,-1.0259 -0.845925,-2.0627 -1.154092,-3.1355 -0.278398,-1.03845 -0.478426,-2.09332 -0.587391,-3.1639 -0.11402,-1.11667 -0.170686,-2.24186 -0.02326,-3.35919 0.133596,-0.98103 0.31878,-1.95333 0.627581,-2.89631 0.268509,-0.83134 0.569527,-1.65246 0.924582,-2.45114 0.312775,-0.65744 0.683598,-1.28931 1.106805,-1.88166 C 62.417559,966.13133 66.239091,968.30266 63.383324,973.32881 Z"
         inkscape:connector-curvature="0" />
      <path
         style="fill:#ff0000;fill-opacity:1;fill-rule:nonzero;stroke:none"
         id="path4009"
         d="m 52.806635,1028.8223 c 0.563847,0.2408 1.11054,0.5241 1.663997,0.7894 0.579247,0.2815 1.164523,0.5471 1.758543,0.795 0.518869,0.2023 1.060123,0.3356 1.607593,0.4305 0.422287,0.091 0.855266,0.072 1.280977,0.019 0.40956,-0.039 0.780739,-0.236 1.159047,-0.3847 0.371413,-0.1318 0.70377,-0.3316 1.012232,-0.5748 0.285002,-0.2629 0.575382,-0.5257 0.819484,-0.8285 0.460049,-0.6449 1.191684,-0.8413 1.889362,-1.1119 0.153421,-0.069 0.306942,-0.1379 0.460363,-0.2068 0.281839,-1.0641 1.08406,-0.8484 0.802221,0.2157 l 0,0 c 0.09348,0.1572 0.187069,0.3144 0.280554,0.4716 0.482591,0.8971 0.807717,1.7255 0.380937,2.7276 -0.352896,0.8387 -0.738607,1.6498 -1.404534,2.29 -0.611272,0.5952 -1.287966,1.1059 -2.034495,1.5188 -0.83642,0.4794 -1.735951,0.8179 -2.685093,0.9906 -0.986467,0.1392 -1.974511,0.1776 -2.957668,-0.024 -0.868914,-0.1863 -1.73555,-0.3937 -2.555248,-0.7477 -0.740982,-0.3034 -1.459161,-0.6577 -2.164364,-1.038 -0.615637,-0.3475 -1.239667,-0.7024 -1.784764,-1.1561 C 44.891387,1029.7238 47.362342,1025.5485 52.806635,1028.8223 Z"
         inkscape:connector-curvature="0" />
      <path
         style="fill:#ff6600;fill-opacity:1;fill-rule:nonzero;stroke:none"
         id="path4013"
         d="m 156.16713,1016.9997 c -0.72187,0.5062 -1.58981,0.7374 -2.44338,0.9075 -1.04475,0.1887 -2.10492,0.1389 -3.1536,0.022 -1.05372,-0.1088 -2.06971,-0.3985 -3.06967,-0.735 -0.99088,-0.3369 -1.90696,-0.8348 -2.78957,-1.3898 -1.02767,-0.6426 -1.82651,-1.5192 -2.49482,-2.5176 -0.57285,-0.9426 -0.88908,-1.992 -1.08664,-3.0688 -0.16536,-0.9042 -0.19624,-1.824 -0.12217,-2.7386 0.0704,-0.9697 0.35263,-1.8909 0.76596,-2.7649 0.41251,-0.8133 1.00688,-1.5017 1.66761,-2.1211 0.58654,-0.5147 1.25113,-0.9225 1.93398,-1.2942 0.60202,-0.3093 1.24582,-0.5191 1.87013,-0.777 0.53852,-0.2536 1.11817,-0.392 1.70343,-0.4833 1.03516,-0.071 1.8383,0.6468 2.68865,1.1461 0.45269,-0.2387 0.63416,0.1055 0.18147,0.3442 l 0,0 c -0.0267,0.3479 -0.17556,0.6803 -0.19357,1.0288 -0.0431,0.8328 0.16971,1.321 -0.56436,1.9006 -0.54617,0.4574 -1.15539,0.8348 -1.8319,1.0684 -0.42882,0.1627 -0.85077,0.3353 -1.25772,0.5482 -0.25917,0.1542 -0.50444,0.3261 -0.70251,0.5579 -0.13428,0.1469 -0.25611,0.2996 -0.33396,0.4861 -0.0776,0.1803 -0.14032,0.3496 -0.11794,0.5518 0.0205,0.3964 0.0443,0.7933 0.15511,1.1772 0.11365,0.3477 0.23531,0.6953 0.43985,1.002 0.17128,0.2437 0.35173,0.4715 0.61609,0.6249 0.47305,0.2881 0.97817,0.5238 1.49834,0.7133 0.59948,0.203 1.21514,0.3658 1.84061,0.4644 0.48257,0.074 0.96832,0.1463 1.45771,0.1459 0.31194,0 0.64434,-0.069 0.9413,0.019 C 160.58146,1008.6588 162.98302,1013.8411 156.16713,1016.9997 Z"
         inkscape:connector-curvature="0"
         transform="matrix(0.98830401,0,0,0.99243093,-103.66073,11.697214)" />
    </g>
    <g
       id="g4015"
       transform="matrix(1.0118344,0,0,1.0076268,204.88749,-11.786426)">
      <path
         inkscape:connector-curvature="0"
         d="m 43.872493,1033.322 c -0.504053,0.8316 -1.26567,1.4614 -2.002929,2.0782 -1.064031,0.8789 -2.285983,1.5183 -3.541768,2.0715 -1.794706,0.7798 -3.719295,0.9482 -5.649908,0.9449 -2.057801,-0.076 -4.074514,-0.5109 -6.058293,-1.0318 -1.975319,-0.5222 -3.877771,-1.2633 -5.74321,-2.0875 -1.974622,-0.8637 -3.762473,-2.0554 -5.455465,-3.3753 -1.623598,-1.2895 -3.03649,-2.8076 -4.34989,-4.4051 -1.2734505,-1.5279 -2.1435185,-3.2963 -2.8330595,-5.1481 -0.573231,-1.7048 -0.774357,-3.4924 -0.776489,-5.2833 0.0403,-1.5708 0.385429,-3.1089 0.852661,-4.6031 0.435178,-1.3871 1.153595,-2.6446 1.9965845,-3.8195 0.823035,-1.0918 1.836343,-2.0046 2.906775,-2.8447 0.994763,-0.7599 2.095198,-1.3564 3.196253,-1.9431 1.023088,-0.5352 2.066141,-1.0308 3.104272,-1.5357 1.158203,-0.5541 2.294616,-1.1516 3.4253,-1.7595 1.101732,-0.5608 2.149452,-1.21255 3.118419,-1.98018 0.950046,-0.77483 1.721774,-1.72468 2.444327,-2.7072 0.763368,-1.04141 1.422686,-2.15254 2.007981,-3.30197 0.47806,-0.89856 0.789301,-1.86226 0.91952,-2.86907 0.120572,-0.90721 -0.05907,-1.79307 -0.30797,-2.66059 -0.285908,-1.08159 -0.839214,-2.04649 -1.425276,-2.98706 -0.692982,-1.08802 -1.454891,-2.12877 -2.27088,-3.12693 -0.795141,-0.93894 -1.665727,-1.80964 -2.487994,-2.7243 -1.326702,-1.59298 -1.485661,-2.20167 -0.589277,-4.15193 0.02882,-0.25635 0.05763,-0.51269 0.08645,-0.76904 -0.438017,-0.4293 -0.111079,-0.76326 0.326937,-0.33396 l 0,0 c 0.256092,-0.0336 0.512211,-0.0671 0.768301,-0.10076 1.951454,-0.92363 2.580112,-0.74186 4.178297,0.58764 1.067822,0.96589 2.096457,1.97697 3.036313,3.06933 1.069451,1.2741 2.094711,2.59224 2.929804,4.03551 0.898146,1.60031 1.680453,3.27069 2.040451,5.08448 0.3035,1.74887 0.429862,3.52599 0.07649,5.28307 -0.360375,1.60539 -0.8706,3.16197 -1.655393,4.61643 -0.784669,1.45781 -1.648574,2.87216 -2.661979,4.18449 -1.095677,1.37014 -2.247009,2.70754 -3.654549,3.77064 -1.268579,0.9581 -2.605352,1.8164 -4.021582,2.5414 -1.227966,0.6328 -2.478319,1.2196 -3.7434,1.7741 -0.956367,0.4262 -1.909073,0.8623 -2.836216,1.3498 -0.802933,0.4285 -1.597946,0.8783 -2.340638,1.4064 -0.622006,0.4689 -1.216037,0.9797 -1.675424,1.6155 -0.459643,0.6343 -0.813402,1.3296 -1.047054,2.0789 -0.267644,0.9053 -0.415555,1.8296 -0.40554,2.7762 0.01106,0.9732 0.113745,1.9195 0.570402,2.7981 0.547515,1.1231 1.247033,2.1642 2.064893,3.1092 1.071965,1.1802 2.241803,2.2639 3.466796,3.284 1.220023,0.9508 2.500858,1.8271 3.924341,2.4497 1.535232,0.664 3.106017,1.2436 4.717793,1.6962 1.479868,0.4008 2.964561,0.8076 4.490324,0.9959 0.99637,0.1144 1.9994,0.1438 2.977677,-0.1254 0.802916,-0.229 1.583046,-0.5252 2.313849,-0.9343 0.527009,-0.2859 1.028127,-0.6584 1.603988,-0.8319 C 44.94204,1024.2215 48.931021,1028.0612 43.872493,1033.322 Z"
         id="path4017"
         style="fill:#ff0000;fill-opacity:1;fill-rule:nonzero;stroke:none" />
      <path
         inkscape:connector-curvature="0"
         d="m 58.349726,967.16464 c -0.173378,0.54204 -0.356092,1.08105 -0.561018,1.6121 -0.265674,0.64477 -0.478615,1.30723 -0.673477,1.97613 -0.190166,0.67939 -0.311597,1.37452 -0.387008,2.07522 -0.09668,0.71928 0.01287,1.43285 0.119792,2.14289 0.124388,0.7986 0.359767,1.57053 0.603052,2.33902 0.254164,0.83367 0.58169,1.64211 0.958337,2.42731 0.437444,0.9085 0.932781,1.7873 1.448213,2.6534 0.567244,0.9229 1.151304,1.8367 1.764747,2.7297 0.632337,0.9611 1.282381,1.9103 1.907673,2.8762 0.662211,0.9722 1.316951,1.949 1.92325,2.9572 0.650833,1.0614 1.189255,2.1829 1.680471,3.32512 0.490983,1.1656 0.871431,2.3722 1.21738,3.5874 0.36048,1.2267 0.58125,2.48527 0.777544,3.74657 0.189056,1.2154 0.275554,2.4415 0.311771,3.6699 0.03624,1.2497 -0.110456,2.4874 -0.339522,3.7128 -0.227447,1.1852 -0.619223,2.3274 -1.072566,3.4428 -0.404578,1.0897 -0.982582,2.0894 -1.644927,3.0394 -0.602509,0.8352 -1.299974,1.595 -2.058153,2.29 -1.155315,1.053 -2.028011,1.1591 -3.443239,0.4929 -0.223185,-0.041 -0.446371,-0.082 -0.669557,-0.1228 -0.443034,0.34 -0.701511,0 -0.258477,-0.3368 l 0,0 c 0.0052,-0.2163 0.01049,-0.4325 0.01574,-0.6487 -0.460513,-1.3148 -0.498459,-2.0962 0.434781,-3.1664 0.477924,-0.5681 0.998633,-1.0996 1.443026,-1.6957 0.427375,-0.6021 0.886703,-1.1899 1.180026,-1.8731 0.315711,-0.7873 0.601809,-1.5884 0.765632,-2.4231 0.161564,-0.8443 0.266526,-1.7014 0.236413,-2.5629 -0.02444,-0.9908 -0.107909,-1.9796 -0.271489,-2.9578 -0.174023,-1.0502 -0.394674,-2.0928 -0.67228,-3.12077 -0.278305,-0.9957 -0.574955,-1.9878 -0.969324,-2.945 -0.381241,-0.9142 -0.801273,-1.8117 -1.306095,-2.66532 -0.572537,-0.9548 -1.197882,-1.8747 -1.805863,-2.8069 -0.621403,-0.9537 -1.258849,-1.8968 -1.879982,-2.8506 -0.637712,-1.0076 -1.292545,-2.0046 -1.862418,-3.0536 -0.575025,-1.0329 -1.145525,-2.07 -1.62821,-3.1502 -0.436,-1.0259 -0.845925,-2.0627 -1.154092,-3.1355 -0.278398,-1.03845 -0.478426,-2.09332 -0.587391,-3.1639 -0.11402,-1.11667 -0.170686,-2.24186 -0.02326,-3.35919 0.133596,-0.98103 0.31878,-1.95333 0.627581,-2.89631 0.268509,-0.83134 0.569527,-1.65246 0.924582,-2.45114 0.312775,-0.65744 0.683598,-1.28931 1.106805,-1.88166 C 57.383961,959.96716 61.205493,962.13849 58.349726,967.16464 Z"
         id="path4019"
         style="fill:#ff6600;fill-opacity:1;fill-rule:nonzero;stroke:none" />
      <path
         inkscape:connector-curvature="0"
         d="m 54.193137,1027.5035 c 0.610692,-0.05 1.225872,-0.054 1.838708,-0.078 0.643169,-0.021 1.284316,-0.059 1.925009,-0.1171 0.553046,-0.063 1.093967,-0.1978 1.622614,-0.3693 0.416008,-0.1166 0.790557,-0.3356 1.142931,-0.5812 0.344555,-0.2257 0.581982,-0.5734 0.848081,-0.8817 0.267819,-0.2901 0.469577,-0.6221 0.630088,-0.9815 0.130619,-0.3658 0.266046,-0.734 0.341982,-1.116 0.108749,-0.7858 0.665589,-1.3012 1.158014,-1.8665 0.103889,-0.1327 0.207914,-0.2654 0.31185,-0.398 -0.243105,-1.0737 0.567016,-1.2572 0.81012,-0.1835 l 0,0 c 0.155541,0.095 0.311179,0.191 0.466725,0.2865 0.842591,0.569 1.513963,1.1507 1.600038,2.2371 0.07584,0.9073 0.109852,1.8055 -0.183351,2.6832 -0.265646,0.8123 -0.628335,1.5804 -1.098131,2.2945 -0.518596,0.8149 -1.158299,1.5345 -1.918685,2.1305 -0.808941,0.5838 -1.665945,1.079 -2.629733,1.3595 -0.855557,0.2407 -1.718865,0.4616 -2.608487,0.5309 -0.796503,0.077 -1.596381,0.099 -2.396808,0.091 -0.705943,-0.02 -1.422743,-0.043 -2.115399,-0.1904 C 47.602596,1031.9967 47.857302,1027.1465 54.193137,1027.5035 Z"
         id="path4021"
         style="fill:#ff0000;fill-opacity:1;fill-rule:nonzero;stroke:none" />
      <path
         style="fill:#ff6600;fill-opacity:1;fill-rule:nonzero;stroke:none"
         id="path4025"
         d="m 250.56549,1013.918 c -0.7856,0.1679 -1.57792,0.057 -2.35669,-0.088 -0.90377,-0.1866 -1.77573,-0.5051 -2.60967,-0.8968 -0.89272,-0.4343 -1.70223,-1.0008 -2.46066,-1.6367 -0.82717,-0.704 -1.5057,-1.5441 -2.07742,-2.4628 -0.54851,-0.9593 -0.86239,-2.0112 -1.02084,-3.0985 -0.14752,-1.0794 0.0608,-2.1402 0.34323,-3.177 0.29483,-0.9814 0.84369,-1.8366 1.45264,-2.64786 0.5822,-0.74315 1.27605,-1.38024 2.01935,-1.95741 0.62951,-0.46756 1.28899,-0.89245 1.93256,-1.34008 0.58111,-0.38585 1.1156,-0.83511 1.64363,-1.28957 0.55841,-0.47948 1.06496,-1.01095 1.52956,-1.5808 0.53045,-0.6658 0.97033,-1.39321 1.40113,-2.12519 0.47058,-0.80698 0.83894,-1.66284 1.19739,-2.52326 0.35769,-0.82888 0.65726,-1.68095 0.92055,-2.544 0.22427,-0.78028 0.46312,-1.55684 0.74101,-2.31987 0.388,-1.30841 1.69068,-1.50904 2.78321,-2.02957 0.0288,-0.6594 0.53014,-0.63751 0.50136,0.0219 l 0,0 c 1.14368,0.77783 2.34,1.41579 2.22807,2.97881 -0.0531,1.04641 -0.23635,2.07573 -0.55188,3.07643 -0.32568,1.08048 -0.6771,2.15435 -1.12703,3.19065 -0.48638,1.0937 -1.02387,2.16586 -1.6466,3.18903 -0.62085,1.01191 -1.28894,1.9981 -2.07996,2.88661 -0.69655,0.76635 -1.42575,1.50243 -2.23074,2.15643 -0.67796,0.55575 -1.37228,1.09035 -2.10212,1.57695 -0.5524,0.3761 -1.11323,0.7406 -1.64054,1.1522 -0.34634,0.274 -0.69304,0.5514 -0.96894,0.9 -0.16676,0.2212 -0.30837,0.4502 -0.35948,0.7265 -0.0557,0.23 -0.10192,0.4674 -0.0774,0.7047 0.0874,0.2758 0.2025,0.5398 0.3566,0.7857 0.22001,0.3436 0.46537,0.6652 0.79075,0.9179 0.4001,0.3133 0.8079,0.6182 1.25053,0.8699 0.38019,0.2087 0.76837,0.3484 1.19216,0.4461 0.29322,0.091 0.6364,0.1356 0.88388,0.2996 C 258.10172,1007.8924 258.24412,1013.7307 250.56549,1013.918 Z"
         inkscape:connector-curvature="0"
         transform="matrix(0.98830401,0,0,0.99243093,-202.49113,11.697214)" />
    </g>
    <g
       transform="matrix(1.0118344,0,0,1.0076268,304.88722,-11.786426)"
       id="g4027">
      <path
         style="fill:#ff6600;fill-opacity:1;fill-rule:nonzero;stroke:none"
         id="path4031"
         d="m 58.349726,967.16464 c -0.173378,0.54204 -0.356092,1.08105 -0.561018,1.6121 -0.265674,0.64477 -0.478615,1.30723 -0.673477,1.97613 -0.190166,0.67939 -0.311597,1.37452 -0.387008,2.07522 -0.09668,0.71928 0.01287,1.43285 0.119792,2.14289 0.124388,0.7986 0.359767,1.57053 0.603052,2.33902 0.254164,0.83367 0.58169,1.64211 0.958337,2.42731 0.437444,0.9085 0.932781,1.7873 1.448213,2.6534 0.567244,0.9229 1.151304,1.8367 1.764747,2.7297 0.632337,0.9611 1.282381,1.9103 1.907673,2.8762 0.662211,0.9722 1.316951,1.949 1.92325,2.9572 0.650833,1.0614 1.189255,2.1829 1.680471,3.32512 0.490983,1.1656 0.871431,2.3722 1.21738,3.5874 0.36048,1.2267 0.58125,2.48527 0.777544,3.74657 0.189056,1.2154 0.275554,2.4415 0.311771,3.6699 0.03624,1.2497 -0.110456,2.4874 -0.339522,3.7128 -0.227447,1.1852 -0.619223,2.3274 -1.072566,3.4428 -0.404578,1.0897 -0.982582,2.0894 -1.644927,3.0394 -0.602509,0.8352 -1.299974,1.595 -2.058153,2.29 -1.155315,1.053 -2.028011,1.1591 -3.443239,0.4929 -0.223185,-0.041 -0.446371,-0.082 -0.669557,-0.1228 -0.443034,0.34 -0.701511,0 -0.258477,-0.3368 l 0,0 c 0.0052,-0.2163 0.01049,-0.4325 0.01574,-0.6487 -0.460513,-1.3148 -0.498459,-2.0962 0.434781,-3.1664 0.477924,-0.5681 0.998633,-1.0996 1.443026,-1.6957 0.427375,-0.6021 0.886703,-1.1899 1.180026,-1.8731 0.315711,-0.7873 0.601809,-1.5884 0.765632,-2.4231 0.161564,-0.8443 0.266526,-1.7014 0.236413,-2.5629 -0.02444,-0.9908 -0.107909,-1.9796 -0.271489,-2.9578 -0.174023,-1.0502 -0.394674,-2.0928 -0.67228,-3.12077 -0.278305,-0.9957 -0.574955,-1.9878 -0.969324,-2.945 -0.381241,-0.9142 -0.801273,-1.8117 -1.306095,-2.66532 -0.572537,-0.9548 -1.197882,-1.8747 -1.805863,-2.8069 -0.621403,-0.9537 -1.258849,-1.8968 -1.879982,-2.8506 -0.637712,-1.0076 -1.292545,-2.0046 -1.862418,-3.0536 -0.575025,-1.0329 -1.145525,-2.07 -1.62821,-3.1502 -0.436,-1.0259 -0.845925,-2.0627 -1.154092,-3.1355 -0.278398,-1.03845 -0.478426,-2.09332 -0.587391,-3.1639 -0.11402,-1.11667 -0.170686,-2.24186 -0.02326,-3.35919 0.133596,-0.98103 0.31878,-1.95333 0.627581,-2.89631 0.268509,-0.83134 0.569527,-1.65246 0.924582,-2.45114 0.312775,-0.65744 0.683598,-1.28931 1.106805,-1.88166 C 57.383961,959.96716 61.205493,962.13849 58.349726,967.16464 Z"
         inkscape:connector-curvature="0" />
      <path
         style="fill:#ff6600;fill-opacity:1;fill-rule:nonzero;stroke:none"
         id="path4037"
         d="m 344.84913,1017.5227 c -0.66878,-0.042 -1.27833,-0.3689 -1.86805,-0.6614 -0.70388,-0.3607 -1.34584,-0.8174 -1.96794,-1.3018 -0.59701,-0.4788 -1.09698,-1.052 -1.53496,-1.6762 -0.65223,-0.8054 -0.91712,-1.713 -0.99503,-2.7297 -0.0125,-0.9873 0.47134,-1.8333 0.93248,-2.6716 0.38877,-0.6754 0.85468,-1.295 1.36326,-1.8833 0.55291,-0.6757 1.23174,-1.2281 1.88893,-1.7969 0.67111,-0.5275 1.34183,-1.0579 2.0411,-1.5479 0.67402,-0.4584 1.30473,-1.0085 2.06972,-1.3045 0.81702,0.029 1.47639,0.5904 2.25552,0.8267 0.44314,-0.3517 0.71055,-0.015 0.26741,0.337 l 0,0 c -0.0366,0.8415 0.19154,1.7328 -0.17008,2.5226 -0.55874,0.5446 -1.28437,0.8792 -1.92846,1.3142 -0.58618,0.3787 -1.1904,0.7324 -1.7132,1.1999 -0.44968,0.3658 -0.86475,0.7663 -1.20167,1.2412 -0.32996,0.4571 -0.67677,0.9019 -0.99284,1.3687 -0.18127,0.2657 -0.17484,0.4853 -0.10762,0.074 -0.0265,-0.2891 -0.19647,-0.7362 0.13986,-0.3477 0.29846,0.2436 0.60341,0.4805 0.92165,0.6979 0.40013,0.2619 0.82448,0.4883 1.25665,0.6925 0.40896,0.213 0.84539,0.3987 1.19879,0.6983 C 353.21242,1015.0151 351.3569,1019.9631 344.84913,1017.5227 Z"
         inkscape:connector-curvature="0"
         transform="matrix(0.98830401,0,0,0.99243093,-301.32126,11.697214)" />
      <path
         style="fill:#ff0000;fill-opacity:1;fill-rule:nonzero;stroke:none"
         id="path4039"
         d="m 345.23369,1030.4713 c -0.79352,0.01 -1.57484,-0.1797 -2.34917,-0.3327 -1.11983,-0.2627 -2.22911,-0.5696 -3.32896,-0.9059 -1.50569,-0.4419 -2.95939,-1.0334 -4.40268,-1.6441 -1.69354,-0.7239 -3.30106,-1.6243 -4.86466,-2.5929 -1.73777,-1.0699 -3.29023,-2.389 -4.75803,-3.7981 -1.4037,-1.3836 -2.63563,-2.9238 -3.80904,-4.5032 -1.10713,-1.4619 -2.0573,-3.0248 -2.84761,-4.6776 -0.7532,-1.6374 -1.17899,-3.3918 -1.4801,-5.161 -0.26126,-1.5666 -0.30376,-3.1487 -0.1854,-4.729 0.14207,-1.4764 0.55914,-2.89852 1.06709,-4.28508 0.45658,-1.20982 1.07394,-2.34481 1.75668,-3.43937 0.66129,-1.01658 1.45481,-1.93563 2.28975,-2.81156 0.78222,-0.80497 1.62915,-1.54282 2.49736,-2.25277 0.81151,-0.6486 1.64826,-1.26453 2.48742,-1.87661 0.79552,-0.57815 1.58095,-1.16788 2.32056,-1.81656 0.83739,-0.76175 1.66408,-1.53522 2.47923,-2.32072 0.79476,-0.77106 1.5084,-1.62026 2.23398,-2.45533 0.72839,-0.85456 1.42876,-1.73272 2.12299,-2.61513 0.6947,-0.87573 1.3718,-1.76502 2.04991,-2.65359 0.62572,-0.82992 1.22234,-1.68143 1.81936,-2.53212 0.54581,-0.80952 1.05871,-1.64021 1.56066,-2.47738 0.49222,-0.81862 0.97056,-1.64489 1.45308,-2.46922 0.39242,-0.67708 0.81204,-1.33771 1.23604,-1.99531 0.3098,-0.48603 0.6597,-0.94475 1.03161,-1.38454 0.82327,-0.60028 2.04998,0.0457 2.96972,0.2262 0.10169,-0.27551 0.31117,-0.19819 0.20948,0.0773 l 0,0 c 0.73876,0.58257 1.95438,1.36457 1.90339,2.40931 -0.15845,0.55397 -0.34492,1.1002 -0.57653,1.62824 -0.31392,0.72573 -0.63277,1.44961 -0.98515,2.15769 -0.45867,0.92479 -0.93697,1.83993 -1.45272,2.73438 -0.55145,0.96471 -1.12954,1.9135 -1.73568,2.84494 -0.63221,0.98843 -1.29671,1.9553 -2.00325,2.89236 -0.68962,0.91755 -1.39212,1.82525 -2.09415,2.7333 -0.74529,0.96743 -1.50096,1.92677 -2.28363,2.8644 -0.85245,1.024 -1.72916,2.02793 -2.6897,2.95321 -0.93759,0.90719 -1.88319,1.81106 -2.90152,2.62795 -0.88223,0.70188 -1.79374,1.36409 -2.71369,2.01556 -0.73285,0.52959 -1.46755,1.0584 -2.16478,1.63474 -0.64909,0.53688 -1.29938,1.07445 -1.8883,1.67838 -0.51812,0.55218 -1.01348,1.12842 -1.43232,1.76083 -0.42402,0.68192 -0.79284,1.39441 -1.05527,2.1556 -0.27308,0.8037 -0.51063,1.6238 -0.58579,2.473 -0.0583,0.9845 0.0314,1.9654 0.23755,2.9303 0.24494,1.1409 0.51825,2.2813 0.98665,3.3549 0.58582,1.2024 1.32697,2.3058 2.17586,3.3404 1.01119,1.2697 2.05288,2.5168 3.17911,3.687 1.05164,1.0658 2.16915,2.0685 3.45114,2.8541 1.29912,0.8155 2.63131,1.5757 4.00978,2.2502 1.18318,0.5959 2.37419,1.1827 3.61167,1.6588 0.96134,0.365 1.91718,0.7439 2.89382,1.067 0.61758,0.2422 1.28439,0.405 1.85198,0.7501 C 354.38274,1026.2085 353.085,1032.1781 345.23369,1030.4713 Z"
         inkscape:connector-curvature="0"
         transform="matrix(0.98830401,0,0,0.99243093,-301.32126,11.697214)" />
      <path
         style="fill:#ff0000;fill-opacity:1;fill-rule:nonzero;stroke:none"
         id="path4049"
         d="m 359.23086,985.22529 c -0.14133,0.43914 -0.36975,0.84342 -0.54363,1.27021 -0.20626,0.45491 -0.3261,0.93573 -0.38727,1.42941 -0.0597,0.62641 -0.019,1.25565 0.0139,1.88231 0.0646,0.62668 0.191,1.24013 0.3877,1.83784 0.25311,0.64283 0.5629,1.26764 0.91412,1.86242 0.45477,0.68114 0.95362,1.33182 1.47374,1.96424 0.48839,0.64156 0.96782,1.29052 1.42697,1.95337 0.44645,0.67492 0.95034,1.30907 1.42001,1.96766 0.55695,0.76855 1.0493,1.57905 1.53601,2.39285 0.48547,0.8215 0.93651,1.6628 1.34977,2.5228 0.43219,0.9051 0.79472,1.8395 1.12122,2.787 0.33271,0.9502 0.58837,1.9248 0.82772,2.902 0.22419,0.959 0.41191,1.9254 0.57407,2.8966 0.153,0.998 0.25564,2.0032 0.30943,3.0113 0.0819,0.9641 0.0854,1.9272 0.0269,2.8923 -0.081,0.9393 -0.2492,1.8687 -0.43296,2.7927 -0.18723,0.9189 -0.4951,1.8024 -0.88165,2.6549 -0.40732,0.9675 -1.04653,1.7938 -1.73698,2.5726 -0.69427,0.7502 -1.44361,1.445 -2.20507,2.1258 -0.85462,0.7167 -1.79866,1.3247 -2.81395,1.7849 -1.39187,0.5929 -2.42237,0.3985 -3.50412,-0.6238 -0.2271,-0.2333 -0.45421,-0.4666 -0.68132,-0.6999 -0.69055,0.1635 -0.81486,-0.3615 -0.12432,-0.525 l 0,0 c 0.0642,-0.3023 0.12832,-0.6045 0.19248,-0.9068 0.14234,-1.0787 0.42037,-1.9112 1.38858,-2.4942 0.60966,-0.3968 1.24976,-0.7467 1.84013,-1.1742 0.60065,-0.4039 1.15873,-0.8623 1.65509,-1.391 0.36918,-0.3794 0.73945,-0.7645 1.04976,-1.1941 0.28847,-0.4504 0.51486,-0.9251 0.69763,-1.4291 0.21404,-0.6136 0.33663,-1.2544 0.43944,-1.895 0.0767,-0.766 0.16416,-1.5324 0.17892,-2.3028 -0.0167,-0.816 -0.0373,-1.631 -0.18058,-2.4376 -0.12633,-0.8445 -0.29304,-1.6827 -0.49567,-2.5124 -0.2009,-0.8308 -0.41348,-1.6589 -0.68071,-2.4713 -0.26762,-0.7706 -0.54275,-1.5406 -0.88831,-2.2804 -0.35318,-0.7314 -0.73041,-1.4507 -1.15103,-2.1461 -0.41951,-0.7066 -0.87298,-1.3925 -1.33651,-2.0709 -0.49198,-0.6994 -0.97636,-1.4042 -1.43987,-2.1228 -0.42658,-0.66881 -0.84683,-1.34175 -1.2665,-2.01487 -0.4314,-0.77158 -0.86435,-1.54266 -1.36468,-2.27283 -0.52248,-0.82931 -0.99945,-1.68008 -1.34884,-2.59979 -0.37649,-0.95531 -0.69104,-1.93809 -0.78917,-2.96587 -0.11005,-1.00777 -0.12173,-2.02485 0.0611,-3.02629 0.1656,-0.85399 0.39384,-1.68999 0.75589,-2.4841 0.26165,-0.55894 0.52017,-1.14214 0.92769,-1.61153 C 358.37308,978.22949 362.05789,980.37897 359.23086,985.22529 Z"
         inkscape:connector-curvature="0"
         transform="matrix(0.98830401,0,0,0.99243093,-301.32126,11.697214)" />
    </g>
    <g
       id="g4051"
       transform="matrix(1.0118344,0,0,1.0076268,404.88686,-11.786426)">
      <path
         inkscape:connector-curvature="0"
         d="m 39.87458,1041.8546 c -0.784239,0.011 -1.55642,-0.1987 -2.321694,-0.3679 -1.106732,-0.2905 -2.203038,-0.6299 -3.290024,-1.0018 -1.48808,-0.4887 -2.924777,-1.1428 -4.351187,-1.8182 -1.673732,-0.8006 -3.262451,-1.7963 -4.807763,-2.8675 -1.717445,-1.1831 -3.251747,-2.6419 -4.70238,-4.2002 -1.387282,-1.5301 -2.604804,-3.2334 -3.764489,-4.9801 -1.094181,-1.6167 -2.033238,-3.345 -2.814305,-5.1729 -0.74439,-1.8107 -1.1652,-3.7509 -1.462789,-5.7074 -0.258204,-1.7325 -0.300207,-3.4822 -0.183231,-5.2298 0.140408,-1.6327 0.5526,-3.2054 1.054609,-4.7388 0.45124,-1.3379 1.061379,-2.5931 1.736134,-3.8036 0.653556,-1.1242 1.437795,-2.14054 2.262969,-3.10922 0.773071,-0.89021 1.610096,-1.70619 2.468151,-2.49131 0.802019,-0.71728 1.628982,-1.39843 2.458327,-2.07532 0.786216,-0.63937 1.56246,-1.29155 2.293419,-2.00891 0.827596,-0.84241 1.644617,-1.69779 2.450233,-2.56646 0.785465,-0.85271 1.490758,-1.79183 2.207851,-2.71532 0.719871,-0.94505 1.41205,-1.91619 2.09816,-2.89204 0.686575,-0.96846 1.355755,-1.95191 2.025934,-2.93457 0.618402,-0.9178 1.208044,-1.85947 1.798081,-2.80024 0.539426,-0.89524 1.046327,-1.81389 1.542407,-2.7397 0.486463,-0.9053 0.959208,-1.81907 1.436084,-2.73068 0.387831,-0.74878 0.802543,-1.47936 1.221584,-2.20659 0.306176,-0.53749 0.651984,-1.04479 1.019544,-1.53115 0.813641,-0.66384 2.026003,0.0505 2.934986,0.25016 0.100501,-0.30469 0.307531,-0.21918 0.20703,0.0855 l 0,0 c 0.730119,0.64426 1.931522,1.50906 1.881128,2.66443 -0.156597,0.61263 -0.340886,1.21669 -0.569787,1.80065 -0.310248,0.80257 -0.625369,1.6031 -0.973628,2.38616 -0.453305,1.02271 -0.926011,2.03475 -1.435729,3.02392 -0.545,1.06686 -1.116329,2.11611 -1.715379,3.14618 -0.624816,1.09309 -1.281544,2.16234 -1.97982,3.19862 -0.681554,1.01471 -1.375838,2.01852 -2.069657,3.02273 -0.736573,1.06986 -1.483405,2.13079 -2.256921,3.1677 -0.842479,1.13243 -1.708935,2.24266 -2.658241,3.26592 -0.926624,1.00325 -1.861164,2.00283 -2.867584,2.90621 -0.871911,0.7762 -1.77276,1.50853 -2.681951,2.22893 -0.724278,0.5857 -1.450385,1.1705 -2.13946,1.8079 -0.641499,0.5937 -1.284183,1.1882 -1.866215,1.8561 -0.51206,0.6106 -1.001626,1.2479 -1.415567,1.9473 -0.419061,0.7541 -0.783567,1.542 -1.042928,2.3838 -0.269886,0.8888 -0.504658,1.7957 -0.578939,2.7349 -0.05762,1.0887 0.03103,2.1735 0.234772,3.2405 0.242075,1.2618 0.512189,2.5229 0.97511,3.7102 0.578969,1.3297 1.31145,2.5499 2.150411,3.6941 0.999364,1.4041 2.02887,2.7833 3.141928,4.0774 1.03934,1.1787 2.143779,2.2875 3.410775,3.1563 1.283926,0.9019 2.600534,1.7426 3.962882,2.4885 1.169341,0.659 2.346421,1.3079 3.569428,1.8344 0.950096,0.4037 1.894756,0.8227 2.859974,1.18 0.610356,0.2679 1.269367,0.4479 1.830319,0.8295 C 48.916623,1037.1405 47.634061,1043.7422 39.87458,1041.8546 Z"
         id="path4057"
         style="fill:#ff0000;fill-opacity:1;fill-rule:nonzero;stroke:none" />
      <path
         inkscape:connector-curvature="0"
         d="m 53.708039,976.76399 c -0.139677,0.5575 -0.365425,1.07075 -0.537271,1.61258 -0.203848,0.57752 -0.322286,1.18794 -0.382741,1.81468 -0.059,0.79525 -0.01878,1.59409 0.01374,2.38966 0.06384,0.79559 0.188766,1.57438 0.383165,2.3332 0.25015,0.81609 0.556316,1.60931 0.903429,2.3644 0.449451,0.86473 0.942466,1.69079 1.456503,2.49367 0.482678,0.81448 0.9565,1.63836 1.41028,2.47987 0.441228,0.85683 0.939225,1.66191 1.403402,2.49801 0.550435,0.9757 1.037027,2.00466 1.518044,3.03781 0.479792,1.04292 0.925557,2.11098 1.333983,3.20273 0.427136,1.1491 0.785425,2.3354 1.108107,3.5382 0.328818,1.2063 0.581488,2.4436 0.818039,3.6842 0.221568,1.2175 0.407092,2.4444 0.567355,3.6774 0.151211,1.2669 0.25265,2.5431 0.305811,3.8229 0.08094,1.224 0.0844,2.4466 0.02659,3.6719 -0.08005,1.1924 -0.246286,2.3724 -0.427896,3.5454 -0.185041,1.1666 -0.48931,2.2882 -0.871339,3.3705 -0.402556,1.2283 -1.034289,2.2773 -1.716664,3.266 -0.68615,0.9524 -1.426726,1.8345 -2.17928,2.6988 -0.844624,0.9098 -1.777622,1.6817 -2.781038,2.266 -1.37559,0.7527 -2.394038,0.5059 -3.463135,-0.792 -0.224444,-0.2962 -0.448898,-0.5923 -0.673352,-0.8885 -0.682473,0.2075 -0.805329,-0.459 -0.122866,-0.6665 l 0,0 c 0.06345,-0.3838 0.126819,-0.7675 0.190229,-1.1512 0.140675,-1.3695 0.415453,-2.4264 1.372339,-3.1665 0.60253,-0.5038 1.235143,-0.948 1.818608,-1.4907 0.593625,-0.5128 1.145178,-1.0947 1.635732,-1.7659 0.364862,-0.4817 0.730802,-0.9706 1.037482,-1.516 0.285096,-0.5718 0.508838,-1.1744 0.689471,-1.8143 0.211536,-0.779 0.332693,-1.5925 0.4343,-2.4057 0.0758,-0.9725 0.16224,-1.9455 0.176827,-2.9235 -0.0165,-1.036 -0.03686,-2.0706 -0.178468,-3.0946 -0.124852,-1.0722 -0.289612,-2.1363 -0.489872,-3.1896 -0.19855,-1.0547 -0.408644,-2.106 -0.672749,-3.1374 -0.26449,-0.9783 -0.536402,-1.9558 -0.87792,-2.8951 -0.349049,-0.9285 -0.721867,-1.8417 -1.137567,-2.7245 -0.414604,-0.8971 -0.86277,-1.76782 -1.320879,-2.62908 -0.486225,-0.88791 -0.96494,-1.78267 -1.423029,-2.69496 -0.421591,-0.84908 -0.836925,-1.7034 -1.251687,-2.55795 -0.426354,-0.97954 -0.854241,-1.95846 -1.348719,-2.88543 -0.516369,-1.05284 -0.98776,-2.13292 -1.333064,-3.30052 -0.372086,-1.2128 -0.682957,-2.46047 -0.77994,-3.76527 -0.108762,-1.2794 -0.120306,-2.57062 0.06039,-3.84198 0.163663,-1.08417 0.389233,-2.1455 0.747049,-3.15365 0.25859,-0.70959 0.514086,-1.44999 0.91684,-2.04589 C 52.860292,967.88259 56.502005,970.61142 53.708039,976.76399 Z"
         id="path4059"
         style="fill:#ff0000;fill-opacity:1;fill-rule:nonzero;stroke:none" />
      <path
         style="fill:#ff6600;fill-opacity:1;fill-rule:nonzero;stroke:none"
         id="path4061"
         d="m 449.22138,1019.428 c -0.64925,0.4806 -1.41226,0.7779 -2.18021,1.0076 -1.15668,0.3132 -2.34669,0.3261 -3.53237,0.2424 -1.10812,-0.1094 -2.2001,-0.336 -3.27927,-0.6046 -1.14241,-0.3088 -2.22115,-0.8026 -3.26616,-1.3501 -1.0752,-0.5765 -2.0413,-1.3219 -2.96663,-2.1106 -0.8589,-0.7597 -1.62315,-1.6147 -2.32939,-2.5157 -0.82745,-1.0491 -1.3846,-2.255 -1.83813,-3.5019 -0.36782,-1.0512 -0.6001,-2.1384 -0.74975,-3.2398 -0.13854,-1.1691 0.0207,-2.325 0.26515,-3.4664 0.2175,-0.9507 0.61373,-1.8425 1.05924,-2.705 0.42032,-0.8566 0.98898,-1.62075 1.60971,-2.34015 0.577,-0.66286 1.2464,-1.23073 1.94423,-1.76075 0.65529,-0.46897 1.3391,-0.89195 2.03387,-1.29904 0.67283,-0.38541 1.36938,-0.72552 2.06544,-1.06613 0.57553,-0.28587 1.11126,-0.6406 1.63567,-1.00988 0.5789,-0.39682 1.09938,-0.86891 1.61169,-1.34634 0.54828,-0.516 1.06024,-1.06833 1.5519,-1.63802 0.45305,-0.51939 0.84312,-1.08989 1.2135,-1.66997 0.3431,-0.56171 0.63392,-1.15088 0.89628,-1.75385 0.26039,-0.6771 0.67189,-1.25836 1.11395,-1.82531 0.88349,-0.64678 1.99115,-0.23297 3.02762,-0.45732 0.10725,-0.4158 0.4234,-0.33425 0.31614,0.0815 l 0,0 c 0.7235,0.77992 1.86289,1.29654 2.08581,2.39378 -0.0665,0.84317 -0.21011,1.66527 -0.57493,2.43763 -0.41058,0.92378 -0.85426,1.83563 -1.42143,2.67547 -0.5462,0.82549 -1.13627,1.61977 -1.77937,2.37293 -0.65313,0.74266 -1.32549,1.46914 -2.05639,2.13675 -0.75221,0.68516 -1.5242,1.35007 -2.37382,1.91368 -0.78886,0.52178 -1.59905,1.00982 -2.4617,1.40162 -0.57371,0.2787 -1.15019,0.5526 -1.70439,0.8692 -0.46061,0.2528 -0.91044,0.5288 -1.30587,0.8777 -0.35038,0.267 -0.69508,0.5426 -0.98929,0.8727 -0.23969,0.269 -0.46821,0.5442 -0.60322,0.883 -0.1709,0.4154 -0.35706,0.8304 -0.45278,1.2709 -0.0723,0.4032 -0.11546,0.8149 -0.0614,1.2234 0.0947,0.6234 0.32872,1.2173 0.54254,1.8071 0.20888,0.5619 0.42196,1.1307 0.78454,1.615 0.46009,0.5769 0.96885,1.1088 1.50926,1.6116 0.51058,0.4846 1.06496,0.9186 1.66906,1.2821 0.57373,0.3356 1.16223,0.6383 1.78802,0.8664 0.73312,0.2377 1.48571,0.4073 2.24352,0.546 0.49788,0.099 0.99999,0.202 1.50767,0.2294 0.35203,0.022 0.69627,-0.019 1.04716,-0.033 C 453.49323,1011.1893 455.89778,1016.2655 449.22138,1019.428 Z"
         inkscape:connector-curvature="0"
         transform="matrix(0.98830401,0,0,0.99243093,-400.15131,11.697214)" />
      <path
         style="fill:#ff6600;fill-opacity:1;fill-rule:nonzero;stroke:none"
         id="path4063"
         d="m 446.29089,1005.8588 c 0.5015,-0.6577 1.2461,-1.0101 2.01213,-1.2623 0.71246,-0.1889 1.44403,-0.2884 2.1795,-0.3164 0.78757,-0.045 1.552,0.1 2.29723,0.3408 0.77693,0.2555 1.4605,0.6919 2.10464,1.1853 0.59548,0.4804 1.10118,1.0557 1.56492,1.6611 0.43764,0.5466 0.69881,1.1982 0.99716,1.8241 0.30788,0.5867 0.54381,1.2024 0.7553,1.8287 0.20509,0.6051 0.30293,1.2359 0.43431,1.859 0.1707,0.642 0.12853,1.28 8.3e-4,1.9229 -0.29454,0.5072 -0.3944,1.0498 -0.5153,1.615 -0.0844,0.6087 -0.15198,0.4816 -0.86729,0.6694 -0.0171,0.3514 -0.28429,0.3384 -0.26714,-0.013 l 0,0 c -0.6625,-0.2082 -0.74664,-0.076 -0.8434,-0.6199 -0.13488,-0.5298 -0.2296,-1.0349 -0.5939,-1.4671 -0.16119,-0.4374 -0.31487,-0.874 -0.36353,-1.3409 -0.10916,-0.4523 -0.30182,-0.8823 -0.47704,-1.3117 -0.17835,-0.4054 -0.40146,-0.79 -0.65755,-1.1514 -0.30761,-0.401 -0.65315,-0.7714 -0.95083,-1.1803 -0.26622,-0.326 -0.52598,-0.6619 -0.84712,-0.9369 -0.25577,-0.2112 -0.52909,-0.4023 -0.83809,-0.5278 -0.24004,-0.092 -0.4844,-0.1553 -0.74446,-0.1493 -0.25548,0.03 -0.51034,0.081 -0.72501,0.2314 -0.17172,0.097 -0.33336,0.21 -0.52359,0.2711 C 445.3037,1013.1095 442.17193,1009.9777 446.29089,1005.8588 Z"
         inkscape:connector-curvature="0"
         transform="matrix(0.98830401,0,0,0.99243093,-400.15131,11.697214)" />
    </g>
    <g
       transform="matrix(1.0118344,0,0,1.0076268,504.51419,-12.655991)"
       id="g4065">
      <path
         style="fill:#ff6600;fill-opacity:1;fill-rule:nonzero;stroke:none"
         id="path4067"
         d="m 39.87458,1041.902 c -0.784239,0.01 -1.55642,-0.1706 -2.321694,-0.3159 -1.106732,-0.2494 -2.203038,-0.5409 -3.290024,-0.8603 -1.48808,-0.4196 -2.924777,-0.9813 -4.351187,-1.5613 -1.673732,-0.6875 -3.262451,-1.5425 -4.807763,-2.4624 -1.717445,-1.0159 -3.251747,-2.2686 -4.70238,-3.6068 -1.387282,-1.3139 -2.604804,-2.7766 -3.764489,-4.2765 -1.094181,-1.3883 -2.033238,-2.8725 -2.814305,-4.4421 -0.74439,-1.5549 -1.1652,-3.221 -1.462789,-4.9011 -0.258204,-1.4877 -0.300207,-2.9903 -0.183231,-4.491 0.140408,-1.402 0.5526,-2.7525 1.054609,-4.0693 0.45124,-1.1489 1.061379,-2.2267 1.736134,-3.2662 0.653556,-0.9654 1.437795,-1.8382 2.262969,-2.67 0.773071,-0.7644 1.610096,-1.4651 2.468151,-2.1393 0.802019,-0.616 1.628982,-1.2009 2.458327,-1.7822 0.786216,-0.549 1.56246,-1.10905 2.293419,-1.72506 0.827596,-0.7234 1.644617,-1.45793 2.450233,-2.20388 0.785465,-0.73224 1.490758,-1.53869 2.207851,-2.33171 0.719871,-0.81154 1.41205,-1.64548 2.09816,-2.48347 0.686575,-0.83164 1.355755,-1.67615 2.025934,-2.51998 0.618402,-0.78814 1.208044,-1.59678 1.798081,-2.40464 0.539426,-0.76876 1.046327,-1.55763 1.542407,-2.35264 0.486463,-0.77741 0.959208,-1.56208 1.436084,-2.3449 0.387831,-0.643 0.802543,-1.27037 1.221584,-1.89486 0.306176,-0.46155 0.651984,-0.89718 1.019544,-1.31483 0.813641,-0.57006 2.026003,0.0434 2.934986,0.21482 0.100501,-0.26165 0.307531,-0.18822 0.20703,0.0734 l 0,0 c 0.730119,0.55324 1.931522,1.29586 1.881128,2.28801 -0.156597,0.52608 -0.340886,1.0448 -0.569787,1.54626 -0.310248,0.68919 -0.625369,1.37662 -0.973628,2.04905 -0.453305,0.87823 -0.926011,1.74729 -1.435729,2.59672 -0.545,0.91613 -1.116329,1.81715 -1.715379,2.7017 -0.624816,0.93866 -1.281544,1.85685 -1.97982,2.74673 -0.681554,0.87135 -1.375838,1.73335 -2.069657,2.59569 -0.736573,0.91871 -1.483405,1.82976 -2.256921,2.72018 -0.842479,0.97245 -1.708935,1.92581 -2.658241,2.80451 -0.926624,0.8616 -1.861164,1.7199 -2.867584,2.4957 -0.871911,0.6665 -1.77276,1.2954 -2.681951,1.914 -0.724278,0.503 -1.450385,1.0051 -2.13946,1.5525 -0.641499,0.5098 -1.284183,1.0203 -1.866215,1.5939 -0.51206,0.5243 -1.001626,1.0716 -1.415567,1.6722 -0.419061,0.6475 -0.783567,1.3241 -1.042928,2.047 -0.269886,0.7632 -0.504658,1.542 -0.578939,2.3485 -0.05762,0.9349 0.03103,1.8665 0.234772,2.7827 0.242075,1.0835 0.512189,2.1665 0.97511,3.186 0.578969,1.1419 1.31145,2.1897 2.150411,3.1723 0.999364,1.2057 2.02887,2.39 3.141928,3.5013 1.03934,1.0122 2.143779,1.9644 3.410775,2.7104 1.283926,0.7745 2.600534,1.4964 3.962882,2.1369 1.169341,0.5659 2.346421,1.1232 3.569428,1.5753 0.950096,0.3467 1.894756,0.7065 2.859974,1.0133 0.610356,0.23 1.269367,0.3846 1.830319,0.7123 C 48.916623,1037.8539 47.634061,1043.523 39.87458,1041.902 Z"
         inkscape:connector-curvature="0" />
      <path
         style="fill:#ff0000;fill-opacity:1;fill-rule:nonzero;stroke:none"
         id="path4069"
         d="m 53.708039,972.97589 c -0.139677,0.59379 -0.365425,1.14045 -0.537271,1.71756 -0.203848,0.61511 -0.322286,1.26527 -0.382741,1.93281 -0.059,0.84702 -0.01878,1.69786 0.01374,2.54522 0.06384,0.84738 0.188766,1.67687 0.383165,2.48509 0.25015,0.86922 0.556316,1.71407 0.903429,2.51832 0.449451,0.92102 0.942466,1.80086 1.456503,2.656 0.482678,0.8675 0.9565,1.74502 1.41028,2.64131 0.441228,0.91261 0.939225,1.7701 1.403402,2.66063 0.550435,1.03921 1.037027,2.13516 1.518044,3.23556 0.479792,1.11081 0.925557,2.2484 1.333983,3.41123 0.427136,1.22388 0.785425,2.48738 1.108107,3.76848 0.328818,1.2849 0.581488,2.6027 0.818039,3.9241 0.221568,1.2967 0.407092,2.6035 0.567355,3.9168 0.151211,1.3493 0.25265,2.7086 0.305811,4.0717 0.08094,1.3037 0.0844,2.6059 0.02659,3.911 -0.08005,1.27 -0.246286,2.5268 -0.427896,3.7762 -0.185041,1.2425 -0.48931,2.4371 -0.871339,3.5899 -0.402556,1.3082 -1.034289,2.4255 -1.716664,3.4786 -0.68615,1.0144 -1.426726,1.9539 -2.17928,2.8745 -0.844624,0.969 -1.777622,1.7912 -2.781038,2.4135 -1.37559,0.8017 -2.394038,0.5388 -3.463135,-0.8436 -0.224444,-0.3154 -0.448898,-0.6308 -0.673352,-0.9463 -0.682473,0.221 -0.805329,-0.4889 -0.122866,-0.7099 l 0,0 c 0.06345,-0.4088 0.126819,-0.8174 0.190229,-1.2261 0.140675,-1.4587 0.415453,-2.5844 1.372339,-3.3727 0.60253,-0.5366 1.235143,-1.0097 1.818608,-1.5877 0.593625,-0.5462 1.145178,-1.166 1.635732,-1.8809 0.364862,-0.513 0.730802,-1.0337 1.037482,-1.6146 0.285096,-0.6091 0.508838,-1.2509 0.689471,-1.9325 0.211536,-0.8297 0.332693,-1.6961 0.4343,-2.5623 0.0758,-1.0358 0.16224,-2.0721 0.176827,-3.1138 -0.0165,-1.1034 -0.03686,-2.2054 -0.178468,-3.296 -0.124852,-1.142 -0.289612,-2.2754 -0.489872,-3.3973 -0.19855,-1.1233 -0.408644,-2.2431 -0.672749,-3.3416 -0.26449,-1.042 -0.536402,-2.0831 -0.87792,-3.0836 -0.349049,-0.9889 -0.721867,-1.96157 -1.137567,-2.90184 -0.414604,-0.9555 -0.86277,-1.8829 -1.320879,-2.80023 -0.486225,-0.94571 -0.96494,-1.89872 -1.423029,-2.87039 -0.421591,-0.90436 -0.836925,-1.81429 -1.251687,-2.72447 -0.426354,-1.04331 -0.854241,-2.08596 -1.348719,-3.07327 -0.516369,-1.12138 -0.98776,-2.27177 -1.333064,-3.51538 -0.372086,-1.29175 -0.682957,-2.62064 -0.77994,-4.01038 -0.108762,-1.36269 -0.120306,-2.73797 0.06039,-4.09209 0.163663,-1.15475 0.389233,-2.28517 0.747049,-3.35895 0.25859,-0.75578 0.514086,-1.54438 0.91684,-2.17907 C 52.860292,963.51633 56.502005,966.4228 53.708039,972.97589 Z"
         inkscape:connector-curvature="0" />
      <path
         style="fill:#ff0000;fill-opacity:1;fill-rule:nonzero;stroke:none"
         id="path4075"
         d="m 544.10407,1020.1592 c -0.82301,0.01 -1.61239,-0.2686 -2.37784,-0.5415 -0.92921,-0.3637 -1.79428,-0.8581 -2.61635,-1.4192 -0.8863,-0.6056 -1.63414,-1.3714 -2.31842,-2.1918 -0.65247,-0.8008 -1.16713,-1.6916 -1.60519,-2.6234 -0.48826,-1.0665 -0.64512,-2.2098 -0.63051,-3.371 0.0433,-1.0463 0.32827,-2.048 0.73272,-3.0068 0.39981,-0.8518 0.92765,-1.6334 1.52444,-2.358 0.50371,-0.5893 1.07222,-1.1204 1.67502,-1.6066 0.5448,-0.4647 1.12446,-0.7195 1.83721,-0.7429 0.79228,0.2605 1.4037,0.2908 2.13682,0.6441 0.32851,-0.3308 0.57999,-0.081 0.25148,0.2498 l 0,0 c 0.36877,0.7711 0.31402,1.3547 0.53593,2.2049 -0.0599,0.6747 -0.31756,1.2203 -0.76922,1.7288 -0.35617,0.431 -0.73395,0.8431 -1.10061,1.2651 -0.23529,0.2901 -0.46475,0.5834 -0.60043,0.9367 -0.09,0.2103 -0.15212,0.4284 -0.14335,0.6601 0.03,0.2407 0.0724,0.477 0.15167,0.7074 0.2296,0.4524 0.51775,0.8747 0.83482,1.2702 0.3211,0.3816 0.65956,0.747 1.06851,1.0375 0.41594,0.2924 0.84802,0.5589 1.30986,0.7738 0.31846,0.1435 0.65545,0.2573 0.95224,0.4411 C 552.76742,1015.3339 551.91861,1021.2755 544.10407,1020.1592 Z"
         inkscape:connector-curvature="0"
         transform="matrix(0.98830401,0,0,0.99243093,-498.6134,12.560197)" />
    </g>
  </g>
</svg>
