<?xml version="1.0" encoding="UTF-8" standalone="no"?>
<!-- Created with Inkscape (http://www.inkscape.org/) -->

<svg
   xmlns:dc="http://purl.org/dc/elements/1.1/"
   xmlns:cc="http://creativecommons.org/ns#"
   xmlns:rdf="http://www.w3.org/1999/02/22-rdf-syntax-ns#"
   xmlns:svg="http://www.w3.org/2000/svg"
   xmlns="http://www.w3.org/2000/svg"
   xmlns:sodipodi="http://sodipodi.sourceforge.net/DTD/sodipodi-0.dtd"
   xmlns:inkscape="http://www.inkscape.org/namespaces/inkscape"
   width="27.345591"
   height="28.893333"
   id="svg2"
   version="1.1"
   inkscape:version="0.48+devel r"
   sodipodi:docname="projectile.svg"
   inkscape:export-filename="/home/aaron/Projects/Game-Design-Project/GamePrototype/media/projectile.png"
   inkscape:export-xdpi="90"
   inkscape:export-ydpi="90">
  <defs
     id="defs4" />
  <sodipodi:namedview
     id="base"
     pagecolor="#ffffff"
     bordercolor="#666666"
     borderopacity="1.0"
     inkscape:pageopacity="0.0"
     inkscape:pageshadow="2"
     inkscape:zoom="0.98994949"
     inkscape:cx="-30.049613"
     inkscape:cy="60.655236"
     inkscape:document-units="px"
     inkscape:current-layer="layer1"
     showgrid="false"
     width="0px"
     height="0px"
     fit-margin-top="0"
     fit-margin-left="0"
     fit-margin-right="0"
     fit-margin-bottom="0"
     inkscape:window-width="1280"
     inkscape:window-height="744"
     inkscape:window-x="0"
     inkscape:window-y="27"
     inkscape:window-maximized="1" />
  <metadata
     id="metadata7">
    <rdf:RDF>
      <cc:Work
         rdf:about="">
        <dc:format>image/svg+xml</dc:format>
        <dc:type
           rdf:resource="http://purl.org/dc/dcmitype/StillImage" />
        <dc:title></dc:title>
      </cc:Work>
    </rdf:RDF>
  </metadata>
  <g
     inkscape:label="Layer 1"
     inkscape:groupmode="layer"
     id="layer1"
     transform="translate(-329.22773,-537.74555)">
    <path
       style="fill:#cbd3ea;fill-opacity:1;fill-rule:nonzero;stroke:none"
       id="path10"
       d="m 341.89105,566.47072 c -1.40667,0.39819 -2.86006,0.0192 -4.21012,-0.41006 -2.36972,-1.00843 -3.95331,-2.93692 -5.3394,-5.02237 -1.53384,-2.32656 -2.44504,-4.91248 -2.96807,-7.62993 -0.46205,-2.86439 0.23452,-5.6056 1.24717,-8.26106 0.71288,-1.65739 1.36121,-3.44169 2.61208,-4.79021 0.38516,-0.41523 0.83832,-0.76176 1.25748,-1.14263 2.51259,-1.72903 5.31101,-1.67356 8.16741,-1.1367 1.58268,0.31656 3.10473,0.85254 4.60013,1.44884 1.15595,0.4811 2.28144,1.03523 3.37102,1.65155 0.84475,0.47141 1.64332,1.01428 2.42133,1.5874 1.13739,0.78155 2.00835,1.78307 2.72896,2.95061 0.7064,1.37009 0.85043,2.82864 0.77713,4.33993 -0.0921,1.21756 -0.54511,2.33886 -1.08931,3.41626 -0.0571,0.10746 -0.1143,0.21493 -0.17145,0.32239 -5.13319,10.07004 -12.78974,6.16712 -7.65655,-3.90291 l 0,0 c 0.0451,-0.0931 0.0901,-0.18615 0.13521,-0.27923 0.2496,-0.50203 0.2256,-0.48881 0.25523,-0.32776 0.0368,0.38148 -0.002,0.1508 0.20309,0.55418 0.66096,0.84095 0.34229,0.27901 -0.084,0.0218 -0.54155,-0.34578 -1.08042,-0.6961 -1.6672,-0.96251 -0.74256,-0.36745 -1.5094,-0.67928 -2.28697,-0.96544 -1.04392,-0.33826 -2.09432,-0.66423 -3.1826,-0.8289 -1.01624,-0.17471 -2.11874,0.0885 -0.75673,-0.88078 0.6281,-0.90242 -1.00008,1.76199 -0.83134,2.08058 -0.35084,1.07569 -0.76462,2.16436 -0.6285,3.31505 0.28166,1.53109 0.84749,3.00025 1.46292,4.42568 0.25769,0.44819 1.05332,1.3098 0.83237,1.82456 -1.85748,0.0822 0.431,0.007 0.80067,0.21366 C 352.9231,558.08273 352.9231,566.47072 341.89105,566.47072 Z"
       inkscape:connector-curvature="0" />
  </g>
</svg>
