<?xml version="1.0" encoding="UTF-8" standalone="no"?>
<!-- Created with Inkscape (http://www.inkscape.org/) -->

<svg
   xmlns:dc="http://purl.org/dc/elements/1.1/"
   xmlns:cc="http://creativecommons.org/ns#"
   xmlns:rdf="http://www.w3.org/1999/02/22-rdf-syntax-ns#"
   xmlns:svg="http://www.w3.org/2000/svg"
   xmlns="http://www.w3.org/2000/svg"
   xmlns:sodipodi="http://sodipodi.sourceforge.net/DTD/sodipodi-0.dtd"
   xmlns:inkscape="http://www.inkscape.org/namespaces/inkscape"
   width="1026.3085"
   height="415.155"
   id="svg2"
   version="1.1"
   inkscape:version="0.48+devel r"
   sodipodi:docname="doodles.svg">
  <defs
     id="defs4" />
  <sodipodi:namedview
     id="base"
     pagecolor="#ffffff"
     bordercolor="#666666"
     borderopacity="1.0"
     inkscape:pageopacity="0.0"
     inkscape:pageshadow="2"
     inkscape:zoom="1.1198824"
     inkscape:cx="706.43539"
     inkscape:cy="224.89298"
     inkscape:document-units="px"
     inkscape:current-layer="layer3"
     showgrid="false"
     width="0px"
     height="0px"
     fit-margin-top="50"
     fit-margin-left="50"
     fit-margin-right="50"
     fit-margin-bottom="50"
     inkscape:window-width="1280"
     inkscape:window-height="744"
     inkscape:window-x="0"
     inkscape:window-y="27"
     inkscape:window-maximized="1" />
  <metadata
     id="metadata7">
    <rdf:RDF>
      <cc:Work
         rdf:about="">
        <dc:format>image/svg+xml</dc:format>
        <dc:type
           rdf:resource="http://purl.org/dc/dcmitype/StillImage" />
        <dc:title></dc:title>
      </cc:Work>
    </rdf:RDF>
  </metadata>
  <g
     inkscape:label="Layer 1"
     inkscape:groupmode="layer"
     id="layer1"
     transform="translate(-131.23833,-340.55949)" />
  <g
     inkscape:groupmode="layer"
     id="layer4"
     inkscape:label="Snd Body"
     style="display:inline"
     transform="translate(-131.23833,-340.55949)">
    <path
       style="fill:#6b4c37;fill-opacity:1;fill-rule:nonzero;stroke:none;display:inline"
       id="path874"
       d="m 934.75736,396.66851 c -0.48879,-0.52484 -1.07274,-0.93487 -1.68222,-1.30569 -1.59847,-0.88513 -3.40211,-1.13378 -5.19379,-1.28818 -3.2517,-0.18196 -6.41556,0.57593 -9.51112,1.47728 -4.21265,1.24893 -8.07332,3.30141 -11.75611,5.65709 -4.50071,2.9634 -8.27075,6.79358 -11.73535,10.88245 -3.59458,4.28777 -6.11098,9.23472 -8.0467,14.44754 -1.73299,4.88168 -2.17683,9.95129 -1.70989,15.07451 0.56065,4.77803 2.74088,8.93089 5.41403,12.83613 2.8141,3.92469 6.42223,7.04754 10.54308,9.51314 4.43222,2.47023 9.21351,2.71981 14.13055,2.11073 5.99144,-1.0891 11.38754,-3.95822 16.55901,-7.04684 5.54077,-3.3901 10.36491,-7.69646 14.66346,-12.53452 2.30864,-3.26292 5.06395,-6.12909 7.46297,-9.31164 0.82574,-1.87235 2.24935,-1.24451 1.4236,0.62784 l 0,0 c -1.00301,4.89337 -1.75938,8.02573 -5.18913,11.92312 -4.58423,5.29971 -9.79366,9.9621 -15.83699,13.56596 -5.80547,3.39729 -11.86301,6.40276 -18.6263,7.26378 -5.8601,0.48664 -11.55079,-0.0344 -16.75993,-3.024 -4.59506,-2.83126 -8.62977,-6.3443 -11.74311,-10.79643 -3.03131,-4.49294 -5.45967,-9.29193 -6.11782,-14.75258 -0.53154,-5.7412 -0.0968,-11.43134 1.85037,-16.90673 2.09873,-5.68219 4.83662,-11.07011 8.76591,-15.73096 3.76401,-4.39486 7.8875,-8.47899 12.82752,-11.55881 4.0525,-2.4539 8.28799,-4.60239 12.87824,-5.86637 3.5622,-0.93765 7.20216,-1.65508 10.90461,-1.25043 2.29463,0.31846 4.57544,0.81773 6.52447,2.14157 0.93794,0.67926 1.85424,1.43044 2.32858,2.52008 C 938.87712,398.4509 936.50918,399.78286 934.75736,396.66851 Z"
       inkscape:connector-curvature="0" />
    <path
       style="fill:#6b4c37;fill-opacity:1;fill-rule:nonzero;stroke:none;display:inline"
       id="path876"
       d="m 899.66875,408.0953 c 0.76454,1.12328 1.43898,2.3084 2.14877,3.46752 1.27667,1.97607 2.55691,3.88612 3.00751,6.22069 0.037,0.44379 0.0741,0.88759 0.11111,1.33138 0.44643,0.69548 -0.0824,1.03492 -0.5288,0.33944 l 0,0 c -0.38697,-0.21674 -0.77394,-0.43348 -1.16091,-0.65022 -1.99513,-1.40636 -3.24514,-3.41635 -4.38623,-5.54864 -0.66569,-1.24304 -1.33991,-2.49627 -1.81543,-3.82667 C 895.29093,405.97769 897.91491,404.6442 899.66875,408.0953 Z"
       inkscape:connector-curvature="0" />
    <path
       style="fill:#6b4c37;fill-opacity:1;fill-rule:nonzero;stroke:none;display:inline"
       id="path878"
       d="m 916.78802,409.80609 c -1.01605,1.00791 -2.08632,1.96062 -3.17781,2.88582 -1.38063,1.38832 -3.04575,2.09683 -4.85712,2.72922 -0.69992,0.70415 -1.23531,0.17198 -0.53539,-0.53217 l 0,0 c 0.66044,-1.8759 1.42545,-3.53486 2.9807,-4.85448 1.15623,-1.11957 2.36147,-2.22109 3.77869,-3.00514 C 918.62913,404.64757 920.44006,407.42432 916.78802,409.80609 Z"
       inkscape:connector-curvature="0" />
    <path
       style="fill:#6b4c37;fill-opacity:1;fill-rule:nonzero;stroke:none;display:inline"
       id="path880"
       d="m 939.63793,489.50193 c 0.53706,-0.15378 1.10099,-0.23478 1.66254,-0.3027 0.69229,-0.0843 1.38997,-0.0767 2.08673,-0.0518 1.0072,0.0395 2.00114,0.18185 2.98565,0.35212 1.38479,0.24844 2.72769,0.6203 4.06253,1.00478 1.52101,0.44455 3.00743,0.96112 4.48086,1.50031 1.67377,0.61641 3.29294,1.32294 4.8945,2.05399 1.63536,0.76947 3.25489,1.56071 4.8488,2.38593 1.78358,0.90986 3.46333,1.94105 5.09197,3.02431 1.69089,1.14914 3.26473,2.40565 4.83327,3.6629 1.52076,1.21634 2.98029,2.48162 4.40645,3.77139 1.29519,1.19344 2.58551,2.39046 3.87035,3.59129 1.08392,1.01884 2.1719,2.03482 3.25867,3.05164 0.86248,0.85177 1.9994,1.56991 2.3457,2.66797 -0.0861,0.2642 -0.17222,0.52841 -0.25837,0.79262 0.25165,0.24333 0.025,0.39929 -0.22694,0.15596 l 0,0 c -0.32181,0.0363 -0.64361,0.0727 -0.96541,0.10904 -1.30478,-0.40415 -2.05732,-1.41005 -2.99673,-2.21067 -1.10456,-1.00281 -2.2035,-2.00964 -3.30706,-3.01316 -1.30137,-1.17722 -2.59443,-2.36045 -3.89383,-3.5391 -1.39526,-1.24764 -2.80213,-2.48751 -4.28559,-3.66645 -1.51803,-1.20362 -3.03635,-2.40922 -4.64505,-3.5331 -1.52381,-1.03859 -3.09428,-2.03143 -4.76319,-2.9122 -1.5413,-0.81311 -3.10322,-1.59988 -4.69592,-2.34468 -1.53085,-0.7123 -3.07874,-1.40104 -4.66621,-2.02658 -1.38998,-0.54742 -2.793,-1.07436 -4.2303,-1.53481 -1.23302,-0.39166 -2.4834,-0.7452 -3.75456,-1.04625 -0.84671,-0.20083 -1.69179,-0.41944 -2.56138,-0.54487 -0.5359,-0.0555 -1.07742,-0.0654 -1.61413,-0.006 -0.48573,0.0554 -0.96482,0.13934 -1.44931,0.20012 C 937.58285,491.64508 937.0688,490.05297 939.63793,489.50193 Z"
       inkscape:connector-curvature="0" />
    <path
       style="fill:#6b4c37;fill-opacity:1;fill-rule:nonzero;stroke:none;display:inline"
       id="path882"
       d="m 895.96596,443.04296 c 0.80282,-0.28628 1.64909,-0.42746 2.48711,-0.56796 1.1849,-0.21543 2.38595,-0.27541 3.58766,-0.25318 1.24844,0.0345 2.49048,0.17346 3.73156,0.30406 1.30606,0.1423 2.60855,0.31324 3.91069,0.48716 1.66194,0.22913 2.30294,0.20676 2.9564,1.8803 0.41958,0.0879 0.35279,0.40687 -0.0668,0.31902 l 0,0 c -1.10751,1.29514 -1.70511,1.12743 -3.30266,0.90946 -1.28165,-0.16939 -2.56187,-0.34956 -3.8442,-0.51372 -1.14295,-0.13702 -2.28855,-0.26179 -3.43972,-0.30225 -1.02708,-0.0173 -2.05417,-6.6e-4 -3.07073,0.16725 -0.74952,0.10451 -1.49549,0.22768 -2.24285,0.34529 C 893.02213,446.74756 892.31566,443.97213 895.96596,443.04296 Z"
       inkscape:connector-curvature="0" />
    <path
       style="fill:#6b4c37;fill-opacity:1;fill-rule:nonzero;stroke:none;display:inline"
       id="path886"
       d="m 918.82392,475.72785 c 0.10235,0.54378 0.15312,1.09348 0.22657,1.64022 0.10386,0.79673 0.28221,1.58617 0.4226,2.37942 0.19703,1.00343 0.26269,2.01736 0.34775,3.02859 0.0833,1.07302 0.19077,2.14499 0.32059,3.21536 0.13998,1.18072 0.29794,2.36018 0.4401,3.54074 0.14232,1.26799 0.28396,2.53609 0.38494,3.80638 0.12282,1.43352 0.16578,2.86961 0.17643,4.30577 0.003,1.5464 -0.0344,3.09263 -0.0718,4.6387 -0.0462,1.5408 -0.0505,3.08175 -0.0478,4.62283 -0.005,1.71048 -0.002,3.42093 0.0288,5.13127 0.0306,1.69622 0.17101,3.38948 0.30482,5.08236 0.1308,1.61214 0.26708,3.22402 0.39202,4.83643 0.12688,1.55309 0.24628,3.10643 0.40147,4.6581 0.16377,1.58876 0.32473,3.17771 0.51058,4.7651 0.19402,1.61461 0.421,3.22677 0.65377,4.8384 0.22443,1.5914 0.46864,3.18098 0.74956,4.76728 0.23574,1.35203 0.55488,2.69435 0.84819,4.03965 0.30424,1.02735 0.39896,2.04146 0.32268,3.08594 -0.1677,0.60513 -0.79305,0.95154 -1.36429,1.34817 0.0502,0.27035 -0.22255,0.2991 -0.2727,0.0287 l 0,0 c -0.69137,-0.26202 -1.41867,-0.46512 -1.80307,-1.0081 -0.4508,-0.95962 -0.75186,-1.92938 -0.92444,-2.94351 -0.31237,-1.37485 -0.59452,-2.75329 -0.84726,-4.13513 -0.29832,-1.61284 -0.55236,-3.2297 -0.78341,-4.84879 -0.23592,-1.63459 -0.45219,-3.27079 -0.62926,-4.90968 -0.17893,-1.60429 -0.34875,-3.20921 -0.48794,-4.81578 -0.13391,-1.56347 -0.25008,-3.12758 -0.36202,-4.69202 -0.12867,-1.60903 -0.27374,-3.21726 -0.41546,-4.82566 -0.1514,-1.74254 -0.29277,-3.48629 -0.33485,-5.23265 -0.0275,-1.7325 -0.009,-3.46475 0.0365,-5.19704 0.0396,-1.55052 0.0866,-3.10093 0.12737,-4.65143 0.0397,-1.52969 0.0949,-3.05921 0.11124,-4.5892 0.0183,-1.38405 0.0184,-2.76849 -0.0547,-4.1518 -0.0742,-1.24379 -0.14662,-2.48782 -0.28131,-3.72898 -0.11642,-1.18934 -0.24251,-2.37817 -0.33956,-3.56853 -0.083,-1.09058 -0.17091,-2.18087 -0.23428,-3.27224 -0.0581,-0.97804 -0.14471,-1.95499 -0.1983,-2.93319 -0.0601,-0.81527 -0.12623,-1.63025 -0.19001,-2.44535 -0.0371,-0.58875 -0.0901,-1.1824 -0.0226,-1.77048 C 915.89525,472.9334 918.75428,472.89349 918.82392,475.72785 Z"
       inkscape:connector-curvature="0" />
    <path
       style="fill:#6b4c37;fill-opacity:1;fill-rule:nonzero;stroke:none;display:inline"
       id="path888"
       d="m 906.07744,491.85467 c -0.9273,0.0795 -1.85946,0.007 -2.78463,-0.0672 -1.69529,-0.14719 -3.33686,-0.59054 -4.95159,-1.10605 -2.2709,-0.76199 -4.43969,-1.78745 -6.57393,-2.86643 -2.48374,-1.25856 -4.88674,-2.66328 -7.26484,-4.10893 -2.58195,-1.56591 -5.06099,-3.29048 -7.49844,-5.0705 -2.40868,-1.77221 -4.70286,-3.69158 -6.94744,-5.66541 -2.15656,-1.88936 -4.1699,-3.92908 -6.09239,-6.05368 -1.83085,-2.03701 -3.42287,-4.26457 -4.89654,-6.56821 -1.3911,-2.13748 -2.44048,-4.44859 -3.25915,-6.8566 -0.66068,-2.0894 -1.12294,-4.23241 -1.44079,-6.39859 -0.30438,-2.01532 -0.18804,-4.03131 0.20085,-6.02184 0.41278,-1.87145 1.26348,-3.58336 2.2143,-5.23105 0.86528,-1.4936 1.99138,-2.79037 3.2302,-3.9812 1.25084,-1.1691 2.71955,-2.03866 4.24445,-2.79499 1.48172,-0.71254 3.0554,-1.18466 4.64252,-1.59369 1.68904,-0.41436 3.40383,-0.70703 5.12162,-0.97142 1.71906,-0.27354 3.45268,-0.42272 5.19151,-0.47724 1.64795,-0.0264 3.29415,0.0731 4.93729,0.18649 1.53939,0.11471 3.07808,0.23841 4.61801,0.346 1.38561,0.0883 2.77338,0.13038 4.16118,0.16467 1.35284,-0.0122 2.63584,0.0275 3.74617,0.85409 0.19125,0.27648 0.3825,0.55296 0.57376,0.82944 0.415,6.2e-4 0.41453,0.31615 -4.7e-4,0.31554 l 0,0 c -0.1922,0.27592 -0.3844,0.55183 -0.57661,0.82775 -1.12901,0.83311 -2.43517,0.85979 -3.80542,0.82037 -1.44577,-0.0141 -2.89201,-0.0397 -4.33542,-0.12885 -1.54592,-0.0911 -3.08929,-0.21563 -4.63356,-0.33041 -1.51864,-0.10238 -3.04013,-0.20306 -4.56319,-0.16787 -1.58808,0.0545 -3.16834,0.20502 -4.73663,0.46681 -1.60316,0.25213 -3.20792,0.50474 -4.79184,0.86169 -1.3362,0.32804 -2.66448,0.70504 -3.90669,1.30915 -1.18934,0.58931 -2.34375,1.25357 -3.32904,2.15482 -0.98773,0.94004 -1.86338,1.97927 -2.53632,3.17199 -0.73634,1.29605 -1.40838,2.64144 -1.74968,4.10219 -0.31176,1.55382 -0.3815,3.12344 -0.11397,4.69373 0.32309,1.93562 0.76747,3.84688 1.36775,5.7168 0.72207,2.09652 1.68601,4.08566 2.90869,5.94028 1.3826,2.1001 2.85136,4.14559 4.55093,6.00459 1.82428,2.00054 3.73266,3.92238 5.77646,5.70075 2.16409,1.881 4.3656,3.72137 6.67913,5.41762 2.3515,1.71532 4.7285,3.39776 7.20308,4.93284 2.27722,1.42475 4.5849,2.80187 6.94028,4.09406 1.94032,1.04488 3.8897,2.08301 5.94476,2.88869 1.35002,0.50493 2.72375,0.95489 4.14821,1.19875 0.84829,0.1354 1.70235,0.22511 2.55074,0.35813 C 910.32175,488.96655 910.15844,492.06946 906.07744,491.85467 Z"
       inkscape:connector-curvature="0" />
    <path
       style="fill:#6b4c37;fill-opacity:1;fill-rule:nonzero;stroke:none;display:inline"
       id="path892"
       d="m 920.4546,554.58368 c -0.53324,1.2854 -1.10217,2.55625 -1.64768,3.83675 -1.16195,2.74813 -2.34058,5.4891 -3.52399,8.22804 -1.59875,3.69301 -3.16597,7.39938 -4.68221,11.12702 -1.63263,4.03133 -3.20549,8.08661 -4.76894,12.14517 -1.51982,3.97469 -3.04461,7.94748 -4.59947,11.90861 -1.36191,3.4361 -2.73687,6.86712 -4.15876,10.27888 -1.21196,2.91862 -2.55134,5.72064 -4.81505,7.95598 -0.34972,0.8944 -1.02976,0.6285 -0.68004,-0.2659 l 0,0 c -0.14405,-3.17087 0.77156,-6.14008 1.82842,-9.11021 1.24565,-3.47536 2.535,-6.93473 3.83228,-10.39111 1.49478,-3.98607 3.00226,-7.96739 4.53202,-11.94019 1.57509,-4.09031 3.15824,-8.17807 4.82916,-12.23042 1.56883,-3.75596 3.19708,-7.48666 4.94085,-11.16522 1.27902,-2.72096 2.55584,-5.4436 3.89277,-8.13671 0.71642,-1.37733 1.4066,-2.80105 2.40423,-4.00174 C 920.15435,549.38147 922.77077,551.14252 920.4546,554.58368 Z"
       inkscape:connector-curvature="0" />
    <path
       style="fill:#6b4c37;fill-opacity:1;fill-rule:nonzero;stroke:none;display:inline"
       id="path894"
       d="m 930.55876,565.70747 c 0.72148,1.20688 1.52272,2.35883 2.35001,3.49475 1.90537,2.54082 4.02765,4.90649 6.15124,7.26415 2.92072,3.26658 6.09632,6.28379 9.33324,9.23166 3.74644,3.32635 7.59258,6.53785 11.43196,9.75572 3.39837,2.82088 6.78737,5.65023 9.86921,8.81842 1.17791,2.34813 0.51891,1.26088 1.94717,3.27965 0.91975,0.78153 0.32553,1.48085 -0.59422,0.69932 l 0,0 c -2.21063,-1.0728 -1.03486,-0.611 -3.54125,-1.34944 -3.67466,-2.45432 -7.07768,-5.26569 -10.47694,-8.08415 -3.92432,-3.23518 -7.84083,-6.48487 -11.57242,-9.94322 -3.30159,-3.09704 -6.51468,-6.29241 -9.43951,-9.75304 -2.16068,-2.55419 -4.30361,-5.14358 -6.05846,-8.00066 -0.8258,-1.41146 -1.6863,-2.86809 -1.99017,-4.49665 C 926.76321,563.21738 929.35335,562.30087 930.55876,565.70747 Z"
       inkscape:connector-curvature="0" />
    <path
       style="fill:#6b4c37;fill-opacity:1;fill-rule:nonzero;stroke:none"
       id="path914"
       d="m 913.81729,417.77497 c -0.11523,0.0356 -0.22851,0.0746 -0.33749,0.12658 -0.11637,0.0587 -0.21275,0.14596 -0.3041,0.23733 -0.0965,0.0957 -0.16733,0.20841 -0.22409,0.3308 -0.0488,0.10819 -0.0572,0.2265 -0.0591,0.3435 0.003,0.12603 0.0396,0.24629 0.0831,0.36344 0.0532,0.13762 0.139,0.25646 0.23528,0.36669 0.11166,0.12956 0.25155,0.22594 0.39589,0.31504 0.16569,0.10153 0.34651,0.17285 0.53213,0.22809 0.15964,0.045 0.32432,0.0475 0.48831,0.0345 0.17095,-0.0152 0.33096,-0.0659 0.48239,-0.14465 0.12845,-0.073 0.2423,-0.16565 0.34941,-0.26658 0.10018,-0.0883 0.17821,-0.18175 0.20833,-0.31271 -0.007,-0.26368 0.20045,-0.38737 0.30581,-0.59831 -0.0222,-0.0858 0.043,-0.10275 0.0653,-0.0169 l 0,0 c 0.36847,0.29197 0.50514,0.31318 0.40904,0.8431 -0.0806,0.25581 -0.20058,0.49132 -0.38573,0.6886 -0.17952,0.18529 -0.38254,0.34663 -0.623,0.44604 -0.24354,0.0896 -0.49694,0.14526 -0.75584,0.16718 -0.2613,0.0163 -0.52339,0.008 -0.77718,-0.0634 -0.2471,-0.0746 -0.48765,-0.16873 -0.71559,-0.29071 -0.22586,-0.12646 -0.4419,-0.27107 -0.62166,-0.4594 -0.16896,-0.18882 -0.31193,-0.39679 -0.40392,-0.63463 -0.0815,-0.21853 -0.14255,-0.44432 -0.14125,-0.67962 0.004,-0.2409 0.0366,-0.47945 0.13741,-0.70098 0.10128,-0.21392 0.22708,-0.41295 0.39567,-0.58105 0.16461,-0.16349 0.34452,-0.31041 0.55576,-0.41032 0.17999,-0.0818 0.36643,-0.15416 0.56476,-0.17431 C 914.78519,416.74753 914.92564,417.59024 913.81729,417.77497 Z"
       inkscape:connector-curvature="0" />
    <path
       style="fill:#6b4c37;fill-opacity:1;fill-rule:nonzero;stroke:none"
       id="path918"
       d="m 901.18133,419.89052 c 0.0408,0.17501 0.0495,0.35483 0.0569,0.5337 0.0182,0.20917 0.0101,0.4158 -0.0394,0.61977 -0.0626,0.23142 -0.19438,0.42779 -0.34437,0.61075 -0.14844,0.16688 -0.32616,0.30226 -0.51308,0.4227 -0.25116,0.16182 -0.53425,0.19191 -0.82509,0.16992 -0.28286,-0.0262 -0.54263,-0.12887 -0.7892,-0.26433 -0.26334,-0.15618 -0.4787,-0.3743 -0.6801,-0.60173 -0.21454,-0.24248 -0.35452,-0.52615 -0.44476,-0.83447 -0.0864,-0.33886 -0.0239,-0.66814 0.0974,-0.98801 0.13014,-0.30429 0.34899,-0.55086 0.5797,-0.78237 0.21757,-0.21931 0.47289,-0.38509 0.75549,-0.50632 0.23745,-0.0978 0.48989,-0.13316 0.74442,-0.14429 0.17653,-0.003 0.34137,0.009 0.4972,0.0955 0.0869,0.094 0.12522,0.21118 0.20508,0.31036 0.0462,-0.002 0.048,0.0328 0.002,0.0351 l 0,0 c -0.0695,0.10665 -0.0959,0.22696 -0.17257,0.32936 -0.13933,0.0977 -0.29333,0.12822 -0.46065,0.14887 -0.14304,0.0171 -0.28837,0.0275 -0.41982,0.0924 -0.16805,0.0865 -0.31105,0.20654 -0.44106,0.34354 -0.13447,0.13621 -0.27131,0.2758 -0.36132,0.44662 -0.0483,0.1095 -0.086,0.22266 -0.0609,0.34346 0.0441,0.16336 0.12608,0.30708 0.23873,0.43395 0.12995,0.14456 0.2627,0.29001 0.42159,0.40348 0.11936,0.0742 0.24732,0.12705 0.38798,0.14471 0.0843,0.0142 0.15917,0.0277 0.24026,-0.0109 0.1149,-0.0537 0.22137,-0.12406 0.31574,-0.209 0.0687,-0.0614 0.13644,-0.12681 0.16944,-0.21493 0.0383,-0.12047 0.0553,-0.24357 0.0516,-0.37044 -0.002,-0.15622 -0.0109,-0.31227 -0.0116,-0.46845 C 900.26375,418.92652 901.06434,418.83757 901.18133,419.89052 Z"
       inkscape:connector-curvature="0" />
    <path
       style="fill:#6b4c37;fill-opacity:1;fill-rule:nonzero;stroke:none"
       id="path920"
       d="m 918.43747,414.27007 c -0.10294,-0.0227 -0.19596,-0.0731 -0.29441,-0.10865 -0.11688,-0.0357 -0.22768,-0.0838 -0.33149,-0.14809 -0.20372,-0.13362 -0.21964,-0.14416 -0.12116,-0.40108 0.13756,-0.0842 0.28039,-0.0518 0.42165,0.003 0.15995,0.0711 0.30327,0.17266 0.44259,0.27732 0.19011,0.14093 0.35517,0.31059 0.50976,0.48878 0.16763,0.2002 0.31081,0.41869 0.446,0.64157 0.14175,0.23646 0.25939,0.48574 0.36704,0.73917 0.10985,0.26947 0.19303,0.5486 0.27025,0.82883 0.0753,0.27807 0.13967,0.55876 0.19266,0.84187 0.0518,0.29033 0.0618,0.58546 0.0645,0.87964 0.003,0.26822 -0.0117,0.53605 -0.0363,0.803 -0.0262,0.27147 -0.0893,0.53687 -0.16013,0.79957 -0.0761,0.28074 -0.16789,0.5566 -0.27107,0.82844 -0.114,0.29858 -0.25788,0.58409 -0.40337,0.86818 -0.16284,0.31971 -0.35265,0.62415 -0.55802,0.91796 -0.21791,0.31148 -0.47799,0.58904 -0.74923,0.85405 -0.25825,0.25438 -0.54413,0.47664 -0.84489,0.67796 -0.2974,0.19852 -0.62767,0.32898 -0.96955,0.42669 -0.36917,0.0983 -0.7506,0.11921 -1.13067,0.12081 -0.40764,-10e-4 -0.8111,-0.0599 -1.21094,-0.1339 -0.39472,-0.0746 -0.7809,-0.18469 -1.16067,-0.31439 -0.37531,-0.12791 -0.72871,-0.30651 -1.06964,-0.50707 -0.33623,-0.20298 -0.64504,-0.44602 -0.94742,-0.69548 -0.288,-0.23982 -0.55594,-0.50186 -0.81153,-0.77557 -0.23921,-0.25694 -0.44756,-0.53946 -0.6428,-0.83052 -0.17561,-0.267 -0.32789,-0.54807 -0.47204,-0.83296 -0.13591,-0.26445 -0.23171,-0.54442 -0.29793,-0.83354 -0.0575,-0.27765 -0.0568,-0.56135 -0.0478,-0.84326 0.004,-0.26946 0.0499,-0.53374 0.11905,-0.79338 0.0823,-0.29419 0.22092,-0.56625 0.37039,-0.83097 0.17726,-0.30586 0.39535,-0.58448 0.62061,-0.85587 0.23549,-0.27804 0.48222,-0.54625 0.73652,-0.80711 0.25894,-0.26839 0.54404,-0.50866 0.83741,-0.73809 0.28744,-0.2227 0.59191,-0.42159 0.90128,-0.61208 0.28873,-0.17638 0.59109,-0.32822 0.89899,-0.46777 0.29257,-0.13531 0.6002,-0.22992 0.91343,-0.30291 0.29682,-0.0683 0.60053,-0.0905 0.90408,-0.0992 0.28958,-0.006 0.57871,0.0138 0.8668,0.0411 0.26338,0.0257 0.52382,0.0734 0.78322,0.12462 0.28797,0.0752 0.38105,0.0563 0.48341,0.35734 0.0667,0.0221 0.0499,0.0729 -0.0168,0.0507 l 0,0 c -0.20589,0.18377 -0.30386,0.15215 -0.56463,0.11165 -0.24368,-0.0437 -0.48791,-0.086 -0.73455,-0.10948 -0.26662,-0.0239 -0.53417,-0.0411 -0.80202,-0.0366 -0.26678,0.008 -0.53371,0.0268 -0.79437,0.088 -0.27773,0.067 -0.55055,0.15259 -0.8098,0.27421 -0.28568,0.13237 -0.56715,0.27437 -0.83409,0.44198 -0.29104,0.18183 -0.57579,0.37381 -0.84796,0.58307 -0.27362,0.2131 -0.53976,0.43614 -0.7815,0.68546 -0.24412,0.25153 -0.47777,0.51278 -0.70685,0.77806 -0.20719,0.24419 -0.41064,0.49301 -0.57602,0.7682 -0.131,0.22182 -0.25416,0.44967 -0.32907,0.69749 -0.0614,0.21766 -0.0993,0.43966 -0.0994,0.66663 -0.005,0.23652 -0.008,0.47487 0.038,0.7081 0.0552,0.24491 0.14185,0.47963 0.25971,0.70178 0.13777,0.26358 0.2824,0.52383 0.44749,0.77149 0.17917,0.26513 0.36952,0.52295 0.59036,0.75538 0.24102,0.25431 0.49376,0.49734 0.76406,0.72063 0.27931,0.23016 0.56403,0.4552 0.87343,0.64419 0.30688,0.18136 0.62523,0.34209 0.9635,0.4573 0.35377,0.12025 0.71361,0.22166 1.08092,0.29191 0.36528,0.0688 0.73371,0.12455 1.10619,0.13064 0.32901,0.003 0.65976,-0.008 0.98122,-0.0853 0.28797,-0.077 0.56503,-0.18367 0.81471,-0.34988 0.27401,-0.17914 0.53442,-0.37805 0.76923,-0.60697 0.24793,-0.24324 0.48755,-0.49558 0.6955,-0.77455 0.19699,-0.27207 0.38026,-0.55343 0.54188,-0.84815 0.14475,-0.26387 0.27913,-0.53338 0.39618,-0.8108 0.10439,-0.25281 0.20117,-0.50892 0.27659,-0.77207 0.0666,-0.23693 0.1272,-0.4763 0.1565,-0.72116 0.0273,-0.2501 0.041,-0.5014 0.0393,-0.75307 -0.003,-0.26898 -0.009,-0.53869 -0.0531,-0.80476 -0.0468,-0.27104 -0.10896,-0.53898 -0.18065,-0.80455 -0.0708,-0.26272 -0.14736,-0.52419 -0.24676,-0.77777 -0.0952,-0.23578 -0.20151,-0.46699 -0.33044,-0.68655 -0.12123,-0.20499 -0.25045,-0.40547 -0.40001,-0.59122 -0.13109,-0.16124 -0.26889,-0.31707 -0.43054,-0.4488 -0.11053,-0.09 -0.22275,-0.17952 -0.3472,-0.24982 -0.041,-0.0214 -0.12943,-0.0376 -0.0609,-0.0788 0.0116,-0.0532 0.0328,-0.10526 0.0348,-0.15971 0.003,-0.0761 -0.0647,-0.0534 0.0477,-0.004 0.1007,0.0533 0.19592,0.11428 0.2876,0.18206 0.0851,0.0543 0.17993,0.0902 0.26435,0.14604 C 918.84358,414.17128 918.74241,414.40314 918.43747,414.27007 Z"
       inkscape:connector-curvature="0" />
    <path
       style="fill:#6b4c37;fill-opacity:1;fill-rule:nonzero;stroke:none"
       id="path922"
       d="m 920.36992,422.31579 c -0.0777,-0.0627 -0.13264,-0.1467 -0.19055,-0.22676 -0.0614,-0.0881 -0.12309,-0.17541 -0.17149,-0.27147 -0.0669,-0.12629 -0.0789,-0.25536 -0.0498,-0.3934 0.0467,-0.14795 0.15599,-0.25261 0.27402,-0.34629 0.10862,-0.084 0.22864,-0.14715 0.35785,-0.1922 0.15044,-0.0475 0.29968,-0.0279 0.44688,0.0186 0.16086,0.0589 0.28865,0.16885 0.4032,0.29275 0.11295,0.13062 0.19652,0.28211 0.27129,0.43679 0.0773,0.15939 0.12115,0.3301 0.14798,0.50433 0.0232,0.17754 0.0209,0.3558 -0.007,0.5324 -0.0286,0.16672 -0.10691,0.31162 -0.20934,0.44361 -0.11339,0.13998 -0.2595,0.21051 -0.43558,0.23159 -0.15224,0.007 -0.27766,-0.0505 -0.40285,-0.12727 -0.10429,-0.0511 -0.19083,-0.11917 -0.23904,-0.22598 -0.006,-0.10237 -0.019,-0.0501 0.0732,-0.14423 -0.007,-0.0241 0.0111,-0.0295 0.0183,-0.005 l 0,0 c 0.10468,-0.0172 0.0643,-0.007 0.12255,-0.0228 0.0564,-0.005 0.11007,0.0154 0.16489,0.03 0.0773,0.0123 0.15463,0.0199 0.22894,0.0465 0.049,0.009 0.0795,-0.0283 0.11121,-0.0626 0.057,-0.0719 0.0995,-0.1516 0.11914,-0.24209 0.0264,-0.12951 0.0377,-0.26098 0.0218,-0.39288 -0.016,-0.13129 -0.0464,-0.25882 -0.10383,-0.37883 -0.0562,-0.11862 -0.11656,-0.23608 -0.19878,-0.33916 -0.0634,-0.074 -0.13147,-0.14569 -0.22119,-0.18771 -0.0609,-0.0251 -0.12012,-0.041 -0.18574,-0.0228 -0.0865,0.025 -0.16166,0.0731 -0.23194,0.12878 -0.0492,0.038 -0.0994,0.0765 -0.13782,0.12586 -0.0138,0.0372 10e-4,0.0697 0.0222,0.10659 0.0439,0.0831 0.0833,0.16856 0.13302,0.24841 0.0457,0.0797 0.0963,0.15724 0.1268,0.24441 C 920.88015,422.46483 920.62143,422.65606 920.36992,422.31579 Z"
       inkscape:connector-curvature="0" />
    <path
       style="fill:#6b4c37;fill-opacity:1;fill-rule:nonzero;stroke:none"
       id="path924"
       d="m 924.72866,423.10886 c 0.0589,-0.10345 0.14617,-0.17991 0.24608,-0.24184 0.10165,-0.0567 0.21333,-0.0778 0.3284,-0.0781 0.14223,0.005 0.25814,0.0709 0.3657,0.15817 0.11414,0.10352 0.19669,0.23127 0.25983,0.37053 0.0614,0.15264 0.0806,0.31678 0.10486,0.47824 0.0206,0.18141 -0.0295,0.34281 -0.12692,0.49365 -0.11106,0.14202 -0.26857,0.21949 -0.43369,0.28038 -0.15999,0.0573 -0.32719,0.0645 -0.49501,0.0577 -0.17679,-0.01 -0.3329,-0.0752 -0.47387,-0.17891 -0.13593,-0.12303 -0.21164,-0.28275 -0.17562,-0.46481 0.034,-0.0283 0.068,-0.0565 0.10197,-0.0848 -0.007,-0.0382 0.022,-0.0435 0.029,-0.005 l 0,0 c 0.0404,0.006 0.0807,0.0127 0.12112,0.0191 0.0715,0.0526 0.12364,0.12158 0.1874,0.18264 0.0674,0.0526 0.1461,0.0734 0.23116,0.0778 0.10703,0.006 0.21479,-7.7e-4 0.31746,-0.034 0.0768,-0.0272 0.1561,-0.056 0.21813,-0.11079 0.0534,-0.0568 0.0618,-0.13004 0.0626,-0.20589 0.007,-0.11737 -0.0107,-0.23361 -0.0465,-0.34566 -0.0321,-0.0869 -0.0738,-0.16856 -0.13927,-0.23552 -0.0354,-0.0365 -0.0748,-0.0708 -0.12386,-0.0873 -0.0468,-0.008 -0.0917,-0.003 -0.13492,0.0181 -0.0493,0.0243 -0.0895,0.0615 -0.11907,0.10806 C 924.808,423.68147 924.50305,423.50994 924.72866,423.10886 Z"
       inkscape:connector-curvature="0" />
    <path
       style="fill:#6b4c37;fill-opacity:1;fill-rule:nonzero;stroke:none"
       id="path926"
       d="m 929.31163,425.66843 c 0.10465,0.021 0.20502,0.0603 0.30073,0.10686 0.13273,0.0643 0.24858,0.15339 0.35843,0.25055 0.1309,0.1177 0.22745,0.265 0.31635,0.41532 0.0793,0.13901 0.14627,0.28447 0.21784,0.42747 0.0786,0.15629 0.0833,0.31567 0.0347,0.48073 -0.0794,0.1858 -0.2387,0.2712 -0.42829,0.3075 -0.21018,0.0265 -0.33164,-0.0559 -0.37541,-0.25995 -0.0353,-0.014 -0.0246,-0.0409 0.0107,-0.0268 l 0,0 c 0.0876,-0.0831 0.16351,-0.15932 0.29215,-0.14869 0.03,-0.003 0.0618,-0.004 0.0878,-0.02 0.0362,-0.0522 0.002,-0.11629 -0.012,-0.17318 -0.0425,-0.13515 -0.0971,-0.26592 -0.16678,-0.38953 -0.0679,-0.11897 -0.14266,-0.23411 -0.23751,-0.33372 -0.0801,-0.0802 -0.16722,-0.15264 -0.26616,-0.2088 -0.0779,-0.0446 -0.15506,-0.0902 -0.23497,-0.13107 C 928.81906,425.83027 928.92152,425.53366 929.31163,425.66843 Z"
       inkscape:connector-curvature="0" />
    <path
       style="fill:#6b4c37;fill-opacity:1;fill-rule:nonzero;stroke:none"
       id="path928"
       d="m 936.79328,430.16233 c -0.0672,0.0381 -0.12943,0.0825 -0.18917,0.13134 -0.0607,0.0533 -0.12072,0.11877 -0.1376,0.19989 -0.006,0.0809 0.0194,0.15631 0.0576,0.22626 0.028,0.0435 0.0653,0.0781 0.11581,0.0645 -0.0103,-0.0318 0.0152,-0.0561 0.0314,-0.0842 0.0669,-0.12548 0.12635,-0.1098 0.27319,-0.11252 0.0132,-0.0436 0.0464,-0.0335 0.0332,0.0101 l 0,0 c 0.16767,0.14585 0.18037,0.16363 0.0823,0.35637 -0.11875,0.1736 -0.27282,0.29947 -0.49593,0.27601 -0.18617,-0.048 -0.32686,-0.14819 -0.41907,-0.3208 -0.0792,-0.16561 -0.12408,-0.33995 -0.0857,-0.52388 0.0489,-0.17145 0.12879,-0.31559 0.26891,-0.43074 0.10354,-0.0841 0.21476,-0.1612 0.34617,-0.19387 C 937.20247,429.60424 937.32146,430.00583 936.79328,430.16233 Z"
       inkscape:connector-curvature="0" />
    <path
       style="fill:#c7a544;fill-opacity:1;fill-rule:nonzero;stroke:none"
       id="path930"
       d="m 1003.8984,512.96316 c -0.5062,0.1339 -1.0146,0.25714 -1.5169,0.40539 -0.8411,0.24918 -1.6421,0.60739 -2.43047,0.98776 -1.03977,0.49955 -1.99096,1.15073 -2.90684,1.84652 -1.06122,0.82013 -2.02009,1.75766 -2.93824,2.73218 -0.92522,0.98105 -1.74223,2.05416 -2.51211,3.15907 -0.57177,0.84211 -1.08676,1.72733 -1.25321,2.7415 -0.0538,0.80537 0.30458,1.53349 0.66545,2.2292 0.42746,0.79092 0.98654,1.4816 1.65061,2.08291 0.72071,0.40103 0.90754,1.13845 1.38906,1.72623 0.29565,0.10046 0.21926,0.32525 -0.0764,0.22479 l 0,0 c -1.19624,0.23148 -1.54059,0.50736 -2.67368,-0.25876 -0.97823,-0.72519 -1.78704,-1.61521 -2.36424,-2.69587 -0.60499,-1.16038 -1.05846,-2.37265 -0.9049,-3.70761 0.2397,-1.35273 0.79144,-2.57942 1.57153,-3.71219 0.82938,-1.22506 1.72746,-2.40453 2.75873,-3.46871 1.02919,-1.0535 2.09692,-2.07394 3.27247,-2.96487 1.06155,-0.76731 2.16039,-1.48767 3.35917,-2.02555 0.9159,-0.40383 1.84717,-0.77713 2.82007,-1.02204 0.5991,-0.1487 1.2063,-0.29551 1.8262,-0.31368 C 1006.3095,510.5827 1006.5732,512.61643 1003.8984,512.96316 Z"
       inkscape:connector-curvature="0" />
    <path
       style="fill:#c7a544;fill-opacity:1;fill-rule:nonzero;stroke:none"
       id="path932"
       d="m 1004.1691,521.46626 c 0.6418,0.22371 1.2109,0.60968 1.7782,0.97545 0.9564,0.64599 1.8803,1.33824 2.8173,2.01164 1.3691,1.00735 2.8044,1.91839 4.2411,2.82498 1.6058,0.99232 3.1778,2.03728 4.7424,3.09285 1.3938,0.94964 2.7792,1.91151 4.1732,2.86075 1.369,0.92609 2.7366,1.85415 4.0888,2.80459 1.3203,0.93528 2.6309,1.88375 3.9603,2.80608 1.3674,0.93134 2.7383,1.85755 4.102,2.79431 1.2524,0.85782 2.4772,1.75437 3.6874,2.67039 1.1576,0.88563 2.2956,1.7965 3.4389,2.70046 1.1888,0.9288 2.3604,1.87892 3.5124,2.8529 1.1934,1.02461 2.3794,2.05793 3.5645,3.09209 1.2104,1.05382 2.4243,2.10348 3.635,3.15685 1.2484,1.08378 2.5016,2.16202 3.7573,3.2374 1.2483,1.0661 2.5109,2.1152 3.7897,3.14444 1.2133,0.96655 2.4533,1.89895 3.6986,2.8236 1.1836,0.88875 2.4201,1.7023 3.6742,2.48688 1.2057,0.74849 2.4391,1.45115 3.6737,2.15053 1.1439,0.64721 2.299,1.27426 3.4646,1.88149 1.1241,0.5817 2.2752,1.10783 3.4341,1.61574 1.2199,0.53304 2.4485,1.04568 3.6857,1.53725 1.2318,0.50098 2.4947,0.91337 3.7742,1.27231 1.435,0.38213 2.8878,0.693 4.3401,1.00094 1.5267,0.32138 3.0563,0.62916 4.589,0.92087 1.482,0.27662 2.9674,0.53435 4.4561,0.77153 1.3858,0.22149 2.7779,0.40069 4.1719,0.56117 1.1816,0.11313 2.3565,0.25059 3.5174,0.50091 0.7201,0.17011 0.9786,0.53456 1.3695,1.13089 0.3306,0.0212 0.3145,0.27259 -0.016,0.25139 l 0,0 c -0.48,0.54807 -0.7938,0.86871 -1.5501,0.91592 -1.2102,0.0491 -2.4132,-0.027 -3.6148,-0.18096 -1.4374,-0.15754 -2.8736,-0.32619 -4.3011,-0.55924 -1.5109,-0.24752 -3.0194,-0.51024 -4.524,-0.79387 -1.5571,-0.29245 -3.1149,-0.58311 -4.6623,-0.92421 -1.5066,-0.33598 -3.0146,-0.67066 -4.5007,-1.09016 -1.3544,-0.40327 -2.6929,-0.85677 -4.003,-1.38816 -1.2641,-0.50699 -2.5168,-1.04148 -3.7634,-1.5899 -1.2051,-0.53575 -2.4012,-1.09223 -3.5741,-1.69574 -1.1924,-0.61706 -2.3746,-1.25361 -3.5491,-1.90422 -1.2744,-0.71121 -2.5466,-1.42699 -3.7907,-2.19058 -1.3118,-0.82143 -2.5988,-1.68046 -3.8388,-2.60787 -1.2708,-0.9419 -2.5356,-1.89192 -3.7764,-2.87316 -1.3109,-1.03857 -2.6085,-2.09394 -3.8738,-3.18787 -1.2585,-1.08274 -2.5088,-2.17503 -3.7622,-3.26364 -1.208,-1.05694 -2.4173,-2.11232 -3.6277,-3.16641 -1.1773,-1.02827 -2.3445,-2.06809 -3.529,-3.08804 -1.1215,-0.96523 -2.2407,-1.93376 -3.3965,-2.85807 -1.1232,-0.89917 -2.2455,-1.79978 -3.3848,-2.67851 -1.1747,-0.8946 -2.3676,-1.765 -3.594,-2.58778 -1.3785,-0.93582 -2.7672,-1.85675 -4.1304,-2.81469 -1.316,-0.9393 -2.6214,-1.89324 -3.9395,-2.82951 -1.3472,-0.94362 -2.7055,-1.87106 -4.0628,-2.79997 -1.3787,-0.95589 -2.7582,-1.9108 -4.1554,-2.83947 -1.5624,-1.04291 -3.1379,-2.06575 -4.7017,-3.10661 -1.4463,-0.98344 -2.8762,-1.99133 -4.2415,-3.08588 -0.8862,-0.69868 -1.7695,-1.4014 -2.669,-2.08289 -0.4896,-0.37005 -0.995,-0.72134 -1.4659,-1.115 C 1001.277,521.87781 1002.1382,520.33362 1004.1691,521.46626 Z"
       inkscape:connector-curvature="0" />
    <path
       style="fill:#c7a544;fill-opacity:1;fill-rule:nonzero;stroke:none"
       id="path938"
       d="m 1049.7089,550.67494 c 0.6198,0.0575 1.2025,0.30393 1.7719,0.54008 0.8544,0.36355 1.6788,0.79296 2.488,1.24708 0.8895,0.51418 1.7611,1.05824 2.647,1.57862 0.8874,0.52279 1.7869,1.02372 2.6989,1.50205 0.9976,0.52844 2.0072,1.03354 3.0178,1.53646 1.1163,0.56635 2.2489,1.09929 3.3833,1.62829 1.3395,0.62299 2.6841,1.23474 4.0286,1.84686 1.3471,0.61614 2.6945,1.23161 4.036,1.86001 1.2822,0.59716 2.561,1.20184 3.8366,1.81305 1.224,0.58582 2.4427,1.18279 3.6541,1.79422 1.1599,0.5894 2.3235,1.17137 3.494,1.73935 1.1265,0.5413 2.2542,1.0801 3.3841,1.61437 1.1018,0.52749 2.2164,1.02736 3.3322,1.52451 1.0602,0.46616 2.1285,0.91366 3.1964,1.36202 1.0165,0.42227 2.0438,0.81778 3.0775,1.19557 0.9843,0.35521 1.9702,0.70585 2.9586,1.04949 0.8778,0.28961 1.7649,0.54992 2.4945,1.13435 0.2023,0.80838 0.061,0.45749 0.3769,1.0702 0.2286,0.0692 0.176,0.24304 -0.053,0.17381 l 0,0 c -0.6235,0.32857 -0.2947,0.12293 -0.9642,0.65083 -0.938,0.0224 -1.8043,-0.31072 -2.6806,-0.61509 -1.0097,-0.34 -2.0194,-0.68049 -3.0219,-1.04139 -1.0649,-0.39274 -2.126,-0.7958 -3.1734,-1.23392 -1.0974,-0.44637 -2.1914,-0.9013 -3.2712,-1.38902 -1.1288,-0.51237 -2.2542,-1.03227 -3.3766,-1.5585 -1.1321,-0.54115 -2.2674,-1.07546 -3.4014,-1.61278 -1.1865,-0.56954 -2.3637,-1.15794 -3.5352,-1.75772 -1.1947,-0.60192 -2.3994,-1.18346 -3.6095,-1.75369 -1.2703,-0.60208 -2.5396,-1.20655 -3.8145,-1.799 -1.3419,-0.61752 -2.6894,-1.2229 -4.0324,-1.83823 -1.357,-0.62683 -2.715,-1.25187 -4.0551,-1.91431 -1.1348,-0.56778 -2.2594,-1.15531 -3.3877,-1.73587 -1.0212,-0.53123 -2.0396,-1.06774 -3.0452,-1.62828 -0.9282,-0.52276 -1.8589,-1.04221 -2.7648,-1.60329 -0.8664,-0.53748 -1.7211,-1.09339 -2.5814,-1.64062 -0.7232,-0.44932 -1.4519,-0.8904 -2.2136,-1.27235 -0.4558,-0.22862 -0.922,-0.4399 -1.3628,-0.69652 C 1046.9125,551.83043 1047.3802,550.0598 1049.7089,550.67494 Z"
       inkscape:connector-curvature="0" />
  </g>
  <g
     inkscape:groupmode="layer"
     id="layer2"
     inkscape:label="Body"
     style="display:inline"
     transform="translate(-131.23833,-340.55949)">
    <path
       style="fill:#825511;fill-opacity:1;fill-rule:nonzero;stroke:none"
       id="path810"
       d="m 336.01124,406.64916 c 1.49382,-0.24779 3.00086,-0.31436 4.51229,-0.28619 3.18367,0.12269 6.25943,0.97328 9.28821,1.89483 4.49115,1.39449 8.69342,3.5076 12.78035,5.80206 4.64904,2.60766 8.81327,5.91281 12.67723,9.56072 4.1896,3.96986 7.16426,8.84945 9.65691,13.99947 2.57435,5.69294 3.67643,11.81799 4.2433,17.99426 0.49246,6.29038 -0.3284,12.51715 -1.75498,18.62913 -1.43236,5.74389 -4.08828,10.96407 -7.53331,15.73769 -3.33702,4.42382 -7.8883,7.27112 -12.89992,9.42349 -5.4184,2.11219 -11.15559,2.53409 -16.90458,2.28266 -6.20967,-0.39328 -11.76307,-2.90643 -17.04747,-6.00259 -5.70604,-3.45951 -10.56786,-7.99492 -14.9173,-13.01205 -3.9934,-4.70412 -6.46637,-10.19616 -7.88414,-16.14759 -1.02082,-5.86619 -0.29231,-11.83637 0.34726,-17.70361 0.0684,-4.21189 0.12057,-2.0738 -0.17397,-6.41384 0.89139,-2.15082 -0.74395,-2.82857 -1.63532,-0.67775 l 0,0 c -3.49393,3.33308 -1.97513,1.4975 -4.57323,5.49277 -2.61024,6.88393 -3.56053,13.96014 -2.02158,21.25317 1.774,7.23478 4.74966,13.94985 9.6146,19.68166 4.96004,5.72077 10.51429,10.87448 17.02752,14.80786 6.4946,3.72359 13.30985,6.71003 20.89733,7.16729 7.04335,0.3034 14.04534,-0.30767 20.64167,-3.00266 6.38309,-2.81989 12.16982,-6.52947 16.42398,-12.19361 4.08047,-5.69694 7.29572,-11.89471 8.99231,-18.73904 1.64396,-7.01649 2.58668,-14.17001 2.00572,-21.39197 -0.69176,-7.20906 -2.06549,-14.33171 -5.16495,-20.9374 -2.98685,-6.07007 -6.64166,-11.74116 -11.64214,-16.37376 -4.41304,-4.05105 -9.15655,-7.71414 -14.4215,-10.608 -4.66818,-2.52997 -9.48441,-4.81134 -14.63965,-6.17261 -3.78397,-0.96464 -7.63819,-1.76639 -11.56715,-1.64653 -2.2947,0.12949 -4.62792,0.35164 -6.7279,1.36529 C 325.4343,403.58937 327.83471,409.80623 336.01124,406.64916 Z"
       inkscape:connector-curvature="0" />
    <path
       style="fill:#825511;fill-opacity:1;fill-rule:nonzero;stroke:none"
       id="path814"
       d="m 372.31875,433.17126 c 0.17738,0.32589 0.37542,0.63886 0.58298,0.94642 0.396,0.57113 0.84381,1.10378 1.29554,1.63106 0.58707,0.69074 1.20394,1.35507 1.82941,2.01094 0.70141,0.74472 1.42739,1.46531 2.16001,2.17909 0.68594,0.66633 1.37704,1.32724 2.06734,1.98902 0.52638,0.51071 1.0671,1.00675 1.58569,1.52541 0.5536,0.58813 0.68695,0.73932 0.39553,1.53754 0.16497,0.15466 0.0474,0.2801 -0.11759,0.12544 l 0,0 c -0.77957,0.34493 -0.94176,0.21357 -1.56096,-0.30523 -0.54777,-0.48897 -1.07425,-1.00127 -1.61368,-1.49937 -0.70383,-0.65901 -1.4023,-1.32379 -2.09865,-1.99069 -0.75752,-0.73343 -1.50383,-1.47831 -2.21629,-2.25598 -0.63774,-0.69787 -1.27245,-1.39939 -1.86288,-2.13828 -0.479,-0.60523 -0.9534,-1.21645 -1.3558,-1.87647 -0.25179,-0.42994 -0.50073,-0.87071 -0.63208,-1.35482 C 370.08803,431.66803 371.62946,431.14394 372.31875,433.17126 Z"
       inkscape:connector-curvature="0" />
    <path
       style="fill:#825511;fill-opacity:1;fill-rule:nonzero;stroke:none"
       id="path818"
       d="m 383.15007,446.08805 c 0.0767,0.34808 0.0855,0.70706 0.0977,1.06203 0.0104,0.42048 0.0138,0.84059 -0.004,1.26087 -0.0171,0.50456 -0.16983,0.97422 -0.39486,1.42103 -0.27782,0.49996 -0.70477,0.86854 -1.166,1.19239 -0.53292,0.37139 -1.14496,0.54174 -1.77773,0.64172 -0.71118,0.0826 -1.42509,0.0147 -2.13015,-0.0859 -0.69264,-0.1088 -1.37463,-0.2738 -2.04571,-0.47518 -0.63157,-0.19183 -1.23415,-0.45879 -1.81344,-0.7728 -0.53259,-0.28976 -0.99248,-0.68155 -1.4246,-1.10206 -0.37658,-0.37813 -0.69118,-0.8094 -0.97897,-1.25702 -0.26934,-0.42754 -0.46841,-0.89096 -0.62137,-1.37107 -0.14805,-0.48571 -0.191,-0.98797 -0.17211,-1.49278 0.033,-0.52297 0.20969,-1.01275 0.42451,-1.48504 0.19613,-0.38082 0.45181,-0.70068 0.84546,-0.87607 0.53763,0.0981 0.30462,0.0977 0.69622,0.0627 0.0793,-0.0894 0.14724,-0.0291 0.0679,0.0603 l 0,0 c 0.0646,0.34646 -0.006,0.14998 0.31887,0.53937 0.0875,0.34309 -0.009,0.66898 -0.12426,0.998 -0.1043,0.25485 -0.22098,0.50993 -0.25396,0.78617 -0.0152,0.2704 0.0115,0.53925 0.0901,0.79946 0.10141,0.31149 0.23383,0.61104 0.41315,0.88632 0.21083,0.32122 0.43646,0.63374 0.70832,0.90693 0.2922,0.28936 0.61118,0.55217 0.97541,0.74686 0.46002,0.24334 0.94101,0.44248 1.44049,0.59046 0.58016,0.17244 1.17022,0.30735 1.76648,0.41177 0.51262,0.0848 1.03026,0.16188 1.55157,0.13756 0.3392,-0.0307 0.67086,-0.0954 0.96913,-0.26931 0.21444,-0.12824 0.42389,-0.26748 0.56427,-0.47997 0.13449,-0.20891 0.21936,-0.43851 0.26363,-0.68352 0.0539,-0.35177 0.1031,-0.70439 0.0957,-1.06153 7.9e-4,-0.31085 -0.0165,-0.62154 -0.008,-0.93226 C 381.31409,444.10857 382.94037,443.94913 383.15007,446.08805 Z"
       inkscape:connector-curvature="0" />
    <path
       style="fill:#825511;fill-opacity:1;fill-rule:nonzero;stroke:none"
       id="path820"
       d="m 353.01218,476.7838 c 0.66431,-0.28823 1.32728,-0.58095 1.98838,-0.87719 1.14052,-0.51021 2.2854,-1.01045 3.43399,-1.50221 1.08115,-0.46014 2.16277,-0.91912 3.25104,-1.36222 0.88869,-0.38846 1.81001,-0.66764 2.77404,-0.7729 0.96351,-0.073 1.75568,0.29334 2.45527,0.92404 0.57119,0.59252 0.90253,1.34972 1.26591,2.0754 0.222,0.47013 0.49345,0.89899 0.92039,1.20224 0.46814,0.28337 1.01318,0.33431 1.54646,0.37538 0.72055,0.0483 1.44136,0.004 2.15855,-0.0668 0.69055,-0.0777 1.37569,-0.19461 2.0634,-0.29291 0.62863,-0.10694 1.25809,-0.11915 1.88727,-0.0221 0.74307,0.13771 1.26789,0.58496 1.68149,1.19265 0.35598,0.61061 0.52102,1.30217 0.677,1.98464 0.0956,0.49277 0.19282,0.98732 0.44732,1.42515 0.22882,0.35239 0.56059,0.60947 0.89823,0.8502 0.38681,0.27 0.8215,0.4577 1.18873,0.75517 0.33409,0.33194 0.21173,0.54599 0.1361,1.0196 0.13476,0.0666 0.0841,0.16905 -0.0506,0.10246 l 0,0 c -0.36251,0.36133 -0.45669,0.56817 -0.9483,0.45895 -0.52284,-0.17527 -0.98652,-0.48637 -1.4472,-0.78372 -0.56919,-0.41476 -1.09477,-0.88577 -1.44792,-1.50533 -0.30721,-0.59654 -0.51019,-1.22575 -0.63855,-1.88493 -0.11586,-0.47867 -0.22174,-0.96359 -0.40623,-1.42165 -0.0886,-0.18525 -0.16726,-0.32628 -0.38271,-0.37691 -0.42916,-0.0753 -0.86056,-0.0281 -1.28707,0.0492 -0.72441,0.13946 -1.44669,0.29702 -2.18245,0.3664 -0.83863,0.0824 -1.68262,0.13789 -2.52456,0.0659 -0.89681,-0.0936 -1.77774,-0.26902 -2.52298,-0.81238 -0.62036,-0.50612 -1.10148,-1.11003 -1.438,-1.84139 -0.27176,-0.53921 -0.52005,-1.09691 -0.87672,-1.58714 -0.2648,-0.30287 -0.55131,-0.45505 -0.9675,-0.41625 -0.77914,0.0904 -1.50389,0.38867 -2.2149,0.70879 -1.06983,0.48806 -2.14543,0.96332 -3.22652,1.42594 -1.15325,0.4977 -2.30037,1.01032 -3.46655,1.47738 -0.81718,0.31825 -1.64758,0.66728 -2.52777,0.75446 C 351.0092,478.75716 350.79218,477.06923 353.01218,476.7838 Z"
       inkscape:connector-curvature="0" />
    <path
       style="fill:#825511;fill-opacity:1;fill-rule:nonzero;stroke:none"
       id="path822"
       d="m 332.41197,504.23493 c -0.10287,1.07066 -0.40466,2.1129 -0.68119,3.14898 -0.47087,1.80369 -1.03295,3.58019 -1.64227,5.34127 -0.91078,2.50655 -1.97751,4.95241 -3.03333,7.40019 -1.35231,3.07427 -2.70597,6.14768 -4.01732,9.2397 -1.50554,3.52551 -2.84498,7.11703 -4.1359,10.72549 -1.4028,4.00527 -2.70272,8.04524 -4.00877,12.08274 -1.35651,4.19285 -2.68386,8.39512 -3.97025,12.61001 -1.24454,4.14475 -2.46886,8.29546 -3.71285,12.44039 -1.14865,3.91213 -2.25241,7.83699 -3.39294,11.75151 -1.0374,3.54124 -2.089,7.07848 -3.15953,10.60986 -0.83694,2.83662 -1.66741,5.67227 -2.72972,8.43381 -0.44883,1.74332 -1.78564,2.56828 -2.8979,3.81717 -0.22066,0.71939 -0.76764,0.55162 -0.54698,-0.16777 l 0,0 c -0.22042,-1.6384 -0.8811,-3.06075 -0.31929,-4.74547 0.58638,-2.90063 1.40827,-5.73927 2.22473,-8.58235 0.99459,-3.55207 2.01307,-7.09748 3.03075,-10.64299 1.13668,-3.92354 2.27503,-7.84658 3.42029,-11.76762 1.21703,-4.16831 2.45673,-8.32989 3.71763,-12.48515 1.30537,-4.23811 2.64646,-8.46476 4.0576,-12.66902 1.34462,-4.07654 2.68653,-8.15498 4.15643,-12.18854 1.35907,-3.67268 2.78664,-7.31991 4.3552,-10.90894 1.35637,-3.09457 2.7736,-6.16116 4.21821,-9.21548 1.09353,-2.35081 2.19735,-4.69763 3.21508,-7.08263 0.69055,-1.64699 1.34522,-3.3083 1.95402,-4.98738 0.33028,-0.93607 0.62662,-1.88492 0.98151,-2.81154 C 330.35502,499.74495 333.27181,500.39872 332.41197,504.23493 Z"
       inkscape:connector-curvature="0" />
    <path
       style="fill:#825511;fill-opacity:1;fill-rule:nonzero;stroke:none"
       id="path832"
       d="m 328.94729,523.63078 c 0.83897,0.0864 1.66476,0.27083 2.49484,0.41685 1.30858,0.22974 2.62691,0.39561 3.94481,0.56083 1.67886,0.21851 3.36063,0.4122 5.04281,0.60303 1.89134,0.20117 3.78356,0.39467 5.67785,0.56603 1.99344,0.17699 3.98843,0.33598 5.98356,0.49252 2.03732,0.15925 4.07593,0.29985 6.11584,0.42113 2.0877,0.11701 4.17861,0.14692 6.26912,0.15495 2.08292,0.003 4.16493,-0.0678 6.2449,-0.17269 2.28522,-0.12426 4.5624,-0.3544 6.83545,-0.61535 2.46,-0.28223 4.90397,-0.67989 7.33997,-1.12003 2.603,-0.46745 5.1809,-1.05983 7.75109,-1.67975 2.64188,-0.65147 5.28459,-1.29949 7.92813,-1.94419 2.11214,-0.51286 4.2248,-1.02358 6.33757,-1.53382 1.65968,-0.41658 3.31745,-0.84069 4.97751,-1.25575 1.41212,-0.36261 2.82644,-0.71664 4.24456,-1.05504 1.15108,-0.27555 2.3003,-0.55903 3.44835,-0.84696 1.1017,-0.27326 2.20497,-0.54009 3.30509,-0.81971 1.10551,-0.27894 2.21624,-0.53624 3.32909,-0.784 1.06423,-0.24733 2.13208,-0.47786 3.20131,-0.70237 0.99636,-0.208 1.99455,-0.40637 2.99596,-0.58843 0.88313,-0.15916 1.76187,-0.34321 2.64739,-0.48857 1.03005,-0.13612 1.23783,0.58888 1.66266,1.41883 0.2279,-0.056 0.27045,0.11732 0.0426,0.17328 l 0,0 c -0.0498,0.96093 0.0137,1.71523 -1.02919,1.97742 -0.87789,0.18852 -1.76395,0.33642 -2.64685,0.4993 -0.97833,0.19193 -1.95848,0.37489 -2.93314,0.58503 -1.05628,0.21479 -2.11055,0.43923 -3.16627,0.65675 -1.07629,0.23241 -2.15235,0.46662 -3.21771,0.74606 -1.10562,0.2797 -2.2134,0.55017 -3.32114,0.82132 -1.1523,0.28452 -2.30033,0.58589 -3.45121,0.87604 -1.40504,0.35609 -2.81173,0.70575 -4.21699,1.061 -1.65924,0.42605 -3.3161,0.86115 -4.97529,1.2874 -2.10448,0.55152 -4.20899,1.103 -6.31529,1.64751 -2.65737,0.68078 -5.31755,1.35146 -7.9946,1.95133 -2.64755,0.58777 -5.29719,1.17003 -7.97146,1.62564 -2.51583,0.42256 -5.03809,0.80876 -7.57499,1.08338 -2.35329,0.25055 -4.71238,0.45186 -7.07778,0.54356 -2.13421,0.0804 -4.26925,0.13699 -6.40518,0.13404 -2.16295,10e-4 -4.32647,-0.0259 -6.48495,-0.17933 -2.0556,-0.14084 -4.10872,-0.3147 -6.16242,-0.48056 -2.01427,-0.15965 -4.02827,-0.32419 -6.03964,-0.51721 -1.91745,-0.19477 -3.83384,-0.40023 -5.74514,-0.64914 -1.70755,-0.21233 -3.41284,-0.44537 -5.11323,-0.70913 -1.37434,-0.22575 -2.74703,-0.46556 -4.10801,-0.76262 -0.90279,-0.21705 -1.82562,-0.42942 -2.65407,-0.86167 C 324.82656,525.13638 325.6107,522.59947 328.94729,523.63078 Z"
       inkscape:connector-curvature="0" />
    <path
       style="fill:#825511;fill-opacity:1;fill-rule:nonzero;stroke:none"
       id="path834"
       d="m 318.43976,522.58595 c -0.68,0.0546 -1.36301,-0.0376 -2.04024,-0.0971 -0.75811,-0.0737 -1.51695,-0.13872 -2.27542,-0.20811 -0.90197,-0.0587 -1.79853,-0.17187 -2.69456,-0.28738 -0.90592,-0.1342 -1.81389,-0.25144 -2.72262,-0.36445 -0.91007,-0.10563 -1.82185,-0.19529 -2.73253,-0.29528 -0.95259,-0.10269 -1.90216,-0.23086 -2.85176,-0.35764 -1.00485,-0.14574 -2.00792,-0.30296 -3.0103,-0.46467 -1.14218,-0.17731 -2.27901,-0.38273 -3.41258,-0.60823 -1.33928,-0.27057 -2.66993,-0.58065 -3.99844,-0.89929 -1.62594,-0.37536 -3.23567,-0.8152 -4.84994,-1.2366 -1.81129,-0.50058 -3.60877,-1.04988 -5.39013,-1.648 -1.83158,-0.61153 -3.6025,-1.37755 -5.3465,-2.20205 -1.75397,-0.84164 -3.45079,-1.79507 -5.12043,-2.79179 -1.5246,-0.92513 -3.00683,-1.91749 -4.47171,-2.93383 -1.41464,-0.95768 -2.7167,-2.06055 -3.97119,-3.2163 -1.33413,-1.23247 -2.50664,-2.61873 -3.62873,-4.04242 -1.12701,-1.46614 -2.12585,-3.02348 -3.07572,-4.60828 -0.92332,-1.55468 -1.77189,-3.15102 -2.58345,-4.76628 -0.79439,-1.59243 -1.50454,-3.22451 -2.20633,-4.85922 -0.68389,-1.5907 -1.32551,-3.1992 -1.95239,-4.81308 -0.63061,-1.61762 -1.20621,-3.25547 -1.75474,-4.90247 -0.51099,-1.55452 -0.99361,-3.11799 -1.44516,-4.69076 -0.4204,-1.44105 -0.79026,-2.89561 -1.12861,-4.35786 -0.33597,-1.47257 -0.59872,-2.96016 -0.84234,-4.45034 -0.24041,-1.49728 -0.40427,-3.00511 -0.55596,-4.51347 -0.1374,-1.42653 -0.23151,-2.85676 -0.30578,-4.28781 -0.0635,-1.32168 -0.0798,-2.64471 -0.0615,-3.96759 0.0261,-1.14597 0.0529,-2.2922 0.13977,-3.43538 0.0579,-1.28841 0.44978,-2.34207 1.19652,-3.37551 0.3552,-0.12122 0.7104,-0.24244 1.0656,-0.36367 0.069,-0.41102 0.38155,-0.35854 0.31252,0.0525 l 0,0 c 0.29506,0.23686 0.59012,0.47373 0.88519,0.71059 0.37057,1.01362 0.59038,2.005 0.56503,3.09689 0.0198,1.11961 -0.007,2.23881 -0.0232,3.35834 -0.009,1.22711 0.0226,2.45413 0.0906,3.67946 0.0899,1.37053 0.19077,2.74047 0.32733,4.10725 0.14563,1.42507 0.29689,2.85012 0.51817,4.26584 0.2244,1.40046 0.46726,2.7985 0.77385,4.18365 0.31569,1.38299 0.67623,2.75499 1.09016,4.11207 0.45354,1.5179 0.936,3.02669 1.43886,4.52899 0.52721,1.58067 1.07599,3.15381 1.68333,4.70582 0.61008,1.56741 1.22183,3.13449 1.88757,4.67937 0.66882,1.55634 1.33966,3.11277 2.09294,4.63068 0.76686,1.52496 1.56731,3.03293 2.43577,4.50294 0.85337,1.44403 1.70832,2.89211 2.72972,4.22626 0.95813,1.26511 1.97473,2.48843 3.13316,3.57736 1.09943,1.03106 2.23878,2.01772 3.50483,2.8428 1.39546,0.95464 2.81263,1.87807 4.26427,2.74538 1.56376,0.92663 3.1412,1.83308 4.77809,2.62594 1.59104,0.76643 3.20677,1.48421 4.88344,2.04529 1.71936,0.58925 3.44322,1.16566 5.17861,1.70619 1.54344,0.49204 3.10165,0.93657 4.66418,1.36393 1.27718,0.3303 2.55299,0.66775 3.84252,0.94746 1.07926,0.239 2.15965,0.47628 3.25062,0.65642 0.97756,0.17075 1.95487,0.34356 2.93532,0.497 0.91266,0.14978 1.82682,0.28995 2.74379,0.41101 0.91126,0.11904 1.82171,0.24425 2.73463,0.35066 0.92502,0.11214 1.84787,0.24242 2.7702,0.37473 0.85503,0.12413 1.71219,0.23279 2.56811,0.35045 0.75435,0.0854 1.50879,0.16993 2.26285,0.25783 0.62859,0.0704 1.26333,0.12207 1.88246,0.2528 C 322.82487,519.62068 322.64715,522.81969 318.43976,522.58595 Z"
       inkscape:connector-curvature="0" />
    <path
       style="fill:#6b4c37;fill-opacity:1;fill-rule:nonzero;stroke:none"
       id="path848"
       d="m 303.18892,609.10619 c 1.24174,-0.43552 2.55191,-0.64016 3.84439,-0.86445 2.42279,-0.39766 4.86019,-0.69604 7.29485,-1.00977 3.71034,-0.49317 7.41595,-1.01978 11.12774,-1.50218 4.23712,-0.53902 8.48269,-1.00958 12.72866,-1.47284 3.88448,-0.41829 7.77137,-0.81388 11.66024,-1.18894 3.34381,-0.3084 6.68877,-0.6044 10.03446,-0.89166 2.51422,-0.22651 5.02834,-0.45142 7.54414,-0.65993 1.82357,-0.14968 3.6495,-0.29014 5.47864,-0.34614 1.91386,-0.0937 3.48805,0.54748 4.90199,1.79575 1.45682,1.52769 2.10757,3.49811 2.58234,5.50625 0.45232,2.2251 0.47824,4.50102 0.45799,6.76203 -0.0613,1.95212 -0.17333,3.90288 -0.32271,5.85018 -0.10143,1.53196 -0.26985,3.05607 -0.5267,4.56955 -0.27176,1.52826 -0.74128,3.0096 -1.26561,4.46723 -0.65343,1.75483 -1.43553,3.45778 -2.20464,5.16391 -0.99643,2.20252 -1.99818,4.40263 -2.99982,6.60279 -1.23373,2.70434 -2.44483,5.41883 -3.65573,8.13346 -1.41925,3.20089 -2.78159,6.4265 -4.17889,9.63697 -1.48856,3.35322 -2.94076,6.72224 -4.38877,10.09311 -1.29189,2.31649 -1.82426,5.35812 -3.68833,7.34593 -0.394,0.42016 -0.9129,0.70265 -1.36935,1.05397 -0.30654,0.39607 -0.61308,0.79214 -0.91963,1.1882 -0.44123,0.9779 -1.18476,0.64241 -0.74352,-0.33548 l 0,0 c 0.091,-0.48493 0.18195,-0.96986 0.27293,-1.45479 -0.0601,-0.56387 -0.20898,-1.12527 -0.1803,-1.69161 0.13784,-2.72203 1.89067,-5.23506 2.64955,-7.78146 1.40846,-3.41298 2.86073,-6.80761 4.36935,-10.17762 1.43105,-3.21518 2.87072,-6.42657 4.3592,-9.61569 1.25975,-2.71096 2.53143,-5.41639 3.83948,-8.10446 1.05618,-2.17471 2.12862,-4.34141 3.20278,-6.50728 0.77915,-1.58858 1.57996,-3.16915 2.25775,-4.80462 0.47673,-1.23873 0.91608,-2.49576 1.13807,-3.80926 0.23851,-1.39623 0.35468,-2.80659 0.43635,-4.22017 0.1136,-1.87949 0.20331,-3.76099 0.25303,-5.64329 0.0264,-1.99211 0.0146,-3.99435 -0.2956,-5.96752 -0.252,-1.33736 -0.55628,-2.69648 -1.39892,-3.80171 -0.66007,-0.7325 -1.4599,-0.92307 -2.44249,-0.86677 -1.77104,0.0951 -3.51986,0.39725 -5.28621,0.55014 -2.51009,0.25638 -5.02158,0.49603 -7.53308,0.7378 -3.33097,0.33733 -6.66232,0.67079 -9.99059,1.03414 -3.87241,0.41323 -7.74469,0.82781 -11.61486,1.26165 -4.23298,0.48083 -8.46407,0.9779 -12.69743,1.45538 -3.74058,0.41106 -7.48219,0.81939 -11.2324,1.13336 -2.40925,0.18473 -4.82234,0.3184 -7.22882,0.53696 -1.22322,0.13005 -2.44251,0.29802 -3.66759,0.40714 C 300.41303,612.46613 299.81109,609.89786 303.18892,609.10619 Z"
       inkscape:connector-curvature="0" />
    <path
       style="fill:#6b4c37;fill-opacity:1;fill-rule:nonzero;stroke:none"
       id="path850"
       d="m 354.81784,678.94905 c 1.3271,-0.8729 2.72721,-1.63061 4.12063,-2.39096 2.53984,-1.353 5.14229,-2.58181 7.82561,-3.6214 1.90247,-0.38208 0.94003,-0.25777 2.88759,-0.37078 0.87369,-0.46393 1.22643,0.20036 0.35274,0.66429 l 0,0 c -1.18766,1.55236 -0.5427,0.82412 -1.93356,2.18587 -2.39182,1.63477 -4.91476,3.05597 -7.5324,4.29937 -1.50395,0.7053 -3.0069,1.44653 -4.59363,1.94862 C 352.374,683.14629 351.24701,680.43128 354.81784,678.94905 Z"
       inkscape:connector-curvature="0" />
    <path
       style="fill:#6b4c37;fill-opacity:1;fill-rule:nonzero;stroke:none"
       id="path856"
       d="m 280.17676,611.62272 c 0.0844,1.07762 -0.20932,2.14077 -0.50705,3.16574 -0.55066,1.80853 -1.52066,3.4381 -2.51231,5.03258 -1.24032,1.92842 -2.56745,3.79906 -3.87244,5.68382 -1.42381,2.04254 -2.8401,4.0903 -4.26431,6.13257 -1.46573,2.07871 -2.9523,4.14258 -4.42917,6.21336 -1.40065,2.0022 -2.78933,4.01281 -4.1694,6.02926 -1.32342,1.91926 -2.64097,3.84253 -3.95072,5.77115 -1.17811,1.77924 -2.40074,3.52812 -3.63103,5.27146 -1.10676,1.59327 -2.16932,3.21652 -3.23482,4.83748 -0.99552,1.48614 -1.99043,2.97255 -2.98412,4.4599 -0.73927,1.10896 -1.48043,2.21664 -2.21646,3.32776 -0.56483,0.87506 -1.13866,1.74187 -1.78274,2.5608 -0.81954,1.00578 -1.78811,1.87333 -2.79076,2.69081 -1.62674,1.28613 -3.37212,2.41118 -5.13437,3.50012 -2.24547,1.38664 -4.56828,2.63984 -6.90888,3.85659 -2.44494,1.26369 -4.94827,2.40831 -7.47346,3.50092 -2.34827,1.00106 -4.70897,1.97259 -7.07499,2.93081 -2.22597,0.89948 -4.46655,1.76199 -6.70819,2.62147 -2.10892,0.81627 -4.22803,1.60557 -6.34532,2.39973 -1.8168,0.66619 -3.62879,1.34503 -5.43531,2.0386 -1.41412,0.5325 -2.8342,1.04666 -4.26957,1.51879 -1.04292,0.35263 -2.11301,0.60117 -3.13759,1.00624 -0.73576,0.29329 -1.46654,0.59951 -2.1966,0.90682 -0.40474,0.20798 -0.87027,0.29099 -1.25671,0.52464 0.33482,-0.16358 0.41193,-0.52497 0.51494,-0.83318 0.64677,0.46294 1.32221,0.88261 2.01068,1.28259 1.11831,0.65301 2.28461,1.21615 3.46692,1.74205 1.18614,0.54861 2.4254,0.95297 3.68288,1.29941 1.26166,0.34056 2.5504,0.56022 3.83994,0.76284 1.24644,0.1925 2.50758,0.27639 3.68901,0.74045 0.85441,0.5636 0.44791,0.14161 0.87932,1.52205 0.39574,0.0511 0.35687,0.35203 -0.0389,0.3009 l 0,0 c -0.76908,1.22571 -0.26805,0.92116 -1.23953,1.24801 -1.29183,0.14873 -2.56484,-0.10136 -3.84275,-0.28871 -1.42701,-0.22369 -2.85497,-0.45876 -4.25203,-0.83211 -1.43538,-0.40587 -2.83686,-0.91 -4.17736,-1.56966 -1.29258,-0.60934 -2.58416,-1.22654 -3.80509,-1.97271 -1.1312,-0.7159 -2.28834,-1.46465 -3.00985,-2.62611 -0.57661,-1.23847 -0.56137,-2.51574 0.63363,-3.38549 0.55912,-0.33132 1.14821,-0.60937 1.76519,-0.81655 0.74405,-0.27169 1.48789,-0.54468 2.22657,-0.83053 1.02645,-0.40053 1.9797,-0.94675 2.98394,-1.39808 1.3758,-0.63196 2.76892,-1.22297 4.17211,-1.79172 1.80736,-0.71551 3.61902,-1.41993 5.42992,-2.12641 2.10474,-0.81795 4.20973,-1.63525 6.31649,-2.44801 2.21404,-0.8547 4.42689,-1.71292 6.62153,-2.6166 2.32944,-0.96301 4.6513,-1.9446 6.96328,-2.94881 2.4378,-1.08036 4.86289,-2.19076 7.23921,-3.40166 2.27322,-1.16533 4.52988,-2.36394 6.73774,-3.64976 1.66087,-0.96444 3.32,-1.93894 4.89849,-3.03497 0.81294,-0.59893 1.62043,-1.21727 2.27138,-1.99701 0.58513,-0.73747 1.08044,-1.53663 1.59767,-2.32217 0.73012,-1.11516 1.45504,-2.2337 2.18206,-3.35089 0.97489,-1.50113 1.94756,-3.00362 2.92843,-4.50084 1.08692,-1.63963 2.18121,-3.27442 3.28769,-4.90093 1.19344,-1.75314 2.38257,-3.5091 3.56423,-5.27021 1.31102,-1.93943 2.61339,-3.88482 3.94717,-5.80874 1.40283,-2.02199 2.79429,-4.05196 4.21354,-6.06249 1.46649,-2.07307 2.9472,-4.13595 4.42196,-6.20314 1.44675,-2.02892 2.89919,-4.05383 4.36163,-6.07147 1.3145,-1.81722 2.6315,-3.63296 3.89384,-5.48709 0.90064,-1.34282 1.78397,-2.70489 2.43896,-4.18867 0.29624,-0.7169 0.56998,-1.44018 0.75151,-2.19537 C 277.52306,607.99503 280.243,608.0454 280.17676,611.62272 Z"
       inkscape:connector-curvature="0" />
  </g>
  <g
     inkscape:groupmode="layer"
     id="layer3"
     inkscape:label="Magic"
     style="display:inline"
     transform="translate(-131.23833,-340.55949)">
    <path
       style="fill:#cbd3ea;fill-opacity:1;fill-rule:nonzero;stroke:none"
       id="path838"
       d="m 459.69755,510.36049 c 0.0596,-0.71723 0.25272,-1.41618 0.41885,-2.11438 0.21848,-0.9687 0.5786,-1.89006 1.00346,-2.78448 0.46465,-0.93803 1.02614,-1.81916 1.64134,-2.66419 0.65922,-0.88655 1.4432,-1.66522 2.26533,-2.39877 0.81617,-0.7499 1.71277,-1.39725 2.64664,-1.99048 0.96777,-0.59999 2.00629,-1.06986 3.06337,-1.487 1.07098,-0.4174 2.182,-0.70906 3.30972,-0.92208 1.26079,-0.23885 2.54432,-0.27074 3.82332,-0.25885 1.40993,0.0208 2.8121,0.16524 4.20333,0.38692 1.53268,0.25323 3.02133,0.70383 4.49394,1.18856 1.51979,0.5045 3.02743,1.04551 4.52272,1.61841 1.616,0.62985 3.2268,1.27309 4.83239,1.92899 1.84505,0.74023 3.65903,1.55157 5.45212,2.40907 1.72545,0.85127 3.45166,1.70065 5.1839,2.53808 1.66086,0.79999 3.3654,1.50115 5.08541,2.16215 1.84613,0.7111 3.75361,1.23565 5.67051,1.71461 2.16421,0.51335 4.35713,0.89155 6.55991,1.19304 2.55988,0.34072 5.14172,0.44755 7.72088,0.50857 2.94075,0.0601 5.87916,-0.0436 8.81304,-0.23611 3.28779,-0.23703 6.56023,-0.64235 9.8344,-1.01625 3.28404,-0.36671 6.57314,-0.68406 9.86407,-0.98158 2.9776,-0.27994 5.96086,-0.48782 8.9469,-0.65124 2.97629,-0.1585 5.95516,-0.25705 8.93523,-0.30096 3.0812,-0.0708 6.158,0.0706 9.22867,0.31054 3.06152,0.26095 6.10268,0.70762 9.14001,1.16323 3.19463,0.47498 6.38084,1.00088 9.55348,1.60542 3.30144,0.61888 6.55032,1.47196 9.77413,2.40734 3.11562,0.93251 6.18532,2.00907 9.25855,3.07078 3.13371,1.09072 6.28646,2.12475 9.44366,3.14503 2.94132,0.96344 5.90709,1.84867 8.90249,2.62753 3.08123,0.83415 6.24112,1.23596 9.41695,1.46736 3.89322,0.20302 7.79413,0.14361 11.69047,0.092 4.10624,-0.0693 8.2121,-0.15939 12.31807,-0.24317 3.69245,-0.0792 7.38523,-0.14018 11.07792,-0.20656 3.34924,-0.0546 6.6973,-0.15672 10.04494,-0.27131 3.28655,-0.10309 6.56911,-0.2878 9.84907,-0.51578 3.36319,-0.26598 6.72518,-0.54644 10.08861,-0.8095 3.15348,-0.24154 6.309,-0.45476 9.46364,-0.68017 3.21252,-0.22704 6.41779,-0.54161 9.62309,-0.85145 3.25646,-0.31979 6.51759,-0.58736 9.77949,-0.84443 2.8119,-0.21124 5.62547,-0.39969 8.43986,-0.57427 2.40694,-0.14482 4.81581,-0.25385 7.22507,-0.35126 2.25755,-0.0912 4.51595,-0.15798 6.77499,-0.19726 1.77616,-0.0324 3.55263,-0.0288 5.32896,-0.0183 1.29121,-0.006 2.58271,0.002 3.8736,-0.0303 1.00648,-0.0178 2.01104,-0.0871 3.01237,-0.18748 0.95378,-0.0995 1.90077,-0.24759 2.84583,-0.40808 0.9249,-0.16241 1.83793,-0.38277 2.74931,-0.60726 0.79464,-0.19445 1.59045,-0.38416 2.38509,-0.57868 0.53321,-0.11691 1.05556,-0.27421 1.58139,-0.41874 0.29671,-0.20107 -0.50826,0.65421 -0.59932,0.83067 -0.16883,0.49203 -0.0706,0.92333 0.1488,1.36198 -0.38904,-0.19607 -0.77224,-0.41292 -1.15899,-0.61674 -0.73741,-0.38957 -1.47222,-0.78411 -2.20205,-1.18771 -0.78995,-0.45204 -1.58504,-0.89427 -2.38549,-1.3274 -0.8099,-0.44154 -1.64449,-0.83466 -2.46973,-1.24608 -1.12225,-0.53304 -1.86964,-1.17665 -1.91517,-2.44756 0.005,-0.28054 0.011,-0.56109 0.0165,-0.84163 -0.27811,-0.16905 -0.14958,-0.38051 0.12853,-0.21146 l 0,0 c 0.244,-0.13558 0.48799,-0.27115 0.73199,-0.40673 1.03722,-0.54511 1.88395,-0.34674 2.88931,0.22917 0.85823,0.43633 1.72854,0.84929 2.57265,1.31303 0.81567,0.44134 1.62255,0.89844 2.42582,1.36193 0.72209,0.40609 1.4464,0.80829 2.16287,1.22428 0.6345,0.36547 1.28182,0.72113 1.84067,1.19932 0.78571,0.76656 1.22194,1.65602 0.95559,2.77564 -0.41019,0.91124 -1.01068,1.53562 -1.98398,1.82846 -0.59397,0.1895 -1.20509,0.32096 -1.81157,0.46383 -0.7932,0.18475 -1.58569,0.37296 -2.37598,0.56974 -1.00031,0.23754 -2.00484,0.45638 -3.01907,0.62678 -1.05138,0.18152 -2.10747,0.34273 -3.17129,0.43099 -1.07734,0.0816 -2.15604,0.12455 -3.23618,0.14742 -1.28982,0.0458 -2.57761,0.1351 -3.86608,0.20826 -1.77146,0.12016 -3.54349,0.23333 -5.31736,0.31202 -2.24358,0.10241 -4.48817,0.1782 -6.73243,0.26345 -2.36459,0.0967 -4.72903,0.20604 -7.08821,0.39747 -2.79189,0.22317 -5.58158,0.47263 -8.37146,0.71944 -3.24511,0.28651 -6.48819,0.59498 -9.73156,0.90049 -3.24313,0.28858 -6.48873,0.5485 -9.73851,0.75084 -3.1368,0.2122 -6.27297,0.43507 -9.40494,0.71091 -3.38303,0.28939 -6.76442,0.60215 -10.1524,0.82968 -3.3303,0.21944 -6.66337,0.38944 -9.99862,0.51394 -3.36489,0.12222 -6.73058,0.21503 -10.09633,0.31021 -3.68902,0.11031 -7.37749,0.23779 -11.06632,0.3542 -4.12847,0.12717 -8.25762,0.23681 -12.38804,0.27504 -4.04783,0.0352 -8.1029,0.071 -12.14173,-0.24844 -3.43064,-0.33137 -6.83577,-0.85755 -10.16463,-1.77351 -3.07144,-0.81305 -6.1189,-1.70943 -9.14506,-2.67808 -3.19935,-1.02452 -6.38711,-2.08516 -9.54599,-3.22928 -2.97953,-1.07003 -5.95568,-2.1569 -8.99231,-3.05704 -3.10178,-0.88904 -6.22803,-1.69214 -9.39481,-2.31771 -3.11184,-0.62091 -6.2311,-1.20458 -9.36825,-1.68455 -2.92644,-0.46897 -5.85733,-0.92959 -8.81223,-1.18073 -2.94012,-0.23127 -5.88749,-0.35261 -8.83744,-0.30096 -2.92136,0.0379 -5.84212,0.11403 -8.75993,0.26816 -2.92842,0.16511 -5.85345,0.38075 -8.76986,0.69737 -3.26462,0.33503 -6.5273,0.68896 -9.78734,1.06607 -3.35373,0.37002 -6.70874,0.74683 -10.07802,0.9457 -3.06218,0.15022 -6.12965,0.22804 -9.19473,0.10928 -2.72942,-0.11494 -5.45683,-0.30143 -8.16056,-0.70818 -2.33458,-0.36135 -4.66063,-0.78225 -6.94905,-1.37557 -2.06245,-0.54177 -4.10545,-1.15696 -6.09153,-1.93833 -1.79882,-0.71655 -3.58273,-1.4727 -5.3261,-2.31645 -1.73639,-0.82883 -3.45391,-1.69623 -5.18859,-2.52871 -1.73285,-0.83641 -3.48241,-1.63746 -5.25476,-2.387 -1.55777,-0.67145 -3.12258,-1.327 -4.6994,-1.95254 -1.44451,-0.55409 -2.89627,-1.08819 -4.35369,-1.60738 -1.28867,-0.43323 -2.58588,-0.85072 -3.92561,-1.09817 -1.22453,-0.20075 -2.45764,-0.34474 -3.69925,-0.37904 -1.0404,-0.0277 -2.08702,-0.0356 -3.11607,0.14574 -0.91395,0.17601 -1.81757,0.40338 -2.68495,0.74645 -0.85448,0.33813 -1.69584,0.71252 -2.4835,1.18933 -0.7677,0.48551 -1.50074,1.02045 -2.16015,1.64814 -0.64187,0.5933 -1.29,1.18602 -1.81497,1.8897 -0.49889,0.65551 -0.93285,1.35416 -1.28628,2.0993 -0.32775,0.67903 -0.62655,1.37016 -0.78874,2.11062 -0.16057,0.62647 -0.3077,1.25778 -0.50731,1.87323 C 462.19286,515.24877 458.92358,514.6603 459.69755,510.36049 Z"
       inkscape:connector-curvature="0" />
    <path
       style="fill:#cbd3ea;fill-opacity:1;fill-rule:nonzero;stroke:none"
       id="path840"
       d="m 762.11921,506.02749 c -0.44879,-0.41155 -0.94108,-0.76828 -1.45008,-1.10068 -0.79367,-0.49212 -1.65841,-0.85213 -2.53081,-1.17764 -0.99249,-0.34928 -2.02626,-0.55462 -3.0647,-0.708 -1.08952,-0.15306 -2.18745,-0.14446 -3.28121,-0.0574 -1.18221,0.10853 -2.33553,0.39838 -3.47686,0.71269 -1.15542,0.30256 -2.28172,0.69415 -3.38805,1.14158 -1.17636,0.47205 -2.30219,1.05545 -3.42131,1.64748 -1.21608,0.65923 -2.40323,1.37044 -3.58419,2.0902 -1.17115,0.75331 -2.36333,1.46994 -3.59162,2.12597 -1.17691,0.60325 -2.36376,1.18666 -3.56062,1.74925 -1.17013,0.59714 -2.41453,0.9834 -3.6742,1.33452 -1.26848,0.39644 -2.54518,0.72533 -3.86958,0.84905 -1.19626,0.1253 -2.39644,0.14364 -3.59651,0.0836 -1.05524,-0.0747 -2.11304,-0.10201 -3.16924,-0.15936 -1.03432,-0.0788 -2.06632,-0.18008 -3.1013,-0.25158 -1.26505,-0.0963 -2.53415,-0.0634 -3.80082,-0.0299 -1.56392,0.0444 -3.12832,0.0694 -4.69265,0.0937 -1.63807,0.007 -3.27581,0.0278 -4.91353,0.0619 -1.53896,0.0442 -3.07775,0.0863 -4.61575,0.15686 -1.40423,0.0596 -2.79605,0.24106 -4.18531,0.44269 -1.34496,0.225 -2.69528,0.41463 -4.05054,0.56518 -1.32973,0.17665 -2.66899,0.21576 -4.00838,0.20127 -1.46054,-0.0363 -2.90276,-0.27712 -4.33293,-0.55801 -1.58553,-0.31122 -3.12449,-0.80188 -4.62988,-1.3817 -1.35016,-0.53184 -2.62445,-1.22798 -3.87722,-1.95481 -1.09302,-0.64284 -2.16104,-1.32705 -3.22315,-2.01941 -0.93362,-0.61574 -1.89649,-1.1817 -2.90585,-1.66325 -1.11029,-0.5243 -2.30295,-0.81165 -3.49709,-1.0682 -1.59056,-0.3104 -3.20875,-0.42982 -4.82281,-0.54117 -1.84026,-0.12114 -3.68355,-0.18201 -5.52566,-0.26541 -1.65086,-0.0676 -3.29997,-0.16962 -4.95007,-0.25206 -1.46143,-0.0677 -2.92329,-0.12528 -4.38521,-0.18124 -1.34507,-0.0481 -2.68991,-0.10256 -4.03521,-0.14397 -1.20022,-0.0475 -2.40154,-0.0644 -3.60262,-0.0591 -1.12246,-0.0282 -2.23331,0.12317 -3.33717,0.30649 -1.18554,0.20996 -2.37722,0.38117 -3.57039,0.54101 -1.25111,0.15607 -2.50627,0.27463 -3.76509,0.34466 -1.32977,0.0816 -2.66225,0.0432 -3.99187,-0.0168 -1.35473,-0.0727 -2.70683,-0.18901 -4.05672,-0.32307 -1.2596,-0.12591 -2.51819,-0.26056 -3.77844,-0.37995 -0.66591,-0.25848 -2.4083,0.23841 -2.88565,-0.42881 -0.23495,-0.3284 -0.28921,-0.75402 -0.43382,-1.13103 -0.39946,-0.0317 -0.37537,-0.33541 0.0241,-0.30372 l 0,0 c 0.20262,-0.34946 0.32342,-0.76156 0.60788,-1.04838 0.58244,-0.5873 2.24841,0.18875 2.94944,0.0574 1.2649,0.11238 2.52914,0.2319 3.79362,0.34885 1.30313,0.12081 2.60516,0.25958 3.91257,0.3269 1.23867,0.0585 2.47882,0.0936 3.71878,0.0511 1.18093,-0.0498 2.3604,-0.13142 3.53105,-0.30116 1.16951,-0.15541 2.33594,-0.33174 3.50047,-0.52097 1.24037,-0.19029 2.48594,-0.35863 3.74185,-0.39902 1.24187,-0.0277 2.48397,-0.0163 3.72575,0.0139 1.35248,0.0359 2.70517,0.0635 4.05733,0.11084 1.47087,0.0491 2.9414,0.1058 4.4117,0.16994 1.6446,0.0646 3.28962,0.11901 4.93448,0.17655 1.88172,0.0594 3.7634,0.14091 5.64124,0.27732 1.75068,0.1471 3.50132,0.33054 5.21911,0.71247 1.41086,0.31663 2.81041,0.70147 4.11442,1.34064 1.10977,0.5391 2.17897,1.15153 3.21377,1.82394 1.02909,0.64831 2.02945,1.34315 3.09406,1.9341 1.1403,0.63168 2.3022,1.22635 3.52162,1.6927 1.35278,0.52236 2.73426,0.96406 4.15525,1.26268 1.24812,0.26923 2.50573,0.51459 3.78625,0.55348 1.21418,0.028 2.42825,-0.0252 3.63642,-0.15174 1.31638,-0.1537 2.62852,-0.33858 3.93629,-0.55415 1.47365,-0.24104 2.95626,-0.42942 4.44631,-0.53371 1.57058,-0.11723 3.14448,-0.17912 4.7186,-0.22646 1.64984,-0.0475 3.30033,-0.0617 4.9506,-0.0878 1.57472,-0.0144 3.14962,-0.0367 4.72439,-0.0208 1.35035,0.0297 2.70205,0.0601 4.0471,0.19334 1.03304,0.10647 2.06493,0.22438 3.09583,0.34976 1.01597,0.12419 2.03332,0.2505 3.05652,0.29602 1.00144,0.0457 2.0076,0.0401 2.98478,-0.2183 1.15294,-0.32581 2.32661,-0.57504 3.4656,-0.95026 1.09914,-0.40492 2.17849,-0.86767 3.24611,-1.34909 1.13103,-0.53537 2.25551,-1.08718 3.3342,-1.72316 1.15745,-0.67554 2.29881,-1.37665 3.42472,-2.10372 1.23177,-0.78332 2.46854,-1.56164 3.76485,-2.23551 1.22033,-0.64614 2.4636,-1.24992 3.74539,-1.76556 1.22567,-0.488 2.469,-0.93203 3.74271,-1.27931 1.34425,-0.35936 2.70304,-0.68383 4.09433,-0.79346 1.3335,-0.0915 2.67306,-0.0974 3.99917,0.0974 1.26332,0.19258 2.5201,0.44259 3.72108,0.89158 1.10164,0.4196 2.18636,0.8927 3.16743,1.55504 0.76631,0.52759 1.54663,1.0814 2.07285,1.86481 C 766.97455,507.30866 764.57864,509.17863 762.11921,506.02749 Z"
       inkscape:connector-curvature="0" />
    <path
       style="fill:#cbd3ea;fill-opacity:1;fill-rule:nonzero;stroke:none"
       id="path842"
       d="m 691.95967,488.0767 c -0.95712,0.0614 -1.91212,-0.0107 -2.87323,0.0334 -1.53197,0.0583 -3.06489,0.0972 -4.59673,0.17008 -1.91313,0.0675 -3.81989,0.23067 -5.7175,0.47955 -1.90426,0.23076 -3.78914,0.58536 -5.67271,0.94223 -1.79242,0.35391 -3.57943,0.73373 -5.37216,1.08631 -2.06278,0.39282 -4.11751,0.82574 -6.17877,1.22636 -2.36155,0.47895 -4.68146,1.03287 -7.09719,0.80852 -0.40694,-0.005 -0.81389,-0.009 -1.22084,-0.0141 -0.8789,0.15285 -0.99511,-0.51541 -0.11621,-0.66826 l 0,0 c 0.3815,-0.14181 0.76301,-0.28363 1.14451,-0.42545 2.18717,-1.02306 4.54501,-1.2866 6.90762,-1.69888 2.0557,-0.38661 4.10722,-0.7939 6.15397,-1.22529 1.78674,-0.37692 3.56671,-0.78432 5.34654,-1.19252 1.92886,-0.42732 3.8718,-0.79414 5.82972,-1.06162 1.97009,-0.23061 3.94553,-0.4312 5.93121,-0.44978 1.59724,-0.0147 3.21048,-0.0534 4.79125,0.21097 0.99055,0.18695 2.03403,0.28532 2.95298,0.71613 C 693.56928,487.29383 693.35682,488.35613 691.95967,488.0767 Z"
       inkscape:connector-curvature="0" />
    <path
       style="fill:#cbd3ea;fill-opacity:1;fill-rule:nonzero;stroke:none"
       id="path844"
       d="m 590.70774,501.96864 c -0.89965,0.25018 -1.80339,0.49066 -2.70831,0.72248 -1.69522,0.4273 -3.3933,0.84307 -5.09701,1.23528 -2.03736,0.4731 -4.02598,1.09836 -6.08601,1.47293 -1.85305,0.3487 -3.72355,0.58323 -5.59928,0.76628 -2.01661,0.19082 -4.04249,0.22393 -6.06658,0.22866 -1.95066,-0.0592 -3.90289,-0.10441 -5.85229,-0.19953 -1.62441,-0.12321 -3.25586,-0.0283 -4.88357,-0.0126 -1.43871,-0.0425 -2.85937,0.16813 -4.28924,0.26479 -1.35175,0.13043 -2.6999,0.0673 -4.04827,-0.0557 -1.32528,-0.13651 -2.65178,-0.24123 -3.97373,-0.40928 -1.69224,-0.22891 -3.37879,-0.49994 -5.06394,-0.77597 -2.04479,-0.37852 -3.11512,-0.1803 -4.53611,-1.85459 -0.81587,-0.13015 -0.71691,-0.75048 0.0989,-0.62033 l 0,0 c 1.88946,-1.14972 2.8284,-0.60853 4.89825,-0.31311 1.66535,0.27803 3.32632,0.58162 4.99167,0.85984 1.26983,0.20436 2.53583,0.4463 3.81869,0.55392 1.27361,0.11651 2.54961,0.20352 3.82146,0.33823 1.41186,0.10804 2.8166,0.2561 4.23555,0.13722 1.63981,-0.066 3.28261,-0.0649 4.91786,-0.20643 1.94753,-0.117 3.89993,-0.13846 5.8495,-0.2093 1.95213,-0.0193 3.90654,-0.0326 5.85459,-0.17212 1.80573,-0.15873 3.59709,-0.42246 5.37486,-0.77879 2.03123,-0.37692 4.0888,-0.54272 6.11368,-0.95199 1.71797,-0.35616 3.43599,-0.71507 5.16563,-1.01063 0.92758,-0.14848 1.85963,-0.28184 2.79241,-0.39016 C 592.25266,500.23101 592.52391,501.61189 590.70774,501.96864 Z"
       inkscape:connector-curvature="0" />
    <path
       style="fill:#cbd3ea;fill-opacity:1;fill-rule:nonzero;stroke:none"
       id="path942"
       d="m 879.01199,415.41582 c 0.44636,-0.7116 1.16249,-1.17052 1.86797,-1.59242 1.19103,-0.67674 2.49944,-1.06627 3.82939,-1.35643 1.89374,-0.37993 3.82467,-0.34549 5.74177,-0.2318 2.3234,0.1725 4.61214,0.61703 6.87742,1.14446 2.6227,0.62332 5.15281,1.54737 7.64293,2.5675 2.75093,1.13151 5.3473,2.58321 7.8624,4.16161 2.63782,1.68248 5.04666,3.67976 7.36834,5.76804 2.52156,2.29279 4.70549,4.90572 6.73753,7.63184 2.08873,2.87066 3.79804,5.98563 5.40114,9.14541 1.55236,3.09842 2.84673,6.31324 4.00842,9.57531 1.1315,3.14317 1.83488,6.40495 2.33177,9.70095 0.4617,3.16176 0.4549,6.35562 0.24549,9.53557 -0.2166,3.21121 -1.02802,6.31161 -2.09828,9.33184 -1.18624,3.22708 -2.96165,6.16236 -4.94207,8.9538 -2.1851,3.01411 -4.87558,5.58116 -7.71134,7.96971 -2.952,2.43138 -6.22005,4.41278 -9.61147,6.15956 -3.21278,1.64282 -6.65479,2.65819 -10.18976,3.30373 -3.4843,0.58413 -6.99003,0.3166 -10.45403,-0.23352 -3.61218,-0.62625 -7.03989,-1.91313 -10.36406,-3.42112 -3.33767,-1.5483 -6.35655,-3.64347 -9.23489,-5.91329 -2.73328,-2.19129 -5.16916,-4.70873 -7.48027,-7.33226 -2.15453,-2.44568 -3.99028,-5.13306 -5.62108,-7.94827 -1.62468,-2.86201 -2.63074,-5.98791 -3.4088,-9.16812 -0.74368,-3.22883 -0.99059,-6.53433 -1.05733,-9.83779 -0.0667,-3.34108 0.45554,-6.6324 1.21075,-9.87414 0.79551,-3.29135 2.10422,-6.4133 3.57616,-9.45089 1.38605,-2.78984 3.08313,-5.40229 4.91539,-7.91549 1.63706,-2.22545 3.55332,-4.21284 5.61384,-6.04463 1.8977,-1.66897 4.06094,-2.96093 6.32959,-4.05105 2.20278,-1.03386 4.56349,-1.58954 6.95583,-1.95665 2.38027,-0.32448 4.7806,-0.21871 7.1623,0.0113 2.30672,0.23368 4.55661,0.78804 6.7614,1.48704 2.22049,0.72749 4.28298,1.82292 6.26941,3.03723 1.88751,1.1763 3.63292,2.55547 5.29962,4.02305 1.61082,1.42167 2.97801,3.07445 4.23602,4.80787 1.23814,1.73609 2.23796,3.61927 3.14022,5.54631 0.91891,1.98742 1.54668,4.08356 2.05544,6.20753 0.51353,2.26381 0.72781,4.57698 0.87818,6.88856 0.14305,2.29681 0.12834,4.59819 0.0531,6.89686 -0.0657,2.23853 -0.35007,4.45905 -0.77299,6.65575 -0.40793,2.13354 -1.15731,4.16325 -2.11159,6.10687 -1.01416,1.98313 -2.45764,3.6732 -4.01694,5.243 -1.55029,1.51439 -3.32124,2.76362 -5.15709,3.90267 -1.83824,1.13622 -3.84292,1.91664 -5.91556,2.49701 -2.04567,0.52903 -4.15545,0.67726 -6.25848,0.75275 -1.89623,0.062 -3.78986,-0.0246 -5.67094,-0.26392 -1.92281,-0.23674 -3.70446,-0.92898 -5.39503,-1.84554 -1.90312,-1.10192 -3.4377,-2.66664 -4.8522,-4.32501 -1.58582,-1.88845 -2.73964,-4.05516 -3.71478,-6.3055 -1.09898,-2.67275 -1.57889,-5.5235 -1.95443,-8.37124 -0.33538,-2.79203 -0.46765,-5.60256 -0.51518,-8.41255 -0.0615,-2.37381 0.17187,-4.7301 0.60825,-7.05979 0.39356,-1.9661 1.06999,-3.85114 1.92481,-5.65959 0.78395,-1.63916 1.88368,-3.06642 3.16196,-4.3446 1.24935,-1.21447 2.76072,-2.03733 4.36751,-2.66979 1.56471,-0.58166 3.212,-0.72583 4.86644,-0.69052 1.65393,0.0608 3.24689,0.49221 4.79294,1.05324 1.51786,0.57452 2.90062,1.41957 4.21585,2.3585 1.31979,0.94828 2.43107,2.12713 3.46101,3.37437 1.0206,1.27627 1.87386,2.6706 2.66184,4.09865 0.78094,1.4219 1.40375,2.91994 1.98064,4.43354 0.53979,1.41948 0.95739,2.87857 1.3004,4.35659 0.30762,1.34232 0.46452,2.70934 0.51679,4.08354 0.0493,1.41112 -0.25596,2.7768 -0.68289,4.11067 -0.44104,1.32347 -1.08768,2.55453 -1.84081,3.72351 -0.78513,1.17945 -1.77148,2.19578 -2.82174,3.13828 -1.0528,0.94184 -2.25621,1.66981 -3.52109,2.28519 -1.26812,0.59455 -2.62843,0.90471 -4.00822,1.09405 -1.27308,0.16862 -2.546,0.0789 -3.80166,-0.15912 -1.25091,-0.25515 -2.33539,-0.86695 -3.32571,-1.64925 -1.02629,-0.86604 -1.72203,-2.00004 -2.30869,-3.18973 -0.5724,-1.20994 -0.89134,-2.50673 -1.10601,-3.82123 -0.19725,-1.29104 -0.14128,-2.59328 -10e-4,-3.88558 0.13741,-1.20195 0.47171,-2.3616 0.91645,-3.48246 0.42968,-1.05499 1.09281,-1.97241 1.8488,-2.81398 0.70474,-0.77244 1.56776,-1.33412 2.50677,-1.77533 0.88255,-0.39083 1.83055,-0.53927 2.78571,-0.60128 0.79166,-0.0365 1.58155,0.025 2.36498,0.13456 0.83592,0.12141 1.37209,0.35888 1.61504,1.19158 0.0629,0.12396 0.12578,0.24791 0.18867,0.37186 0.18909,0.0602 0.14335,0.20393 -0.0457,0.14377 l 0,0 c -0.10882,0.0693 -0.21763,0.13866 -0.32645,0.20798 -0.48543,0.59896 -0.96558,0.6976 -1.72574,0.61269 -0.63192,-0.0569 -1.26489,-0.11517 -1.9003,-0.0798 -0.63507,0.0429 -1.2702,0.12449 -1.85929,0.38197 -0.61952,0.28186 -1.17796,0.66168 -1.63649,1.17049 -0.54056,0.60888 -1.01502,1.27346 -1.32171,2.03341 -0.34668,0.89847 -0.59443,1.82776 -0.69289,2.78856 -0.10518,1.0509 -0.16001,2.10894 -0.005,3.15905 0.17115,1.04919 0.42929,2.0828 0.88005,3.05077 0.40039,0.83155 0.85492,1.64445 1.54545,2.2738 0.62037,0.52128 1.31349,0.90786 2.11644,1.07 0.95912,0.18119 1.93145,0.22976 2.90223,0.098 1.08896,-0.1554 2.16738,-0.3908 3.17244,-0.85326 1.03084,-0.49453 2.01286,-1.08323 2.87198,-1.84471 0.86842,-0.77738 1.6916,-1.60812 2.35273,-2.57372 0.63074,-0.9569 1.16713,-1.96898 1.53712,-3.05738 0.33711,-1.02356 0.59786,-2.06794 0.56591,-3.15564 -0.0385,-1.19495 -0.18565,-2.38076 -0.46023,-3.54587 -0.3229,-1.3564 -0.71312,-2.69491 -1.21077,-3.99862 -0.52701,-1.39249 -1.09982,-2.76943 -1.80625,-4.08208 -0.70475,-1.28111 -1.45701,-2.53922 -2.3661,-3.68834 -0.86536,-1.06883 -1.79849,-2.08266 -2.91727,-2.89438 -1.10989,-0.79842 -2.27747,-1.5175 -3.55924,-2.00961 -1.26229,-0.46558 -2.56021,-0.83219 -3.91319,-0.89241 -1.28918,-0.0342 -2.57536,0.0554 -3.79754,0.50567 -1.2525,0.48891 -2.42436,1.13489 -3.39416,2.08324 -1.04485,1.04963 -1.93631,2.22277 -2.56515,3.5725 -0.73129,1.59096 -1.28633,3.25181 -1.60308,4.9776 -0.36327,2.13191 -0.52206,4.28605 -0.40724,6.44968 0.11416,2.70424 0.30211,5.40559 0.606,8.09565 0.31699,2.56389 0.6849,5.14192 1.62643,7.56501 0.8222,1.98383 1.80666,3.89278 3.17364,5.56428 1.16132,1.39549 2.40951,2.73254 3.96901,3.69246 1.3446,0.7677 2.76693,1.33534 4.31828,1.51438 1.72503,0.20328 3.4601,0.25451 5.19616,0.18465 1.86879,-0.0782 3.74554,-0.20413 5.56706,-0.6589 1.80014,-0.49641 3.53757,-1.17866 5.13544,-2.1579 1.63915,-1.01181 3.21407,-2.12967 4.60534,-3.46939 1.33468,-1.3346 2.57844,-2.76563 3.46691,-4.44459 0.84894,-1.69269 1.5003,-3.46699 1.85139,-5.33391 0.38329,-2.04696 0.64291,-4.11419 0.71197,-6.19764 0.0778,-2.1998 0.0779,-4.40239 -0.0519,-6.6006 -0.13685,-2.14562 -0.31992,-4.29474 -0.77008,-6.40118 -0.44344,-1.93114 -0.99817,-3.83751 -1.82597,-5.64353 -0.81707,-1.76187 -1.72317,-3.48421 -2.83924,-5.07828 -1.1234,-1.56192 -2.33971,-3.05753 -3.79134,-4.33073 -1.54169,-1.35371 -3.16293,-2.61443 -4.90523,-3.70265 -1.78896,-1.08898 -3.632,-2.09908 -5.62896,-2.75882 -2.00281,-0.64565 -4.04998,-1.14727 -6.14858,-1.35869 -2.14336,-0.20197 -4.30348,-0.29804 -6.4465,-0.0233 -2.10374,0.30957 -4.18114,0.78484 -6.11578,1.69652 -2.01369,0.97752 -3.92991,2.13764 -5.60264,3.63944 -1.88076,1.70458 -3.62336,3.55444 -5.10435,5.62241 -1.697,2.38379 -3.25266,4.86649 -4.54278,7.49696 -1.36079,2.83108 -2.5716,5.73826 -3.32745,8.79641 -0.70952,2.97442 -1.21167,5.99573 -1.14155,9.06639 0.0706,3.07169 0.30052,6.14573 0.97483,9.1514 0.68987,2.88583 1.57698,5.72838 3.05251,8.32207 1.52162,2.62855 3.25796,5.12204 5.28876,7.38743 2.20415,2.45742 4.51917,4.81885 7.09851,6.88834 2.67306,2.09983 5.46929,4.04782 8.56446,5.48414 3.05337,1.39352 6.19844,2.59457 9.51279,3.20532 3.09314,0.51807 6.22366,0.78776 9.34278,0.27971 3.21547,-0.57922 6.33482,-1.53511 9.24619,-3.04454 3.16751,-1.64895 6.22615,-3.50581 9.006,-5.75986 2.63949,-2.19321 5.14845,-4.54817 7.19896,-7.31724 1.8344,-2.53296 3.48261,-5.19858 4.59308,-8.13764 1.00214,-2.73411 1.7576,-5.54611 1.9568,-8.46504 0.20294,-2.95268 0.19192,-5.91616 -0.23284,-8.85225 -0.47101,-3.09473 -1.14395,-6.1549 -2.19162,-9.11102 -1.119,-3.13543 -2.36852,-6.22465 -3.85992,-9.20379 -1.52085,-3.00946 -3.13667,-5.97704 -5.08254,-8.73765 -1.87165,-2.60108 -3.87921,-5.10363 -6.22462,-7.2994 -2.15096,-2.02692 -4.39637,-3.957 -6.88206,-5.56846 -2.36281,-1.53339 -4.79597,-2.95897 -7.38262,-4.08677 -2.34684,-1.02337 -4.73174,-1.9716 -7.20599,-2.64467 -2.11507,-0.57604 -4.25259,-1.09264 -6.4402,-1.3013 -1.72181,-0.14916 -3.45881,-0.23193 -5.17442,0.0398 -1.13549,0.20611 -2.25763,0.48868 -3.2892,1.0231 -0.48369,0.24873 -0.95813,0.51392 -1.36526,0.8795 C 879.17762,418.29914 877.72776,417.3227 879.01199,415.41582 Z"
       inkscape:connector-curvature="0" />
  </g>
</svg>
