<?xml version="1.0" encoding="UTF-8" standalone="no"?>
<!-- Created with Inkscape (http://www.inkscape.org/) -->

<svg
   xmlns:dc="http://purl.org/dc/elements/1.1/"
   xmlns:cc="http://creativecommons.org/ns#"
   xmlns:rdf="http://www.w3.org/1999/02/22-rdf-syntax-ns#"
   xmlns:svg="http://www.w3.org/2000/svg"
   xmlns="http://www.w3.org/2000/svg"
   xmlns:sodipodi="http://sodipodi.sourceforge.net/DTD/sodipodi-0.dtd"
   xmlns:inkscape="http://www.inkscape.org/namespaces/inkscape"
   width="75"
   height="75"
   id="svg2"
   version="1.1"
   inkscape:version="0.48+devel r"
   sodipodi:docname="spider_tower.svg"
   inkscape:export-filename="/home/aaron/Projects/Game-Design-Project/GamePrototype/media/spider_tower.png"
   inkscape:export-xdpi="90"
   inkscape:export-ydpi="90">
  <defs
     id="defs4" />
  <sodipodi:namedview
     id="base"
     pagecolor="#ffffff"
     bordercolor="#666666"
     borderopacity="1.0"
     inkscape:pageopacity="0.0"
     inkscape:pageshadow="2"
     inkscape:zoom="2.8"
     inkscape:cx="61.970313"
     inkscape:cy="66.564933"
     inkscape:document-units="px"
     inkscape:current-layer="layer1"
     showgrid="false"
     inkscape:window-width="1280"
     inkscape:window-height="744"
     inkscape:window-x="0"
     inkscape:window-y="27"
     inkscape:window-maximized="1"
     fit-margin-top="0"
     fit-margin-left="0"
     fit-margin-right="0"
     fit-margin-bottom="0" />
  <metadata
     id="metadata7">
    <rdf:RDF>
      <cc:Work
         rdf:about="">
        <dc:format>image/svg+xml</dc:format>
        <dc:type
           rdf:resource="http://purl.org/dc/dcmitype/StillImage" />
        <dc:title></dc:title>
        <cc:license
           rdf:resource="http://creativecommons.org/licenses/by/3.0/" />
      </cc:Work>
      <cc:License
         rdf:about="http://creativecommons.org/licenses/by/3.0/">
        <cc:permits
           rdf:resource="http://creativecommons.org/ns#Reproduction" />
        <cc:permits
           rdf:resource="http://creativecommons.org/ns#Distribution" />
        <cc:requires
           rdf:resource="http://creativecommons.org/ns#Notice" />
        <cc:requires
           rdf:resource="http://creativecommons.org/ns#Attribution" />
        <cc:permits
           rdf:resource="http://creativecommons.org/ns#DerivativeWorks" />
      </cc:License>
    </rdf:RDF>
  </metadata>
  <g
     inkscape:label="Layer 1"
     inkscape:groupmode="layer"
     id="layer1"
     transform="translate(-111.14782,-560.3293)">
    <path
       style="fill:#c7a544;stroke:#000000;stroke-width:1.25;stroke-linecap:round;stroke-linejoin:round;stroke-miterlimit:4;stroke-opacity:1;stroke-dasharray:none"
       d="m 143.02118,580.12839 -0.40212,38.40218 7.84129,2.41271 L 149.254,579.32415 Z"
       id="path3975"
       inkscape:connector-curvature="0" />
    <path
       style="fill:#c7a544;stroke:#000000;stroke-width:1.25;stroke-linecap:butt;stroke-linejoin:miter;stroke-opacity:1;stroke-miterlimit:4;stroke-dasharray:none"
       d="m 139.80425,575.50404 c 3.53768,1.12952 6.50279,2.69801 12.06351,0.20106 l 0.40211,4.22222 C 148.35758,580.41316 145.64491,583.29825 139.80425,579.92732 Z"
       id="path810"
       inkscape:connector-curvature="0"
       sodipodi:nodetypes="ccccc" />
    <path
       sodipodi:type="arc"
       style="opacity:0.42699998;fill:#000000;fill-opacity:1;fill-rule:nonzero;stroke:none;stroke-width:8.88156322;stroke-miterlimit:4;stroke-dasharray:none"
       id="path812"
       sodipodi:cx="262.85715"
       sodipodi:cy="231.6479"
       sodipodi:rx="5.7142859"
       sodipodi:ry="13.571428"
       d="m 268.57143,231.6479 a 5.7142859,13.571428 0 1 1 -11.42857,0 A 5.7142859,13.571428 0 1 1 268.57143,231.6479 Z"
       transform="matrix(0.14074099,0,0,0.14074099,104.41794,545.61597)" />
    <path
       sodipodi:type="arc"
       style="fill:#cbd3ea;fill-opacity:1;fill-rule:nonzero;stroke:none"
       id="path3971"
       sodipodi:cx="305"
       sodipodi:cy="184.50504"
       sodipodi:rx="25"
       sodipodi:ry="36.42857"
       d="m 330,184.50504 a 25,36.42857 0 1 1 -50,0 A 25,36.42857 0 1 1 330,184.50504 Z"
       transform="matrix(0.21714325,0,0,0.19593355,79.808368,532.61786)" />
    <path
       sodipodi:type="arc"
       style="opacity:0.41000001;fill:#6b4c37;fill-opacity:1;fill-rule:nonzero;stroke:none"
       id="path3973"
       sodipodi:cx="286.42856"
       sodipodi:cy="176.6479"
       sodipodi:rx="6.4285712"
       sodipodi:ry="37.142857"
       d="m 292.85713,176.6479 a 6.4285712,37.142857 0 1 1 -12.85714,0 A 6.4285712,37.142857 0 1 1 292.85713,176.6479 Z"
       transform="matrix(0.14074099,0,0,0.14074099,104.41794,544.61068)" />
    <g
       id="g4011"
       style="stroke-width:1;stroke-miterlimit:4;stroke-dasharray:none;opacity:0.631">
      <path
         sodipodi:nodetypes="cccccc"
         inkscape:connector-curvature="0"
         id="path3977"
         d="m 148.44977,581.93792 28.34925,36.59265 c -3.81942,-1.57972 -7.82532,-3.68158 -9.04763,2.01059 l -19.9048,-35.98949 8.64551,36.59267 c 3.61906,-3.04951 7.23811,-1.48744 10.85716,-0.40212"
         style="fill:none;stroke:#000000;stroke-width:1;stroke-linecap:butt;stroke-linejoin:miter;stroke-miterlimit:4;stroke-opacity:1;stroke-dasharray:none" />
      <path
         sodipodi:nodetypes="ccc"
         inkscape:connector-curvature="0"
         id="path3979"
         d="m 154.88364,614.30834 c 2.88183,-3.94015 5.76368,-2.01473 8.64552,-1.4074 1.0869,-1.93106 1.37574,-4.54617 6.03175,-3.418"
         style="fill:none;stroke:#000000;stroke-width:1;stroke-linecap:butt;stroke-linejoin:miter;stroke-opacity:1;stroke-miterlimit:4;stroke-dasharray:none" />
      <path
         sodipodi:nodetypes="ccc"
         inkscape:connector-curvature="0"
         id="path3981"
         d="m 153.27517,606.266 c 1.11001,-2.65983 3.5303,-2.26234 6.23282,-1.20635 -0.97319,-3.26836 1.9624,-3.27942 4.02117,-4.02117"
         style="fill:none;stroke:#000000;stroke-width:1;stroke-linecap:butt;stroke-linejoin:miter;stroke-opacity:1;stroke-miterlimit:4;stroke-dasharray:none" />
      <path
         sodipodi:nodetypes="ccc"
         inkscape:connector-curvature="0"
         id="path3983"
         d="m 159.50799,595.20778 c -1.70346,0.59642 -4.22782,0.20777 -3.418,3.82012 -1.60847,-2.39836 -3.21694,-0.54572 -4.82541,1.80952"
         style="fill:none;stroke:#000000;stroke-width:1;stroke-linecap:butt;stroke-linejoin:miter;stroke-opacity:1;stroke-miterlimit:4;stroke-dasharray:none" />
      <path
         sodipodi:nodetypes="ccc"
         inkscape:connector-curvature="0"
         id="path3985"
         d="m 150.25929,595.00673 c 0.31023,-1.52415 1.43964,-1.40998 2.81482,-0.80424 0.0266,-2.18964 0.58097,-3.49968 2.21164,-3.01588"
         style="fill:none;stroke:#000000;stroke-width:1;stroke-linecap:butt;stroke-linejoin:miter;stroke-opacity:1;stroke-miterlimit:4;stroke-dasharray:none" />
    </g>
    <g
       id="g4018"
       style="stroke-width:1;stroke-miterlimit:4;stroke-dasharray:none;opacity:0.522">
      <path
         sodipodi:nodetypes="cccc"
         inkscape:connector-curvature="0"
         id="path3987"
         d="m 142.61906,600.83742 -22.51855,15.28045 C 125.00379,612.88781 127.73682,615.62598 130.55555,618.12846 Z"
         style="fill:none;stroke:#000000;stroke-width:1;stroke-linecap:butt;stroke-linejoin:miter;stroke-opacity:1;stroke-miterlimit:4;stroke-dasharray:none" />
      <path
         sodipodi:nodetypes="cccc"
         style="fill:none;stroke:#000000;stroke-width:1;stroke-linecap:butt;stroke-linejoin:miter;stroke-opacity:1;stroke-miterlimit:4;stroke-dasharray:none"
         d="m 142.61906,600.83742 -4.8254,23.32279 C 137.01975,619.41832 134.54616,617.50919 130.55555,618.12846 Z"
         id="path3989"
         inkscape:connector-curvature="0" />
      <path
         inkscape:connector-curvature="0"
         id="path3991"
         d="m 142.61906,600.83742 -4.8254,23.32279 C 140.82062,620.96596 140.95915,629.32544 142.01588,634.01208 Z"
         style="fill:none;stroke:#000000;stroke-width:1;stroke-linecap:butt;stroke-linejoin:miter;stroke-opacity:1;stroke-miterlimit:4;stroke-dasharray:none"
         sodipodi:nodetypes="cccc" />
      <path
         sodipodi:nodetypes="cccc"
         inkscape:connector-curvature="0"
         id="path3993"
         d="m 128.74603,610.08612 c 6.0356,-2.47177 6.59918,-1.0537 6.23281,1.80952 1.54144,0.0643 3.08289,-2.74018 4.62434,3.21694 0.93828,0.0252 1.87655,-1.42669 2.81482,5.22752"
         style="fill:none;stroke:#000000;stroke-width:1;stroke-linecap:butt;stroke-linejoin:miter;stroke-opacity:1;stroke-miterlimit:4;stroke-dasharray:none" />
      <path
         sodipodi:nodetypes="cccc"
         inkscape:connector-curvature="0"
         id="path3995"
         d="m 132.16401,607.47235 c 3.32177,-1.28496 7.23321,-3.01219 6.43388,-1.20635 2.11318,-2.60216 1.97154,0.4327 2.01059,3.01588 0.80423,-4.25898 1.60847,2.2692 2.4127,6.03176"
         style="fill:none;stroke:#000000;stroke-width:1;stroke-linecap:butt;stroke-linejoin:miter;stroke-opacity:1;stroke-miterlimit:4;stroke-dasharray:none" />
    </g>
  </g>
</svg>
