<?xml version="1.0" encoding="UTF-8" standalone="no"?>
<!-- Created with Inkscape (http://www.inkscape.org/) -->

<svg
   xmlns:dc="http://purl.org/dc/elements/1.1/"
   xmlns:cc="http://creativecommons.org/ns#"
   xmlns:rdf="http://www.w3.org/1999/02/22-rdf-syntax-ns#"
   xmlns:svg="http://www.w3.org/2000/svg"
   xmlns="http://www.w3.org/2000/svg"
   xmlns:sodipodi="http://sodipodi.sourceforge.net/DTD/sodipodi-0.dtd"
   xmlns:inkscape="http://www.inkscape.org/namespaces/inkscape"
   width="1000"
   height="1000"
   id="svg2"
   version="1.1"
   inkscape:version="0.48+devel r"
   sodipodi:docname="01_mask.svg"
   inkscape:export-filename="/home/aaron/Projects/Game-Design-Project/GamePrototype/media/maps/01_mask.png"
   inkscape:export-xdpi="90"
   inkscape:export-ydpi="90">
  <defs
     id="defs4" />
  <sodipodi:namedview
     id="base"
     pagecolor="#ffffff"
     bordercolor="#666666"
     borderopacity="1.0"
     inkscape:pageopacity="0.0"
     inkscape:pageshadow="2"
     inkscape:zoom="1.184"
     inkscape:cx="190.31044"
     inkscape:cy="306.42617"
     inkscape:document-units="px"
     inkscape:current-layer="layer1"
     showgrid="false"
     width="0px"
     height="0px"
     fit-margin-top="0"
     fit-margin-left="0"
     fit-margin-right="0"
     fit-margin-bottom="0"
     inkscape:window-width="1280"
     inkscape:window-height="744"
     inkscape:window-x="0"
     inkscape:window-y="27"
     inkscape:window-maximized="1" />
  <metadata
     id="metadata7">
    <rdf:RDF>
      <cc:Work
         rdf:about="">
        <dc:format>image/svg+xml</dc:format>
        <dc:type
           rdf:resource="http://purl.org/dc/dcmitype/StillImage" />
        <dc:title />
      </cc:Work>
    </rdf:RDF>
  </metadata>
  <g
     inkscape:label="Layer 1"
     inkscape:groupmode="layer"
     id="layer1"
     transform="translate(0,-52.362183)">
    <path
       sodipodi:type="inkscape:offset"
       inkscape:radius="27.04022"
       inkscape:original="M 138.9375 22.9375 C 123.84815 23.092642 109.17581 26.413365 93.59375 31.53125 C 100.86117 30.875597 93.072889 37.421942 93.59375 31.53125 C 73.512042 37.928704 54.526153 47.678232 38.125 60.75 C 32.980965 65.40052 28.260228 70.068469 23.96875 75.4375 C 30.628849 75.216278 23.712246 75.50992 21.8125 78.25 C 3.9574048 102.06926 -3.877013 131.82468 -5.1875 161.34375 C -6.2482069 180.10096 -7.1246389 198.92219 -5.78125 217.6875 C -0.74089291 212.24034 -5.0123486 218.3155 -5.53125 221.46875 C -1.8753702 259.76655 4.5310169 297.76664 5.59375 336.375 C 5.617033 348.72526 8.2107367 360.92399 7.96875 373.21875 C 3.7583865 418.22498 4.0792879 463.50674 2.90625 508.65625 C 1.6672916 579.07486 1.5831934 649.51299 1.96875 719.9375 C 2.7508395 752.29015 0.91395009 784.66259 1.84375 817.03125 C 1.5080046 851.24256 2.8601716 885.84881 -2.75 919.65625 C -7.0006625 940.80752 -10.655457 962.09257 -11.125 983.65625 C -10.899598 992.24418 -9.5413312 1000.76 -6.375 1008.7188 C -2.6012106 1004.1056 -5.9471755 1009.8401 -4.78125 1012.4688 C -2.4317113 1017.7585 0.65280001 1022.721 4.0625 1027.3438 C 10.734652 1025.8789 2.1975379 1027.7142 6.34375 1030.3125 C 18.923439 1046.0536 36.372152 1058.5382 55.125 1064.4375 C 92.767733 1078.0009 134.89955 1078.4218 173.1875 1066.6875 C 212.004 1056.1058 246.44094 1035.5006 282.46875 1018.1875 C 308.37777 1008.2377 336.1972 1003.343 363.78125 1005.0938 C 385.06744 1006.6866 405.26865 1013.7312 425.3125 1020.6562 C 462.59709 1034.0623 501.98324 1039.3371 540.53125 1047.7812 C 581.18434 1055.6898 622.06781 1061.655 663.375 1064.4062 C 713.92305 1068.1829 764.629 1071.4836 815.34375 1070.25 C 865.9177 1066.8742 903.30788 1058.1658 947.53125 1029.8438 C 961.72386 1020.7165 971.00824 1005.9549 976.65625 990.25 C 981.64291 976.87981 987.72512 963.65443 988.65625 949.25 C 983.36461 951.88533 990.7036 947.74349 989.03125 942.875 C 989.88379 922.83407 987.30541 902.99827 981.875 883.78125 C 975.18689 857.04958 968.65513 829.83265 954.625 805.90625 C 940.53922 781.70765 932.83359 754.59992 921.8125 729 C 911.54531 703.74374 901.70107 678.38879 897.5625 651.3125 C 892.85861 624.3944 887.33408 597.3951 886.3125 570.09375 C 890.48483 550.86057 897.28008 531.79962 900.6875 512.15625 C 906.23105 482.3178 911.85746 452.51112 919.84375 423.34375 C 926.783 388.365 942.04639 355.72834 952.84375 321.8125 C 957.96792 306.89234 963.50824 292.90024 968.9375 278.625 C 977.17763 257.83604 980.39883 236.62171 982.96875 214.5 C 986.62818 183.44433 986.25534 151.81505 982.5625 120.84375 C 980.04906 104.73357 974.76173 88.938472 965.3125 75.53125 C 957.87285 64.264037 945.589 53.529401 932.40625 46.96875 C 927.87976 49.773538 934.04001 45.676427 927.8125 44.78125 C 912.94471 38.743846 896.66727 35.866631 880.53125 35.46875 C 885.01917 41.234783 880.93974 34.616111 876.4375 35.40625 C 839.27483 34.638703 803.09262 45.742897 769.28125 59.84375 C 734.20581 74.167322 699.91868 90.532302 662.84375 99.5 C 627.08994 109.10422 590.26904 115.28653 553.15625 115.6875 C 521.26588 114.03729 490.15233 105.58866 458.78125 99.9375 C 400.13663 88.679911 341.58273 76.849915 283.125 64.59375 C 255.4416 59.402979 228.70694 52.817521 202.34375 42.625 C 196.22534 41.043969 191.78413 36.927687 186.84375 33.3125 C 169.53319 25.792796 154.02685 22.782358 138.9375 22.9375 z M 918.375 42.78125 C 918.95285 42.824701 919.66688 43.305371 920.40625 44.53125 C 916.18973 46.320698 916.64144 42.650896 918.375 42.78125 z M 922.8125 47.4375 C 921.54717 57.853839 917.82758 47.76 922.8125 47.4375 z M 961.3125 72.21875 C 962.8504 72.420547 960.49226 74.556195 961.3125 72.21875 z M 137.4375 118.71875 C 157.49144 126.88213 177.53234 137.33394 198.40625 144.3125 C 245.96814 160.91531 296.2652 167.23773 344.8125 180.1875 C 375.83377 187.83251 407.03845 195.78811 437.625 202.78125 C 479.7008 212.20454 522.55914 221.5168 566 219.15625 C 605.14668 218.81231 644.42714 215.17677 682.09375 204.1875 C 727.07608 193.17834 769.14295 173.14021 810.3125 152.5 C 833.88483 141.38651 859.54608 131.67306 885.90625 134.40625 C 885.58081 165.7387 886.04662 197.52734 878.375 228.03125 C 874.57028 246.58085 863.74063 262.88467 857.03125 280.5625 C 844.54611 309.48613 834.18891 339.21453 827.4375 370 C 819.30748 398.88594 810.03955 427.46928 805 457.1875 C 799.34872 482.59435 795.54712 508.34951 793.40625 534.28125 C 790.89868 547.59307 787.02888 560.96714 787.65625 574.75 C 787.64725 582.20013 787.78841 589.65278 788.15625 597.09375 C 794.31546 599.29267 785.41551 597.31658 788.5625 604.75 C 791.30369 652.43181 802.05596 699.47666 819.375 743.90625 C 835.17326 787.86949 852.7397 831.73503 877.65625 871.3125 C 881.80489 891.45739 885.52616 911.97354 893.15625 931.25 C 893.32159 938.8565 892.48844 946.22328 888.5 952.84375 C 885.98277 957.35597 880.06657 957.27038 875.78125 960.125 C 864.89401 965.34951 854.11871 970.93184 841.6875 970.71875 C 818.5881 973.26048 794.99931 973.66742 771.71875 971.90625 C 733.64378 970.30033 695.54602 968.48387 657.59375 965.03125 C 631.091 961.76968 604.7707 958.82736 578.46875 952.84375 C 551.83545 946.97024 525.58591 942.12842 498.875 937.5 C 482.22135 935.06449 466.20862 931.01351 450.71875 924.34375 C 425.98709 915.54712 399.22667 910.78978 372.875 907.65625 C 317.88517 902.64645 261.56753 914.84331 214.1875 943.125 C 192.46689 955.05917 168.68568 965.18542 144.875 972.6875 C 127.11519 977.9469 108.33951 978.85465 90.3125 974.40625 C 86.618156 974.30074 84.856932 972.51789 86.4375 968.8125 C 90.052827 945.47988 95.71089 922.40732 97.34375 898.84375 C 92.796075 896.46496 99.609984 899.34922 97.625 892.6875 C 98.942172 865.48667 100.15241 838.31621 99.78125 811.0625 C 100.67566 775.61432 98.932786 740.1527 100.6875 704.71875 C 101.45365 619.70918 104.7315 534.75355 107.03125 449.78125 C 107.42485 417.68088 110.22171 384.24387 104.25 353.15625 C 102.99797 339.68626 102.83368 326.14405 101.8125 312.65625 C 94.414441 313.2578 101.62976 307.61176 101.75 311.4375 C 100.57776 282.10236 95.217907 253.22418 91.78125 224.1875 C 89.058779 200.64567 89.737379 176.50472 91.03125 153.15625 C 93.292578 144.20689 96.697325 133.77454 106.375 130.4375 C 115.94989 124.75967 126.56746 121.11886 137.4375 118.71875 z M 87.78125 198.59375 C 88.144276 198.63516 88.771784 199.21939 89.75 200.75 C 88.025738 203.1076 86.692172 198.46953 87.78125 198.59375 z M -5 201.6875 C -4.0493803 201.65442 -2.9760353 202.71952 -4.65625 204.96875 C -6.7785139 202.85183 -5.9506197 201.72058 -5 201.6875 z M 102.15625 581.125 C 102.47388 581.23891 102.81097 581.88538 103.0625 583.4375 C 100.46598 585.13774 101.20335 580.78326 102.15625 581.125 z M 97.78125 840.53125 C 98.223118 840.50936 98.802781 840.64768 99.53125 840.96875 C 98.03263 847.77417 94.688172 840.68449 97.78125 840.53125 z M 984 900.53125 C 985.16613 900.36854 986.53863 901.51546 984.59375 904.4375 C 981.87412 902.16631 982.83387 900.69396 984 900.53125 z M 890.40625 954.34375 C 891.09114 954.45625 891.69864 955.2192 891.90625 957.125 C 885.705 959.47544 888.35158 954.00625 890.40625 954.34375 z M 984.46875 961.0625 C 985.29784 960.72839 986.13492 961.28945 985.84375 964.0625 C 981.74804 964.65913 983.08693 961.61934 984.46875 961.0625 z M 12.875 1034.1875 C 13.387361 1033.9809 14.275177 1034.2911 15.625 1035.5938 C 13.136016 1039.9219 11.337917 1034.8073 12.875 1034.1875 z "
       style="fill:#000000;fill-opacity:1;fill-rule:nonzero;stroke:none"
       id="path819"
       d="m 138.65625,-4.09375 c -18.79609,0.1932531 -36.28051,4.30484921 -53.28125,9.875 -0.072,0.023591 -0.146765,0.038857 -0.21875,0.0625 A 27.042924,27.042924 0 0 0 84.25,6.1875 C 61.707572,13.506019 40.193654,24.520507 21.28125,39.59375 A 27.042924,27.042924 0 0 0 20,40.6875 C 14.283628,45.855447 8.4010917,51.609758 2.84375,58.5625 A 27.042924,27.042924 0 0 0 2.0625,59.65625 C 1.4549537,60.403768 0.84936053,61.18712 0.21875,62.0625 L 0.1875,62.03125 c -0.09103453,0.121443 -0.15941565,0.253361 -0.25,0.375 -0.11632807,0.164263 -0.22670011,0.268674 -0.34375,0.4375 L -0.375,62.875 c -21.538566,29.161179 -30.264078,63.86608 -31.78125,96.9375 l -0.03125,0 c -0.0063,0.11131 0.0063,0.23237 0,0.34375 -1.063573,18.83779 -2.048868,38.70621 -0.5625,59.46875 a 27.042924,27.042924 0 0 0 0.1875,1.71875 27.042924,27.042924 0 0 0 0.125,2.6875 c 3.779057,39.58817 10.006082,76.9854 11,113.09375 l 0.03125,0 c 0.101401,15.49804 2.392058,27.14708 2.3125,35.15625 -4.222707,46.25303 -3.886937,91.64361 -5.03125,135.6875 a 27.042924,27.042924 0 0 0 0,0.21875 c -1.244159,70.7142 -1.323715,141.36151 -0.9375,211.90625 a 27.042924,27.042924 0 0 0 0,0.5 c 0.739184,30.57779 -1.032456,62.6576 -0.125,96.1875 0.0094,0.34714 -0.01,0.68379 0,1.03125 -0.312471,34.70975 0.706883,67.53559 -4.25,97.40625 l 0.03125,0 c -4.284186,21.39564 -8.22941,43.93573 -8.75,67.84375 a 27.042924,27.042924 0 0 0 0,1.3125 c 0.287855,10.96743 2.022727,22.6971 6.65625,34.3438 a 27.042924,27.042924 0 0 0 1.34375,2.8437 c 0.245945,0.6467 0.348417,1.181 0.65625,1.875 3.254794,7.3278 7.283679,13.6927 11.40625,19.3437 0.07464,0.1321 0.110886,0.309 0.1875,0.4376 1.709899,2.8691 3.557937,4.9367 5.34375,6.5624 15.3649497,18.2756 35.482076,32.5773 58.53125,40.0626 l 0,0.031 c 0.186591,0.067 0.375751,0.1208 0.5625,0.1875 0.157443,0.05 0.31104,0.1066 0.46875,0.1563 l 0,-0.031 c 42.988473,15.231 90.09828,15.6246 133.3125,2.5625 l 0,0.031 c 0.27731,-0.075 0.53581,-0.1736 0.8125,-0.25 42.63058,-11.7709 77.91422,-32.9568 111.875,-49.375 22.34746,-8.4589 46.00417,-12.4982 68.9375,-11.0624 0.0415,0 0.0835,-0 0.125,0 16.46415,1.2875 34.2543,7.1483 54.09375,14 0.10876,0.037 0.20362,0.087 0.3125,0.125 l 0,-0.031 c 40.7606,14.609 81.28844,19.8966 118.28125,28 a 27.042924,27.042924 0 0 0 0.625,0.125 c 41.42551,8.0589 83.35256,14.1809 126,17.0313 l 0,0.031 c 0.0624,0 0.12514,-0 0.1875,0 50.66075,3.784 102.17643,7.1775 154.4375,5.9062 a 27.042924,27.042924 0 0 0 1.15625,-0.062 c 52.77369,-3.5227 97.03618,-13.8963 144.96875,-44.5938 a 27.042924,27.042924 0 0 0 0.0313,-0.031 c 20.73844,-13.337 32.8137,-33.4835 39.84375,-52.9063 0.033,-0.0916 0.061,-0.18971 0.094,-0.28125 4.4802,-11.94185 12.0173,-27.35885 13.4687,-47.8125 0.7957,-3.41223 1.1797,-7.27551 0.5,-11.65625 0.4781,-21.42267 -2.3304,-42.49765 -7.9687,-62.71875 -0.063,-0.25273 -0.1243,-0.52792 -0.1876,-0.78125 -6.5783,-26.34074 -13.40288,-55.93937 -29.9062,-84.125 -0.0185,-0.0318 -0.044,-0.0619 -0.0625,-0.0937 -11.72086,-20.17591 -19.25641,-45.88134 -31.0625,-73.40625 -0.0697,-0.17157 -0.14913,-0.32859 -0.21875,-0.5 -10.07267,-24.79971 -18.84753,-48.01555 -22.375,-71.09375 a 27.042924,27.042924 0 0 0 -0.0937,-0.5625 c -4.57951,-26.20634 -9.36956,-50.88461 -10.59375,-74.25 3.7876,-16.0391 9.99574,-34.21312 13.6875,-55.3125 0.0112,-0.0641 0.0201,-0.12334 0.0313,-0.1875 0.008,-0.0427 0.0233,-0.0823 0.0313,-0.125 5.51433,-29.67659 11.01934,-58.61814 18.59375,-86.28125 a 27.042924,27.042924 0 0 0 0.4375,-1.90625 c 6.05665,-30.52984 20.55083,-62.09827 32.03125,-98 0.0687,-0.20003 0.14984,-0.39391 0.21875,-0.59375 4.81262,-13.95586 10.15656,-27.45391 15.59375,-41.75 l -0.0313,0 c 9.5677,-24.28146 13.0287,-48.00709 15.6563,-70.625 l -0.031,0 c 3.9302,-33.37667 3.5163,-67.07101 -0.4063,-99.96875 a 27.042924,27.042924 0 0 0 -0.125,-0.96875 c -2.9509,-18.914315 -9.2731,-38.502808 -21.43745,-56.03125 L 987.875,60.625 c -0.14852,-0.224937 -0.31849,-0.432543 -0.46875,-0.65625 -10.1688,-15.139741 -24.32549,-27.378685 -40.875,-36.03125 -4.18084,-3.268522 -8.32052,-4.629064 -11.78125,-5.34375 -16.69274,-6.309399 -34.06941,-9.3562886 -51.09375,-10 -2.46217,-0.4033421 -5.29338,-0.4773041 -8.46875,-0.1875 -42.13665,-0.4969264 -81.1931,11.85126 -116.125,26.40625 -0.0598,0.0249 -0.12776,0.03759 -0.1875,0.0625 C 722.90895,49.569518 689.91283,65.136841 656.5,73.21875 a 27.042924,27.042924 0 0 0 -0.65625,0.15625 c -33.80091,9.079631 -68.11868,14.798408 -102.15625,15.25 -27.69917,-1.562774 -57.35016,-9.385622 -89.8125,-15.25 -0.10429,-0.02002 -0.20821,-0.04248 -0.3125,-0.0625 C 405.19415,62.10585 346.91216,50.332299 288.6875,38.125 a 27.042924,27.042924 0 0 0 -0.59375,-0.09375 c -26.7111,-5.008459 -51.71786,-11.237052 -76,-20.625 a 27.042924,27.042924 0 0 0 -3,-0.96875 c 1.81995,0.470286 0.32062,-0.106499 -6.28125,-4.9375 a 27.042924,27.042924 0 0 0 -5.1875,-3 C 177.32091,-0.32009344 157.53195,-4.2878216 138.65625,-4.09375 z m 779.1875,22 c 1.40067,-7.41e-4 2.98484,0.122019 4.8125,0.4375 1.68383,0.290654 3.55146,1.033902 5.4375,1.96875 a 27.042924,27.042924 0 0 0 -9.9375,3.65625 c -0.4802,0.297552 -0.77811,0.454836 -0.1875,0.125 0.29531,-0.164918 0.77746,-0.456381 2.1875,-1.0625 1.26948,-0.545699 3.00036,-1.916564 9.15625,-2.0625 0.59306,0.331116 1.16017,0.804899 1.75,1.1875 l -0.6875,4.75 c 0.61981,0.218586 1.30851,0.364041 1.875,0.625 0.8588,0.395618 1.31638,0.84069 2.0625,1.25 l 1.28125,-3.15625 c 3.02717,2.802004 5.62219,6.114674 7,9.75 1.89482,2.593911 2.6144,5.025176 3.25,6.75 1.14201,3.099065 1.66972,5.492394 1.75,7.8125 1.96257,-1.204608 4.49199,-2.33665 8.34375,-3.125 0.44758,-0.09161 0.99687,-0.07888 1.5,-0.125 -0.0185,-0.789148 -0.0156,-1.522823 -0.0937,-2.375 0.13258,0.847989 0.21612,1.642166 0.28125,2.34375 7.67108,-0.609035 20.99756,3.802826 26.21875,11.8125 0.70146,1.076091 1.02473,1.956045 1.53125,2.9375 l -18.25,12.84375 -5.8125,-2.03125 -3.53125,26.8125 C 954.48151,98.598271 949.30928,97.387718 944,92.78125 938.69072,88.174782 935.1009,79.917896 934.84375,73.75 c -0.0576,-1.381421 0.13041,-2.316937 0.1875,-3.5 -3.43569,2.215489 -7.1204,3.939628 -10.46875,4.15625 L 924.21875,68.875 c -2.56139,0.665299 -5.20385,1.075855 -7.875,0.875 C 903.71359,68.800284 898.87254,61.190179 897.25,58.5 l 19.53125,-11.78125 -20.8125,-2.53125 c -0.062,0.510778 -3.28503,-0.328141 5.25,-10.09375 2.1133,-2.41799 5.66486,-5.681132 11.53125,-7.625 L 909.84375,19.625 C 911.22799,19.037544 913.64175,17.908472 917.84375,17.90625 z m -824,40.625 a 27.042924,27.042924 0 0 0 1.125,0 C 94.617106,58.552594 94.355694,58.548671 93.84375,58.53125 z m 891.875,3.53125 c 3.16406,6.509357 2.57956,11.03781 2.3125,13.625 -0.31529,3.05437 -0.86407,4.489268 -1.21875,5.5 L 967.1875,74.28125 985.71875,62.0625 z m -959.375,40.34375 c 0.05713,-0.001 -0.06858,0.0842 -0.96875,0.0313 C 25.783777,102.42499 26.284107,102.4073 26.34375,102.40625 z m 109.125,44.96875 c 16.26987,7.09553 33.84697,15.68737 54.03125,22.46875 0.11609,0.0405 0.22766,0.0846 0.34375,0.125 51.02899,17.76106 101.93364,24.05576 148,36.34375 a 27.042924,27.042924 0 0 0 0.5,0.125 c 30.8801,7.61022 62.21511,15.6231 93.25,22.71875 a 27.042924,27.042924 0 0 0 0.125,0 c 41.83205,9.3687 86.73946,19.41693 134.53125,17.03125 0.40405,-0.004 0.81448,-0.027 1.21875,-0.0313 39.90974,-0.41681 80.84853,-4.13667 121.0625,-15.71875 0.37273,-0.10735 0.75241,-0.17255 1.125,-0.28125 l 0,-0.0313 c 47.88089,-11.87812 91.18575,-32.60864 132.1875,-53.15625 0.0611,-0.0288 0.12637,-0.0337 0.1875,-0.0625 12.63602,-5.94845 24.84909,-10.7586 36.375,-13.46875 -0.50994,20.6974 -1.78584,40.24959 -6.25,58 a 27.042924,27.042924 0 0 0 -0.28125,1.15625 c -2.35702,11.49148 -11.5843,26.34367 -19.65625,47.25 -0.15424,0.39948 -0.31542,0.72101 -0.46875,1.125 -12.58734,29.30389 -23.22099,59.80614 -30.34375,91.71875 -7.8258,27.80506 -17.26785,56.87249 -22.78125,88.625 l -0.0313,0 c -5.797,26.06198 -9.67441,52.42149 -11.9375,78.875 -2.1949,11.22609 -6.57782,25.96214 -5.96875,44.53125 l -0.0625,0 c -5e-4,0.4118 0.0309,0.83767 0.0313,1.25 0.007,7.27719 0.14048,14.63342 0.5,22.0625 -0.46627,3.97778 -0.13063,7.7515 0.625,11.125 3.15738,49.48944 14.35695,98.05822 32.15625,143.90625 0.0847,0.21821 0.16499,0.43816 0.25,0.65625 15.40307,42.81776 32.86501,86.64223 57.90625,127.53125 3.37558,16.68716 6.99437,34.76697 13.65625,53.46875 -0.66266,0.33768 -1.45286,0.85799 -2.1875,1.28125 -10.97588,5.24503 -17.41402,7.75593 -21.40625,7.6875 a 27.042924,27.042924 0 0 0 -3.4375,0.15625 c -21.42194,2.35715 -43.37061,2.72765 -64.96875,1.09375 a 27.042924,27.042924 0 0 0 -0.90625,-0.0625 c -37.83816,-1.59593 -75.35927,-3.39145 -112.40625,-6.75 -26.524,-3.2615 -51.74813,-6.14613 -75.96875,-11.65625 a 27.042924,27.042924 0 0 0 -0.1875,-0.0313 C 557.051,920.43234 530.40029,915.50499 503.5,910.84375 a 27.042924,27.042924 0 0 0 -0.71875,-0.0937 c -14.86132,-2.17339 -28.44954,-5.68444 -41.375,-11.25 a 27.042924,27.042924 0 0 0 -1.625,-0.625 c -27.63402,-9.82895 -56.31196,-14.8035 -83.71875,-18.0625 a 27.042924,27.042924 0 0 0 -0.71875,-0.0937 c -60.29445,-5.49307 -121.81978,7.72777 -174.1875,38.75 l 0,-0.0313 c -19.94479,10.95846 -42.03214,20.36837 -63.96875,27.3125 -6.6317,1.96392 -13.31768,3.06194 -19.9375,3.34375 2.86055,-15.29088 5.73915,-31.20533 7,-48.71875 0.8097,-3.70379 0.86687,-7.1223 0.5,-10.1875 1.25265,-26.02862 2.39094,-52.4723 2.0625,-79.4375 -0.004,-0.35565 0.005,-0.70667 0,-1.0625 0.86888,-36.40067 -0.77568,-71.29192 0.875,-104.625 a 27.042924,27.042924 0 0 0 0.0313,-1.09375 C 128.4801,620.49184 131.75714,535.67967 134.0625,450.5 a 27.042924,27.042924 0 0 0 0,-0.375 c 0.36953,-30.13747 3.49629,-64.49704 -2.90625,-99.875 -1.08595,-11.9244 -1.27927,-25.15253 -2.375,-39.625 a 27.042924,27.042924 0 0 0 -0.0313,-0.28125 l 0.0313,0 c -1.27391,-31.87948 -6.85803,-61.42009 -10.15625,-89.25 l 0.0313,0 c -2.30813,-19.95892 -1.91889,-41.49534 -0.78125,-63.25 0.49136,-1.59526 0.8992,-2.94238 1.15625,-3.5625 a 27.042924,27.042924 0 0 0 1.125,-0.59375 C 124.55155,151.08113 129.84251,149.09987 135.46875,147.375 Z M 91.3125,174.59375 c 1.662203,0.11901 3.25628,0.38059 4.75,0.8125 11.94976,3.45526 14.3462,9.94295 15.96875,13.28125 1.62255,3.3383 2.42282,5.28831 2.40625,10.59375 -0.008,2.65272 0.26829,6.47691 -3.59375,13.09375 -2.60832,4.46883 -9.55833,9.12672 -16.53125,11.5 -0.01271,0.004 -0.01854,0.0269 -0.03125,0.0313 -3.339021,1.13207 -6.662512,1.89327 -9.5625,1.5625 -12.302413,-1.40332 -14.240103,-6.09026 -15.8125,-7.75 -1.572397,-1.65974 -1.854432,-2.27627 -1.9375,-2.40625 L 87.375,202.28125 89.75,200.75 87.71875,199.25 67.9375,184.78125 c 1.521626,-2.08053 4.072909,-5.13058 9.15625,-7.65625 C 80.906256,175.23074 86.325892,174.23673 91.3125,174.59375 z m -76.875,11.21875 c 1.888644,1.88389 7.861826,6.99098 6.46875,19.6875 -1.393076,12.69652 -15.0101037,22.87221 -24.96875,23.21875 -9.958741,0.34655 -21.754969,-6.38867 -25.5,-17.875 -0.08861,-0.27178 -0.108458,-0.51356 -0.1875,-0.78125 0.515154,-2.80589 1.024177,-3.61379 1.15625,-3.9375 0.436451,-1.06972 -0.414492,-0.36185 -1.5,2.53125 -2.469266,-10.26919 1.879467,-17.32917 3.78125,-19.875 L -4.65625,204.96875 14.4375,185.8125 z m -0.03125,49.875 c -0.183622,0.1758 -0.41558,0.59038 -1.40625,1.375 a 27.042924,27.042924 0 0 0 1.0625,-1 C 14.48821,235.60243 14.730383,235.37718 14.40625,235.6875 z m 90.625,49.28125 c 1.53428,0.2204 3.41201,0.81844 5.625,2.15625 A 27.042924,27.042924 0 0 0 99.625,285.71875 C 100.2261,285.66987 101.9627,284.52794 105.03125,284.96875 Z M 124.9375,310.5 c 0.27416,3.00885 0.26007,5.90332 -0.34375,8.125 -1.80943,6.65752 -4.65947,9.56244 -6.90625,11.71875 -4.49357,4.31262 -7.55959,7.10402 -17.875,6.78125 -5.157703,-0.16138 -13.104338,-2.69437 -18.375,-8.46875 -5.270662,-5.77438 -6.59713,-12.50534 -6.71875,-16.375 L 101.75,311.4375 124.9375,310.5 Z M 101,556.875 c 4.3489,-0.0917 9.71092,0.81884 14.3125,3.5 12.27088,7.14976 12.88794,17.29494 13,21.71875 0.11206,4.42381 -0.27162,6.83474 -2.46875,11.34375 -1.09857,2.25451 -2.52092,5.27002 -7.375,9.0625 -4.85408,3.79248 -16.44694,7.2868 -25.4375,4.0625 C 80.750924,602.15847 78.908128,595.0493 77.71875,592.21875 76.529372,589.3882 76.459534,588.27164 76.375,587.75 l 26.6875,-4.3125 -14.8125,-22.625 c 1.642791,-1.07572 4.147102,-2.6244 8.78125,-3.53125 C 98.189787,557.05454 99.550368,556.90557 101,556.875 z m 668.53125,59.75 a 27.042924,27.042924 0 0 0 8,5.34375 C 776.18575,621.61213 773.08014,621.50927 769.53125,616.625 Z M 95.59375,817.34375 c 4.257381,-0.36025 8.586,0.0672 11.9375,1.40625 6.703,2.67812 9.79967,6.54092 11.78125,9.46875 3.96316,5.85566 5.2436,9.80858 3.875,17.90625 -0.6843,4.04884 -2.71695,9.58671 -7.46875,14.1875 -4.7518,4.60079 -11.71414,6.977 -16.59375,7.21875 -6.347675,0.31446 -9.006918,-1.15443 -10.5,-1.8125 L 97.96875,844.5 l 1.5625,-3.53125 -1.75,-0.375 -24.65625,-5.4375 c 0.291678,-1.32455 -1.130124,-7.07889 11,-14.46875 C 87.157531,818.84004 91.336369,817.704 95.59375,817.34375 z m 906.34375,66.34375 c 2.0479,1.71021 8.7418,7.10502 7.875,19.84375 -0.5897,8.66553 -6.2335,15.85226 -12.75,20.03125 a 27.042924,27.042924 0 0 0 -20.46875,1.46875 c -0.51275,0.25536 -0.83601,0.3975 0.1875,-0.0313 0.51175,-0.21437 1.1367,-0.62871 3.9375,-1.28125 1.4004,-0.32627 3.33471,-0.86027 7.40625,-0.65625 1.79502,0.09 4.4566,0.5189 7.375,1.5 -2.58657,1.43235 -5.2386,2.39958 -7.75,2.75 -9.46715,1.32095 -22.90187,-4.37051 -27.5,-16.1875 -4.59813,-11.81699 0.28641,-19.31647 1.84375,-21.65625 l 22.5,14.96875 L 1001.9375,883.6875 z m -891.71875,36.875 c -0.87746,0.55068 -1.50398,0.96583 -2.03125,1.1875 C 108.74991,921.47634 109.47775,921.0193 110.21875,920.5625 z m 780,9.84375 c 1.71488,0.16286 3.77013,0.56178 6.28125,1.3125 5.02224,1.50144 11.81735,6.08127 15.28125,12.28125 3.4639,6.19998 3.61503,12.24292 3.0625,16.21875 -1.10506,7.95165 -3.65348,10.77548 -7.09375,14.125 -3.44027,3.34952 -9.78975,8.64696 -21.71875,6.6875 -8.04335,-1.3212 -15.23635,-7.6137 -17.9375,-12.15625 -2.70115,-4.54255 -2.90088,-7.32883 -3.0625,-8.8125 L 875,958.96875 l 0.78125,1.15625 -0.5625,-1.1875 16.6875,-1.8125 -8.375,-22.0625 9.625,-3.8125 -10.09375,0.21875 C 884.13751,930.91645 886.08275,930.01346 890.21875,930.40625 Z M 986.75,937 c 2.23582,0.16705 5.14894,0.81761 8.84375,2.625 0.34816,0.17031 0.68501,0.45097 1.03125,0.65625 l -7.59375,2.59375 11.59375,0.5 c 5.2825,5.18567 9.4955,13.48491 9.5312,19.46875 0,0.17726 -0.03,0.2955 -0.031,0.46875 -0.4194,0.67599 -1.0593,1.8388 -1.2188,2.0625 -0.5649,0.79272 -0.1766,0.25207 0.375,-0.5 0.1759,-0.23981 0.5651,-0.87163 0.8126,-1.21875 -0.1407,7.20684 -2.4552,10.98602 -4.6563,14.03125 -2.2913,3.1701 -4.7137,5.9859 -10.875,8.46875 -3.68937,1.48676 -9.44943,2.77029 -16.21875,1.03125 -6.76932,-1.73904 -12.94857,-7.02144 -15.75,-11.53125 -5.60286,-9.01963 -3.81147,-12.92799 -3.65625,-14.40625 l 26.90625,2.8125 -3.90625,-26.75 C 982.94211,937.16616 984.51418,936.83295 986.75,937 z m -1017.9375,65.9688 c 0.04367,-0.2364 -0.174671,1.2845 -0.28125,1.8124 C -31.360948,1003.6314 -31.217678,1003.1321 -31.1875,1002.9688 z m 43.03125,7.4687 c 9.978326,-0.2794 19.830948,6.2105 23.0625,10.8437 3.693202,5.2952 4.534591,8.8934 4.4375,14.4688 -0.09709,5.5754 -3.069442,18.1786 -16.34375,23.5312 -9.121022,3.6779 -16.9646156,1.2125 -20.59375,-0.5 -3.6291344,-1.7124 -4.8775597,-3.0577 -5.5625,-3.7187 l 1.3125,-1.375 a 27.042924,27.042924 0 0 0 11.5625,0.094 c -0.8224014,0.066 -1.2365515,0.1523 -3.96875,0.063 -1.3718541,-0.045 -3.3481825,0.2474 -6.84375,-0.9376 l 15.1875,-15.7187 1.53125,-1.5937 -7.3125,-4.2188 a 27.042924,27.042924 0 0 0 1.28125,-0.875 c -0.4026592,0.1883 -1.2315766,0.4256 -1.71875,0.625 l -15.6875,-9 C -6.5859796,1019.9922 -3.6952475,1013.7268 7.59375,1011 9.0048747,1010.6591 10.418275,1010.4774 11.84375,1010.4375 Z" />
  </g>
</svg>
